<svg width="13" height="12" viewBox="0 0 13 12" fill="none" xmlns="http://www.w3.org/2000/svg">
<g clip-path="url(#clip0_4821_3033)">
<path d="M8.83887 9.56492C8.72871 9.47585 8.6748 9.33289 8.6748 9.18757C8.6748 9.04226 8.72974 8.89976 8.83959 8.78984L11.0678 6.56257H1.5498C1.23926 6.56257 0.987305 6.30945 0.987305 5.97898C0.987305 5.68835 1.23926 5.43757 1.5498 5.43757H11.0678L8.84051 3.21031C8.62078 2.99058 8.62078 2.63468 8.84051 2.41484C9.06023 2.195 9.41613 2.19511 9.63598 2.41484L12.8235 5.60234C13.0432 5.82207 13.0432 6.17796 12.8235 6.39781L9.63598 9.58531C9.41543 9.80398 9.05918 9.80398 8.83887 9.56492Z" fill="white"/>
</g>
<defs>
<clipPath id="clip0_4821_3033">
<rect width="12" height="12" fill="white" transform="translate(0.987305)"/>
</clipPath>
</defs>
</svg>
