<svg width="13" height="19" viewBox="0 0 13 19" fill="none" xmlns="http://www.w3.org/2000/svg">
<path fill-rule="evenodd" clip-rule="evenodd" d="M0.32978 13.7363C0.190866 13.5681 0.121409 13.374 0.121409 13.1539C0.102466 12.921 0.19718 12.5909 0.594981 12.3385L1.86415 11.5814C1.87678 11.5814 1.8831 11.5814 1.8831 11.5814C1.89573 11.5685 1.90204 11.562 1.90204 11.562C1.99675 11.5232 2.24301 11.4261 2.4135 11.4261C2.73552 11.4261 3.01967 11.562 3.2091 11.8144C3.66373 12.3191 4.14361 12.7009 4.64876 12.9598V10.7466C3.05755 10.436 1.8831 9.77592 1.16327 8.7664C0.689695 8.12574 0.424495 7.3686 0.424495 6.53381C0.386609 4.8448 1.27692 3.56348 3.0765 2.70927C3.55638 2.48925 4.08047 2.32746 4.64876 2.22392V1.19499C4.64876 0.631989 5.10338 0.166046 5.65273 0.166046H6.90296C7.4523 0.166046 7.90693 0.631989 7.90693 1.19499V2.28216C9.23293 2.57337 10.3316 3.21403 11.184 4.20414C11.3735 4.39828 11.4682 4.61183 11.4682 4.86421C11.4682 5.07776 11.3735 5.36896 11.0136 5.60193L9.61179 6.51439C9.59916 6.51439 9.58653 6.52086 9.5739 6.53381C9.53602 6.55322 9.25187 6.68911 9.02456 6.68911C8.72147 6.68911 8.45627 6.59205 8.22896 6.39791C8.12793 6.30731 8.02059 6.22318 7.90693 6.14553V7.67922C9.51707 7.97043 10.7294 8.59167 11.525 9.56237C12.0554 10.2224 12.3206 11.0378 12.3017 11.9891C12.2827 13.484 11.6197 14.6682 10.3695 15.5224C9.66862 16.0078 8.83513 16.3184 7.90693 16.4931V17.4056C7.90693 17.9686 7.4523 18.4345 6.90296 18.4345H5.65273C5.10338 18.4345 4.64876 17.9686 4.64876 17.4056V16.4931C3.56901 16.2796 2.58398 15.833 1.73155 15.1536C1.14432 14.707 0.689695 14.2217 0.32978 13.7363ZM0.765466 13.1345C0.765466 13.1734 0.784409 13.2316 0.841237 13.2898C0.841237 13.3028 0.847551 13.3157 0.86018 13.3287C1.16327 13.7752 1.59895 14.2023 2.12935 14.61C2.96284 15.2895 3.94787 15.7166 5.02761 15.8913C5.17916 15.9107 5.29281 16.0466 5.29281 16.2213V17.4056C5.29281 17.5997 5.4633 17.7744 5.65273 17.7744H6.90296C7.09239 17.7744 7.26287 17.5997 7.26287 17.4056V16.2213C7.26287 16.0466 7.37653 15.9107 7.52807 15.8913C8.49416 15.736 9.32765 15.4254 10.0096 14.9594C11.0893 14.2411 11.6197 13.251 11.6576 11.9891C11.6766 11.1931 11.4682 10.5331 11.0325 9.98947C10.2937 9.09644 9.11927 8.53343 7.52807 8.30046C7.37653 8.28105 7.26287 8.14515 7.26287 7.97043V5.56311C7.26287 5.44663 7.3197 5.34956 7.41442 5.2719C7.50913 5.21366 7.62279 5.21366 7.7175 5.25248C8.04584 5.42074 8.35525 5.63429 8.6457 5.89314C8.74673 5.97079 8.87302 6.0161 9.02456 6.02904C9.08139 6.02904 9.21399 5.9708 9.28976 5.93197L10.6726 5.03894C10.8052 4.96128 10.8052 4.88362 10.8052 4.8448C10.8052 4.80597 10.8052 4.76714 10.7294 4.68949C10.7294 4.68949 10.7231 4.68301 10.7105 4.67007C9.89593 3.71879 8.81619 3.11696 7.52807 2.88399C7.37653 2.84516 7.26287 2.70927 7.26287 2.55396V1.19499C7.26287 1.00085 7.09239 0.826123 6.90296 0.826123H5.65273C5.4633 0.826123 5.29281 1.00085 5.29281 1.19499V2.51513C5.29281 2.68986 5.17916 2.82576 5.00867 2.84517C4.4025 2.94224 3.85315 3.09755 3.36064 3.33052C1.78838 4.04883 1.04961 5.09718 1.06855 6.53381C1.0875 7.23271 1.27692 7.83453 1.67472 8.3587C2.35667 9.29057 3.4743 9.89241 5.02761 10.1254C5.17916 10.1448 5.29281 10.3001 5.29281 10.4554V13.4645C5.29281 13.581 5.25493 13.6781 5.16021 13.7363C5.0655 13.7946 4.97079 13.814 4.85713 13.7752C4.09941 13.5034 3.37958 12.9986 2.71658 12.2609C2.71658 12.248 2.71027 12.2415 2.69764 12.2415C2.62187 12.1444 2.5461 12.0862 2.4135 12.0862C2.37561 12.1056 2.26195 12.1444 2.18618 12.1638L0.935952 12.921C0.765466 13.018 0.765466 13.0957 0.765466 13.1345Z" fill="url(#paint0_linear_2564_360)"/>
<defs>
<linearGradient id="paint0_linear_2564_360" x1="4.52041" y1="5.49428" x2="10.8069" y2="15.9509" gradientUnits="userSpaceOnUse">
<stop stop-color="#119CEF"/>
<stop offset="1" stop-color="#F0B503"/>
</linearGradient>
</defs>
</svg>
