<svg width="32" height="32" viewBox="0 0 32 32" fill="none" xmlns="http://www.w3.org/2000/svg">
<path d="M3.8125 21.625C3.8125 27.3458 8.43869 32 14.125 32H17.875C23.5613 32 28.1875 27.3458 28.1875 21.625C28.1875 18.7489 27.1626 15.6279 25.3778 13.0653L21.5362 7.5H23.5V5.625H21.5017L25.2517 0H17.3733L16 2.05988L14.6267 0H6.74831L10.4983 5.625H8.5V7.5H10.4637L6.6245 13.0621C4.83737 15.6279 3.8125 18.7489 3.8125 21.625ZM13.6233 1.875L16 5.44012L18.3767 1.875H21.7482L19.2482 5.625H12.7517L10.2517 1.875H13.6233ZM12.7421 7.5H19.258L23.8369 14.1336C25.4102 16.3926 26.3125 19.1231 26.3125 21.625C26.3125 26.3119 22.5274 30.125 17.875 30.125H14.125C9.47256 30.125 5.6875 26.3119 5.6875 21.625C5.6875 19.1231 6.58987 16.3926 8.16537 14.1304L12.7421 7.5Z" fill="#FF845E"/>
<path d="M16 22.5625C15.4831 22.5625 15.0625 22.1419 15.0625 21.625H13.1875C13.1875 22.8472 13.9713 23.8893 15.0625 24.2763V26.3125H16.9375V24.2763C18.0287 23.8893 18.8125 22.8472 18.8125 21.625C18.8125 20.0742 17.5508 18.8125 16 18.8125C15.4831 18.8125 15.0625 18.3919 15.0625 17.875C15.0625 17.3581 15.4831 16.9375 16 16.9375C16.5169 16.9375 16.9375 17.3581 16.9375 17.875H18.8125C18.8125 16.6528 18.0287 15.6108 16.9375 15.2238V13.1875H15.0625V15.2238C13.9713 15.6108 13.1875 16.6528 13.1875 17.875C13.1875 19.4258 14.4492 20.6875 16 20.6875C16.5169 20.6875 16.9375 21.1081 16.9375 21.625C16.9375 22.1419 16.5169 22.5625 16 22.5625Z" fill="#FF845E"/>
</svg>
