<svg width="50" height="50" viewBox="0 0 50 50" fill="none" xmlns="http://www.w3.org/2000/svg">
<path d="M32.4087 42.0836C36.4288 38.0634 36.4288 31.5455 32.4087 27.5253C28.3885 23.5052 21.8706 23.5052 17.8504 27.5253C13.8303 31.5455 13.8303 38.0634 17.8504 42.0836C21.8706 46.1037 28.3885 46.1037 32.4087 42.0836Z" fill="#B2F0FB"/>
<path d="M41.3506 27.7017L35.0994 16.5884C36.4083 16.2924 37.389 15.1207 37.389 13.7236C37.389 12.1038 36.0711 10.786 34.4513 10.786H30.6647C32.671 9.16777 33.957 6.69043 33.957 3.91816V0.976562C33.957 0.437207 33.5197 0 32.9805 0C30.7889 0 29.6375 0.575781 28.6215 1.08369C27.6799 1.55449 26.8666 1.96113 25.1361 1.96113C23.4057 1.96113 22.5923 1.55449 21.6508 1.08369C20.6347 0.575781 19.4833 0 17.2917 0C16.7524 0 16.3151 0.437207 16.3151 0.976562V3.91816C16.3151 6.69053 17.6012 9.16777 19.6074 10.786H15.8209C14.2011 10.786 12.8832 12.1038 12.8832 13.7236C12.8832 15.1207 13.8639 16.2924 15.1728 16.5884L8.92158 27.7017C7.66455 29.9364 7 32.4729 7 35.0372C6.9999 43.2878 13.7122 50 21.9626 50H28.3095C36.5599 50 43.2722 43.2878 43.2722 35.0372C43.2722 32.4729 42.6076 29.9364 41.3506 27.7017ZM18.2683 3.91816V2.00361C19.3687 2.12637 20.0327 2.4584 20.7771 2.83066C21.7931 3.33857 22.9444 3.91436 25.1361 3.91436C27.3278 3.91436 28.4791 3.33857 29.4951 2.83066C30.2395 2.4584 30.9036 2.12637 32.0039 2.00361V3.91826C32.0039 7.05195 29.8935 9.70029 27.0197 10.5214L28.9151 7.3624C29.1926 6.9 29.0427 6.3001 28.5801 6.02256C28.1176 5.74512 27.5177 5.89502 27.2402 6.35762L25.136 9.86455L23.0318 6.35752C22.7542 5.89492 22.1544 5.74512 21.692 6.02246C21.2295 6.3 21.0796 6.8998 21.3569 7.3623L23.2523 10.5213C20.3787 9.7002 18.2683 7.05186 18.2683 3.91816ZM14.8362 13.7236C14.8362 13.1808 15.2778 12.7392 15.8208 12.7392H34.4512C34.9941 12.7392 35.4357 13.1808 35.4357 13.7236C35.4357 14.2665 34.9941 14.7082 34.4512 14.7082C33.8513 14.7082 16.6667 14.7082 15.8208 14.7082C15.2779 14.7082 14.8362 14.2666 14.8362 13.7236ZM28.3095 48.0469H21.9626C14.7892 48.0469 8.95303 42.2107 8.95303 35.0372C8.95303 32.8077 9.53076 30.6022 10.6237 28.6591L17.3725 16.6613H23.4111L21.3569 20.0852C21.0795 20.5476 21.2294 21.1475 21.692 21.425C22.1574 21.7042 22.756 21.5497 23.0318 21.0899L25.136 17.5829L27.2402 21.0899C27.5168 21.551 28.1159 21.7033 28.5801 21.425C29.0426 21.1475 29.1925 20.5477 28.9151 20.0852L26.8609 16.6613H32.8996L39.6484 28.6591C40.7414 30.6021 41.3191 32.8077 41.3191 35.0372C41.319 42.2107 35.4829 48.0469 28.3095 48.0469Z" fill="#2657F2"/>
<path d="M26.4548 33.8299C25.5464 33.5087 24.5415 33.1206 23.9766 32.6776C23.5543 32.3464 23.7282 31.1945 24.5417 30.9494C25.6321 30.6211 26.3461 31.1955 26.4072 31.2471C26.7996 31.5977 27.4022 31.5746 27.7665 31.1901C28.1374 30.7986 28.1358 30.1805 27.7443 29.8096C27.495 29.5748 26.796 29.169 26.1124 28.997V28.5267C26.1124 27.9873 25.6751 27.5501 25.1358 27.5501C24.5965 27.5501 24.1593 27.9873 24.1593 28.5267V29.0326C23.378 29.1527 22.1453 30.0319 21.8684 31.5016C21.6662 32.5743 22.0107 33.6138 22.7765 34.2145C23.411 34.7121 24.287 35.1342 25.8063 35.6714C26.838 36.0359 26.8142 36.8716 26.7566 37.214C26.6404 37.9053 26.0582 38.6525 25.0558 38.6592C24.0818 38.6668 23.777 38.6174 23.0271 38.127C22.5758 37.8318 21.9703 37.9583 21.6752 38.4096C21.38 38.8609 21.5125 39.4661 21.9639 39.7614C22.7932 40.3039 23.3779 40.5122 24.1592 40.5818V41.0844C24.1592 41.6237 24.5964 42.061 25.1357 42.061C25.675 42.061 26.1123 41.6237 26.1123 41.0844V40.4635C27.5771 40.0408 28.4786 38.781 28.6876 37.5378C28.965 35.8887 28.064 34.3986 26.4548 33.8299Z" fill="#2657F2"/>
</svg>
