<svg width="19" height="19" viewBox="0 0 19 19" fill="none" xmlns="http://www.w3.org/2000/svg">
<path fill-rule="evenodd" clip-rule="evenodd" d="M0.0732422 11.6144C0.0732422 7.59098 3.30249 4.31721 7.25607 4.31721C9.14231 4.31721 10.8475 5.05151 12.1301 6.24476L13.6542 4.69966C13.6442 4.68946 13.6391 4.67926 13.6391 4.66906L12.7639 2.31317C12.7035 2.16019 12.779 1.97661 12.945 1.91542C13.0959 1.85423 13.277 1.94602 13.3222 2.099L14.122 4.22542L14.7558 3.58291C14.7558 3.57271 14.7507 3.56251 14.7407 3.55231L13.8655 1.27291C13.8051 1.10463 13.8957 0.936351 14.0466 0.875159C14.1975 0.813967 14.3785 0.890456 14.4389 1.04344L15.2236 3.10867L16.7175 1.59416C16.8382 1.47178 17.0193 1.47178 17.14 1.59416C17.2607 1.71655 17.2607 1.90013 17.14 2.02251L15.6914 3.50642L18.0756 3.76648C18.2416 3.78178 18.3623 3.93476 18.3472 4.10304C18.3321 4.25602 18.1963 4.3784 18.0454 4.3784C18.0353 4.3784 18.0253 4.3784 18.0152 4.3784L15.1783 4.05714C15.1682 4.05714 15.1582 4.05714 15.1481 4.05714L14.3634 4.83734L17.0193 5.1433C17.1853 5.1586 17.306 5.31158 17.2909 5.47986C17.2758 5.63284 17.14 5.73992 16.9891 5.73992C16.979 5.73992 16.969 5.73992 16.9589 5.73992L14.122 5.43396C14.0315 5.41867 13.956 5.37277 13.9107 5.29628L12.5526 6.6731C13.7297 7.97343 14.454 9.70211 14.454 11.6144C14.454 15.6224 11.2247 18.8962 7.25607 18.8962C3.30249 18.8962 0.0732422 15.6224 0.0732422 11.6144ZM0.676841 11.6144C0.676841 15.2859 3.63447 18.2843 7.25607 18.2843C10.8927 18.2843 13.8504 15.2859 13.8504 11.6144C13.8504 9.87039 13.2015 8.29469 12.1301 7.10145L10.7117 8.55476C11.4058 9.36555 11.8434 10.4364 11.8434 11.6144C11.8434 14.1691 9.79118 16.2497 7.25607 16.2497C4.73604 16.2497 2.68381 14.1691 2.68381 11.6144C2.68381 9.04429 4.73604 6.96376 7.25607 6.96376C8.41799 6.96376 9.47429 7.40741 10.2741 8.11112L11.7076 6.6731C10.5306 5.58694 8.97632 4.92913 7.25607 4.92913C3.63447 4.92913 0.676841 7.92754 0.676841 11.6144ZM9.85154 8.55476C9.1574 7.94284 8.252 7.57568 7.25607 7.57568C5.06802 7.57568 3.2874 9.38085 3.2874 11.6144C3.2874 13.8326 5.06802 15.6377 7.25607 15.6377C9.4592 15.6377 11.2398 13.8326 11.2398 11.6144C11.2398 10.6047 10.8777 9.68681 10.2741 8.9831L8.84051 10.4364C9.08195 10.773 9.21776 11.1707 9.21776 11.6144C9.21776 12.7005 8.34254 13.5878 7.25607 13.5878C6.18468 13.5878 5.30946 12.7005 5.30946 11.6144C5.30946 10.5129 6.18468 9.62562 7.25607 9.62562C7.69368 9.62562 8.08602 9.7633 8.418 10.0081L9.85154 8.55476ZM7.0448 11.4002L7.98038 10.4517C7.76912 10.314 7.52769 10.2375 7.25607 10.2375C6.51666 10.2375 5.91305 10.8648 5.91305 11.6144C5.91305 12.364 6.51666 12.9759 7.25607 12.9759C7.99547 12.9759 8.61416 12.364 8.61416 11.6144C8.61416 11.339 8.53871 11.0942 8.4029 10.8801L7.46733 11.8285C7.40697 11.8897 7.33152 11.9203 7.25607 11.9203C7.18062 11.9203 7.10516 11.8897 7.0448 11.8285C6.92408 11.7061 6.92408 11.5226 7.0448 11.4002Z" fill="url(#paint0_linear_2564_352)"/>
<defs>
<linearGradient id="paint0_linear_2564_352" x1="6.67514" y1="6.11628" x2="11.4866" y2="18.2715" gradientUnits="userSpaceOnUse">
<stop stop-color="#119CEF"/>
<stop offset="1" stop-color="#F0B503"/>
</linearGradient>
</defs>
</svg>
