<svg width="32" height="32" viewBox="0 0 32 32" fill="none" xmlns="http://www.w3.org/2000/svg">
<g clip-path="url(#clip0_2457_984)">
<path d="M11.3125 23.5625C11.3125 22.3403 10.5287 21.2982 9.4375 20.9112V15.0625H13.1875V18.8125H18.8125V15.0625H22.5625V20.9112C21.4713 21.2982 20.6875 22.3403 20.6875 23.5625C20.6875 25.1133 21.9492 26.375 23.5 26.375C25.0508 26.375 26.3125 25.1133 26.3125 23.5625C26.3125 22.3403 25.5287 21.2982 24.4375 20.9112V13.1875H19.3414C19.4979 13.0022 19.6758 12.8079 19.8576 12.6096C20.9991 11.3643 22.5625 9.65881 22.5625 6.625C22.5625 2.97194 19.6186 0 16 0C12.3814 0 9.4375 2.97194 9.4375 6.625C9.4375 9.55681 10.9856 11.2825 12.1159 12.5425C12.3151 12.7645 12.5098 12.9819 12.6779 13.1875H7.5625V20.9112C6.47131 21.2982 5.6875 22.3403 5.6875 23.5625C5.6875 25.1133 6.94919 26.375 8.5 26.375C10.0508 26.375 11.3125 25.1133 11.3125 23.5625ZM23.5 24.5C22.9831 24.5 22.5625 24.0794 22.5625 23.5625C22.5625 23.0456 22.9831 22.625 23.5 22.625C24.0169 22.625 24.4375 23.0456 24.4375 23.5625C24.4375 24.0794 24.0169 24.5 23.5 24.5ZM16.9375 16.9375H15.0625V15.0625H16.9375V16.9375ZM13.5117 11.2904C12.4808 10.1414 11.3125 8.83906 11.3125 6.625C11.3125 4.00581 13.4153 1.875 16 1.875C18.5847 1.875 20.6875 4.00581 20.6875 6.625C20.6875 8.92944 19.5122 10.2114 18.4754 11.3426C17.9252 11.9427 17.3965 12.5199 17.1255 13.1875H16.9375V9.4375H17.875V7.5625H14.125V9.4375H15.0625V13.1875H14.8756C14.6032 12.5077 14.0684 11.911 13.5117 11.2904ZM8.5 24.5C7.98306 24.5 7.5625 24.0794 7.5625 23.5625C7.5625 23.0456 7.98306 22.625 8.5 22.625C9.01694 22.625 9.4375 23.0456 9.4375 23.5625C9.4375 24.0794 9.01694 24.5 8.5 24.5Z" fill="#FF845E"/>
<path d="M18.8125 23.5625C18.8125 22.0117 17.5508 20.75 16 20.75C14.4492 20.75 13.1875 22.0117 13.1875 23.5625C13.1875 25.1133 14.4492 26.375 16 26.375C17.5508 26.375 18.8125 25.1133 18.8125 23.5625ZM16 24.5C15.4831 24.5 15.0625 24.0794 15.0625 23.5625C15.0625 23.0456 15.4831 22.625 16 22.625C16.5169 22.625 16.9375 23.0456 16.9375 23.5625C16.9375 24.0794 16.5169 24.5 16 24.5Z" fill="#FF845E"/>
<path d="M23.5 26.375C21.9683 26.375 20.6059 27.1136 19.75 28.2533C18.8941 27.1136 17.5317 26.375 16 26.375C14.4683 26.375 13.1059 27.1136 12.25 28.2533C11.3941 27.1136 10.0317 26.375 8.5 26.375C5.91531 26.375 3.8125 28.4778 3.8125 31.0625V32H28.1875V31.0625C28.1875 28.4778 26.0847 26.375 23.5 26.375ZM5.84812 30.125C6.235 29.0337 7.27769 28.25 8.5 28.25C9.72231 28.25 10.7649 29.0337 11.1519 30.125H5.84812ZM13.3481 30.125C13.735 29.0337 14.7777 28.25 16 28.25C17.2223 28.25 18.2649 29.0337 18.6519 30.125H13.3481ZM20.8481 30.125C21.235 29.0337 22.2777 28.25 23.5 28.25C24.7223 28.25 25.7649 29.0337 26.1519 30.125H20.8481Z" fill="#FF845E"/>
<path d="M4.23145 3.65594L5.27207 2.09594L8.08439 3.97195L7.04376 5.53195L4.23145 3.65594Z" fill="#FF845E"/>
<path d="M4.23242 9.5932L7.04474 7.7172L8.08536 9.2772L5.27305 11.1532L4.23242 9.5932Z" fill="#FF845E"/>
<path d="M23.917 3.96216L26.7293 2.08616L27.7699 3.64615L24.9576 5.52216L23.917 3.96216Z" fill="#FF845E"/>
<path d="M23.9248 9.28406L24.9654 7.72406L27.7777 9.60006L26.7371 11.1601L23.9248 9.28406Z" fill="#FF845E"/>
</g>
<defs>
<clipPath id="clip0_2457_984">
<rect width="32" height="32" fill="white"/>
</clipPath>
</defs>
</svg>
