<svg width="50" height="50" viewBox="0 0 50 50" fill="none" xmlns="http://www.w3.org/2000/svg">
<g clip-path="url(#clip0_2457_282)">
<path d="M24.9999 36.2763C31.2276 36.2763 36.2762 31.2277 36.2762 25C36.2762 18.7723 31.2276 13.7238 24.9999 13.7238C18.7722 13.7238 13.7236 18.7723 13.7236 25C13.7236 31.2277 18.7722 36.2763 24.9999 36.2763Z" fill="#B2F0FB"/>
<path d="M23.1493 41.0786C15.0096 40.152 8.81699 33.262 8.81699 25C8.81699 16.8489 14.9049 9.85996 23.1493 8.92139C23.6428 8.86523 24.0154 8.44766 24.0154 7.95107V3.02393C24.0154 2.45098 23.5249 2.00146 22.9531 2.05107C17.9076 2.49561 13.1615 4.58838 9.41514 8.03398L5.58711 4.20596C5.77178 3.82178 5.87529 3.3916 5.87529 2.9377C5.87529 1.31787 4.55752 0 2.9377 0C1.31787 0 0 1.31787 0 2.9377C0 4.55752 1.31787 5.87529 2.9377 5.87529C3.3916 5.87529 3.82188 5.77168 4.20596 5.58711L8.0334 9.41455C4.11768 13.675 1.96113 19.2093 1.96113 25C1.96113 36.9489 11.1029 46.905 22.9531 47.9489C23.5279 47.9986 24.0154 47.546 24.0154 46.9761V42.0488C24.0154 41.5522 23.6428 41.1348 23.1493 41.0786ZM12.2332 41.734L14.1015 39.5075C15.26 40.3788 16.5285 41.1149 17.8855 41.692L16.8825 44.4476C15.2131 43.7417 13.6524 42.8257 12.2332 41.734ZM4.43574 29.6177L7.33115 29.1071C7.66406 30.5467 8.16826 31.9231 8.82256 33.2125L6.29941 34.6692C5.47197 33.0861 4.84053 31.3906 4.43574 29.6177ZM4.09121 22.3048L6.99492 22.8168C6.82607 24.2235 6.81426 25.6778 6.99492 27.1832L4.09121 27.6952C3.86055 25.934 3.8502 24.1447 4.09121 22.3048ZM6.29941 15.3309L8.82256 16.7876C8.16826 18.077 7.66406 19.4534 7.33115 20.893L4.43574 20.3824C4.84053 18.6094 5.47197 16.9139 6.29941 15.3309ZM9.79883 15.096L7.28291 13.6435C8.25908 12.1313 9.42217 10.7464 10.7406 9.52588L12.6062 11.7488C11.5405 12.7467 10.5971 13.8705 9.79883 15.096ZM16.8825 5.55244L17.8855 8.30801C16.5285 8.88506 15.26 9.62119 14.1015 10.4925L12.2331 8.26602C13.6523 7.17441 15.213 6.2583 16.8825 5.55244ZM22.0623 7.10039C21.2619 7.23047 20.4807 7.4125 19.7214 7.64199L18.7149 4.87686C19.796 4.53545 20.9142 4.2792 22.0623 4.11797V7.10039ZM1.95312 2.9377C1.95312 2.39473 2.39473 1.95312 2.9377 1.95312C3.48057 1.95312 3.92217 2.39473 3.92217 2.9377C3.92217 3.48057 3.48047 3.92217 2.9377 3.92217C2.39473 3.92217 1.95312 3.48057 1.95312 2.9377ZM7.28291 36.3565L9.79883 34.9041C10.5971 36.1296 11.5406 37.2534 12.6062 38.2513L10.7407 40.4743C9.42217 39.2537 8.25918 37.8688 7.28291 36.3565ZM22.0623 45.882C20.9142 45.7208 19.796 45.4646 18.7149 45.123L19.7214 42.3579C20.4807 42.5875 21.2619 42.7695 22.0623 42.8995V45.882Z" fill="#2657F2"/>
<path d="M26.8505 8.92139C34.2527 9.76377 40.2358 15.7474 41.0773 23.149C41.1334 23.6426 41.551 24.0153 42.0477 24.0153H46.976C47.5489 24.0153 47.9991 23.5237 47.9488 22.953C46.9732 11.88 38.146 3.02891 27.0467 2.05108C26.4717 2.00059 25.9844 2.45489 25.9844 3.02393V7.95118C25.9844 8.44776 26.357 8.86534 26.8505 8.92139ZM27.9375 4.11709C37.2646 5.41153 44.5883 12.7352 45.8827 22.0623H42.8979C41.6458 14.419 35.6329 8.3626 27.9376 7.10108V4.11709H27.9375Z" fill="#2657F2"/>
<path d="M47.0622 44.1248C46.6083 44.1248 46.1781 44.2284 45.7939 44.4129L41.9661 40.5851C45.3899 36.8575 47.5048 32.0872 47.9488 27.0469C47.9991 26.4762 47.5489 25.9846 46.976 25.9846H42.0477C41.551 25.9846 41.1335 26.3574 41.0773 26.8509C40.2359 34.2526 34.2527 40.2362 26.8505 41.0786C26.357 41.1346 25.9844 41.5523 25.9844 42.0489V46.9761C25.9844 47.549 26.4747 47.9984 27.0467 47.949C32.0869 47.5049 36.8572 45.3901 40.5849 41.9663L44.4127 45.7941C44.228 46.1783 44.1245 46.6084 44.1245 47.0624C44.1245 48.6822 45.4423 50 47.0621 50C48.6819 50 49.9999 48.6822 49.9999 47.0624C49.9999 45.4425 48.682 44.1248 47.0622 44.1248ZM27.9376 42.899C35.5806 41.646 41.6373 35.6334 42.8979 27.9377H45.8827C44.5887 37.2624 37.2628 44.5888 27.9375 45.883V42.899H27.9376ZM47.0622 48.0469C46.5193 48.0469 46.0777 47.6053 46.0777 47.0624C46.0777 46.5195 46.5193 46.0779 47.0622 46.0779C47.6052 46.0779 48.0468 46.5195 48.0468 47.0624C48.0468 47.6053 47.6052 48.0469 47.0622 48.0469Z" fill="#2657F2"/>
<path d="M26.3282 24.0244C25.4198 23.7032 24.4149 23.3151 23.85 22.8721C23.4277 22.5409 23.6017 21.389 24.4151 21.1439C25.5056 20.8156 26.2195 21.3899 26.2807 21.4416C26.6731 21.7922 27.2757 21.7692 27.6399 21.3847C28.0108 20.9932 28.0046 20.375 27.6132 20.0041C27.3639 19.7693 26.6602 19.3636 25.9766 19.1915V18.7212C25.9766 18.1818 25.5393 17.7446 25 17.7446C24.4606 17.7446 24.0234 18.1818 24.0234 18.7212V19.2271C23.2422 19.3473 22.0141 20.2265 21.7372 21.6961C21.5351 22.7688 21.8819 23.8083 22.6477 24.409C23.2822 24.9066 24.1594 25.3287 25.6787 25.8659C26.7104 26.2305 26.6871 27.0661 26.6296 27.4085C26.5134 28.0998 25.9314 28.847 24.929 28.8537C23.9551 28.8613 23.6504 28.8119 22.9006 28.3215C22.4492 28.0263 21.8439 28.1528 21.5486 28.6041C21.2534 29.0555 21.3814 29.6606 21.8327 29.956C22.662 30.4984 23.2422 30.7067 24.0234 30.7764V31.2789C24.0234 31.8183 24.4606 32.2555 25 32.2555C25.5393 32.2555 25.9766 31.8183 25.9766 31.2789V30.658C27.4414 30.2354 28.3476 28.9755 28.5564 27.7323C28.8337 26.0832 27.9373 24.5932 26.3282 24.0244Z" fill="#2657F2"/>
</g>
<defs>
<clipPath id="clip0_2457_282">
<rect width="50" height="50" fill="white"/>
</clipPath>
</defs>
</svg>
