<svg width="32" height="32" viewBox="0 0 32 32" fill="none" xmlns="http://www.w3.org/2000/svg">
<path d="M31 13.125V0H25.375V3.75H21.625V7.5H17.875V13.125H31ZM27.25 1.875H29.125V11.25H27.25V1.875ZM23.5 5.625H25.375V11.25H23.5C23.5 10.5916 23.5 6.51706 23.5 5.625ZM19.75 11.25V9.375H21.625V11.25H19.75Z" fill="#FF845E"/>
<path d="M1 27.3125V32H21.625V27.3125C21.625 22.9449 18.3378 19.336 14.125 18.8646V17.875C15.2934 16.9961 16 15.6047 16 14.125C16 12.8127 16 9.69144 16 8.4375C16 6.88669 14.7383 5.625 13.1875 5.625H10.375C9.85806 5.625 9.4375 5.20444 9.4375 4.6875V3.75H7.5625C5.49475 3.75 3.8125 5.43225 3.8125 7.5C3.8125 9.24412 5.00944 10.714 6.625 11.1313V14.125C6.625 15.6047 7.33162 16.9961 8.5 17.875V18.8646C4.28719 19.336 1 22.9448 1 27.3125ZM11.3125 25.0677L12.1678 28.0895L11.3125 29.3724L10.4572 28.0895L11.3125 25.0677ZM19.75 27.3125V30.125H13.0642L14.2072 28.4105L12.3644 21.8989L13.5646 20.6987C17.0084 20.8967 19.75 23.7873 19.75 27.3125ZM14.125 14.125C14.125 16.0717 12.3639 16.7289 12.25 16.8326V19.3617L11.3125 20.2992L10.375 19.3617V16.8326C10.2563 16.7245 8.5 16.075 8.5 14.125V11.25H14.125V14.125ZM5.6875 7.5C5.6875 6.46613 6.52863 5.625 7.5625 5.625H7.72312C8.11 6.71631 9.15269 7.5 10.375 7.5H13.1875C13.7044 7.5 14.125 7.92056 14.125 8.4375V9.375H7.5625C6.52863 9.375 5.6875 8.53387 5.6875 7.5ZM9.06038 20.6987L10.2606 21.8989L8.41781 28.4105L9.56081 30.125H2.875V27.3125C2.875 23.7873 5.61663 20.8967 9.06038 20.6987Z" fill="#FF845E"/>
</svg>
