<svg width="50" height="50" viewBox="0 0 50 50" fill="none" xmlns="http://www.w3.org/2000/svg">
<g clip-path="url(#clip0_2457_253)">
<path d="M15.6846 29.1641V24.7012C13.0789 23.4322 11.2725 20.7539 11.2725 17.6455V11.7627C11.2725 11.7627 18.1035 11.0107 22.5488 8.82129C22.5488 8.82129 25.6865 11.4033 26.9609 11.7627V17.6455C26.9609 20.7471 25.1611 23.4287 22.5488 24.7012V29.1641L30.8833 30.2759L30.8828 11.7666C30.8828 5.26855 25.6152 0 19.1172 0C12.6182 0 7.35059 5.26855 7.35059 11.7666V30.2764C9.13076 30.0388 13.7135 29.4272 15.6846 29.1641Z" fill="#B2F0FB"/>
<path d="M49.0234 23.5332H35.2958C34.7565 23.5332 34.3192 23.9704 34.3192 24.5098V30.081C33.6805 29.7773 32.9946 29.5725 32.2803 29.4773L23.5254 28.3092V25.2872C26.1977 23.7439 27.9375 20.8701 27.9375 17.6455V11.7627C27.9375 11.3254 27.6468 10.9415 27.226 10.8227C26.4841 10.6135 24.4072 9.08544 23.1693 8.06708C22.8729 7.82333 22.4612 7.77558 22.1175 7.94511C17.8814 10.0314 11.2321 10.7846 11.1655 10.7919C10.6707 10.8466 10.296 11.2647 10.296 11.7626V17.6454C10.296 20.8947 12.0456 23.748 14.7082 25.2856V28.3091L5.95352 29.4771C2.55938 29.9286 0 32.8516 0 36.2764V49.0234C0 49.5627 0.437207 50 0.976562 50H49.0234C49.5627 50 50 49.5627 50 49.0234C50 40.3183 50 33.1458 50 24.5098C50 23.9703 49.5627 23.5332 49.0234 23.5332ZM48.0469 33.3387H36.2724V30.3891H48.0469V33.3387ZM48.0469 38.2414H36.2724V35.2918H48.0469V38.2414ZM36.2724 40.1945H48.0469V43.1441H36.2724V40.1945ZM36.2724 25.4862H48.0469V28.4358H36.2724V25.4862ZM12.249 17.6455V12.622C14.1636 12.3542 18.8264 11.5772 22.411 9.96523C23.2436 10.6268 24.8104 11.8209 25.9845 12.4111V17.6455C25.9845 21.5112 22.8597 24.5137 19.1173 24.5137C15.3463 24.5137 12.249 21.4643 12.249 17.6455ZM15.8139 30.132C16.2989 30.0673 16.6612 29.6535 16.6612 29.1641V26.1214C18.2489 26.5817 19.9817 26.5829 21.5724 26.1216V29.1641C21.5724 29.6535 21.9347 30.0673 22.4197 30.132L26.4337 30.6676C26.0514 34.3981 22.9185 37.2607 19.1172 37.2607C15.3163 37.2607 12.1835 34.3994 11.8 30.6676L15.8139 30.132ZM1.95312 36.2764C1.95312 33.8267 3.7835 31.7361 6.21094 31.4133L9.8623 30.9261C10.3721 35.62 14.3257 39.2139 19.1172 39.2139C23.9093 39.2139 27.8631 35.6185 28.3713 30.9261L32.0226 31.4133C32.8636 31.5253 33.6495 31.8485 34.3193 32.3533V48.0469H7.83643V39.218C7.83643 38.6787 7.39912 38.2414 6.85986 38.2414C6.32061 38.2414 5.8833 38.6787 5.8833 39.218V48.0469H1.95312V36.2764ZM48.0469 48.0469C46.5728 48.0469 37.7462 48.0469 36.2724 48.0469V45.0973H48.0469V48.0469Z" fill="#2657F2"/>
<path d="M17.6417 15.6848C17.6417 15.1455 17.2045 14.7083 16.6651 14.7083H15.6846C15.1453 14.7083 14.708 15.1455 14.708 15.6848C14.708 16.2242 15.1453 16.6614 15.6846 16.6614H16.6651C17.2045 16.6614 17.6417 16.2242 17.6417 15.6848Z" fill="#2657F2"/>
<path d="M21.5684 16.6614H22.5489C23.0882 16.6614 23.5255 16.2242 23.5255 15.6848C23.5255 15.1455 23.0882 14.7083 22.5489 14.7083H21.5684C21.0291 14.7083 20.5918 15.1455 20.5918 15.6848C20.5918 16.2242 21.0291 16.6614 21.5684 16.6614Z" fill="#2657F2"/>
<path d="M16.5843 18.7902C16.1468 19.1055 16.0478 19.7158 16.3631 20.1534C16.5339 20.3903 17.4641 21.5642 19.1154 21.5642C19.1272 21.5642 19.1391 21.5641 19.1508 21.564C20.7815 21.5475 21.7015 20.3865 21.8694 20.154C22.185 19.7167 22.0864 19.1063 21.649 18.7906C21.2116 18.4749 20.6013 18.5737 20.2857 19.0109C20.2682 19.0351 19.8495 19.6037 19.131 19.611C19.1264 19.6111 19.1218 19.6111 19.1171 19.6111C18.393 19.6111 17.9653 19.0357 17.9472 19.011C17.6321 18.5738 17.0217 18.4748 16.5843 18.7902Z" fill="#2657F2"/>
</g>
<defs>
<clipPath id="clip0_2457_253">
<rect width="50" height="50" fill="white"/>
</clipPath>
</defs>
</svg>
