<svg width="32" height="32" viewBox="0 0 32 32" fill="none" xmlns="http://www.w3.org/2000/svg">
<g clip-path="url(#clip0_2457_999)">
<g clip-path="url(#clip1_2457_999)">
<path d="M16 7.5C10.3122 7.5 5.6875 12.1789 5.6875 17.875C5.6875 23.5621 10.3038 28.25 16 28.25C21.6878 28.25 26.3125 23.5711 26.3125 17.875C26.3125 12.1879 21.6962 7.5 16 7.5ZM16.9375 26.3223V24.5H15.0625V26.3223C11.1553 25.8851 8.04487 22.7496 7.61406 18.8125H9.4375V16.9375H7.61406C8.04487 13.0004 11.1553 9.86494 15.0625 9.42775V11.25H16.9375V9.42775C20.8447 9.86494 23.9551 13.0004 24.3859 16.9375H22.5625V18.8119L24.3859 18.8125C23.9551 22.7496 20.8447 25.8851 16.9375 26.3223Z" fill="#FF845E"/>
<path d="M19.0868 13.462L14.6738 17.875L19.0868 22.2879L20.4125 20.962L17.3255 17.875L20.4125 14.7879L19.0868 13.462Z" fill="#FF845E"/>
<path d="M1.66266 0.274563L0.336914 1.60044L1.7751 3.03863C0.773477 4.56306 0.731539 6.58769 1.75185 8.15844L2.47941 9.2785L3.28554 8.21356C3.80748 7.52406 4.38779 6.87675 5.01566 6.27919L6.34835 7.61188C3.63391 10.1886 1.93729 13.8364 1.93729 17.875C1.93729 21.9136 3.63391 25.5614 6.34835 28.1381L4.08691 30.3996L5.41273 31.7254L7.7971 29.341C10.1075 31.0133 12.9409 32 15.9998 32C19.0587 32 21.8921 31.0133 24.2025 29.3411L26.5869 31.7254L27.9127 30.3996L25.6512 28.1382C28.3657 25.5614 30.0623 21.9136 30.0623 17.875C30.0623 13.8364 28.3657 10.1886 25.6512 7.61188L26.9839 6.27919C28.307 7.53844 28.927 8.53187 29.5202 9.2785L30.2477 8.15844C31.268 6.58769 31.2261 4.56306 30.2245 3.03863L31.6627 1.60044L30.3369 0.274563L28.9009 1.71063C27.1465 0.546813 24.7827 0.686188 23.1702 2.1605L22.1835 3.06262C23.0098 3.5205 24.0867 3.96444 25.5482 5.06325L24.2025 6.40887C23.1322 5.63412 21.9494 5.007 20.684 4.55669C20.6143 2.03244 18.5406 0 15.9998 0C13.459 0 11.3853 2.03244 11.3156 4.55675C10.0502 5.00712 8.86748 5.63419 7.79704 6.40894L6.45141 5.06331C7.90904 3.96731 8.9751 3.52863 9.8161 3.06269L8.82941 2.16056C7.21679 0.686188 4.8531 0.546813 3.09873 1.71069L1.66266 0.274563ZM28.3043 3.63294C28.882 4.21069 29.161 4.99844 29.1181 5.77619C28.1045 4.67444 26.9514 3.69738 25.6999 2.88013C26.6088 2.67256 27.5976 2.92625 28.3043 3.63294ZM28.1873 17.875C28.1873 24.6297 22.72 30.125 15.9998 30.125C9.2796 30.125 3.81229 24.6297 3.81229 17.875C3.81229 11.1203 9.2796 5.625 15.9998 5.625C22.72 5.625 28.1873 11.1203 28.1873 17.875ZM15.9998 1.875C17.32 1.875 18.4301 2.78962 18.7312 4.01837C17.8473 3.84288 16.9342 3.75 15.9998 3.75C15.0654 3.75 14.1523 3.84288 13.2684 4.01837C13.5695 2.78962 14.6795 1.875 15.9998 1.875ZM6.29966 2.88013C5.04823 3.69738 3.8951 4.67444 2.88148 5.77619C2.83848 4.9985 3.11748 4.21075 3.69529 3.63294C4.39466 2.93362 5.38066 2.67019 6.29966 2.88013Z" fill="#FF845E"/>
</g>
</g>
<defs>
<clipPath id="clip0_2457_999">
<rect width="32" height="32" fill="white"/>
</clipPath>
<clipPath id="clip1_2457_999">
<rect width="32" height="32" fill="white"/>
</clipPath>
</defs>
</svg>
