<svg width="32" height="32" viewBox="0 0 32 32" fill="none" xmlns="http://www.w3.org/2000/svg">
<g clip-path="url(#clip0_2457_973)">
<path d="M20.6875 0H18.8125V1.875H7.5V10.9926C6.56612 11.2347 5.53137 10.9913 4.80125 10.2612C4.27006 9.73006 3.56381 9.4375 2.8125 9.4375C2.06119 9.4375 1.355 9.73006 0.82375 10.2613C0.292563 10.7925 0 11.4987 0 12.25V32H5.625V16.6302C6.00787 16.6828 6.39681 16.7101 6.79 16.7101C7.02838 16.7101 7.26512 16.6996 7.5 16.6802V22.5625H18.8125V25.0981L14.6234 30.125H12.25V32H15.5016L18.8125 28.0269V32H20.6875V28.0269L23.9984 32H27.25V30.125H24.8766L20.6875 25.0981V22.5625H32V1.875H20.6875V0ZM1.875 30.125V20.6875H3.75V30.125H1.875ZM3.75 18.8125H1.875V15.1324C2.45769 15.5517 3.08687 15.8926 3.75 16.1483V18.8125ZM2.14963 12.9129C1.78319 12.5465 1.78319 11.9536 2.14963 11.5871C2.51606 11.2207 3.109 11.2206 3.47544 11.5871C5.076 13.1877 7.556 13.3864 9.37506 12.1834L10.7208 13.5291C9.59231 14.3767 8.22644 14.8351 6.79 14.8351C5.03706 14.8351 3.38913 14.1524 2.14963 12.9129ZM30.125 20.6875H9.375V16.3081C10.6365 15.9038 11.7925 15.2025 12.7562 14.2388L13.4191 13.5759L11.8658 12.0226L16.6004 7.28794L15.2746 5.96212L10.5399 10.6967L9.44162 9.59838L9.375 9.665V3.75H30.125V20.6875Z" fill="#FF845E"/>
<path d="M18.8125 13.1875H15.0625V18.8125H28.1875V5.625H22.5625V9.4375H18.8125V13.1875ZM18.8125 16.9375H16.9375V15.0625H18.8125V16.9375ZM24.4375 7.5H26.3125V16.9375H24.4375V7.5ZM20.6875 11.3125H22.5625V16.9375H20.6875C20.6875 16.2791 20.6875 12.2046 20.6875 11.3125Z" fill="#FF845E"/>
<path d="M2.8125 9.4375C4.36331 9.4375 5.625 8.17581 5.625 6.625C5.625 5.07419 4.36331 3.8125 2.8125 3.8125C1.26169 3.8125 0 5.07419 0 6.625C0 8.17581 1.26169 9.4375 2.8125 9.4375ZM2.8125 5.6875C3.32944 5.6875 3.75 6.10806 3.75 6.625C3.75 7.14194 3.32944 7.5625 2.8125 7.5625C2.29556 7.5625 1.875 7.14194 1.875 6.625C1.875 6.10806 2.29556 5.6875 2.8125 5.6875Z" fill="#FF845E"/>
</g>
<defs>
<clipPath id="clip0_2457_973">
<rect width="32" height="32" fill="white"/>
</clipPath>
</defs>
</svg>
