<svg width="30" height="30" viewBox="0 0 30 30" fill="none" xmlns="http://www.w3.org/2000/svg">
<path d="M27.3125 5H2.9375C2.41895 5 2 5.41895 2 5.9375V24.6875C2 25.2061 2.41895 25.625 2.9375 25.625H27.3125C27.8311 25.625 28.25 25.2061 28.25 24.6875V5.9375C28.25 5.41895 27.8311 5 27.3125 5ZM26.1406 8.24609V23.5156H4.10938V8.24609L3.30078 7.61621L4.45215 6.13672L5.70605 7.1123H24.5469L25.8008 6.13672L26.9521 7.61621L26.1406 8.24609ZM24.5469 7.10938L15.125 14.4336L5.70312 7.10938L4.44922 6.13379L3.29785 7.61328L4.10645 8.24316L14.1143 16.0244C14.4021 16.248 14.7561 16.3694 15.1206 16.3694C15.4851 16.3694 15.8391 16.248 16.127 16.0244L26.1406 8.24609L26.9492 7.61621L25.7979 6.13672L24.5469 7.10938Z" fill="url(#paint0_linear_2564_528)"/>
<defs>
<linearGradient id="paint0_linear_2564_528" x1="11.4828" y1="11.0156" x2="16.089" y2="25.6369" gradientUnits="userSpaceOnUse">
<stop stop-color="#119CEF"/>
<stop offset="1" stop-color="#F0B503"/>
</linearGradient>
</defs>
</svg>
