<svg width="24" height="24" viewBox="0 0 24 24" fill="none" xmlns="http://www.w3.org/2000/svg">
<g clip-path="url(#clip0_2749_3069)">
<path d="M1.11547 0.0641496C0.968402 0.000808507 0.805707 -0.0169395 0.648439 0.013202C0.491171 0.0433434 0.346568 0.119987 0.233338 0.233216C0.120109 0.346446 0.0434655 0.491049 0.013324 0.648317C-0.0168174 0.805585 0.000930577 0.968279 0.0642717 1.11535L9.66427 23.5153C9.72818 23.6645 9.83593 23.7907 9.97322 23.8772C10.1105 23.9637 10.2709 24.0064 10.433 23.9996C10.5951 23.9928 10.7514 23.9369 10.881 23.8393C11.0106 23.7416 11.1074 23.6069 11.1587 23.4529L14.2323 14.2321L23.4531 11.1601C23.6075 11.1092 23.7428 11.0124 23.8409 10.8826C23.9389 10.7528 23.995 10.5962 24.0018 10.4337C24.0086 10.2712 23.9657 10.1105 23.8788 9.97302C23.7919 9.83552 23.6652 9.72778 23.5155 9.66415L1.11547 0.0641496Z" fill="white"/>
</g>
<defs>
<clipPath id="clip0_2749_3069">
<rect width="24" height="24" fill="white"/>
</clipPath>
</defs>
</svg>
