<svg width="36" height="35" viewBox="0 0 36 35" fill="none" xmlns="http://www.w3.org/2000/svg">
<path d="M18.1476 19.1184C17.0322 19.1184 15.9418 18.7958 15.0143 18.1915C14.0868 17.5871 13.364 16.7282 12.9371 15.7232C12.5103 14.7182 12.3986 13.6123 12.6162 12.5454C12.8338 11.4785 13.3709 10.4985 14.1597 9.72932C14.9484 8.96013 15.9533 8.43631 17.0473 8.22409C18.1413 8.01187 19.2753 8.12079 20.3059 8.53707C21.3364 8.95336 22.2172 9.6583 22.8369 10.5628C23.4566 11.4672 23.7874 12.5306 23.7874 13.6184C23.7856 15.0766 23.1908 16.4745 22.1336 17.5056C21.0763 18.5366 19.6428 19.1167 18.1476 19.1184ZM18.1476 10.3184C17.4783 10.3184 16.8241 10.512 16.2676 10.8746C15.7111 11.2372 15.2774 11.7526 15.0213 12.3556C14.7652 12.9586 14.6982 13.6221 14.8288 14.2622C14.9593 14.9023 15.2816 15.4903 15.7548 15.9519C16.2281 16.4134 16.831 16.7277 17.4874 16.855C18.1438 16.9823 18.8242 16.917 19.4426 16.6672C20.0609 16.4174 20.5894 15.9945 20.9612 15.4518C21.333 14.9091 21.5315 14.2711 21.5315 13.6184C21.5306 12.7435 21.1738 11.9046 20.5394 11.2859C19.905 10.6672 19.0448 10.3193 18.1476 10.3184Z" fill="#FF845E"/>
<path d="M17.1224 32.1184L8.07876 21.4588C7.9531 21.2987 7.82874 21.1376 7.7057 20.9756C6.16089 18.9417 5.32635 16.4576 5.33009 13.9041C5.33009 10.7784 6.57249 7.78061 8.78397 5.57036C10.9954 3.36011 13.9949 2.11841 17.1224 2.11841C20.2499 2.11841 23.2493 3.36011 25.4608 5.57036C27.6722 7.78061 28.9146 10.7784 28.9146 13.9041C28.9184 16.4564 28.0842 18.9395 26.5401 20.9723L26.539 20.9756C26.539 20.9756 26.2174 21.3977 26.1692 21.4545L17.1224 32.1184ZM9.41665 19.6845C9.41879 19.6845 9.6675 20.0145 9.72432 20.0852L17.1224 28.8056L24.5301 20.0734C24.5772 20.0145 24.8281 19.6823 24.8292 19.6813C26.0911 18.0196 26.7731 15.9902 26.7706 13.9041C26.7706 11.3467 25.7541 8.89398 23.9447 7.08559C22.1353 5.27721 19.6812 4.26127 17.1224 4.26127C14.5635 4.26127 12.1094 5.27721 10.3 7.08559C8.49065 8.89398 7.47414 11.3467 7.47414 13.9041C7.47189 15.9915 8.15464 18.0221 9.41772 19.6845H9.41665Z" fill="#FF845E"/>
</svg>
