<svg width="32" height="31" viewBox="0 0 32 31" fill="none" xmlns="http://www.w3.org/2000/svg">
<path d="M28.0133 5.11841H3.25686C2.73019 5.11841 2.30469 5.54497 2.30469 6.07295V25.1639C2.30469 25.6918 2.73019 26.1184 3.25686 26.1184H28.0133C28.54 26.1184 28.9655 25.6918 28.9655 25.1639V6.07295C28.9655 5.54497 28.54 5.11841 28.0133 5.11841ZM26.8231 8.42352V23.9707H4.44708V8.42352L3.62583 7.78219L4.79521 6.27579L6.06874 7.26912H25.2044L26.478 6.27579L27.6473 7.78219L26.8231 8.42352ZM25.2044 7.26614L15.6351 14.7235L6.06577 7.26614L4.79224 6.27281L3.62285 7.7792L4.4441 8.42054L14.6085 16.3433C14.9009 16.5709 15.2605 16.6945 15.6306 16.6945C16.0008 16.6945 16.3604 16.5709 16.6527 16.3433L26.8231 8.42352L27.6444 7.78219L26.475 6.27579L25.2044 7.26614Z" fill="#FF845E"/>
</svg>
