<svg width="40" height="40" viewBox="0 0 40 40" fill="none" xmlns="http://www.w3.org/2000/svg">
<g clip-path="url(#clip0_2749_3035)">
<path d="M30.0004 3.75C30.0004 3.41848 30.132 3.10054 30.3665 2.86612C30.6009 2.6317 30.9188 2.5 31.2504 2.5C31.5819 2.5 31.8998 2.6317 32.1342 2.86612C32.3687 3.10054 32.5004 3.41848 32.5004 3.75V10H38.7504C39.0819 10 39.3998 10.1317 39.6342 10.3661C39.8687 10.6005 40.0004 10.9185 40.0004 11.25C40.0004 11.5815 39.8687 11.8995 39.6342 12.1339C39.3998 12.3683 39.0819 12.5 38.7504 12.5H32.5004V18.75C32.5004 19.0815 32.3687 19.3995 32.1342 19.6339C31.8998 19.8683 31.5819 20 31.2504 20C30.9188 20 30.6009 19.8683 30.3665 19.6339C30.132 19.3995 30.0004 19.0815 30.0004 18.75V12.5H23.7504C23.4188 12.5 23.1009 12.3683 22.8665 12.1339C22.6321 11.8995 22.5004 11.5815 22.5004 11.25C22.5004 10.9185 22.6321 10.6005 22.8665 10.3661C23.1009 10.1317 23.4188 10 23.7504 10H30.0004V3.75ZM11.9129 6.14C8.52536 7.175 6.30786 10.005 6.78536 13.145C7.37901 17.0111 8.69708 20.7303 10.6704 24.1075C12.6277 27.4872 15.1904 30.4779 18.2304 32.93C20.7104 34.9225 24.2754 34.43 26.8679 32.01C27.324 31.5846 27.6009 31.0014 27.6422 30.379C27.6835 29.7567 27.4862 29.142 27.0904 28.66L25.1104 26.255C24.7937 25.8706 24.3694 25.5896 23.8919 25.4479C23.4144 25.3063 22.9054 25.3105 22.4304 25.46L18.2479 26.775C18.0419 26.8398 17.8226 26.8502 17.6114 26.805C17.4002 26.7599 17.2044 26.6609 17.0429 26.5175L16.9429 26.4275C16.5782 26.082 16.2279 25.7217 15.8929 25.3475C15.0622 24.4304 14.3284 23.4301 13.7029 22.3625C12.8407 20.8486 12.2008 19.2186 11.8029 17.5225L11.7729 17.3925C11.7293 17.1805 11.7414 16.9608 11.808 16.7549C11.8746 16.549 11.9934 16.3638 12.1529 16.2175L15.3829 13.255C15.7499 12.918 16.0079 12.479 16.1238 11.9944C16.2396 11.5097 16.2079 11.0015 16.0329 10.535L14.9479 7.635C14.7272 7.04639 14.2904 6.56407 13.7265 6.2863C13.1626 6.00852 12.514 5.95621 11.9129 6.14ZM17.0754 15.0975L14.3954 17.5575C14.7471 18.7958 15.2421 19.9889 15.8704 21.1125C16.5219 22.2231 17.3078 23.2492 18.2104 24.1675L21.6829 23.075C22.633 22.776 23.6509 22.7675 24.6059 23.0508C25.5608 23.3341 26.4094 23.8962 27.0429 24.665L29.0229 27.07C29.8239 28.0434 30.2236 29.2857 30.1405 30.5437C30.0573 31.8016 29.4976 32.9805 28.5754 33.84C25.3504 36.845 20.3854 37.865 16.6654 34.8775C13.3864 32.2339 10.622 29.0093 8.51036 25.365C6.37915 21.7158 4.9559 17.6971 4.31536 13.52C3.59786 8.8075 6.97536 5.035 11.1829 3.75C12.3924 3.37996 13.6976 3.48504 14.8324 4.04385C15.9672 4.60265 16.8462 5.57312 17.2904 6.7575L18.3754 9.6575C18.7255 10.5906 18.7888 11.607 18.5572 12.5763C18.3255 13.5456 17.8095 14.4236 17.0754 15.0975Z" fill="#029AFF"/>
</g>
<defs>
<clipPath id="clip0_2749_3035">
<rect width="40" height="40" fill="white"/>
</clipPath>
</defs>
</svg>
