<svg width="36" height="34" viewBox="0 0 36 34" fill="none" xmlns="http://www.w3.org/2000/svg">
<path d="M18.1478 19C17.0324 19 15.942 18.6774 15.0145 18.0731C14.0871 17.4687 13.3642 16.6098 12.9374 15.6048C12.5105 14.5998 12.3988 13.4939 12.6164 12.427C12.834 11.3601 13.3712 10.3801 14.1599 9.61092C14.9487 8.84173 15.9536 8.3179 17.0476 8.10568C18.1416 7.89346 19.2756 8.00238 20.3061 8.41866C21.3366 8.83495 22.2175 9.5399 22.8372 10.4444C23.4569 11.3488 23.7876 12.4122 23.7876 13.5C23.7858 14.9582 23.1911 16.3561 22.1338 17.3872C21.0765 18.4182 19.6431 18.9983 18.1478 19ZM18.1478 10.2C17.4786 10.2 16.8243 10.3935 16.2679 10.7562C15.7114 11.1188 15.2777 11.6342 15.0216 12.2371C14.7654 12.8401 14.6984 13.5037 14.829 14.1438C14.9596 14.7839 15.2818 15.3719 15.7551 15.8335C16.2283 16.295 16.8313 16.6093 17.4877 16.7366C18.1441 16.8639 18.8245 16.7986 19.4428 16.5488C20.0611 16.299 20.5896 15.8761 20.9614 15.3334C21.3333 14.7907 21.5317 14.1527 21.5317 13.5C21.5308 12.6251 21.174 11.7862 20.5396 11.1675C19.9052 10.5488 19.045 10.2009 18.1478 10.2Z" fill="#2657F2"/>
<path d="M17.1229 32L8.07925 21.3404C7.95359 21.1803 7.82923 21.0192 7.70619 20.8571C6.16138 18.8233 5.32683 16.3392 5.33058 13.7857C5.33058 10.6599 6.57298 7.66221 8.78446 5.45196C10.9959 3.24171 13.9953 2 17.1229 2C20.2504 2 23.2498 3.24171 25.4613 5.45196C27.6727 7.66221 28.9151 10.6599 28.9151 13.7857C28.9189 16.338 28.0847 18.8211 26.5406 20.8539L26.5395 20.8571C26.5395 20.8571 26.2179 21.2793 26.1697 21.3361L17.1229 32ZM9.41714 19.5661C9.41928 19.5661 9.66799 19.8961 9.72481 19.9668L17.1229 28.6871L24.5305 19.955C24.5777 19.8961 24.8286 19.5639 24.8296 19.5629C26.0916 17.9012 26.7736 15.8718 26.7711 13.7857C26.7711 11.2283 25.7546 8.77557 23.9452 6.96718C22.1358 5.1588 19.6817 4.14286 17.1229 4.14286C14.564 4.14286 12.1099 5.1588 10.3005 6.96718C8.49114 8.77557 7.47463 11.2283 7.47463 13.7857C7.47238 15.8731 8.15513 17.9037 9.41821 19.5661H9.41714Z" fill="#2657F2"/>
</svg>
