<svg width="40" height="40" viewBox="0 0 40 40" fill="none" xmlns="http://www.w3.org/2000/svg">
<path d="M36.417 6.66675H3.91699C3.22559 6.66675 2.66699 7.22534 2.66699 7.91675V32.9167C2.66699 33.6082 3.22559 34.1667 3.91699 34.1667H36.417C37.1084 34.1667 37.667 33.6082 37.667 32.9167V7.91675C37.667 7.22534 37.1084 6.66675 36.417 6.66675ZM34.8545 10.9949V31.3542H5.47949V10.9949L4.40137 10.155L5.93652 8.18237L7.6084 9.48315H32.7295L34.4014 8.18237L35.9365 10.155L34.8545 10.9949ZM32.7295 9.47925L20.167 19.2449L7.60449 9.47925L5.93262 8.17847L4.39746 10.1511L5.47559 10.991L18.8193 21.366C19.2031 21.6641 19.6752 21.8259 20.1611 21.8259C20.6471 21.8259 21.1192 21.6641 21.5029 21.366L34.8545 10.9949L35.9326 10.155L34.3975 8.18237L32.7295 9.47925Z" fill="#029AFF"/>
</svg>
