<svg width="32" height="30" viewBox="0 0 32 30" fill="none" xmlns="http://www.w3.org/2000/svg">
<path d="M28.0136 5H3.2571C2.73043 5 2.30493 5.42656 2.30493 5.95455V25.0455C2.30493 25.5734 2.73043 26 3.2571 26H28.0136C28.5403 26 28.9658 25.5734 28.9658 25.0455V5.95455C28.9658 5.42656 28.5403 5 28.0136 5ZM26.8234 8.30511V23.8523H4.44732V8.30511L3.62607 7.66378L4.79546 6.15739L6.06899 7.15071H25.2047L26.4782 6.15739L27.6476 7.66378L26.8234 8.30511ZM25.2047 7.14773L15.6353 14.6051L6.06601 7.14773L4.79248 6.1544L3.6231 7.6608L4.44434 8.30213L14.6088 16.2249C14.9011 16.4525 15.2607 16.5761 15.6309 16.5761C16.001 16.5761 16.3607 16.4525 16.653 16.2249L26.8234 8.30511L27.6446 7.66378L26.4752 6.15739L25.2047 7.14773Z" fill="#2657F2"/>
</svg>
