<svg width="34" height="34" viewBox="0 0 34 34" fill="none" xmlns="http://www.w3.org/2000/svg">
<path d="M17 19.125C15.9493 19.125 14.9222 18.8134 14.0485 18.2297C13.1749 17.6459 12.494 16.8162 12.0919 15.8455C11.6898 14.8748 11.5846 13.8066 11.7896 12.7761C11.9946 11.7456 12.5005 10.799 13.2435 10.056C13.9865 9.31303 14.9331 8.80706 15.9636 8.60208C16.9941 8.3971 18.0623 8.5023 19.033 8.90439C20.0037 9.30648 20.8334 9.9874 21.4172 10.861C22.0009 11.7347 22.3125 12.7618 22.3125 13.8125C22.3108 15.2209 21.7506 16.5712 20.7546 17.5671C19.7587 18.5631 18.4084 19.1233 17 19.125ZM17 10.625C16.3696 10.625 15.7533 10.8119 15.2291 11.1622C14.7049 11.5124 14.2964 12.0103 14.0551 12.5927C13.8139 13.1751 13.7508 13.816 13.8737 14.4344C13.9967 15.0527 14.3003 15.6206 14.7461 16.0664C15.1919 16.5122 15.7598 16.8158 16.3782 16.9388C16.9965 17.0617 17.6374 16.9986 18.2198 16.7574C18.8022 16.5161 19.3001 16.1076 19.6503 15.5834C20.0006 15.0592 20.1875 14.4429 20.1875 13.8125C20.1867 12.9674 19.8506 12.1571 19.253 11.5595C18.6554 10.9619 17.8451 10.6258 17 10.625Z" fill="url(#paint0_linear_2564_536)"/>
<path d="M17 31.875L8.03676 21.3042C7.91222 21.1455 7.78896 20.9857 7.66701 20.825C6.13593 18.8081 5.3088 16.3447 5.31251 13.8125C5.31251 10.7128 6.54387 7.74002 8.7357 5.54819C10.9275 3.35636 13.9003 2.125 17 2.125C20.0997 2.125 23.0725 3.35636 25.2643 5.54819C27.4561 7.74002 28.6875 10.7128 28.6875 13.8125C28.6912 16.3435 27.8645 18.8059 26.3341 20.8218L26.333 20.825C26.333 20.825 26.0143 21.2436 25.9664 21.2999L17 31.875ZM9.36276 19.5447C9.36489 19.5447 9.61139 19.8719 9.6677 19.9421L17 28.5898L24.3419 19.9304C24.3886 19.8719 24.6373 19.5426 24.6383 19.5415C25.889 17.8937 26.565 15.8812 26.5625 13.8125C26.5625 11.2764 25.555 8.84411 23.7617 7.05079C21.9684 5.25747 19.5361 4.25 17 4.25C14.4639 4.25 12.0316 5.25747 10.2383 7.05079C8.44499 8.84411 7.43751 11.2764 7.43751 13.8125C7.43528 15.8825 8.11196 17.8961 9.36382 19.5447H9.36276Z" fill="url(#paint1_linear_2564_536)"/>
<defs>
<linearGradient id="paint0_linear_2564_536" x1="15.5258" y1="11.5989" x2="18.3857" y2="18.732" gradientUnits="userSpaceOnUse">
<stop stop-color="#119CEF"/>
<stop offset="1" stop-color="#F0B503"/>
</linearGradient>
<linearGradient id="paint1_linear_2564_536" x1="13.7567" y1="10.802" x2="23.1429" y2="29.1955" gradientUnits="userSpaceOnUse">
<stop stop-color="#119CEF"/>
<stop offset="1" stop-color="#F0B503"/>
</linearGradient>
</defs>
</svg>
