<svg width="25" height="24" viewBox="0 0 25 24" fill="none" xmlns="http://www.w3.org/2000/svg">
<g clip-path="url(#clip0_2715_3923)">
<path fill-rule="evenodd" clip-rule="evenodd" d="M21.5 6.75V21C21.5 21.7956 21.1839 22.5587 20.6213 23.1213C20.0587 23.6839 19.2956 24 18.5 24H17V22.5H18.5C18.8978 22.5 19.2794 22.342 19.5607 22.0607C19.842 21.7794 20 21.3978 20 21V6.75H17C16.4033 6.75 15.831 6.51295 15.409 6.09099C14.9871 5.66903 14.75 5.09674 14.75 4.5V1.5H6.5C6.10218 1.5 5.72064 1.65804 5.43934 1.93934C5.15804 2.22064 5 2.60218 5 3V16.5H3.5V3C3.5 2.20435 3.81607 1.44129 4.37868 0.87868C4.94129 0.316071 5.70435 0 6.5 0L14.75 0L21.5 6.75ZM2.9 17.775H0.5V23.7735H1.6865V21.7605H2.891C3.3215 21.7605 3.6875 21.675 3.989 21.501C4.2935 21.3255 4.526 21.0885 4.6835 20.79C4.84698 20.4768 4.92997 20.1278 4.925 19.7745C4.925 19.3995 4.8455 19.0605 4.688 18.759C4.53134 18.4593 4.29183 18.2109 3.998 18.0435C3.698 17.8635 3.3335 17.775 2.9 17.775ZM3.7175 19.7745C3.72291 19.9721 3.67909 20.168 3.59 20.3445C3.51007 20.4982 3.38565 20.6242 3.233 20.706C3.05838 20.7924 2.86524 20.8346 2.6705 20.829H1.682V18.72H2.672C2.999 18.72 3.2555 18.81 3.44 18.9915C3.6245 19.1745 3.7175 19.4355 3.7175 19.7745ZM5.543 17.775V23.7735H7.733C8.3345 23.7735 8.834 23.6535 9.23 23.418C9.63073 23.1782 9.94366 22.8159 10.1225 22.3845C10.3175 21.9345 10.4165 21.3915 10.4165 20.7585C10.4165 20.1285 10.319 19.5915 10.1225 19.146C9.94577 18.7196 9.63584 18.3618 9.239 18.126C8.843 17.892 8.3405 17.775 7.7315 17.775H5.543ZM6.7295 18.7425H7.574C7.946 18.7425 8.249 18.8175 8.4875 18.9705C8.73506 19.1324 8.92183 19.3719 9.0185 19.6515C9.137 19.953 9.1955 20.3295 9.1955 20.781C9.20015 21.0802 9.16586 21.3787 9.0935 21.669C9.04006 21.898 8.93998 22.1135 8.7995 22.302C8.66899 22.4702 8.49608 22.6007 8.2985 22.68C8.067 22.7666 7.82112 22.8084 7.574 22.803H6.7295V18.7425ZM12.344 21.387V23.7735H11.159V17.775H14.981V18.7545H12.344V20.43H14.753V21.387H12.344Z" fill="white"/>
</g>
<defs>
<clipPath id="clip0_2715_3923">
<rect width="24" height="24" fill="white" transform="translate(0.5)"/>
</clipPath>
</defs>
</svg>
