<svg width="36" height="36" viewBox="0 0 36 36" fill="none" xmlns="http://www.w3.org/2000/svg">
<path d="M8.63203 35.6953H10.7139V31.5318H8.63203V35.6953ZM13.8081 26.9209C13.1737 27.1781 12.4785 27.3132 11.7547 27.3132C11.0208 27.3132 10.3133 27.174 9.67289 26.9087C9.03246 27.174 8.325 27.3132 7.59105 27.3132C6.8673 27.3132 6.17203 27.178 5.5377 26.9209C4.87898 27.2136 4.16133 27.3682 3.42738 27.3682C2.25105 27.3682 1.17715 26.9614 0.304688 26.3011V34.6545C0.304688 35.2298 0.770273 35.6953 1.34555 35.6953H6.55008V30.4908C6.55008 29.9155 7.01566 29.4499 7.59094 29.4499H11.7545C12.3299 29.4499 12.7955 29.9155 12.7955 30.4908V35.6953H18.0001C18.5755 35.6953 19.041 35.2297 19.041 34.6545V26.3011C18.1685 26.9614 17.0946 27.3682 15.9183 27.3682C15.1845 27.3681 14.4668 27.2136 13.8081 26.9209ZM15.9183 16.9591H3.4275C1.70555 16.9591 0.304805 18.3599 0.304805 20.0818V22.1637C0.304805 23.8856 1.70555 25.2864 3.4275 25.2864C4.22648 25.2864 4.95633 24.9845 5.50934 24.4894C6.61535 25.4794 8.56699 25.4794 9.67301 24.4894C10.779 25.4794 12.7307 25.4794 13.8367 24.4894C14.3897 24.9844 15.1195 25.2864 15.9185 25.2864C17.6405 25.2864 19.0412 23.8856 19.0412 22.1637V20.0818C19.041 18.3599 17.6402 16.9591 15.9183 16.9591ZM29.45 0.304688H27.3682V4.46824H29.45V0.304688ZM34.6546 0.304688H31.5319V5.50922C31.5319 6.08461 31.0663 6.5502 30.491 6.5502H26.3273C25.7519 6.5502 25.2865 6.08461 25.2865 5.50922V0.304688H22.1638C21.5885 0.304688 21.1229 0.770274 21.1229 1.34555V13.8363C21.1229 14.4116 21.5885 14.8772 22.1638 14.8772H34.6546C35.23 14.8772 35.6954 14.4116 35.6954 13.8363V1.34555C35.6954 0.770274 35.2298 0.304688 34.6546 0.304688ZM18.0001 4.46824H9.67289C9.09762 4.46824 8.63203 4.93383 8.63203 5.5091V11.3235L8.32711 11.0186C7.92047 10.6119 7.26176 10.6119 6.85523 11.0186C6.44859 11.4252 6.44859 12.0839 6.85523 12.4904L8.93578 14.571C9.13113 14.7668 9.40301 14.8772 9.67301 14.8772C9.94301 14.8772 10.2149 14.7668 10.4102 14.571L12.4908 12.4904C12.8974 12.0839 12.8974 11.4252 12.4908 11.0186C12.0843 10.6119 11.4255 10.6119 11.0189 11.0186L10.714 11.3235V6.54996H18.0001C18.5755 6.54996 19.041 6.08438 19.041 5.50898C19.041 4.93383 18.5755 4.46824 18.0001 4.46824ZM29.1464 17.2654C28.74 16.8579 28.0758 16.8605 27.6719 17.2654L25.5914 19.3459C25.1848 19.7525 25.1848 20.4113 25.5914 20.8178C25.998 21.2243 26.6566 21.2243 27.0633 20.8178L27.3682 20.5129V27.3682H22.1637C21.5884 27.3682 21.1228 27.8338 21.1228 28.4091C21.1228 28.9845 21.5884 29.4499 22.1637 29.4499H28.4091C28.9844 29.4499 29.4499 28.9843 29.4499 28.4091V20.5129L29.7548 20.8178C30.1615 21.2243 30.8201 21.2244 31.2267 20.8178C31.6332 20.4111 31.6332 19.7524 31.2267 19.3459L29.1464 17.2654Z" fill="#2F80ED"/>
</svg>
