<svg width="36" height="36" viewBox="0 0 36 36" fill="none" xmlns="http://www.w3.org/2000/svg">
<path d="M19.041 23.2047H16.9592V27.3683H19.041V23.2047ZM26.3274 27.3683C26.9028 27.3683 27.3683 26.9027 27.3683 26.3274V17.974C26.4958 18.6344 25.4219 19.0412 24.2456 19.0412C23.5116 19.0412 22.794 18.8867 22.1353 18.5938C21.5009 18.8511 20.8056 18.9862 20.0819 18.9862C19.3479 18.9862 18.6405 18.847 18.0001 18.5817C17.3596 18.847 16.6522 18.9862 15.9182 18.9862C15.1945 18.9862 14.4992 18.851 13.8649 18.5938C13.2062 18.8866 12.4885 19.0412 11.7545 19.0412C10.5782 19.0412 9.50432 18.6344 8.63186 17.974V26.3274C8.63186 26.9028 9.09744 27.3683 9.67271 27.3683H14.8772V22.1637C14.8772 21.5883 15.3428 21.1229 15.9181 21.1229H20.0817C20.657 21.1229 21.1225 21.5885 21.1225 22.1637V27.3683H26.3274ZM11.7548 8.63209C10.0328 8.63209 8.63209 10.0328 8.63209 11.7548V13.8366C8.63209 15.5586 10.0328 16.9593 11.7548 16.9593C12.5538 16.9593 13.2836 16.6574 13.8366 16.1623C14.9426 17.1524 16.8943 17.1524 18.0002 16.1623C19.1062 17.1524 21.0578 17.1524 22.1637 16.1623C22.7167 16.6573 23.4466 16.9593 24.2456 16.9593C25.9675 16.9593 27.3683 15.5586 27.3683 13.8366V11.7548C27.3683 10.0328 25.9675 8.63209 24.2456 8.63209H11.7548ZM32.5728 14.8775C30.8508 14.8775 29.4501 16.2782 29.4501 18.0002C29.4501 19.3554 30.3229 20.5 31.5319 20.9311V31.5319H26.7584L27.0633 31.227C27.47 30.8204 27.47 30.1617 27.0633 29.7551C26.6567 29.3486 25.998 29.3485 25.5915 29.7551L23.5109 31.8357C23.108 32.2375 23.1017 32.902 23.5109 33.3101L25.5915 35.3907C25.9981 35.7973 26.6567 35.7973 27.0633 35.3907C27.47 34.984 27.47 34.3253 27.0633 33.9188L26.7584 33.6139H32.5728C33.1482 33.6139 33.6136 33.1483 33.6136 32.573V20.9314C34.8227 20.5 35.6955 19.3554 35.6955 18.0002C35.6955 16.2782 34.2947 14.8775 32.5728 14.8775ZM3.42756 21.1229C5.14951 21.1229 6.55025 19.7221 6.55025 18.0002C6.55025 16.6449 5.67744 15.5003 4.46842 15.0692V4.46842H9.24193L8.93701 4.77334C8.53037 5.17998 8.53037 5.83869 8.93701 6.24521C9.34365 6.65185 10.0022 6.65185 10.4089 6.24521L12.4894 4.16467C12.8943 3.76084 12.8969 3.09662 12.4894 2.69022L10.4089 0.609668C10.0022 0.203027 9.34353 0.203027 8.93701 0.609668C8.53049 1.01631 8.53037 1.67502 8.93701 2.08154L9.24193 2.38647H3.42756C2.85217 2.38647 2.3867 2.85205 2.3867 3.42732V15.069C1.17768 15.5003 0.304864 16.6449 0.304864 18.0002C0.304864 19.7221 1.70561 21.1229 3.42756 21.1229ZM18.0002 29.4501C16.6449 29.4501 15.5003 30.3229 15.0692 31.5319H4.46842V26.7584L4.77334 27.0633C5.17998 27.47 5.83857 27.47 6.24521 27.0633C6.65185 26.6567 6.65185 25.998 6.24521 25.5915L4.16467 23.5109C3.76283 23.108 3.09838 23.1017 2.69022 23.5109L0.609668 25.5915C0.203027 25.9981 0.203027 26.6568 0.609668 27.0633C1.01631 27.4699 1.67502 27.47 2.08154 27.0633L2.38647 26.7584V32.5728C2.38647 33.1482 2.85205 33.6136 3.42732 33.6136H15.069C15.5003 34.8227 16.6449 35.6955 18.0002 35.6955C19.7221 35.6955 21.1229 34.2947 21.1229 32.5728C21.1229 30.8508 19.7221 29.4501 18.0002 29.4501ZM18.0002 6.55025C19.3554 6.55025 20.5 5.67744 20.9311 4.46842H31.5319V9.24193L31.227 8.93701C30.8204 8.53037 30.1617 8.53037 29.7551 8.93701C29.3486 9.34365 29.3485 10.0024 29.7551 10.4089L31.8357 12.4894C32.2355 12.8904 32.8983 12.9023 33.3101 12.4894L35.3907 10.4089C35.7973 10.0022 35.7973 9.34353 35.3907 8.93701C34.984 8.53049 34.3253 8.53037 33.9188 8.93701L33.6139 9.24193V3.42756C33.6139 2.85217 33.1483 2.3867 32.573 2.3867H20.9314C20.5 1.17768 19.3554 0.304864 18.0002 0.304864C16.2782 0.304864 14.8775 1.70561 14.8775 3.42756C14.8775 5.14951 16.2782 6.55025 18.0002 6.55025Z" fill="#2F80ED"/>
</svg>
