<svg width="32" height="36" viewBox="0 0 32 36" fill="none" xmlns="http://www.w3.org/2000/svg">
<path d="M26.4297 33.6135H23.5941L25.3561 26.5793C25.4336 26.2683 25.3643 25.9389 25.1666 25.6868C24.9691 25.4337 24.6655 25.2863 24.3436 25.2863H3.48426C3.16234 25.2863 2.85883 25.4337 2.66125 25.6868C2.46367 25.9389 2.39441 26.2682 2.47176 26.5793L4.23379 33.6135H1.39844C0.821991 33.6135 0.355469 34.0791 0.355469 34.6543C0.355469 35.2296 0.821991 35.6952 1.39844 35.6952H26.4297C27.0061 35.6952 27.4727 35.2296 27.4727 34.6543C27.4727 34.0791 27.0061 33.6135 26.4297 33.6135ZM14.957 31.5318H12.8711C12.2946 31.5318 11.8281 31.0662 11.8281 30.4909C11.8281 29.9156 12.2946 29.45 12.8711 29.45H14.957C15.5335 29.45 16 29.9156 16 30.4909C16 31.0662 15.5335 31.5318 14.957 31.5318ZM18.0859 16.9591C18.0859 14.6629 16.2139 12.7956 13.9141 12.7956C11.6143 12.7956 9.74219 14.6629 9.74219 16.9591C9.74219 19.2554 11.6143 21.1227 13.9141 21.1227C16.2139 21.1227 18.0859 19.2553 18.0859 16.9591ZM24.3438 0.304688C20.3186 0.304688 17.043 3.57375 17.043 7.59094C17.043 11.6082 20.3186 14.8773 24.3438 14.8773C28.3689 14.8773 31.6445 11.6082 31.6445 7.59094C31.6445 3.57375 28.3689 0.304688 24.3438 0.304688ZM26.4297 8.63192H24.3438C23.7673 8.63192 23.3008 8.16633 23.3008 7.59106V5.50922C23.3008 4.93383 23.7673 4.46836 24.3438 4.46836C24.9202 4.46836 25.3867 4.93395 25.3867 5.50922V6.55008H26.4297C27.0061 6.55008 27.4727 7.01566 27.4727 7.59094C27.4727 8.16621 27.0061 8.63192 26.4297 8.63192ZM3.49047 8.59535C4.06492 8.59535 4.53344 9.06188 4.53344 9.63621C4.53344 10.49 3.35195 10.9739 2.75512 10.3732C2.34766 9.96457 1.68566 9.96668 1.2782 10.3712C0.870741 10.7768 0.870742 11.4364 1.27621 11.8431C1.60961 12.1765 2.00934 12.4145 2.44141 12.568V13.8364C2.44141 14.4117 2.90793 14.8773 3.48437 14.8773C4.06082 14.8773 4.52734 14.4117 4.52734 13.8364V12.5692C5.74176 12.1398 6.61937 10.9937 6.61937 9.63633C6.61937 7.91438 5.21582 6.51363 3.49047 6.51363C2.91602 6.51363 2.4475 6.04711 2.4475 5.47277C2.4475 4.61883 3.62699 4.13496 4.22582 4.73578C4.63328 5.14441 5.29527 5.14242 5.70273 4.73789C6.1102 4.33231 6.1102 3.67254 5.70473 3.2659C5.37074 2.93203 4.97019 2.69391 4.53754 2.54039V1.38738C4.53754 0.811992 4.07102 0.346524 3.49457 0.346524C2.91813 0.346524 2.4516 0.812109 2.4516 1.38738V2.54051C1.23824 2.97035 0.361563 4.11609 0.361563 5.47277C0.361563 7.19449 1.76512 8.59535 3.49047 8.59535ZM18.0859 21.1227H13.9141H9.74219C8.38422 21.1227 7.23742 21.9955 6.80535 23.2045H21.0227C20.5907 21.9955 19.4439 21.1227 18.0859 21.1227Z" fill="#2F80ED"/>
</svg>
