<svg width="28" height="36" viewBox="0 0 28 36" fill="none" xmlns="http://www.w3.org/2000/svg">
<path d="M21.2884 12.7955V13.8363C21.2884 14.4117 20.8227 14.8772 20.2471 14.8772C19.6716 14.8772 19.2059 14.4116 19.2059 13.8363V12.7955H8.7943V13.8363C8.7943 14.4117 8.32859 14.8772 7.75309 14.8772C7.17758 14.8772 6.71187 14.4116 6.71187 13.8363V12.7955H3.58836C2.41168 12.7955 1.33754 12.3887 0.464844 11.7284V24.2454C0.464844 24.8208 0.930546 25.2862 1.50605 25.2862H26.4939C27.0695 25.2862 27.5352 24.8207 27.5352 24.2454V11.7284C26.6625 12.3887 25.5883 12.7955 24.4116 12.7955H21.2884ZM16.8187 19.3459C17.2255 19.7525 17.2255 20.4113 16.8187 20.8178C16.4121 21.2244 15.7531 21.2244 15.3465 20.8178L14.0002 19.4719L12.654 20.8178C12.2473 21.2244 11.5884 21.2244 11.1818 20.8178C10.775 20.4111 10.775 19.7524 11.1818 19.3459L12.528 18L11.1819 16.6541C10.7751 16.2475 10.7751 15.5887 11.1819 15.1822C11.5885 14.7756 12.2475 14.7756 12.6541 15.1822L14.0002 16.5281L15.3465 15.1822C15.7531 14.7756 16.4121 14.7756 16.8187 15.1822C17.2255 15.5889 17.2255 16.2476 16.8187 16.6541L15.4725 18L16.8187 19.3459ZM26.4942 4.46824H21.2884V1.34555C21.2884 0.770157 20.8227 0.304688 20.2471 0.304688H7.7532C7.1777 0.304688 6.71199 0.770274 6.71199 1.34555V4.46824H1.50617C0.930664 4.46824 0.46496 4.93383 0.46496 5.5091V7.59094C0.46496 9.31289 1.86605 10.7136 3.58848 10.7136H24.4118C26.1342 10.7136 27.5353 9.31289 27.5353 7.59094V5.5091C27.5354 4.93383 27.0697 4.46824 26.4942 4.46824ZM19.2061 4.46824H8.79441V2.38641H19.2061V4.46824ZM11.9179 29.4499H9.83563V27.3681H5.67101V29.4499H3.58871C3.17223 29.4499 2.79746 29.6998 2.63082 30.0953C2.4643 30.4908 2.54762 30.9279 2.86004 31.2195L7.02477 35.383C7.21215 35.5912 7.48285 35.6953 7.75356 35.6953C8.02426 35.6953 8.29496 35.5912 8.48234 35.383L12.6471 31.2195C12.9595 30.928 13.0427 30.4909 12.8762 30.0953C12.7092 29.6998 12.3344 29.4499 11.9179 29.4499ZM24.4119 29.4499H22.3296V27.3681H18.165V29.4499H16.0827C15.6662 29.4499 15.2914 29.6998 15.1248 30.0953C14.9582 30.4908 15.0416 30.9279 15.3539 31.2195L19.5186 35.383C19.706 35.5912 19.9767 35.6953 20.2474 35.6953C20.5181 35.6953 20.7888 35.5912 20.9762 35.383L25.1409 31.2195C25.4533 30.928 25.5365 30.4909 25.3701 30.0953C25.2032 29.6998 24.8284 29.4499 24.4119 29.4499Z" fill="#2F80ED"/>
</svg>
