<svg width="36" height="36" viewBox="0 0 36 36" fill="none" xmlns="http://www.w3.org/2000/svg">
<path d="M34.6543 31.5318H31.5316V15.9182C31.5316 15.3428 31.0661 14.8773 30.4908 14.8773H26.3271C25.7517 14.8773 25.2862 15.3429 25.2862 15.9182V31.5316H23.2044V20.0817C23.2044 19.5063 22.7388 19.0409 22.1636 19.0409H17.9999C17.4245 19.0409 16.959 19.5064 16.959 20.0817V31.5316H14.8772V24.2453C14.8772 23.67 14.4116 23.2044 13.8363 23.2044H9.67266C9.09738 23.2044 8.6318 23.67 8.6318 24.2453V31.5316H4.46813V1.34555C4.46813 0.770157 4.00254 0.304688 3.42727 0.304688C2.85199 0.304688 2.38641 0.770274 2.38641 1.34555V31.5316H1.34555C0.770157 31.5316 0.304688 31.9972 0.304688 32.5725C0.304688 33.1478 0.770274 33.6134 1.34555 33.6134H2.38641V34.6542C2.38641 35.2296 2.85199 35.6951 3.42727 35.6951C4.00266 35.6951 4.46813 35.2295 4.46813 34.6542V33.6134H34.6542C35.2296 33.6134 35.6951 33.1478 35.6951 32.5725C35.6951 31.9972 35.2296 31.5318 34.6543 31.5318ZM9.67875 8.59535C10.252 8.59535 10.7196 9.06187 10.7196 9.63621C10.7196 10.489 9.54246 10.9729 8.9448 10.3732C8.53816 9.96457 7.87746 9.96668 7.47082 10.3712C7.06418 10.7768 7.06418 11.4364 7.46883 11.8431C7.80164 12.1765 8.20043 12.4145 8.63168 12.568V13.8364C8.63168 14.4117 9.09727 14.8773 9.67254 14.8773C10.2479 14.8773 10.7134 14.4117 10.7134 13.8364V12.5692C11.9255 12.1398 12.8013 10.9937 12.8013 9.63633C12.8013 7.91438 11.4006 6.51363 9.67863 6.51363C9.10535 6.51363 8.63777 6.04711 8.63777 5.47277C8.63777 4.61883 9.81492 4.13707 10.4126 4.73578C10.8192 5.14441 11.4799 5.14242 11.8866 4.73789C12.2932 4.3323 12.2932 3.67254 11.8886 3.2659C11.5553 2.93203 11.1555 2.69391 10.7236 2.54039V1.38738C10.7236 0.811992 10.258 0.346524 9.68273 0.346524C9.10746 0.346524 8.64188 0.812109 8.64188 1.38738V2.54051C7.43098 2.97035 6.55605 4.11609 6.55605 5.47277C6.55605 7.19449 7.9568 8.59535 9.67875 8.59535ZM24.2453 8.63192H24.7807L11.2035 17.1177C10.7155 17.4217 10.5671 18.0641 10.8721 18.552C11.1793 19.0445 11.8267 19.1843 12.3053 18.8823L25.8241 10.433L25.3958 11.289C25.1396 11.8034 25.347 12.4286 25.8614 12.6857C26.3873 12.9451 27.0042 12.7263 27.258 12.2201L29.3399 8.05652C29.658 7.4202 29.2129 6.55008 28.4087 6.55008H24.2452C23.6698 6.55008 23.2042 7.01566 23.2042 7.59094C23.2042 8.16621 23.67 8.63192 24.2453 8.63192Z" fill="#2F80ED"/>
</svg>
