<svg width="32" height="36" viewBox="0 0 32 36" fill="none" xmlns="http://www.w3.org/2000/svg">
<path d="M23.5057 16.9509L24.634 16.2994L23.5931 14.4961L22.4627 15.1487C22.0521 15.3845 21.5337 15.3155 21.2003 14.9769C20.2692 14.0296 19.1001 13.3546 17.8214 13.0253C17.3619 12.9063 17.0407 12.4916 17.0407 12.0169V10.7138H14.9588V12.0169C14.9588 12.4916 14.6376 12.9063 14.1781 13.0253C12.8994 13.3546 11.7304 14.0296 10.7993 14.9769C10.4659 15.3154 9.94744 15.3845 9.53682 15.1487L8.40643 14.4961L7.36557 16.2994L8.49385 16.9509C8.90447 17.1878 9.1017 17.6716 8.97771 18.129C8.80287 18.7643 8.71346 19.4221 8.71346 20.0817C8.71346 20.7415 8.80287 21.3991 8.97771 22.0344C9.1017 22.4918 8.90447 22.9757 8.49385 23.2125L7.36557 23.8641L8.40643 25.6673L9.53682 25.0147C9.94744 24.7779 10.4659 24.847 10.7993 25.1865C11.7303 26.1339 12.8994 26.8089 14.1781 27.1382C14.6376 27.2571 14.9588 27.6718 14.9588 28.1466V29.4497H17.0407V28.1466C17.0407 27.6718 17.3619 27.2571 17.8214 27.1382C19.1001 26.8089 20.2691 26.1339 21.2003 25.1865C21.5337 24.847 22.0521 24.7779 22.4627 25.0147L23.5931 25.6673L24.634 23.8641L23.5057 23.2125C23.0951 22.9757 22.8978 22.4918 23.0218 22.0344C23.1967 21.3991 23.2861 20.7414 23.2861 20.0817C23.2861 19.422 23.1967 18.7643 23.0218 18.129C22.8978 17.6716 23.0951 17.1878 23.5057 16.9509ZM20.1635 21.1227H15.9999C15.4245 21.1227 14.9591 20.6571 14.9591 20.0818V15.9183C14.9591 15.3429 15.4247 14.8774 15.9999 14.8774C16.5752 14.8774 17.0408 15.343 17.0408 15.9183V19.041H20.1634C20.7388 19.041 21.2042 19.5066 21.2042 20.0818C21.2044 20.6571 20.7388 21.1227 20.1635 21.1227ZM29.249 8.30543L29.9849 9.04148C30.3914 9.44813 31.0501 9.44813 31.4567 9.04148C31.8634 8.63484 31.8634 7.97613 31.4567 7.56961L28.513 4.62481C28.1063 4.21816 27.4476 4.21816 27.0411 4.62481C26.6345 5.03145 26.6345 5.69016 27.0411 6.09668L27.7774 6.83332L26.2647 8.34598C24.6521 6.93363 22.7569 5.83711 20.6634 5.18062C21.0042 4.68035 21.2045 4.07707 21.2045 3.42738C21.2045 1.70543 19.8037 0.304688 18.0818 0.304688H13.9182C12.1963 0.304688 10.7955 1.70543 10.7955 3.42738C10.7955 4.07707 10.9958 4.68035 11.3366 5.18062C9.24314 5.83711 7.34787 6.93375 5.73525 8.34598L4.2226 6.83332L4.95889 6.09668C5.36553 5.69004 5.36553 5.03133 4.95889 4.62481C4.55236 4.21816 3.89365 4.21816 3.48701 4.62481L0.543262 7.56961C0.136621 7.97625 0.136621 8.63496 0.543262 9.04148C0.949785 9.44813 1.6085 9.44813 2.01514 9.04148L2.75096 8.30543L4.26338 9.81785C1.85764 12.5654 0.386699 16.1511 0.386699 20.0817C0.386582 28.6916 7.39029 35.6953 15.9999 35.6953C24.6096 35.6953 31.6133 28.6916 31.6133 20.0818C31.6133 16.1513 30.1424 12.5655 27.7366 9.81797L29.249 8.30543ZM13.9182 2.38652H18.0818C18.6551 2.38652 19.1226 2.85305 19.1226 3.42738C19.1226 4.00172 18.6551 4.46824 18.0818 4.46824H13.9182C13.3449 4.46824 12.8774 4.00172 12.8774 3.42738C12.8772 2.85305 13.3448 2.38652 13.9182 2.38652ZM25.3679 20.0818C25.3679 20.6562 25.3151 21.2295 25.2113 21.7936L26.5754 22.5813C27.0735 22.869 27.2443 23.5054 26.9556 24.0034L24.8738 27.61C24.589 28.1095 23.9463 28.2759 23.4528 27.9912L22.0886 27.2024C21.2124 27.9526 20.2062 28.5329 19.1225 28.9163V30.4908C19.1225 31.0662 18.6569 31.5316 18.0817 31.5316H13.9181C13.3427 31.5316 12.8772 31.0661 12.8772 30.4908V28.9163C11.7936 28.533 10.7873 27.9526 9.91111 27.2024L8.54693 27.9912C8.05299 28.2762 7.41057 28.1093 7.12592 27.61L5.0442 24.0034C4.75557 23.5054 4.92631 22.869 5.42436 22.5813L6.78842 21.7936C6.68471 21.2295 6.63186 20.6562 6.63186 20.0818C6.63186 19.5075 6.68471 18.9342 6.78842 18.3701L5.42436 17.5822C4.92631 17.2945 4.75545 16.6582 5.0442 16.1602L7.12592 12.5536C7.40447 12.0649 8.03904 11.8815 8.54693 12.1724L9.91111 12.9612C10.7873 12.2109 11.7936 11.6306 12.8772 11.2473V9.67277C12.8772 9.09738 13.3428 8.63192 13.9181 8.63192H18.0817C18.657 8.63192 19.1225 9.0975 19.1225 9.67277V11.2473C20.2062 11.6305 21.2124 12.2109 22.0886 12.9612L23.4528 12.1724C23.9607 11.8815 24.5953 12.065 24.8738 12.5536L26.9556 16.1602C27.2442 16.6582 27.0735 17.2945 26.5754 17.5822L25.2113 18.3701C25.3151 18.9342 25.3679 19.5075 25.3679 20.0818Z" fill="#2F80ED"/>
</svg>
