<svg width="36" height="36" viewBox="0 0 36 36" fill="none" xmlns="http://www.w3.org/2000/svg">
<path d="M8.63203 35.6953H27.3682V14.8773H8.63203V35.6953ZM11.7547 18H24.2455C24.8208 18 25.2864 18.4656 25.2864 19.0409C25.2864 19.6161 24.8208 20.0817 24.2455 20.0817H11.7547C11.1795 20.0817 10.7139 19.6161 10.7139 19.0409C10.7139 18.4656 11.1793 18 11.7547 18ZM11.7547 22.1636H24.2455C24.8208 22.1636 25.2864 22.6291 25.2864 23.2044C25.2864 23.7798 24.8208 24.2454 24.2455 24.2454H11.7547C11.1795 24.2454 10.7139 23.7798 10.7139 23.2044C10.7138 22.6291 11.1793 22.1636 11.7547 22.1636ZM11.7547 26.3272H24.2455C24.8208 26.3272 25.2864 26.7928 25.2864 27.3681C25.2864 27.9434 24.8208 28.4089 24.2455 28.4089H11.7547C11.1795 28.4089 10.7139 27.9434 10.7139 27.3681C10.7139 26.7928 11.1793 26.3272 11.7547 26.3272ZM11.7547 30.4908H24.2455C24.8208 30.4908 25.2864 30.9564 25.2864 31.5318C25.2864 32.107 24.8208 32.5726 24.2455 32.5726H11.7547C11.1795 32.5726 10.7139 32.107 10.7139 31.5318C10.7138 30.9564 11.1793 30.4908 11.7547 30.4908ZM35.2055 10.8723L18.551 0.463242C18.2135 0.251836 17.7866 0.251836 17.4491 0.463242L0.794648 10.8723C0.489727 11.0624 0.304688 11.3958 0.304688 11.7546V34.6545C0.304688 35.2298 0.770273 35.6953 1.34555 35.6953H6.55008V14.8773H5.5091C4.93383 14.8773 4.46824 14.4117 4.46824 13.8364C4.46824 13.2611 4.93383 12.7955 5.5091 12.7955H30.4908C31.0661 12.7955 31.5316 13.2611 31.5316 13.8364C31.5316 14.4117 31.0661 14.8773 30.4908 14.8773H29.4498V35.6953H34.6543C35.2297 35.6953 35.6952 35.2297 35.6952 34.6545V11.7546C35.6954 11.3958 35.5104 11.0624 35.2055 10.8723ZM20.082 10.7136H15.9184C15.343 10.7136 14.8775 10.248 14.8775 9.67277C14.8775 9.0975 15.3431 8.63192 15.9184 8.63192H20.082C20.6573 8.63192 21.1228 9.0975 21.1228 9.67277C21.1228 10.248 20.6572 10.7136 20.082 10.7136Z" fill="#2F80ED"/>
</svg>
