<svg width="36" height="36" viewBox="0 0 36 36" fill="none" xmlns="http://www.w3.org/2000/svg">
<path d="M19.0409 10.8189V12.9462C19.4767 13.0995 19.8802 13.3383 20.2159 13.6748C20.6204 14.0814 20.6204 14.7411 20.2139 15.1467C19.8073 15.5512 19.1466 15.5533 18.74 15.1447C18.1444 14.5429 16.9652 15.0278 16.9652 15.8817C16.9652 16.456 17.4328 16.9225 18.0061 16.9225C19.728 16.9225 21.1288 18.3233 21.1288 20.0452C21.1288 21.4026 20.2529 22.5487 19.0409 22.9781V25.1811C22.5626 24.6705 25.2862 21.6608 25.2862 17.9999C25.2862 14.3391 22.5626 11.3295 19.0409 10.8189ZM8.63192 18.0001C8.63192 12.8342 12.8341 8.63197 18 8.63197H1.34555C0.770157 8.63197 0.304688 9.09756 0.304688 9.67283V26.3273C0.304688 26.9027 0.770274 27.3681 1.34555 27.3681H18C12.8341 27.3681 8.63192 23.1659 8.63192 18.0001ZM5.50922 19.0409C4.93441 19.0409 4.46836 18.5749 4.46836 18.0001C4.46836 17.4251 4.93441 16.9592 5.50922 16.9592C6.08402 16.9592 6.5502 17.4251 6.5502 18.0001C6.55008 18.5749 6.08402 19.0409 5.50922 19.0409ZM34.6545 8.63197H18C23.1659 8.63197 27.3681 12.8342 27.3681 18.0001C27.3681 23.1659 23.1659 27.3681 18 27.3681H34.6545C35.2298 27.3681 35.6953 26.9026 35.6953 26.3273V9.67283C35.6953 9.09756 35.2297 8.63197 34.6545 8.63197ZM30.4908 19.0409C29.916 19.0409 29.4498 18.5749 29.4498 18.0001C29.4498 17.4251 29.9159 16.9592 30.4908 16.9592C31.0656 16.9592 31.5316 17.4251 31.5316 18.0001C31.5318 18.5749 31.0656 19.0409 30.4908 19.0409ZM18.0061 19.0044C16.2841 19.0044 14.8834 17.6036 14.8834 15.8817C14.8834 14.5287 15.7533 13.3852 16.9591 12.9526V10.8189C13.4374 11.3295 10.7138 14.3392 10.7138 18.0001C10.7138 21.6609 13.4374 24.6706 16.9591 25.1812V22.977C16.5279 22.8235 16.1291 22.5855 15.7963 22.2521C15.3918 21.8454 15.3918 21.1858 15.7983 20.7802C16.2049 20.3757 16.8656 20.3736 17.2723 20.7822C17.8679 21.3829 19.0471 20.9001 19.0471 20.0452C19.047 19.471 18.5794 19.0044 18.0061 19.0044ZM18 6.55014C18.5754 6.55014 19.0409 6.08455 19.0409 5.50928C19.0409 4.93494 19.5084 4.46842 20.0817 4.46842H30.0598L29.7548 4.77334C29.3482 5.17998 29.3482 5.83869 29.7548 6.24521C30.1615 6.65186 30.8201 6.65186 31.2267 6.24521L33.3073 4.16467C33.7102 3.76283 33.7165 3.09838 33.3073 2.69022L31.2267 0.609668C30.8201 0.203027 30.1614 0.203027 29.7548 0.609668C29.3483 1.01631 29.3482 1.67502 29.7548 2.08154L30.0598 2.38647H20.0817C18.3598 2.38647 16.959 3.78721 16.959 5.50916C16.9591 6.08455 17.4246 6.55014 18 6.55014ZM18 29.45C17.4246 29.45 16.9591 29.9156 16.9591 30.4908C16.9591 31.0652 16.4916 31.5317 15.9183 31.5317H5.94023L6.24516 31.2268C6.6518 30.8201 6.6518 30.1614 6.24516 29.7549C5.83852 29.3484 5.17981 29.3483 4.77328 29.7549L2.69273 31.8354C2.28527 32.2417 2.28785 32.9061 2.69273 33.3099L4.77328 35.3904C5.17992 35.7971 5.83863 35.7971 6.24516 35.3904C6.65168 34.9838 6.6518 34.3251 6.24516 33.9186L5.94023 33.6136H15.9183C17.6402 33.6136 19.041 32.2129 19.041 30.4909C19.0409 29.9156 18.5754 29.45 18 29.45Z" fill="#2F80ED"/>
</svg>
