<svg width="52" height="50" viewBox="0 0 52 50" fill="none" xmlns="http://www.w3.org/2000/svg">
<path fill-rule="evenodd" clip-rule="evenodd" d="M0.974609 25C0.974609 11.67 11.3871 0.754515 24.6668 0.0502896C24.6668 0.016755 24.6668 0 24.6668 0H27.0812C40.5118 0.603622 51.0249 11.5191 51.0249 25C51.0249 38.4809 40.5118 49.3964 27.0812 50L24.6668 49.9497C11.3871 49.2455 0.974609 38.33 0.974609 25ZM21.7995 47.6861C18.7814 45.0201 16.4173 41.8008 14.6567 38.2294C12.8458 39.0342 11.1356 40.0403 9.57621 41.1469C12.8961 44.5674 17.1718 46.831 21.7995 47.6861ZM25.0189 35.8149C22.1014 35.9155 19.2342 36.5191 16.4676 37.5252C18.4293 41.5493 21.3468 45.0704 25.0189 47.837V35.8149ZM25.0189 26.8109H13.701C13.9022 29.8793 14.5561 32.8974 15.713 35.7646C18.6808 34.658 21.7996 34.004 25.0189 33.9034V26.8109ZM25.0189 17.7063C21.6487 17.5553 18.3287 16.8511 15.21 15.5936C14.1537 18.5614 13.6507 21.6801 13.6507 24.8491H25.0189V17.7063ZM42.7251 40.8954C41.0149 39.6881 39.1537 38.6821 37.2422 37.9276C35.4817 41.6499 33.0169 44.9698 29.8478 47.7867C34.7774 46.9316 39.3046 44.5171 42.7251 40.8954ZM49.0129 26.8109H39.9585C39.8076 30.0302 39.1034 33.1489 37.9967 36.1167C40.1094 36.9718 42.1215 38.0785 44.033 39.4366C46.9505 35.7646 48.6607 31.4386 49.0129 26.8109ZM38.4495 15.2414C39.5058 18.3602 40.0088 21.5795 40.0088 24.8491H49.0631C49.0128 20.0704 47.5541 15.493 44.7372 11.5694C42.7754 13.0282 40.6628 14.2857 38.4495 15.2414ZM29.8478 2.26358C33.3187 5.3823 36.035 9.20524 37.7956 13.4306C39.8076 12.5252 41.7694 11.4185 43.5299 10.0604C40.0088 5.88531 35.1798 3.16902 29.8478 2.26358ZM26.9807 15.7948C30.0491 15.7445 33.0672 15.1911 35.9847 14.1348C34.1235 9.55734 31.0048 5.48291 26.9807 2.36419V15.7948ZM26.9807 24.8994H38.0974C38.0974 21.831 37.5943 18.8632 36.6386 15.996C33.5199 17.1026 30.2503 17.7062 26.9807 17.7565V24.8994ZM26.9807 33.9034C30.0994 33.9537 33.2181 34.5071 36.1859 35.4628C37.2422 32.7465 37.8459 29.829 38.0471 26.8109H26.9807V33.9034ZM26.9807 47.7364C30.6024 44.9195 33.5199 41.3481 35.381 37.2736C32.6647 36.4185 29.8479 35.9155 26.9807 35.8652V47.7364ZM15.8639 13.8833C18.8317 15.0402 21.9002 15.6942 25.0189 15.8451V2.26358C20.9947 5.28169 17.8257 9.30583 15.8639 13.8833ZM8.77139 9.80886C10.4314 11.1167 12.1919 12.2233 14.1034 13.1288C15.8136 9.05432 18.4796 5.38229 21.7995 2.41448C16.7694 3.31991 12.1919 5.93562 8.77139 9.80886ZM2.93636 24.9497H11.6889C11.7392 21.4789 12.2925 18.1087 13.3992 14.9397C11.3368 13.9336 9.32471 12.7263 7.51385 11.2676C4.54604 15.2917 2.93636 19.9698 2.93636 24.9497ZM8.26837 39.8391C9.97864 38.5312 11.8901 37.4246 13.9022 36.5694C12.6446 33.501 11.9404 30.2314 11.7392 26.8612H2.98668C3.3891 31.6398 5.19996 36.1167 8.26837 39.8391Z" fill="url(#paint0_linear_2564_300)"/>
<defs>
<linearGradient id="paint0_linear_2564_300" x1="19.0552" y1="14.5832" x2="32.5042" y2="48.1598" gradientUnits="userSpaceOnUse">
<stop stop-color="#119CEF"/>
<stop offset="1" stop-color="#F0B503"/>
</linearGradient>
</defs>
</svg>
