<svg width="50" height="50" viewBox="0 0 50 50" fill="none" xmlns="http://www.w3.org/2000/svg">
<path fill-rule="evenodd" clip-rule="evenodd" d="M44.0126 14.2212H34.8369V8.17773H44.0126V14.2212ZM43.235 9.02383H42.7296L39.4248 11.7233L36.12 9.02383H35.6145V13.4154H43.235V9.02383ZM37.3641 9.02383L39.4248 10.7563L41.4854 9.02383H37.3641Z" fill="url(#paint0_linear_2564_255)"/>
<path fill-rule="evenodd" clip-rule="evenodd" d="M23.8337 36.9471C25.039 35.5773 26.7886 34.7715 28.5771 34.7715C28.7845 34.7715 29.0048 34.7849 29.2381 34.8118C32.2707 35.1341 34.6813 37.5918 34.9535 40.7344C35.1479 42.4669 34.6424 44.1994 33.5926 45.5289C33.4371 45.7304 33.2038 45.8513 32.9706 45.811C32.7373 45.7707 32.5429 45.6095 32.4651 45.3678C32.1541 44.5217 31.4154 43.9979 30.56 43.9979H27.2163C26.2054 43.9979 25.35 44.7634 25.1945 45.7707C25.1556 46.0124 24.9612 46.2139 24.728 46.2945C24.6502 46.3213 24.5854 46.3347 24.5336 46.3347C24.3392 46.3347 24.1836 46.2542 24.067 46.1333C23.0172 45.0455 22.3563 43.6353 22.2007 42.1043C22.0063 40.2107 22.5895 38.3573 23.8337 36.9471ZM23.5227 41.9834C23.6004 42.7892 23.8726 43.595 24.3003 44.2799C24.7668 43.5547 25.4278 42.9907 26.2443 42.7489C25.7 42.1446 25.3889 41.3791 25.3889 40.4927C25.3889 38.6393 26.8275 37.1486 28.5771 37.1486C30.3656 37.1486 31.8041 38.6393 31.8041 40.4927C31.8041 41.2985 31.4931 42.064 31.0265 42.6683C31.843 42.7489 32.5818 43.1921 33.0872 43.7965C33.5538 42.9101 33.7093 41.9028 33.6315 40.8956C33.3982 38.3976 31.4931 36.4234 29.1214 36.1816C28.9141 36.1816 28.7326 36.1816 28.5771 36.1816C27.1385 36.1816 25.7777 36.786 24.8057 37.8738C23.8337 39.0019 23.406 40.4524 23.5227 41.9834ZM31.0265 40.4927C31.0265 39.0825 29.9379 37.9544 28.5771 37.9544C27.2552 37.9544 26.1665 39.0825 26.1665 40.4927C26.1665 41.8625 27.2552 42.9907 28.5771 42.9907C29.9379 42.9907 31.0265 41.8625 31.0265 40.4927Z" fill="url(#paint1_linear_2564_255)"/>
<path fill-rule="evenodd" clip-rule="evenodd" d="M1.9834 20.3463C1.9834 13.6984 7.19336 8.33984 13.5697 8.33984C19.985 8.33984 25.156 13.6984 25.156 20.3463C25.156 23.5695 23.9507 26.5913 21.7346 28.8475C21.579 29.0087 21.4235 29.0489 21.268 29.0489C21.1643 29.0489 21.0736 29.0355 20.9958 29.0087C20.7237 28.8878 20.5682 28.6461 20.5682 28.364V27.7597C20.5682 25.4228 18.7408 23.5292 16.5246 23.5292H10.6537C10.5241 23.5292 10.3815 23.5426 10.226 23.5695C10.226 23.5695 10.2131 23.5695 10.1871 23.5695C8.16536 23.8112 6.61014 25.6243 6.61014 27.7597V28.364C6.61014 28.6461 6.41575 28.8878 6.18247 29.0087C5.94919 29.1295 5.63814 29.0489 5.44374 28.8475C3.22756 26.5913 1.9834 23.5695 1.9834 20.3463ZM3.34421 20.3463C3.34421 22.6428 4.04404 24.8185 5.36597 26.6315C5.79365 24.2947 7.65992 22.4817 9.99273 22.1996C10.0186 22.1996 10.0575 22.1996 10.1094 22.1996C10.1094 22.1728 10.1223 22.1594 10.1483 22.1594C8.82633 21.1118 7.97095 19.4599 7.97095 17.5663C7.97095 14.3431 10.4982 11.7242 13.5697 11.7242C16.6801 11.7242 19.2074 14.3431 19.2074 17.5663C19.2074 19.4599 18.352 21.1118 17.03 22.1594C19.4017 22.4011 21.3458 24.2544 21.8123 26.6315C23.1343 24.8185 23.8341 22.6428 23.8341 20.3463C23.8341 14.4639 19.2462 9.7097 13.5697 9.7097C7.93208 9.7097 3.34421 14.4639 3.34421 20.3463ZM18.0409 17.5663C18.0409 15.028 16.0581 12.9329 13.5697 12.9329C11.1203 12.9329 9.13736 15.028 9.13736 17.5663C9.13736 19.9031 10.8092 21.837 12.9476 22.1594H14.1918C16.3691 21.837 18.0409 19.9031 18.0409 17.5663Z" fill="url(#paint2_linear_2564_255)"/>
<path fill-rule="evenodd" clip-rule="evenodd" d="M30.7539 10.9586C30.7539 5.9626 34.6419 1.93359 39.4242 1.93359C44.2065 1.93359 48.0945 5.9626 48.0945 10.9586C48.0945 15.9143 44.2065 19.9433 39.4242 19.9433C34.6419 19.9433 30.7539 15.9143 30.7539 10.9586ZM32.0758 10.9586C32.0758 15.1487 35.3807 18.5331 39.4242 18.5331C43.4677 18.5331 46.7725 15.1487 46.7725 10.9586C46.7725 6.72811 43.4677 3.34375 39.4242 3.34375C35.3807 3.34375 32.0758 6.72811 32.0758 10.9586Z" fill="url(#paint3_linear_2564_255)"/>
<path fill-rule="evenodd" clip-rule="evenodd" d="M13.5692 6.28525C18.6625 6.28525 23.3282 9.22643 25.6221 13.9001L29.0047 12.6511C28.901 12.087 28.8491 11.523 28.8491 10.9589C28.8491 4.91538 33.5925 0 39.4246 0C45.2566 0 50 4.91538 50 10.9589C50 16.9621 45.2566 21.8775 39.4246 21.8775C35.4199 21.8775 31.7652 19.5407 29.9767 15.834L26.7885 17.0427C27.0477 18.1171 27.1773 19.2184 27.1773 20.3465C27.1773 24.5367 25.311 28.5254 22.1617 31.1845L24.5334 33.9243C26.0109 33.0782 27.7216 32.6753 29.4323 32.8767C33.3204 33.2796 36.4308 36.5028 36.8196 40.5318C37.0529 42.9895 36.3141 45.3666 34.72 47.1797C33.1648 48.9927 30.9098 50 28.577 50C28.2919 50 28.0067 49.9866 27.7216 49.9597C23.8336 49.5568 20.7232 46.3336 20.3344 42.3046C20.1011 40.0081 20.7232 37.8324 22.084 36.0999L19.4401 33.0379C17.6127 33.9243 15.591 34.4077 13.5692 34.4077C6.10421 34.4077 0 28.0822 0 20.3465C0 12.5705 6.10421 6.28525 13.5692 6.28525ZM1.36081 20.3465C1.36081 27.3167 6.84293 32.9976 13.5692 32.9976C15.591 32.9976 17.4961 32.5141 19.2846 31.5471C19.3624 31.4934 19.466 31.4666 19.5956 31.4666C19.7512 31.4666 19.9456 31.5471 20.0622 31.7083L23.4837 35.6164C23.717 35.8582 23.717 36.2611 23.4837 36.5431C23.4448 36.5431 23.4059 36.5834 23.4059 36.6237C22.084 38.1144 21.4619 40.0886 21.6563 42.1434C22.0062 45.5278 24.6112 48.2675 27.8771 48.5898C28.1104 48.6167 28.3437 48.6301 28.577 48.6301C30.5599 48.6301 32.4261 47.7438 33.748 46.253C35.07 44.722 35.6921 42.7478 35.4977 40.693C35.1866 37.3086 32.5816 34.5689 29.2768 34.2466C27.7216 34.0854 26.1275 34.4883 24.7667 35.415C24.4946 35.5762 24.1446 35.5359 23.9113 35.2941L20.6843 31.5874C20.5677 31.4263 20.4899 31.2248 20.5288 31.0234C20.5288 30.8219 20.6454 30.6608 20.8009 30.5399C23.9502 28.1628 25.8165 24.3352 25.8165 20.3465C25.8165 19.1378 25.661 17.9291 25.311 16.7607C25.2333 16.4383 25.3888 16.0355 25.7387 15.9146L30.1322 14.303C30.4432 14.1821 30.832 14.3836 30.9487 14.7059C32.4261 18.2111 35.7309 20.5077 39.4246 20.5077C44.5179 20.5077 48.6392 16.1966 48.6392 10.9589C48.6392 5.6809 44.5179 1.36986 39.4246 1.36986C34.3313 1.36986 30.2099 5.6809 30.2099 10.9589C30.2099 11.6035 30.2877 12.275 30.4432 12.9734C30.4821 13.2957 30.3266 13.6583 29.9767 13.7792L25.5055 15.4311C25.1944 15.552 24.8445 15.3908 24.689 15.0685C22.7061 10.556 18.3126 7.65512 13.5692 7.65512C6.84293 7.65512 1.36081 13.336 1.36081 20.3465Z" fill="url(#paint4_linear_2564_255)"/>
<defs>
<linearGradient id="paint0_linear_2564_255" x1="35.2957" y1="9.28571" x2="39.5301" y2="15.2729" gradientUnits="userSpaceOnUse">
<stop stop-color="#029AFF"/>
<stop offset="0.927083" stop-color="#F0B503"/>
</linearGradient>
<linearGradient id="paint1_linear_2564_255" x1="22.8056" y1="36.8914" x2="31.3937" y2="45.7658" gradientUnits="userSpaceOnUse">
<stop stop-color="#029AFF"/>
<stop offset="0.927083" stop-color="#F0B503"/>
</linearGradient>
<linearGradient id="paint2_linear_2564_255" x1="3.14203" y1="12.1395" x2="18.5308" y2="28.1629" gradientUnits="userSpaceOnUse">
<stop stop-color="#029AFF"/>
<stop offset="0.927083" stop-color="#F0B503"/>
</linearGradient>
<linearGradient id="paint3_linear_2564_255" x1="31.6209" y1="5.23537" x2="44.9249" y2="17.1648" gradientUnits="userSpaceOnUse">
<stop stop-color="#029AFF"/>
<stop offset="0.927083" stop-color="#F0B503"/>
</linearGradient>
<linearGradient id="paint4_linear_2564_255" x1="2.5" y1="9.16667" x2="39.5614" y2="43.6813" gradientUnits="userSpaceOnUse">
<stop stop-color="#029AFF"/>
<stop offset="0.927083" stop-color="#F0B503"/>
</linearGradient>
</defs>
</svg>
