<svg width="46" height="50" viewBox="0 0 46 50" fill="none" xmlns="http://www.w3.org/2000/svg">
<path d="M40.4371 41.389C40.4371 40.4006 40.0267 39.491 39.3625 38.8441C40.0267 38.197 40.4371 37.2876 40.4371 36.2991C40.4371 35.0799 39.8126 33.9808 38.8576 33.3462C39.3073 32.7487 39.5731 32.0046 39.5731 31.2093C39.5731 29.2675 38.0203 27.6878 36.1161 27.6878L31.2997 27.6656C30.2809 27.6596 29.4519 26.8298 29.4519 25.8158V20.6253C29.4519 18.4729 27.713 16.7217 25.5754 16.7217C23.4378 16.7217 21.6989 18.4729 21.6989 20.6253V25.7563C21.6989 26.7721 20.8685 27.602 19.8447 27.6062C16.8702 27.6276 14.4562 30.0775 14.4634 33.0691L14.4655 33.6001H9.9727V32.2786C9.9727 31.7394 9.53617 31.3021 8.99767 31.3021H0.975029C0.43652 31.3021 0 31.7394 0 32.2786V46.594C0 47.1332 0.43652 47.5705 0.975029 47.5705H8.99767C9.53617 47.5705 9.9727 47.1332 9.9727 46.594V45.2725H14.7507C15.0569 46.2908 15.6063 47.2259 16.3715 48.0081C17.628 49.2928 19.307 50.0002 21.0992 50.0002H36.0619C37.938 50.0002 39.5152 48.4752 39.5778 46.6007C39.6062 45.7533 39.34 44.9623 38.8679 44.335C39.817 43.6994 40.4371 42.6039 40.4371 41.389ZM1.95006 45.6174V33.2554H8.02264V45.6174H1.95006ZM37.1852 39.8355C37.9273 39.9417 38.487 40.6096 38.487 41.389C38.487 42.1559 37.9451 42.8148 37.2209 42.9369L36.41 42.9836C35.9099 43.0123 35.513 43.416 35.4917 43.9173C35.4706 44.4186 35.832 44.8544 36.3279 44.9253C37.0966 45.0354 37.6558 45.7276 37.6289 46.5355C37.601 47.369 36.8981 48.0471 36.062 48.0471H21.0992C19.8355 48.0471 18.6512 47.5479 17.7644 46.6412C16.9197 45.7777 16.4467 44.6501 16.4196 43.4465V43.2166C16.4196 42.6813 15.9891 42.2456 15.4546 42.2402C15.4512 42.2401 15.4479 42.2401 15.4445 42.2401C14.9145 42.2401 14.4807 42.6648 14.4698 43.1966C14.469 43.2376 14.4686 43.2784 14.4684 43.3194H9.97279V35.5535H15.4447C15.7039 35.5535 15.9525 35.45 16.1355 35.2661C16.3185 35.082 16.4207 34.8327 16.4197 34.573L16.4134 33.0629C16.4089 31.1447 17.9544 29.5732 19.8557 29.5595C21.9473 29.5509 23.6489 27.8448 23.6489 25.7565V20.6255C23.6489 19.55 24.5131 18.675 25.5754 18.675C26.6377 18.675 27.5019 19.55 27.5019 20.6255V25.816C27.5019 27.9008 29.2005 29.6067 31.2896 29.619L36.1118 29.6411C36.9451 29.6411 37.6232 30.3446 37.6232 31.2095C37.6232 31.9889 37.0635 32.6568 36.3213 32.763C35.8253 32.834 35.4638 33.2698 35.485 33.7712C35.5064 34.2726 35.9035 34.6762 36.4038 34.7047L37.2212 34.7515C37.9455 34.8737 38.4871 35.5325 38.4871 36.2994C38.4871 37.0787 37.9275 37.7466 37.1853 37.8529C36.705 37.9216 36.3482 38.3336 36.3482 38.8196V38.8689C36.3481 39.3547 36.705 39.7667 37.1852 39.8355Z" fill="#2657F2"/>
<path d="M39.4179 16.7256L37.1786 17.6718C36.3449 18.0241 35.4351 17.3648 35.5134 16.4652L35.7238 14.0486L34.1295 12.2168C33.536 11.5348 33.8835 10.4681 34.7655 10.2644L37.1348 9.71714L38.3889 7.63882C38.8557 6.86519 39.9803 6.86519 40.4471 7.63882L41.7012 9.71714L44.0705 10.2644C44.9525 10.4681 45.3 11.5349 44.7065 12.2168L43.1122 14.0486L43.3225 16.4652C43.4008 17.3648 42.491 18.0241 41.6574 17.6718L39.4179 16.7256Z" fill="#B2F0FB"/>
<path d="M11.6128 16.7256L9.37342 17.6718C8.53977 18.0241 7.62997 17.3648 7.70826 16.4652L7.91858 14.0486L6.32431 12.2168C5.7308 11.5348 6.07831 10.4681 6.96032 10.2644L9.32964 9.71714L10.5837 7.63882C11.0506 6.86519 12.1752 6.86519 12.6419 7.63882L13.896 9.71714L16.2653 10.2644C17.1473 10.4681 17.4948 11.5349 16.9013 12.2168L15.3071 14.0486L15.5174 16.4652C15.5957 17.3648 14.6859 18.0241 13.8522 17.6718L11.6128 16.7256Z" fill="#B2F0FB"/>
<path d="M25.5152 11.8439L22.7715 13.0032C21.7502 13.4347 20.6356 12.627 20.7314 11.5249L20.989 8.56412L19.0357 6.31988C18.3086 5.48443 18.7343 4.17749 19.815 3.92788L22.7178 3.25738L24.2543 0.710889C24.8262 -0.236963 26.204 -0.236963 26.776 0.710889L28.3124 3.25728L31.2153 3.92779C32.2959 4.1774 32.7216 5.48433 31.9945 6.31978L30.0413 8.56402L30.2989 11.5248C30.3948 12.6269 29.2801 13.4347 28.2587 13.0031L25.5152 11.8439Z" fill="#B2F0FB"/>
</svg>
