<svg width="44" height="51" viewBox="0 0 44 51" fill="none" xmlns="http://www.w3.org/2000/svg">
<path d="M0 0.97168H44V18.6136H0V0.97168Z" fill="#B2F0FB"/>
<path d="M36.6682 16.6602C34.5135 16.6602 32.7604 18.4178 32.7604 20.5782V30.384C32.7604 33.0896 30.5651 35.2907 27.8667 35.2907H27.1548C28.7861 33.8527 29.8186 31.7473 29.8186 29.4034C29.8186 25.0802 26.3106 21.5631 21.9989 21.5631C17.6872 21.5631 14.1793 25.0803 14.1793 29.4034C14.1793 31.7473 15.2118 33.8527 16.8431 35.2907H16.1312C13.4328 35.2907 11.2375 33.0896 11.2375 30.3841L11.2376 20.5778C11.2376 18.4176 9.48449 16.6602 7.32967 16.6602C5.17494 16.6602 3.42188 18.4179 3.42188 20.5784V32.1901C3.42188 36.8031 6.26647 40.9552 10.6083 42.5878C10.9894 42.7312 11.2454 43.1016 11.2454 43.5096V49.995C11.2454 50.5343 11.6816 50.9716 12.2194 50.9716H31.7784C32.3163 50.9716 32.7524 50.5343 32.7524 49.995V43.5097C32.7524 43.1016 33.0085 42.7312 33.3896 42.5879C37.6975 40.9681 40.576 36.8396 40.576 32.1902V20.5785C40.576 18.4181 38.823 16.6603 36.6682 16.6602ZM16.1272 29.4035C16.1272 26.1573 18.7612 23.5163 21.9989 23.5163C25.2366 23.5163 27.8707 26.1573 27.8707 29.4035C27.8707 32.6498 25.2366 35.2908 21.9989 35.2908C18.7612 35.2908 16.1272 32.6498 16.1272 29.4035ZM38.628 32.1902C38.628 35.9836 36.248 39.4272 32.7055 40.7591C31.5684 41.1867 30.8044 42.292 30.8044 43.5097V49.0185H13.1934V43.5097C13.1934 42.292 12.4294 41.1867 11.2922 40.7591C7.74984 39.4272 5.36973 35.9836 5.36973 32.1902V20.5784C5.36973 19.4948 6.24884 18.6133 7.32957 18.6133C8.41029 18.6133 9.2895 19.4945 9.2895 20.5778L9.28941 30.3841C9.28941 34.1665 12.3586 37.2439 16.1311 37.2439H27.8666C31.6391 37.2439 34.7083 34.1665 34.7083 30.384V20.5783C34.7083 19.4948 35.5874 18.6134 36.668 18.6134C37.7487 18.6135 38.6279 19.495 38.6279 20.5786V32.1902H38.628Z" fill="#2657F2"/>
<path d="M17.1839 14.6271C17.6886 14.8198 18.2501 14.5642 18.4407 14.0622L18.9337 12.7646H22.309L22.7964 14.0595C22.9862 14.564 23.5478 14.8192 24.0515 14.6282C24.5548 14.4379 24.8088 13.8744 24.6188 13.3697C21.5554 5.23115 21.7054 5.62852 21.6973 5.60889C21.5191 5.17432 21.1012 4.89355 20.6326 4.89355H20.6318C20.1503 4.89385 19.7252 5.1916 19.5582 5.63301C18.9883 7.1333 17.247 11.7175 16.6205 13.3669C16.429 13.871 16.6812 14.4353 17.1839 14.6271ZM20.6292 8.30137L21.5739 10.8114H19.6756L20.6292 8.30137Z" fill="#2657F2"/>
<path d="M26.9976 14.513C27.4392 14.825 28.0463 14.7161 28.3548 14.2771L30.5095 11.2104L32.6608 14.2767C32.97 14.7172 33.577 14.8242 34.0179 14.5135C34.4578 14.2031 34.5636 13.5941 34.254 13.1528L31.7012 9.51427L33.8663 6.43263C34.1761 5.99171 34.0708 5.38253 33.631 5.07189C33.1914 4.76124 32.5837 4.86681 32.2739 5.30783L30.5107 7.8174L28.7503 5.30831C28.4409 4.8673 27.8336 4.76115 27.3933 5.0715C26.9533 5.38185 26.8476 5.99093 27.1571 6.43214L29.319 9.51349L26.7624 13.1523C26.4525 13.5932 26.5578 14.2024 26.9976 14.513Z" fill="#2657F2"/>
<path d="M10.5396 6.84668H11.7172V13.7146C11.7172 14.2538 12.1533 14.6911 12.6912 14.6911C13.229 14.6911 13.6651 14.2538 13.6651 13.7146V6.84668H14.8603C15.3981 6.84668 15.8343 6.40937 15.8343 5.87012C15.8343 5.33076 15.3981 4.89355 14.8603 4.89355H10.5397C10.0018 4.89355 9.56567 5.33076 9.56567 5.87012C9.56558 6.40947 10.0016 6.84668 10.5396 6.84668Z" fill="#2657F2"/>
</svg>
