<svg width="40" height="51" viewBox="0 0 40 51" fill="none" xmlns="http://www.w3.org/2000/svg">
<path fill-rule="evenodd" clip-rule="evenodd" d="M29.3225 8.24692L26.3723 6.77037C26.0563 6.61216 25.8455 6.29577 25.8455 5.92663C25.8455 5.55749 26.0563 5.24107 26.3723 5.08286L36.3291 0.864124C36.5925 0.758655 36.9086 0.811409 37.1194 0.916877C37.3828 1.07508 37.5408 1.28602 37.5935 1.54969L39.49 12.6766C39.5427 13.0457 39.3847 13.4149 39.0686 13.5731C38.8052 13.784 38.3837 13.784 38.1203 13.6258L35.1702 11.8856C30.3235 19.8485 23.5802 27.3895 10.4099 27.3895C7.67043 27.3895 4.61489 27.0203 1.24328 26.282C0.769144 26.1766 0.453042 25.7547 0.505723 25.2801C0.611086 24.8055 1.03255 24.4891 1.50668 24.4891C2.29691 24.5418 21.3676 25.8602 29.3225 8.24692ZM9.83035 25.5438C22.8427 25.8074 29.2171 18.4246 34.0638 10.1454C34.2219 9.93443 34.3799 9.77624 34.6433 9.7235C34.8541 9.67077 35.1175 9.72348 35.3282 9.82895L37.3301 11.0419L35.9604 3.02625L28.9537 5.97935L30.9556 6.98132C31.3771 7.19225 31.5351 7.7196 31.3771 8.14148C26.425 19.8485 16.837 24.0672 9.83035 25.5438Z" fill="url(#paint0_linear_2564_285)"/>
<path fill-rule="evenodd" clip-rule="evenodd" d="M8.72401 36.1401C10.4625 36.1401 11.8322 37.8276 11.8322 40.0425V46.8979C11.8322 49.06 10.4625 50.8003 8.72401 50.8003H4.40412C2.66563 50.8003 1.2959 49.06 1.2959 46.8979V40.0425C1.2959 37.8276 2.66563 36.1401 4.40412 36.1401H8.72401ZM8.72401 37.9331H4.45679C3.77193 37.9331 3.13975 38.9351 3.13975 40.0425V46.8979C3.13975 48.0054 3.77193 48.9546 4.45679 48.9546H8.72401C9.46155 48.9546 10.041 48.0054 10.041 46.8979V40.0425C10.041 38.9351 9.46155 37.9331 8.72401 37.9331Z" fill="url(#paint1_linear_2564_285)"/>
<path fill-rule="evenodd" clip-rule="evenodd" d="M21.6313 29.7104C23.4224 29.7104 24.7922 31.398 24.7922 33.6128V46.9018C24.7922 49.0639 23.4224 50.8041 21.6313 50.8041H17.364C15.6256 50.8041 14.2559 49.0639 14.2559 46.9018V33.6128C14.2559 31.398 15.6256 29.7104 17.364 29.7104H21.6313ZM21.6313 31.5034H17.364C16.6265 31.5034 16.047 32.5054 16.047 33.6128V46.9018C16.047 48.0093 16.6265 48.9585 17.364 48.9585H21.6313C22.3161 48.9585 22.9483 48.0093 22.9483 46.9018V33.6128C22.9483 32.5054 22.3161 31.5034 21.6313 31.5034Z" fill="url(#paint2_linear_2564_285)"/>
<path fill-rule="evenodd" clip-rule="evenodd" d="M39.0158 25.9156V46.9039C39.0158 49.066 37.6461 50.8062 35.8549 50.8062H31.5877C29.8492 50.8062 28.4795 49.066 28.4795 46.9039V25.9156C28.4795 23.7008 29.8492 22.0133 31.5877 22.0133H35.8549C37.6461 22.0133 39.0158 23.7008 39.0158 25.9156ZM37.1719 25.9156C37.1719 24.8082 36.5924 23.8063 35.8549 23.8063H31.5877C30.9028 23.8063 30.2706 24.8082 30.2706 25.9156V46.9039C30.2706 48.0113 30.9028 48.9605 31.5877 48.9605H35.8549C36.5924 48.9605 37.1719 48.0113 37.1719 46.9039V25.9156Z" fill="url(#paint3_linear_2564_285)"/>
<defs>
<linearGradient id="paint0_linear_2564_285" x1="14.5887" y1="8.55988" x2="19.8565" y2="27.8354" gradientUnits="userSpaceOnUse">
<stop stop-color="#119CEF"/>
<stop offset="1" stop-color="#F0B503"/>
</linearGradient>
<linearGradient id="paint1_linear_2564_285" x1="5.10212" y1="40.416" x2="9.96268" y2="49.1286" gradientUnits="userSpaceOnUse">
<stop stop-color="#119CEF"/>
<stop offset="1" stop-color="#F0B503"/>
</linearGradient>
<linearGradient id="paint2_linear_2564_285" x1="18.0621" y1="35.8627" x2="26.0864" y2="45.8593" gradientUnits="userSpaceOnUse">
<stop stop-color="#119CEF"/>
<stop offset="1" stop-color="#F0B503"/>
</linearGradient>
<linearGradient id="paint3_linear_2564_285" x1="32.2857" y1="30.4111" x2="43.4578" y2="40.6075" gradientUnits="userSpaceOnUse">
<stop stop-color="#119CEF"/>
<stop offset="1" stop-color="#F0B503"/>
</linearGradient>
</defs>
</svg>
