<svg width="52" height="50" viewBox="0 0 52 50" fill="none" xmlns="http://www.w3.org/2000/svg">
<path fill-rule="evenodd" clip-rule="evenodd" d="M0.328125 29.8199C0.328125 18.67 9.40067 9.59744 20.5082 9.59744C25.8076 9.59744 30.5982 11.6324 34.2018 14.9392L38.4837 10.6573C38.4555 10.6291 38.4413 10.6008 38.4413 10.5725L35.9824 4.04368C35.8128 3.61973 36.0248 3.11099 36.4912 2.94141C36.9151 2.77183 37.4239 3.0262 37.551 3.45015L39.798 9.34307L41.5786 7.56248C41.5786 7.53421 41.5644 7.50595 41.5362 7.47769L39.0773 1.16081C38.9077 0.694467 39.162 0.228122 39.586 0.0585412C40.0099 -0.111039 40.5187 0.100936 40.6883 0.524887L42.8928 6.24823L47.0899 2.05111C47.4291 1.71195 47.9378 1.71195 48.277 2.05111C48.6162 2.39027 48.6162 2.89901 48.277 3.23818L44.2071 7.3505L50.9055 8.07122C51.3718 8.11361 51.711 8.53757 51.6686 9.00391C51.6262 9.42786 51.2447 9.76702 50.8207 9.76702C50.7924 9.76702 50.7642 9.76702 50.7359 9.76702L42.7656 8.87673C42.7374 8.87673 42.7091 8.87673 42.6808 8.87673L40.4763 11.0389L47.9378 11.8868C48.4042 11.9292 48.7433 12.3531 48.701 12.8195C48.6586 13.2434 48.277 13.5402 47.8531 13.5402C47.8248 13.5402 47.7965 13.5402 47.7683 13.5402L39.798 12.6923C39.5436 12.6499 39.3316 12.5227 39.2044 12.3107L35.3889 16.1263C38.6957 19.7299 40.7307 24.5205 40.7307 29.8199C40.7307 40.9274 31.6581 50 20.5082 50C9.40067 50 0.328125 40.9274 0.328125 29.8199ZM2.02393 29.8199C2.02393 39.9948 10.3334 48.3042 20.5082 48.3042C30.7254 48.3042 39.0349 39.9948 39.0349 29.8199C39.0349 24.9869 37.2119 20.6202 34.2018 17.3134L30.2167 21.3409C32.1669 23.5878 33.3963 26.5555 33.3963 29.8199C33.3963 36.8999 27.6306 42.6656 20.5082 42.6656C13.4282 42.6656 7.66248 36.8999 7.66248 29.8199C7.66248 22.6975 13.4282 16.9318 20.5082 16.9318C23.7726 16.9318 26.7403 18.1613 28.9872 20.1114L33.0148 16.1263C29.7079 13.1162 25.3412 11.2933 20.5082 11.2933C10.3334 11.2933 2.02393 19.6027 2.02393 29.8199ZM27.8002 21.3409C25.85 19.6451 23.3063 18.6276 20.5082 18.6276C14.3609 18.6276 9.35828 23.6302 9.35828 29.8199C9.35828 35.9672 14.3609 40.9698 20.5082 40.9698C26.6979 40.9698 31.7005 35.9672 31.7005 29.8199C31.7005 27.0218 30.683 24.4781 28.9872 22.528L24.9597 26.5555C25.638 27.4882 26.0196 28.5905 26.0196 29.8199C26.0196 32.83 23.5606 35.2889 20.5082 35.2889C17.4981 35.2889 15.0392 32.83 15.0392 29.8199C15.0392 26.7675 17.4981 24.3086 20.5082 24.3086C21.7377 24.3086 22.8399 24.6901 23.7726 25.3684L27.8002 21.3409ZM19.9147 29.2264L22.5432 26.5979C21.9496 26.2163 21.2713 26.0044 20.5082 26.0044C18.4308 26.0044 16.735 27.7426 16.735 29.8199C16.735 31.8973 18.4308 33.5931 20.5082 33.5931C22.5856 33.5931 24.3238 31.8973 24.3238 29.8199C24.3238 29.0568 24.1118 28.3785 23.7302 27.785L21.1017 30.4134C20.9322 30.583 20.7202 30.6678 20.5082 30.6678C20.2962 30.6678 20.0842 30.583 19.9147 30.4134C19.5755 30.0743 19.5755 29.5655 19.9147 29.2264Z" fill="url(#paint0_linear_2564_312)"/>
<defs>
<linearGradient id="paint0_linear_2564_312" x1="18.8761" y1="14.5832" x2="32.077" y2="48.3924" gradientUnits="userSpaceOnUse">
<stop stop-color="#119CEF"/>
<stop offset="1" stop-color="#F0B503"/>
</linearGradient>
</defs>
</svg>
