<svg width="50" height="50" viewBox="0 0 50 50" fill="none" xmlns="http://www.w3.org/2000/svg">
<g clip-path="url(#clip0_4821_3099)">
<path d="M15.6846 46.5716H22.5484L20.5872 34.805H20.5873L22.0464 32.0477L19.1165 29.917L16.1866 32.0477L17.6457 34.805H17.6456L15.6846 46.5716Z" fill="#B2F0FB"/>
<path d="M49.7886 32.733C49.7802 32.7103 49.7712 32.6879 49.7611 32.666C49.3105 31.6211 48.2706 30.8876 47.0623 30.8876H44.1167V29.903C44.1167 28.2832 42.7989 26.9653 41.1791 26.9653H37.2568C36.2769 26.9653 35.408 27.4482 34.874 28.188C34.085 27.7188 33.2067 27.4121 32.2803 27.2887C30.5182 27.0537 25.4964 26.384 23.5253 26.1211V23.8133C26.1609 22.2861 27.9378 19.4344 27.9378 16.1753V15.1907H28.9223C30.5421 15.1907 31.86 13.8729 31.86 12.2531C31.86 10.6333 30.5421 9.31543 28.9223 9.31543H26.9612C26.422 9.31543 25.9847 9.75264 25.9847 10.292V16.1753C25.9847 19.9622 22.9037 23.0431 19.1168 23.0431C15.3299 23.0431 12.249 19.9622 12.249 16.1753C12.249 15.6592 12.249 11.7757 12.249 10.292C12.249 9.75264 11.8117 9.31543 11.2725 9.31543H9.31123C7.69141 9.31543 6.37363 10.6333 6.37363 12.2531C6.37363 13.8729 7.69141 15.1907 9.31123 15.1907H10.2958V16.1753C10.2958 19.4344 12.0727 22.2861 14.7083 23.8133V26.1063L5.95342 27.2739C2.55938 27.7259 0 30.649 0 34.0732V46.5724C0 47.1116 0.437207 47.5489 0.976562 47.5489H47.0623C48.6821 47.5489 50 46.2311 50 44.6112V33.8252C50 33.4393 49.9244 33.0709 49.7886 32.733ZM29.9067 12.2532C29.9067 12.7961 29.4651 13.2377 28.9222 13.2377H27.9377V11.2687H28.9222C29.4651 11.2687 29.9067 11.7103 29.9067 12.2532ZM9.31123 13.2377C8.76836 13.2377 8.32676 12.7961 8.32676 12.2532C8.32676 11.7103 8.76836 11.2687 9.31123 11.2687H10.2958V13.2377H9.31123ZM47.8149 33.1918C47.2768 34.6882 45.8458 35.7903 44.1207 35.7903H34.3152C32.6439 35.7903 31.1745 34.7395 30.6197 33.1932C30.8005 32.978 31.0712 32.8407 31.3735 32.8407H47.0622C47.3641 32.8407 47.6342 32.9774 47.8149 33.1918ZM37.2568 28.9185H41.1791C41.722 28.9185 42.1636 29.3601 42.1636 29.903V30.8876H36.2724V29.903C36.2724 29.3602 36.714 28.9185 37.2568 28.9185ZM15.366 27.9892L17.5418 29.8541L14.268 32.2301L13.1409 28.2859L15.366 27.9892ZM22.8525 28.0019L25.0661 28.2971L23.9435 32.2271L20.6896 29.8558L22.8525 28.0019ZM21.5721 24.6481V26.527L19.1166 28.6315L16.6612 26.527V24.6482C18.2599 25.1122 19.9714 25.1128 21.5721 24.6481ZM1.95312 34.0732C1.95312 31.6239 3.78369 29.5333 6.21133 29.21L11.1841 28.5468L12.7733 34.1082C12.9593 34.759 13.7371 35.0284 14.2859 34.6302L19.1154 31.1252L23.9232 34.6291C24.4679 35.0262 25.25 34.7641 25.4374 34.1081L27.0228 28.558L32.0222 29.2247C32.8641 29.3369 33.65 29.6601 34.3192 30.1646V30.8876H31.3736C29.759 30.8876 28.4359 32.2005 28.4359 33.8252V44.6112C28.4359 44.9564 28.4963 45.2878 28.6062 45.5958H7.87939V37.7474C7.87939 37.2081 7.44209 36.7708 6.90283 36.7708C6.36357 36.7708 5.92627 37.2081 5.92627 37.7474V45.5958H1.95312V34.0732ZM47.0623 45.5958H31.3736C30.8307 45.5958 30.3891 45.1542 30.3891 44.6112V36.2418C31.44 37.1838 32.8237 37.7435 34.3152 37.7435H34.3192V38.7279C34.3192 39.2673 34.7565 39.7045 35.2958 39.7045C35.8351 39.7045 36.2724 39.2673 36.2724 38.7279V37.7435H42.1636V39.2183C42.1636 39.7575 42.6008 40.1948 43.1401 40.1948C43.6794 40.1948 44.1167 39.7575 44.1167 39.2183V37.7435H44.1207C45.5843 37.7435 46.9662 37.2111 48.0469 36.239V44.6112C48.0469 45.1542 47.6053 45.5958 47.0623 45.5958Z" fill="#2657F2"/>
<path d="M15.6846 15.1904H16.6651C17.2044 15.1904 17.6417 14.7531 17.6417 14.2139C17.6417 13.6746 17.2044 13.2373 16.6651 13.2373H15.6846C15.1452 13.2373 14.708 13.6746 14.708 14.2139C14.708 14.7531 15.1453 15.1904 15.6846 15.1904Z" fill="#2657F2"/>
<path d="M21.5679 15.1904H22.5484C23.0877 15.1904 23.525 14.7531 23.525 14.2139C23.525 13.6746 23.0877 13.2373 22.5484 13.2373H21.5679C21.0286 13.2373 20.5913 13.6746 20.5913 14.2139C20.5913 14.7531 21.0286 15.1904 21.5679 15.1904Z" fill="#2657F2"/>
<path d="M16.5848 17.3192C16.1473 17.6346 16.0483 18.245 16.3636 18.6825C16.5344 18.9194 17.4646 20.0931 19.1159 20.0931C19.1277 20.0931 19.1396 20.0931 19.1513 20.0929C20.782 20.0764 21.702 18.9155 21.8698 18.683C22.1855 18.2457 22.0869 17.6352 21.6495 17.3196C21.2121 17.0039 20.6018 17.1026 20.2862 17.5399C20.2687 17.5641 19.85 18.1327 19.1315 18.14C19.1269 18.14 19.1223 18.14 19.1176 18.14C18.3955 18.14 17.9682 17.5681 17.948 17.5402C17.6325 17.1029 17.0224 17.004 16.5848 17.3192Z" fill="#2657F2"/>
<path d="M26.9734 11.2682H10.2959V9.31104C10.2959 5.52852 13.3732 2.45117 17.1558 2.45117H33.3308V4.91094C33.3308 8.41631 30.4789 11.2682 26.9734 11.2682Z" fill="#B2F0FB"/>
</g>
<defs>
<clipPath id="clip0_4821_3099">
<rect width="50" height="50" fill="white"/>
</clipPath>
</defs>
</svg>
