<svg width="48" height="50" viewBox="0 0 48 50" fill="none" xmlns="http://www.w3.org/2000/svg">
<path fill-rule="evenodd" clip-rule="evenodd" d="M22.4095 22.38C22.2138 22.3311 21.9691 22.2821 21.8223 22.0862L7.43703 7.2478C7.29024 7.10088 7.19238 6.90499 7.19238 6.66014C7.24131 6.41528 7.29023 6.21939 7.48595 6.07248C11.4982 2.15475 16.8315 0 22.4095 0C22.8988 0 23.2902 0.391775 23.2902 0.832519V21.4985C23.2902 21.8413 23.0456 22.1841 22.752 22.2821C22.6542 22.3474 22.54 22.3637 22.4095 22.331V22.38ZM21.5777 1.76298C17.0272 1.95886 12.6725 3.72184 9.24744 6.75808L21.5777 19.4907V1.76298Z" fill="url(#paint0_linear_2564_271)"/>
<path fill-rule="evenodd" clip-rule="evenodd" d="M22.0184 26.5401L5.13762 38.4892C5.00714 38.5871 4.86034 38.6361 4.69724 38.6361C4.40366 38.6361 4.15901 38.5381 3.96329 38.2933C1.37002 34.6204 0 30.3109 0 25.8545C0 19.9779 2.34864 14.4931 6.55659 10.3795C6.70338 10.2326 6.948 10.1836 7.14372 10.1836C7.38837 10.1836 7.58411 10.2815 7.77983 10.4285L22.1162 25.2668C22.3119 25.4138 22.3609 25.6586 22.3609 25.9035C22.3119 26.1483 22.2141 26.3932 22.0184 26.5401ZM20.208 25.7076L7.14372 12.2404C3.62079 15.9133 1.71254 20.7125 1.71254 25.8545C1.71254 29.6743 2.78899 33.3961 4.89297 36.6283L20.208 25.7076Z" fill="url(#paint1_linear_2564_271)"/>
<path fill-rule="evenodd" clip-rule="evenodd" d="M47.9998 28.0114V28.0604C47.9998 28.4521 47.9835 28.8439 47.9509 29.2357C47.8857 30.2804 47.7552 31.3251 47.5595 32.3699C47.4616 32.8596 47.3148 33.3983 47.1681 33.937C46.7277 35.553 46.0916 37.0711 45.3576 38.4913C44.5748 39.9115 43.5962 41.2827 42.5197 42.556C41.9 43.2416 41.2476 43.8945 40.5626 44.5148C39.2904 45.5922 37.9203 46.5716 36.5014 47.3552C35.0824 48.1387 33.5656 48.7264 31.9509 49.1671C31.3964 49.3304 30.8745 49.461 30.3852 49.5589C29.3413 49.7548 28.2975 49.8854 27.2537 49.9507C26.8622 49.9833 26.4708 49.9996 26.0793 49.9996C26.0793 49.9996 26.0304 49.9996 25.9815 49.9996C25.1007 49.9996 24.1222 49.9017 23.1925 49.8038C22.8337 49.7385 22.4912 49.6732 22.165 49.6079C21.431 49.5099 20.6971 49.314 19.9631 49.1181C19.6696 49.0202 19.3597 48.9223 19.0335 48.8243C18.3485 48.5795 17.7124 48.3346 17.0763 48.0408C16.8153 47.9102 16.5544 47.7796 16.2934 47.649C15.7063 47.3552 15.1191 47.0287 14.532 46.6696L14.4341 46.6206C14.2057 46.49 13.9937 46.3594 13.798 46.2288C13.2598 45.8371 12.6726 45.3963 12.0855 44.9066C11.8571 44.7107 11.6451 44.5311 11.4494 44.3679C10.9601 43.9108 10.5034 43.4538 10.0793 42.9967C9.88361 42.8008 9.68792 42.5886 9.4922 42.3601C9.05183 41.8214 8.66038 41.3317 8.31787 40.842L8.22001 40.744C8.02429 40.4502 7.92643 40.1563 7.97536 39.8135C8.07322 39.4707 8.22003 39.1769 8.5136 38.981L24.8072 27.4237V7.39435C24.8072 6.70875 25.3943 6.12109 26.0793 6.12109C26.3729 6.15374 26.6665 6.17006 26.9601 6.17006C27.8082 6.20271 28.64 6.28433 29.4555 6.41492C29.7817 6.44757 30.1242 6.49654 30.483 6.56184C31.2007 6.72508 31.9183 6.92096 32.6359 7.1495C32.9295 7.24744 33.2231 7.34539 33.5167 7.44333C34.2343 7.70451 34.9356 7.99834 35.6206 8.32482C35.9142 8.45541 36.1915 8.60232 36.4524 8.76556C37.007 9.05939 37.5615 9.40219 38.1161 9.79396C38.377 9.9572 38.6217 10.1204 38.85 10.2837C39.3719 10.6428 39.8775 11.0346 40.3668 11.459C40.5952 11.6549 40.8072 11.8508 41.0029 12.0467C41.4922 12.4711 41.9326 12.9281 42.324 13.4179C42.5197 13.6137 42.7154 13.826 42.9111 14.0545C43.3678 14.6095 43.7919 15.1808 44.1834 15.7685C44.3465 15.997 44.5096 16.2419 44.6727 16.5031C45.0315 17.0907 45.3577 17.6784 45.6513 18.2661C45.7817 18.5272 45.9122 18.7884 46.0427 19.0496C46.3362 19.7025 46.5972 20.3555 46.8255 21.0085C46.9234 21.3023 47.0213 21.6124 47.1191 21.9389C47.3149 22.6245 47.478 23.3591 47.6084 24.1426C47.6737 24.4691 47.7389 24.8119 47.8041 25.171C47.902 26.1505 47.9672 27.0973 47.9998 28.0114ZM46.2873 28.0604V28.0114C46.2873 27.1626 46.2221 26.2974 46.0916 25.4159C46.059 25.0894 46.0101 24.7629 45.9448 24.4365C45.8143 23.7182 45.6675 23.0489 45.5044 22.4286C45.4066 22.1348 45.3087 21.841 45.2109 21.5471C45.0152 20.9595 44.7868 20.3718 44.5258 19.7842C44.3954 19.523 44.2649 19.2618 44.1344 19.0006C43.8734 18.4456 43.5799 17.9069 43.2537 17.3846C43.1232 17.156 42.9764 16.9438 42.8133 16.7479C42.4219 16.1929 42.0141 15.6542 41.5901 15.1319C41.427 14.936 41.2639 14.7401 41.1008 14.5442C40.7093 14.1198 40.2853 13.6954 39.8286 13.2709C39.6655 13.1077 39.4698 12.9281 39.2414 12.7323C38.8174 12.3405 38.3607 11.9814 37.8714 11.6549C37.6431 11.4916 37.4147 11.3447 37.1864 11.2141C36.6645 10.855 36.1426 10.5285 35.6206 10.2347C35.3923 10.1041 35.1476 9.98985 34.8867 9.89191C34.2669 9.56543 33.6145 9.28792 32.9295 9.05939C32.6685 8.96145 32.3913 8.8635 32.0977 8.76556C31.4453 8.56967 30.7929 8.39011 30.1405 8.22687C29.8143 8.16158 29.4881 8.11261 29.1619 8.07996C28.4443 7.94937 27.694 7.86775 26.9112 7.8351C26.7807 7.8351 26.6502 7.8351 26.5197 7.8351V27.8645C26.5197 28.1093 26.3729 28.4032 26.1772 28.5501L9.83468 40.1074C10.1283 40.4665 10.4382 40.8583 10.7644 41.2827C10.9275 41.4786 11.1069 41.6581 11.3026 41.8214C11.694 42.2458 12.1181 42.6702 12.5748 43.0947C12.7705 43.2579 12.9662 43.4211 13.1619 43.5844C13.7491 44.0741 14.2384 44.4659 14.7277 44.8087C14.9234 44.9392 15.1191 45.0535 15.3148 45.1515L15.4127 45.2494C15.9672 45.5759 16.5054 45.8697 17.0274 46.1309C17.2883 46.2615 17.5493 46.3921 17.8102 46.5227C18.3485 46.7675 18.9356 46.9634 19.5717 47.2083C19.8653 47.3062 20.1589 47.3878 20.4524 47.4531C21.1374 47.698 21.8225 47.8449 22.4586 47.9428C22.7848 48.0081 23.111 48.0571 23.4372 48.0898C24.3179 48.2203 25.1823 48.2856 26.0304 48.2856H26.0793C26.4382 48.2856 26.797 48.2856 27.1558 48.2856C28.1344 48.2203 29.0967 48.0897 30.0427 47.8939C30.4993 47.7959 30.9886 47.6817 31.5106 47.5511C32.9785 47.1593 34.3974 46.5716 35.7185 45.8371C37.0396 45.1515 38.2628 44.27 39.4371 43.2416C40.0895 42.6539 40.693 42.0499 41.2476 41.4296C42.2751 40.2543 43.1558 39.03 43.8408 37.7078C44.5748 36.3855 45.113 34.9654 45.5534 33.4962C45.6838 32.9739 45.798 32.4841 45.8959 32.0271C46.0916 31.0803 46.2058 30.1172 46.2384 29.1377C46.271 28.7786 46.2873 28.4195 46.2873 28.0604Z" fill="url(#paint2_linear_2564_271)"/>
<defs>
<linearGradient id="paint0_linear_2564_271" x1="13.0077" y1="6.52743" x2="20.4246" y2="19.8332" gradientUnits="userSpaceOnUse">
<stop stop-color="#119CEF"/>
<stop offset="1" stop-color="#F0B503"/>
</linearGradient>
<linearGradient id="paint1_linear_2564_271" x1="8.07784" y1="18.4821" x2="17.0534" y2="36.0752" gradientUnits="userSpaceOnUse">
<stop stop-color="#119CEF"/>
<stop offset="1" stop-color="#F0B503"/>
</linearGradient>
<linearGradient id="paint2_linear_2564_271" x1="22.4262" y1="18.9189" x2="35.0197" y2="47.5783" gradientUnits="userSpaceOnUse">
<stop stop-color="#119CEF"/>
<stop offset="1" stop-color="#F0B503"/>
</linearGradient>
</defs>
</svg>
