<svg width="76" height="50" viewBox="0 0 76 50" fill="none" xmlns="http://www.w3.org/2000/svg">
<path fill-rule="evenodd" clip-rule="evenodd" d="M0.355469 42.8109C0.517029 31.6632 6.89868 26.0086 7.14103 25.7663C7.62571 25.3624 8.35271 25.3624 8.83739 25.7663C16.0268 31.5824 23.7009 25.7663 23.7817 25.6855C24.2664 25.3624 24.9934 25.3624 25.4781 25.7663C27.1745 27.3819 28.467 29.3206 29.4363 31.3401C29.8402 31.1785 30.2441 31.2593 30.648 31.5824C37.7567 37.3986 45.2693 31.8248 45.5924 31.5824C45.9963 31.2593 46.481 31.1785 46.8849 31.4209C48.7428 27.7858 50.8431 25.9278 51.0047 25.7663C51.4893 25.3624 52.2164 25.3624 52.701 25.7663C59.8097 31.5824 67.5646 25.7663 67.6454 25.6855C68.1301 25.3624 68.8571 25.3624 69.3418 25.7663C75.9658 31.9056 75.6426 42.407 75.6426 42.8917C75.6426 43.6187 75.0772 44.1841 74.3501 44.1841H53.2665C53.6704 46.6883 53.5896 48.5463 53.5896 48.7078C53.5896 49.4349 53.0242 50.0003 52.2971 50.0003H23.4586C23.0547 50.0003 22.7316 49.8388 22.4893 49.5964C22.2469 49.3541 22.1661 49.0309 22.1661 48.627C22.1661 47.0114 22.3277 45.5574 22.57 44.1841H1.64796C1.24406 44.1841 0.92095 44.0226 0.678609 43.7802C0.436269 43.5379 0.355469 43.2148 0.355469 42.8109ZM48.9044 33.3596C50.9239 35.8638 52.0548 38.8527 52.7818 41.5184H73.0576C72.8961 38.8527 72.1691 32.5518 68.2916 28.432C65.7874 29.9668 58.8404 33.198 51.974 28.5128C51.247 29.3206 49.9545 31.017 48.9044 33.3596ZM24.8319 47.3346H51.0047C50.8431 44.6688 50.1161 38.4488 46.2386 34.2482C43.7344 35.783 36.7873 39.095 29.921 34.329C28.467 35.9446 25.2358 40.3875 24.8319 47.3346ZM2.94044 41.5184H23.1355C24.2664 37.641 26.1244 34.8944 27.4168 33.2788C26.6898 31.5824 25.7205 29.886 24.428 28.432C21.9238 29.9668 14.9767 33.198 8.11037 28.5128C6.65633 30.1284 3.42513 34.5713 2.94044 41.5184Z" fill="url(#paint0_linear_2564_324)"/>
<path fill-rule="evenodd" clip-rule="evenodd" d="M3.74805 12.3594C3.74805 9.04739 4.95974 5.97774 7.30237 3.63511C9.645 1.29248 12.7954 0 16.0266 0C22.2467 0 27.3359 4.52369 28.2244 10.4206C28.4937 10.0975 28.7899 9.77441 29.113 9.45129C31.4556 7.10866 34.6061 5.81618 37.8373 5.81618C41.8763 5.81618 45.4306 7.7549 47.6925 10.7438C48.0156 8.07802 49.2273 5.57383 51.166 3.63511C53.5087 1.29248 56.6591 0 59.8903 0C66.7566 0 72.2496 5.49306 72.2496 12.3594C72.2496 15.5906 70.9572 18.741 68.6145 21.0836C66.3527 23.4263 63.2023 24.7187 59.8903 24.7187C55.9321 24.7187 52.3777 22.78 50.1159 19.7911C49.712 22.4569 48.5811 24.9611 46.5616 26.8998C44.2997 29.2424 41.1493 30.5349 37.8373 30.5349C31.698 30.5349 26.6089 25.9304 25.7203 20.0335C25.3972 20.4105 25.074 20.7605 24.7509 21.0836C22.4891 23.4263 19.3386 24.7187 16.0266 24.7187C9.24111 24.7187 3.74805 19.1449 3.74805 12.3594ZM50.1967 12.3594C50.1967 17.6909 54.5588 22.053 59.8903 22.053C62.556 22.053 64.9794 21.0836 66.8374 19.2257C68.6145 17.3677 69.6647 14.9443 69.6647 12.3594C69.6647 6.9471 65.3026 2.58497 59.8903 2.58497C57.3053 2.58497 54.8819 3.63511 53.024 5.49306C51.166 7.27022 50.1967 9.77441 50.1967 12.3594ZM28.1437 18.1755C28.1437 23.507 32.5058 27.8692 37.8373 27.8692C40.503 27.8692 42.9264 26.8998 44.7844 25.0419C46.5615 23.1839 47.6117 20.7605 47.6117 18.1755C47.6117 12.7633 43.2496 8.40114 37.8373 8.40114C35.2523 8.40114 32.8289 9.45128 30.971 11.3092C29.113 13.1672 28.1437 15.5906 28.1437 18.1755ZM6.33302 12.3594C6.33302 17.6909 10.6952 22.053 16.0266 22.053C18.6924 22.053 21.1158 21.0836 22.9737 19.2257C24.7509 17.3677 25.801 14.9443 25.801 12.3594C25.801 6.9471 21.4389 2.58497 16.0266 2.58497C13.4417 2.58497 11.0183 3.63511 9.16033 5.49306C7.30239 7.27022 6.33302 9.77441 6.33302 12.3594Z" fill="url(#paint1_linear_2564_324)"/>
<defs>
<linearGradient id="paint0_linear_2564_324" x1="27.5538" y1="32.6121" x2="30.0125" y2="51.4202" gradientUnits="userSpaceOnUse">
<stop stop-color="#119CEF"/>
<stop offset="1" stop-color="#F0B503"/>
</linearGradient>
<linearGradient id="paint1_linear_2564_324" x1="28.4942" y1="8.90592" x2="32.6153" y2="31.9643" gradientUnits="userSpaceOnUse">
<stop stop-color="#119CEF"/>
<stop offset="1" stop-color="#F0B503"/>
</linearGradient>
</defs>
</svg>
