<svg width="247" height="251" viewBox="0 0 247 251" fill="none" xmlns="http://www.w3.org/2000/svg">
<g opacity="0.5">
<path d="M179.853 9.28614C180.12 8.30816 180.578 7.39271 181.201 6.59267C181.427 6.307 181.686 6.0487 181.972 5.82308C182.234 5.57276 182.525 5.35478 182.839 5.17379C183.788 4.62516 184.852 4.30405 185.946 4.23584C186.865 4.19687 187.783 4.34418 188.643 4.66878C189.544 4.91599 190.37 5.37819 191.052 6.01552L191.341 6.35216C191.558 6.46618 191.767 6.59475 191.967 6.73696C192.496 7.15623 192.952 7.66004 193.316 8.22798C193.574 8.65943 193.799 9.1096 193.99 9.57472L194.183 10.1519C194.296 10.6361 194.385 11.1257 194.448 11.6189C194.484 12.1233 194.484 12.6296 194.448 13.134C194.38 13.8064 194.184 14.4595 193.87 15.0579C193.421 16.0038 192.752 16.8285 191.919 17.4628C191.768 17.5885 191.607 17.7012 191.437 17.7995C190.967 18.0704 190.475 18.3036 189.968 18.497C189.248 18.7473 188.491 18.8773 187.728 18.8817C186.989 18.9021 186.25 18.813 185.537 18.6172C185.051 18.4849 184.576 18.3161 184.116 18.1122C183.643 17.8692 183.192 17.5876 182.767 17.2704C182.17 16.819 181.65 16.275 181.225 15.6591C181.107 15.5082 181.003 15.3473 180.912 15.1782C180.641 14.7001 180.407 14.2016 180.214 13.6872C179.658 12.2885 179.533 10.7564 179.853 9.28614Z" fill="#DC8C73"/>
<path d="M161.766 36.8943C161.638 36.4458 161.55 35.9872 161.501 35.5235C161.428 34.9647 161.428 34.3989 161.501 33.8401V33.4553C161.613 33.025 161.767 32.6062 161.959 32.2047C162.208 31.6667 162.541 31.1715 162.946 30.7378C163.266 30.4143 163.603 30.1092 163.958 29.8239L164.319 29.5593C165.433 28.8576 166.712 28.4596 168.028 28.405C168.675 28.3775 169.322 28.4341 169.955 28.5734C170.408 28.6978 170.851 28.8586 171.279 29.0543C171.446 29.1118 171.607 29.1842 171.761 29.2708C172.217 29.4852 172.613 29.8071 172.917 30.2087C173.286 30.5738 173.552 31.0302 173.688 31.5314C173.873 32.0135 173.931 32.5354 173.856 33.0465C173.849 33.3659 173.792 33.6824 173.688 33.9844C173.767 34.2924 173.823 34.6059 173.856 34.9223C173.904 35.378 173.904 35.8374 173.856 36.2931V36.6779C173.74 37.1226 173.587 37.557 173.399 37.9765C173.16 38.5037 172.852 38.9971 172.483 39.4435L172.194 39.7562C171.863 40.0783 171.509 40.3757 171.135 40.646C170.886 40.8044 170.629 40.9489 170.364 41.0788C170.092 41.2192 169.81 41.3398 169.521 41.4395C169.076 41.5452 168.626 41.6255 168.172 41.68C167.717 41.7406 167.255 41.7406 166.8 41.68C166.228 41.6074 165.674 41.4365 165.162 41.175C164.659 40.9217 164.19 40.6066 163.765 40.2371C163.56 40.0402 163.367 39.8315 163.187 39.6119C162.989 39.3984 162.804 39.1735 162.633 38.9385L162.44 38.6259C162.216 38.2209 162.015 37.8033 161.838 37.3753L161.766 36.8943Z" fill="#BCA28E"/>
<path d="M136.117 7.65043C136.118 6.4397 136.425 5.24877 137.008 4.18737C137.618 3.13421 138.437 2.21742 139.417 1.49389C139.983 1.10269 140.646 0.873548 141.334 0.831163C142.021 0.788779 142.708 0.934751 143.318 1.25339L145.028 2.21533C145.939 2.69839 146.635 3.50509 146.979 4.47594C147.123 4.89284 147.172 5.33638 147.123 5.77461L147.509 6.56819C147.846 7.51214 147.925 8.52855 147.739 9.51318C147.552 10.4978 147.107 11.4153 146.449 12.1717C145.566 13.0794 144.409 13.6722 143.156 13.8591C141.903 14.0459 140.623 13.8164 139.513 13.2057C138.511 12.6858 137.676 11.8939 137.104 10.9211C136.482 9.94139 136.141 8.81026 136.117 7.65043Z" fill="#BCA28E"/>
<path d="M161.622 10.969C162.592 10.6753 163.639 10.7727 164.538 11.2405C165.437 11.7083 166.117 12.5093 166.432 13.4717C166.747 14.434 166.672 15.4813 166.223 16.389C165.774 17.2968 164.987 17.9928 164.03 18.328C163.06 18.6217 162.013 18.5242 161.113 18.0564C160.214 17.5886 159.534 16.7877 159.219 15.8253C158.904 14.8629 158.979 13.8157 159.428 12.9079C159.878 12.0002 160.665 11.3041 161.622 10.969Z" fill="#BCA28E"/>
<path d="M202.443 36.3167C202.349 35.3243 202.532 34.3253 202.973 33.4308C203.185 32.9569 203.469 32.5188 203.816 32.1322C204.092 31.8291 204.399 31.5551 204.731 31.3145C204.801 31.2451 204.883 31.1882 204.972 31.1462C205.692 30.68 206.523 30.4144 207.38 30.3766C207.476 30.3646 207.573 30.3646 207.669 30.3766L207.934 29.9919C208.26 29.5946 208.683 29.288 209.163 29.102C209.613 28.8303 210.13 28.6888 210.656 28.6932C211.661 28.6508 212.643 28.9951 213.401 29.6551C214.18 30.3542 214.656 31.3292 214.726 32.3727C214.793 33.1729 214.793 33.9773 214.726 34.7776C214.639 35.6087 214.42 36.4206 214.076 37.1825C213.991 37.4079 213.887 37.6252 213.763 37.8318C213.491 38.2856 213.176 38.7124 212.823 39.1064C212.086 39.8567 211.189 40.432 210.198 40.7898C209.2 41.1293 208.133 41.22 207.091 41.0543C206.599 40.9803 206.12 40.8345 205.67 40.6215C205.199 40.415 204.76 40.1394 204.37 39.8038C204.183 39.6373 204.013 39.4519 203.864 39.2507C203.684 39.0839 203.523 38.8986 203.382 38.6976C202.882 37.9908 202.56 37.1741 202.443 36.3167Z" fill="#BCA28E"/>
<path d="M190.377 51.0108C190.341 50.6027 190.341 50.1923 190.377 49.7843C190.631 48.8189 191.209 47.9698 192.015 47.3794C192.448 47.0705 192.955 46.8798 193.484 46.8262C193.981 46.6936 194.504 46.6936 195.001 46.8262L195.941 47.1629C196.53 47.4681 197.035 47.9142 197.41 48.4616L197.771 49.1831C198.004 49.3862 198.206 49.621 198.373 49.8805C198.686 50.3022 198.877 50.8011 198.927 51.3234C199.06 51.8197 199.06 52.3422 198.927 52.8385L198.59 53.7764C198.292 54.3768 197.844 54.8904 197.289 55.2675L196.35 55.7244C195.69 55.9437 194.984 55.9852 194.303 55.8446C194.303 55.8446 194.303 55.8446 194.183 55.8446C194.062 55.8446 193.532 55.6282 193.219 55.5079C192.93 55.3396 192.617 55.1232 192.352 54.9308L192.16 54.7624C191.863 54.4868 191.596 54.1805 191.365 53.8485C191.139 53.4895 190.946 53.1112 190.787 52.7182V52.4778C190.599 52.0046 190.462 51.5128 190.377 51.0108Z" fill="#DC8C73"/>
<path d="M204.201 9.1173C204.197 8.61044 204.33 8.11196 204.587 7.67442C204.801 7.21927 205.124 6.82308 205.526 6.52004C205.891 6.15706 206.337 5.88519 206.827 5.72645L207.862 5.53402C208.531 5.50762 209.196 5.65686 209.789 5.96689L210.632 6.52004C211.145 6.97222 211.528 7.55357 211.74 8.2035L212.246 9.7426C212.433 10.2327 212.491 10.7628 212.414 11.2818C212.421 11.7814 212.288 12.273 212.029 12.7006C211.828 13.1574 211.513 13.5549 211.114 13.855C210.749 14.23 210.292 14.5036 209.789 14.6486C209.452 14.6486 209.115 14.6486 208.753 14.841C208.086 14.8759 207.422 14.735 206.827 14.4322L205.984 13.879C205.476 13.4224 205.094 12.8425 204.876 12.1956L204.37 10.6324C204.182 10.1507 204.124 9.62836 204.201 9.1173Z" fill="#BCA28E"/>
<path d="M229.777 40.79C229.657 39.8881 229.657 38.9743 229.777 38.0725C230.109 36.1379 230.939 34.3227 232.186 32.8057C232.505 32.4016 232.93 32.0937 233.414 31.9159C233.86 31.6322 234.378 31.482 234.907 31.4831C235.917 31.4558 236.902 31.7979 237.677 32.445C238.159 32.8538 238.64 33.2386 239.098 33.6475C239.834 34.3061 240.298 35.215 240.399 36.1966L240.88 37.2789C241.005 37.582 241.102 37.8959 241.169 38.2167C241.318 38.8239 241.406 39.4442 241.434 40.0686C241.458 41.1969 241.175 42.3104 240.615 43.2911C240.099 44.2714 239.335 45.1003 238.4 45.696C237.95 45.9827 237.464 46.2091 236.955 46.3694C236.125 46.6096 235.253 46.659 234.402 46.5137C233.908 46.4436 233.429 46.2976 232.981 46.0808C232.195 45.6677 231.512 45.0843 230.982 44.3733L230.741 43.9885C230.51 43.5987 230.317 43.1881 230.163 42.762C229.956 42.1225 229.826 41.4604 229.777 40.79Z" fill="#ECC889"/>
<path d="M213.112 59.428C213.186 58.9326 213.394 58.4668 213.714 58.0813C213.954 57.633 214.312 57.2589 214.75 56.9991C215.172 56.6869 215.672 56.4957 216.195 56.4459C216.692 56.3133 217.215 56.3133 217.712 56.4459C217.84 56.4345 217.969 56.4345 218.098 56.4459H219.109C219.759 56.5804 220.365 56.8784 220.867 57.3117L221.542 58.0813C221.921 58.6648 222.145 59.3352 222.192 60.0292C222.224 60.3973 222.224 60.7674 222.192 61.1354V61.3038C222.045 62.0184 221.713 62.6818 221.228 63.2277C220.972 63.4866 220.699 63.7277 220.41 63.9492C220.077 64.1415 219.731 64.3102 219.374 64.4542C219.334 64.4566 219.294 64.4566 219.254 64.4542C218.889 64.5495 218.519 64.6218 218.146 64.6707H218.025C217.64 64.6707 217.279 64.6707 216.917 64.6707C216.917 64.6707 216.917 64.6707 216.797 64.6707C216.677 64.6707 216.099 64.4302 215.858 64.334C215.543 64.1608 215.245 63.9596 214.967 63.7327C214.867 63.5936 214.754 63.4648 214.629 63.348L214.292 62.9391C214.076 62.6282 213.906 62.2881 213.786 61.9291C213.322 61.1789 213.088 60.3095 213.112 59.428Z" fill="#BCA28E"/>
<path d="M238.038 69.769V69.6488C238.002 69.2729 238.002 68.8944 238.038 68.5185L238.376 67.5806C238.698 66.9548 239.169 66.4179 239.748 66.0174C240.076 65.7937 240.432 65.6157 240.808 65.4883H241.29C241.48 65.3836 241.682 65.3028 241.892 65.2478C242.375 65.0625 242.897 65.0045 243.409 65.0795C243.917 65.0755 244.416 65.2084 244.854 65.4643L245.673 66.0174C246.196 66.4658 246.587 67.0477 246.805 67.7008L246.998 68.7349C247.02 69.3999 246.879 70.0604 246.588 70.6588L246.107 71.6449L245.986 71.8613C245.686 72.5078 245.21 73.0576 244.613 73.4485C244.001 73.8464 243.296 74.0784 242.566 74.1219C242.198 74.1695 241.826 74.1695 241.458 74.1219C240.736 73.9751 240.063 73.6437 239.507 73.1599C239.357 73.0207 239.22 72.8677 239.098 72.703C238.945 72.5575 238.808 72.3962 238.689 72.222C238.496 71.9094 238.351 71.5487 238.183 71.212C238.079 70.7382 238.03 70.254 238.038 69.769Z" fill="#BCA28E"/>
<path d="M232.764 97.9306C232.635 97.459 232.554 96.9756 232.523 96.4877C232.499 96.0953 232.499 95.7017 232.523 95.3093V95.0688C232.626 94.6013 232.788 94.1488 233.005 93.722C233.206 93.2588 233.531 92.8596 233.944 92.5677C234.296 92.1889 234.746 91.9143 235.244 91.7741C235.436 91.7509 235.631 91.7509 235.822 91.7741C236.047 91.4493 236.334 91.1715 236.665 90.9564C237.554 90.4219 238.603 90.2175 239.628 90.3792L240.567 90.7159C241.174 91.0153 241.69 91.4721 242.06 92.0386L242.518 92.9525C242.698 93.622 242.698 94.3271 242.518 94.9966C242.331 95.6225 242.098 96.2335 241.82 96.8244L241.579 97.2573C241.314 97.6661 241.049 98.0749 240.76 98.4597C240.561 98.7304 240.335 98.9802 240.085 99.2052C239.611 99.6755 239.095 100.102 238.544 100.48C238.116 100.782 237.619 100.972 237.099 101.033C236.602 101.166 236.079 101.166 235.582 101.033L234.642 100.72C234.04 100.413 233.526 99.9582 233.149 99.3976C232.953 99.0385 232.776 98.6692 232.619 98.2914L232.764 97.9306Z" fill="#BCA28E"/>
<path d="M196.879 86.219C196.856 85.8105 196.856 85.401 196.879 84.9925C196.868 84.8966 196.868 84.7998 196.879 84.7039C196.985 84.2979 197.13 83.9032 197.313 83.5255C197.514 83.153 197.748 82.7989 198.011 82.4674C198.594 81.8211 199.332 81.333 200.155 81.0485C200.637 80.8584 201.163 80.8083 201.672 80.9042C202.176 80.9037 202.673 81.0276 203.117 81.2649C203.845 81.6804 204.445 82.2877 204.851 83.0205L205.574 83.5015C206.09 83.9513 206.473 84.5334 206.682 85.1849L206.874 86.219C206.92 86.8859 206.778 87.5523 206.465 88.1429V88.2632C206.32 88.5277 206.08 88.8403 205.911 89.1049C205.853 89.1749 205.788 89.2393 205.718 89.2973C205.502 89.5137 205.188 89.7782 204.948 89.9706C204.577 90.1837 204.19 90.3686 203.792 90.5238H203.575C203.202 90.6168 202.824 90.6891 202.443 90.7402C202.395 90.729 202.346 90.729 202.298 90.7402C201.897 90.7653 201.495 90.7653 201.094 90.7402C201.006 90.7516 200.917 90.7516 200.829 90.7402C200.492 90.7402 200.131 90.4997 199.794 90.3795C199.794 90.3795 199.456 90.2592 199.794 90.3795H199.673L198.83 89.8264C198.191 89.2716 197.709 88.5582 197.433 87.7581C197.419 87.6786 197.419 87.5972 197.433 87.5176C197.207 87.1039 197.021 86.6689 196.879 86.219Z" fill="#BCA28E"/>
<path d="M155.143 63.0594C155.131 62.5547 155.255 62.056 155.504 61.6165C155.719 61.1614 156.041 60.7652 156.444 60.4622C156.804 60.0985 157.252 59.8335 157.744 59.6926C158.105 59.6926 158.443 59.5483 158.78 59.5002C159.115 59.4525 159.456 59.4525 159.791 59.5002C160.142 59.3496 160.518 59.2679 160.899 59.2597H161.911C162.565 59.398 163.171 59.7048 163.669 60.1495L164.319 60.8951C164.724 61.4752 164.95 62.1605 164.969 62.8671C165.01 63.7478 164.828 64.6245 164.44 65.4163C164.241 65.7978 164.007 66.1601 163.741 66.4985L163.524 66.7389C163.209 67.0519 162.871 67.3413 162.513 67.6047C162.32 67.6047 162.103 67.7971 161.911 67.8933C161.709 68.0039 161.5 68.1003 161.285 68.1819C161.237 68.1923 161.188 68.1923 161.14 68.1819C160.947 68.1819 160.731 68.1819 160.562 68.3021C160.393 68.4224 160.153 68.3021 159.96 68.3021H159.815C159.43 68.3269 159.044 68.3269 158.659 68.3021C158 68.1737 157.385 67.8752 156.877 67.4364C156.368 66.9709 155.987 66.3831 155.769 65.7289L155.288 64.3821C155.134 63.9591 155.085 63.5055 155.143 63.0594Z" fill="#BCA28E"/>
<path d="M139.296 39.1783C139.296 38.6749 139.42 38.1793 139.658 37.7354C139.872 37.2803 140.195 36.8841 140.597 36.581C140.966 36.2164 141.422 35.9516 141.922 35.8114L142.933 35.6191C143.609 35.57 144.285 35.7116 144.884 36.0279L145.703 36.581C146.231 37.0252 146.623 37.6086 146.835 38.2645L147.003 38.7695C147.194 39.259 147.245 39.7921 147.148 40.3086C147.148 40.8119 147.024 41.3076 146.786 41.7515C146.572 42.2067 146.249 42.6029 145.847 42.9059C145.482 43.2749 145.025 43.5405 144.523 43.6755C144.185 43.6755 143.848 43.8198 143.511 43.8679C142.836 43.9119 142.161 43.7705 141.56 43.459L140.741 42.9059C140.225 42.4561 139.842 41.874 139.634 41.2225L139.441 40.6934C139.273 40.2069 139.224 39.6876 139.296 39.1783Z" fill="#BCA28E"/>
<path d="M106.302 22.1998C106.191 21.7476 106.102 21.2902 106.037 20.829C105.977 20.2614 105.977 19.6891 106.037 19.1215C106.135 18.5833 106.297 18.0586 106.519 17.5583C106.756 17.0576 107.055 16.5889 107.41 16.1635C107.478 16.0717 107.559 15.9906 107.651 15.923C108.546 14.9321 109.787 14.3211 111.119 14.2156C111.654 14.131 112.198 14.131 112.733 14.2156H113.022C113.44 14.3427 113.85 14.4952 114.25 14.6724C114.629 14.8766 114.991 15.1098 115.334 15.3699C115.445 15.4303 115.543 15.512 115.623 15.6104L115.767 15.7306C116.008 16.0192 116.273 16.2838 116.514 16.5964C116.584 16.675 116.641 16.7643 116.682 16.8609C116.909 17.2409 117.095 17.644 117.236 18.0633C117.332 18.4434 117.405 18.8289 117.453 19.2177V19.3861C117.473 19.8145 117.432 20.2435 117.333 20.6607C117.234 21.0204 117.113 21.3738 116.972 21.7188V21.8871L116.731 22.296L116.562 22.7289L116.393 23.0896C116.128 23.5744 115.795 24.0196 115.406 24.4123C115.093 24.6769 114.732 25.0376 114.395 25.278C114.057 25.5185 113.865 25.5426 113.624 25.6869C113.376 25.8192 113.118 25.9317 112.853 26.0236C112.797 26.034 112.74 26.034 112.685 26.0236C112.288 26.1211 111.886 26.1935 111.48 26.2401C111.368 26.253 111.255 26.253 111.143 26.2401C110.782 26.2401 110.372 26.2401 110.011 26.2401C110.011 26.2401 109.65 26.2401 110.011 26.2401L109.072 25.9033L108.253 25.3502C107.812 24.9776 107.452 24.5194 107.193 24.0035C106.904 23.4977 106.662 22.9664 106.471 22.4162L106.302 22.1998Z" fill="#BCA28E"/>
<path d="M117.91 51.9486L117.717 50.9145V50.698V49.6399V49.4956L118.054 48.5096V48.3893L118.368 47.9083L118.705 47.4514C118.75 47.3641 118.816 47.2896 118.897 47.235L119.692 46.5376C120.005 46.3692 120.342 46.2009 120.68 46.0566H120.824C120.824 46.0566 120.824 46.0566 120.969 46.0566L122.028 45.8402H122.269C122.63 45.8402 122.992 45.8402 123.329 45.8402H123.497L124.003 46.0085L124.509 46.2009C124.509 46.2009 124.509 46.2009 124.654 46.2009C125.117 46.4022 125.517 46.7266 125.81 47.1388C126.173 47.5087 126.446 47.9568 126.609 48.4488C126.772 48.9407 126.82 49.4633 126.749 49.9766C126.746 50.2533 126.705 50.5284 126.628 50.7942C126.652 51.0663 126.652 51.3398 126.628 51.6119L126.291 52.5498C125.984 53.1449 125.528 53.6504 124.967 54.0168C124.618 54.2249 124.256 54.4097 123.883 54.5699H123.666C123.53 54.5837 123.393 54.5837 123.257 54.5699C122.782 54.6889 122.299 54.7694 121.812 54.8104H121.619C121.209 54.8104 120.8 54.8104 120.415 54.8104C119.759 54.6776 119.151 54.3701 118.657 53.9206C118.133 53.4722 117.742 52.8903 117.525 52.2372V52.0929L117.91 51.9486Z" fill="#BCA28E"/>
<path d="M156.155 99.7822V98.7962C156.289 98.1468 156.588 97.5426 157.021 97.0406L158.587 94.804C158.913 94.4068 159.336 94.1003 159.815 93.9142C160.268 93.6482 160.783 93.5071 161.309 93.5054C161.811 93.4489 162.319 93.5322 162.778 93.7459C163.269 93.8646 163.718 94.1139 164.078 94.4673L164.753 95.2129C165.136 95.8034 165.36 96.4826 165.403 97.1849V98.1949C165.259 98.8459 164.953 99.45 164.512 99.9506L162.97 102.163C162.644 102.56 162.221 102.867 161.742 103.053C161.289 103.319 160.774 103.46 160.249 103.462C159.746 103.518 159.238 103.435 158.78 103.221C158.287 103.108 157.836 102.858 157.479 102.5L156.805 101.754C156.422 101.164 156.198 100.484 156.155 99.7822Z" fill="#BCA28E"/>
<path d="M180.864 78.547C180.857 78.0473 180.991 77.5557 181.25 77.1281C181.451 76.6713 181.766 76.2739 182.165 75.9738C182.53 75.5987 182.986 75.3251 183.489 75.1801C183.827 75.1801 184.164 75.0358 184.525 74.9877C185.193 74.9419 185.86 75.0835 186.452 75.3966L187.295 75.9497C187.803 76.4063 188.185 76.9862 188.403 77.6331L188.571 78.1622C188.762 78.6435 188.812 79.1688 188.716 79.6773C188.728 80.1821 188.603 80.6808 188.354 81.1202C188.14 81.5754 187.817 81.9716 187.415 82.2746C187.056 82.6453 186.609 82.9185 186.115 83.0682C185.753 83.0682 185.416 83.0682 185.079 83.2606C184.405 83.2811 183.737 83.141 183.128 82.8518C182.865 82.6535 182.592 82.4689 182.309 82.2986C181.792 81.8398 181.409 81.2498 181.201 80.5912L181.033 80.0861C180.845 79.5961 180.787 79.066 180.864 78.547Z" fill="#ECC889"/>
<path d="M221.686 126.044C221.637 125.516 221.637 124.985 221.686 124.457C221.795 123.929 221.956 123.413 222.167 122.917L222.456 122.34C223.243 120.913 224.529 119.825 226.069 119.286C226.554 119.108 227.077 119.058 227.586 119.142C228.09 119.141 228.587 119.265 229.031 119.503C229.487 119.717 229.884 120.039 230.187 120.44C230.565 120.803 230.839 121.26 230.982 121.763L231.175 122.773C231.173 123.213 231.108 123.65 230.982 124.072V124.457V124.889C230.979 125.366 230.931 125.841 230.838 126.308C230.731 126.676 230.602 127.038 230.452 127.391V127.607C230.224 128.01 229.966 128.396 229.682 128.761L229.417 129.098C229.128 129.363 228.839 129.627 228.526 129.868L228.333 130.012C228.272 130.057 228.208 130.098 228.14 130.132C227.783 130.333 227.413 130.509 227.032 130.661L226.021 130.854C225.511 130.896 224.998 130.813 224.528 130.613C224.204 130.539 223.905 130.382 223.661 130.156C223.212 129.917 222.837 129.559 222.577 129.122C222.032 128.184 221.726 127.127 221.686 126.044Z" fill="#BCA28E"/>
<path d="M215.593 95.5738V95.165C215.605 94.705 215.653 94.2466 215.737 93.7941V93.4094C215.864 92.968 216.017 92.5344 216.195 92.1107C216.456 91.5851 216.78 91.0926 217.158 90.6437C217.486 90.2569 217.857 89.9099 218.266 89.6096C218.505 89.1815 218.854 88.8246 219.277 88.5755C219.694 88.2529 220.197 88.0605 220.723 88.0224C221.22 87.8898 221.743 87.8898 222.24 88.0224L223.179 88.3591C223.781 88.6556 224.296 89.1031 224.672 89.6577L225.13 90.5956C225.31 91.257 225.31 91.9544 225.13 92.6158C225.109 92.9849 225.036 93.3492 224.913 93.698C224.717 94.3541 224.459 94.9902 224.143 95.5978C223.902 96.0067 223.613 96.4155 223.324 96.8243L222.986 97.2572C222.519 97.7637 222.003 98.2229 221.445 98.628C220.874 99.0096 220.212 99.2329 219.527 99.2751C218.841 99.3174 218.157 99.177 217.543 98.8685C216.963 98.5316 216.479 98.0518 216.138 97.475C215.796 96.8982 215.609 96.2437 215.593 95.5738Z" fill="#DC8C73"/>
<path d="M201.913 69.3362C201.909 68.8294 202.042 68.3309 202.298 67.8933C202.513 67.4382 202.836 67.042 203.238 66.7389C203.597 66.3682 204.044 66.0951 204.538 65.9453C204.875 65.9453 205.237 65.8251 205.574 65.753C206.24 65.7306 206.901 65.871 207.501 66.1618L208.344 66.7149C208.853 67.1804 209.234 67.7682 209.451 68.4224L209.62 68.9274C209.808 69.4175 209.866 69.9476 209.789 70.4665C209.796 70.9662 209.662 71.4578 209.403 71.8854C209.202 72.3486 208.877 72.7479 208.464 73.0398C208.112 73.4186 207.662 73.6932 207.163 73.8334C206.826 73.8334 206.465 73.9777 206.128 74.0258C205.461 74.0607 204.796 73.9197 204.201 73.617L203.358 73.0638C202.85 72.6072 202.468 72.0274 202.25 71.3804L202.082 70.8513C201.896 70.3692 201.838 69.8473 201.913 69.3362Z" fill="#BCA28E"/>
<path d="M143.776 77.5612C143.739 77.1532 143.739 76.7427 143.776 76.3347V76.0701C143.883 75.6757 144.02 75.2898 144.185 74.9158C144.688 74.0217 145.489 73.3323 146.449 72.9678C146.931 72.7777 147.457 72.7277 147.966 72.8235C148.472 72.811 148.971 72.9357 149.411 73.1843L150.23 73.7374C150.746 74.1926 151.135 74.7722 151.362 75.4208V75.7335H151.531C151.987 75.9479 152.383 76.2698 152.687 76.6714C153.051 77.0311 153.316 77.4783 153.458 77.97L153.65 79.0041C153.696 79.671 153.554 80.3374 153.241 80.928L152.687 81.7697C152.234 82.2823 151.652 82.6644 151.001 82.876C150.501 83.03 149.982 83.111 149.46 83.1165C149.047 83.1198 148.635 83.0795 148.231 82.9963C147.835 82.9044 147.448 82.7756 147.075 82.6115C146.625 82.3898 146.197 82.1239 145.799 81.8178C145.417 81.4853 145.07 81.1146 144.763 80.7116C144.645 80.5744 144.547 80.4204 144.474 80.2547C144.198 79.8142 143.987 79.3363 143.848 78.8358C143.789 78.4135 143.765 77.9873 143.776 77.5612Z" fill="#BCA28E"/>
<path d="M184.453 106.997V106.588C184.429 106.204 184.429 105.819 184.453 105.434V105.266V105.049C184.559 104.681 184.688 104.32 184.838 103.967L184.983 103.606C185.209 103.223 185.458 102.854 185.729 102.5L185.994 102.211C186.322 101.896 186.668 101.598 187.03 101.322C187.086 101.317 187.142 101.317 187.198 101.322C187.536 101.129 187.921 100.961 188.282 100.793C188.773 100.605 189.304 100.547 189.824 100.624C190.146 100.625 190.466 100.69 190.763 100.817C191.166 100.855 191.558 100.969 191.919 101.153L192.738 101.706C193.253 102.162 193.643 102.741 193.87 103.39C193.991 103.87 194.063 104.362 194.086 104.857C194.085 105.333 194.037 105.809 193.942 106.276C193.831 106.736 193.661 107.181 193.436 107.598C193.242 107.941 193.025 108.271 192.786 108.584L192.641 108.777C192.315 109.135 191.952 109.457 191.558 109.739C191.158 110.01 190.73 110.235 190.281 110.412C190.145 110.482 189.998 110.53 189.848 110.556C189.372 110.704 188.876 110.777 188.378 110.773C187.876 110.829 187.367 110.746 186.909 110.532C186.418 110.414 185.969 110.164 185.609 109.811L184.934 109.041C184.591 108.416 184.424 107.71 184.453 106.997Z" fill="#BBBEA0"/>
<path d="M197.337 120.392V119.382C197.477 118.734 197.775 118.131 198.204 117.627L199.385 116.063C199.71 115.666 200.133 115.36 200.613 115.173C201.068 114.911 201.581 114.762 202.106 114.741C202.61 114.704 203.116 114.795 203.575 115.005C204.06 115.125 204.508 115.365 204.876 115.703L205.55 116.472C205.933 117.052 206.15 117.726 206.176 118.42V119.43C206.043 120.085 205.735 120.692 205.285 121.186L204.129 122.749C203.81 123.153 203.385 123.461 202.901 123.639C202.45 123.912 201.935 124.062 201.408 124.072C200.898 124.114 200.385 124.031 199.914 123.831C199.439 123.692 199.002 123.446 198.638 123.11L197.964 122.34C197.593 121.754 197.377 121.084 197.337 120.392Z" fill="#BCA28E"/>
<path d="M118.512 70.6587C118.486 70.2503 118.486 69.8406 118.512 69.4322V69.2157C118.613 68.8269 118.75 68.4485 118.922 68.0855L119.548 67.1716C119.814 66.8672 120.113 66.593 120.439 66.3539C120.799 66.1287 121.177 65.9356 121.571 65.7768C121.976 65.6362 122.396 65.5473 122.823 65.5122C123.325 65.4703 123.83 65.553 124.292 65.7527C124.773 65.8964 125.217 66.1426 125.593 66.4742C125.679 66.5568 125.76 66.6452 125.834 66.7387L126.267 67.0273C126.776 67.484 127.157 68.0638 127.375 68.7107C127.627 69.4871 127.677 70.3147 127.52 71.1156C127.423 71.5134 127.286 71.9002 127.11 72.27C126.925 72.6461 126.699 73.0009 126.436 73.3281L126.267 73.5205C126.003 73.7796 125.721 74.0206 125.424 74.242C124.701 74.7046 123.873 74.9776 123.016 75.0356C122.314 75.0886 121.612 74.9383 120.993 74.6027C120.68 74.4103 120.391 74.2179 120.102 74.0015L119.741 73.5927L119.379 73.1839C119.17 72.8279 118.985 72.4583 118.825 72.0776V71.8611C118.683 71.471 118.579 71.0684 118.512 70.6587Z" fill="#ECC889"/>
<path d="M93.8024 44.4691C93.6953 44.0916 93.6228 43.7052 93.5856 43.3147C93.5392 42.9313 93.5392 42.5438 93.5856 42.1604V42.0642L93.9228 41.1022L94.4768 40.2846C94.73 39.9904 95.0216 39.7316 95.3438 39.515C95.7603 39.1924 96.2631 38.9999 96.7889 38.9618C97.2696 38.8298 97.7772 38.8298 98.258 38.9618C98.496 38.8614 98.7476 38.7966 99.0046 38.7695C99.5016 38.6368 100.025 38.6368 100.522 38.7695C101.016 38.863 101.48 39.0779 101.871 39.3948C102.324 39.6281 102.7 39.9872 102.954 40.4289L103.412 41.3667C103.633 42.0171 103.675 42.7149 103.532 43.3868L103.195 44.3248C102.889 44.9268 102.433 45.4402 101.871 45.8158L100.931 46.6094L100.45 47.0183L100.233 47.2107L99.2936 47.6676L98.258 47.86C98.1375 47.86 97.3428 47.86 97.2465 47.86H97.126C97.126 47.86 96.2831 47.5714 96.1867 47.5233L95.3438 46.9701C95.1511 46.7778 94.838 46.417 94.6694 46.2006V46.0803L94.2118 45.1424L93.8024 44.4691Z" fill="#BCA28E"/>
<path d="M125.641 31.0982C125.637 30.5913 125.77 30.0928 126.026 29.6552C126.211 29.1889 126.529 28.7874 126.942 28.5009C127.303 28.1212 127.761 27.8469 128.266 27.7073L129.302 27.5149C129.969 27.48 130.633 27.6209 131.229 27.9237L132.047 28.4769C132.576 28.9302 132.968 29.5214 133.179 30.1843L133.348 30.6893C133.538 31.1706 133.589 31.6959 133.493 32.2044C133.493 32.7078 133.369 33.2035 133.131 33.6474C132.93 34.1106 132.605 34.5098 132.192 34.8018C131.84 35.1806 131.39 35.4551 130.891 35.5953C130.53 35.5953 130.193 35.7156 129.856 35.7878C129.181 35.8203 128.51 35.6795 127.905 35.3789L127.086 34.8258C126.569 34.3669 126.186 33.7769 125.978 33.1183L125.81 32.6133C125.624 32.1311 125.566 31.6093 125.641 31.0982Z" fill="#BCA28E"/>
<path d="M122.125 98.8923C122.03 98.5623 122.03 98.2123 122.125 97.8823C122.121 97.3754 122.254 96.8769 122.51 96.4393C122.497 96.3758 122.497 96.3104 122.51 96.2469C122.698 95.8871 122.924 95.5485 123.185 95.2369C123.461 94.9503 123.759 94.685 124.076 94.4432L124.268 94.299C124.634 94.0906 125.012 93.9059 125.4 93.7458H125.617L126.267 93.6015C126.674 93.4027 127.116 93.2881 127.568 93.2648C128.072 93.2315 128.576 93.3223 129.037 93.5294C129.526 93.6534 129.974 93.902 130.338 94.2508L130.988 94.9964C131.367 95.5799 131.591 96.2504 131.638 96.9444V97.9544C131.494 98.6054 131.188 99.2094 130.747 99.71C130.391 100.093 130.005 100.447 129.591 100.768C129.448 100.886 129.295 100.991 129.133 101.081C128.693 101.361 128.225 101.594 127.737 101.778C127.555 101.845 127.37 101.902 127.183 101.947L126.147 102.139H125.135L124.196 101.802C123.744 101.593 123.353 101.27 123.064 100.864C122.798 100.642 122.598 100.351 122.486 100.023C122.254 99.6911 122.128 99.2969 122.125 98.8923Z" fill="#BCA28E"/>
<path d="M138.164 57.576C139.117 57.3518 140.119 57.4931 140.972 57.972C141.825 58.4508 142.467 59.2322 142.77 60.1613C143.073 61.0904 143.015 62.0993 142.608 62.988C142.201 63.8766 141.475 64.5802 140.573 64.9591C139.62 65.1834 138.618 65.0421 137.765 64.5632C136.912 64.0843 136.27 63.3029 135.967 62.3738C135.664 61.4447 135.722 60.4358 136.129 59.5471C136.536 58.6585 137.262 57.9549 138.164 57.576Z" fill="#BCA28E"/>
<path d="M90.1181 69.8412V69.3843C90.0582 68.8006 90.0582 68.2124 90.1181 67.6287C90.2277 67.0515 90.3973 66.4873 90.6239 65.9452C90.7883 65.5407 91.007 65.1605 91.2742 64.815C91.4124 64.5679 91.5737 64.3343 91.7559 64.1175C91.9485 63.9011 92.3339 63.6125 92.5506 63.4201C92.7433 63.2999 92.96 63.2037 93.1527 63.1075C93.3924 62.9825 93.6421 62.8779 93.8993 62.7948C94.2799 62.6992 94.666 62.627 95.0554 62.5784H95.248C95.6169 62.5546 95.9871 62.5546 96.356 62.5784C96.4113 62.5641 96.4692 62.5641 96.5245 62.5784C96.878 62.6733 97.2242 62.7938 97.5602 62.9391L98.4031 63.5163C98.4031 63.5163 99.0292 64.2378 99.0774 64.2859C99.1256 64.334 99.6073 65.4883 99.6073 65.3921L99.7759 66.3541V66.9072V67.316C99.7895 67.4921 99.7895 67.669 99.7759 67.8451C99.9209 69.7261 99.3441 71.5918 98.1623 73.0637C97.768 73.5576 97.3151 74.0018 96.8135 74.3864C96.5004 74.5548 96.1873 74.6991 95.8742 74.8434C95.3835 75.0308 94.8526 75.0887 94.3328 75.0117C93.9996 75.012 93.6705 74.9381 93.3695 74.7953C92.8807 74.6712 92.4327 74.4226 92.069 74.0738C91.6478 73.6524 91.2761 73.1844 90.961 72.679C90.6592 72.1512 90.4092 71.5954 90.2144 71.0196C90.1643 70.6284 90.1321 70.2353 90.1181 69.8412Z" fill="#DC8C73"/>
<path d="M68.3947 41.8002C68.3342 41.1603 68.3342 40.5161 68.3947 39.8763C68.4358 39.5593 68.5002 39.2459 68.5875 38.9384C68.923 37.7313 69.4961 36.603 70.2733 35.6196C70.6891 35.1447 71.1487 34.7099 71.6461 34.3209C72.1806 33.9477 72.7539 33.6333 73.3561 33.3831C73.8463 33.1922 74.3803 33.1422 74.8975 33.2387C75.4016 33.2382 75.8979 33.3622 76.3425 33.5995C76.7983 33.8139 77.1951 34.1358 77.4986 34.5374C77.8681 34.9024 78.1341 35.3589 78.2693 35.8601C78.3624 36.1896 78.419 36.5283 78.4379 36.8701C78.641 37.1591 78.8031 37.4747 78.9195 37.8081V38.1447C79.0347 38.5786 79.1152 39.0209 79.1604 39.4675C79.233 40.0263 79.233 40.592 79.1604 41.1508C79.0929 41.5447 78.9881 41.9312 78.8473 42.3052C78.7221 42.696 78.5608 43.0744 78.3656 43.4355C77.8011 44.3737 77.0562 45.191 76.174 45.8404C75.6894 46.1648 75.1729 46.4387 74.6325 46.6581C74.0866 46.8483 73.5212 46.9774 72.9467 47.0429C72.2796 47.0778 71.6151 46.9368 71.0199 46.634C70.4186 46.3366 69.9043 45.8893 69.5267 45.3354C68.9027 44.2504 68.5169 43.0454 68.3947 41.8002Z" fill="#BCA28E"/>
<path d="M149.122 114.211C149.529 113.77 150.031 113.427 150.59 113.206C151.149 112.985 151.75 112.893 152.349 112.937C152.857 112.933 153.356 113.066 153.794 113.321C154.393 113.613 154.901 114.062 155.264 114.62L156.227 115.726C156.512 116.162 156.707 116.65 156.802 117.162C156.897 117.674 156.89 118.199 156.781 118.708C156.604 119.451 156.23 120.133 155.697 120.68C155.666 121.493 155.545 122.299 155.336 123.085C155.124 123.86 154.85 124.616 154.517 125.346C154.144 126.079 153.709 126.779 153.216 127.438C152.76 127.956 152.173 128.343 151.517 128.559C150.861 128.774 150.159 128.811 149.483 128.665C148.827 128.536 148.213 128.247 147.696 127.823C147.179 127.399 146.775 126.854 146.521 126.236C145.809 124.186 145.675 121.98 146.133 119.859C146.592 117.739 147.626 115.785 149.122 114.211Z" fill="#DC8C73"/>
<path d="M175.204 141.026C175.209 139.984 175.447 138.957 175.903 138.02C176.254 137.302 176.682 136.625 177.179 136C177.727 135.336 178.359 134.746 179.058 134.244C179.805 133.735 180.614 133.323 181.466 133.018C181.948 132.826 182.474 132.776 182.984 132.873C183.488 132.873 183.984 132.997 184.429 133.234L185.247 133.787C185.764 134.251 186.153 134.839 186.379 135.495V135.615C186.936 136.063 187.346 136.666 187.56 137.347L187.752 138.357C187.801 139.031 187.66 139.707 187.343 140.305C187.18 140.77 186.961 141.214 186.692 141.627C186.271 142.332 185.77 142.985 185.199 143.575C184.644 144.166 184.022 144.691 183.345 145.138C182.859 145.433 182.352 145.69 181.827 145.908C180.975 146.231 180.048 146.307 179.154 146.125C178.512 146.012 177.902 145.765 177.362 145.4C176.823 145.036 176.366 144.561 176.023 144.008C175.746 143.58 175.542 143.109 175.421 142.613C175.289 142.094 175.216 141.562 175.204 141.026Z" fill="#BBBEA0"/>
<path d="M201.408 157.163C201.311 156.533 201.311 155.893 201.408 155.263C201.516 154.654 201.711 154.063 201.986 153.508C202.198 153.108 202.448 152.729 202.732 152.377L203.045 151.993C203.376 151.663 203.73 151.357 204.105 151.079C204.51 150.824 204.937 150.607 205.382 150.429C205.968 150.196 206.584 150.042 207.212 149.972C207.524 149.936 207.839 149.936 208.151 149.972C208.501 149.847 208.865 149.766 209.235 149.732C209.738 149.675 210.246 149.759 210.704 149.972C211.197 150.085 211.648 150.335 212.005 150.694C212.395 151.037 212.712 151.454 212.94 151.92C213.167 152.386 213.3 152.893 213.329 153.411C213.365 154.257 213.147 155.095 212.703 155.816V156.033C212.32 156.732 211.754 157.313 211.065 157.716L208.464 160.434C208.006 160.957 207.416 161.347 206.754 161.564C206.272 161.754 205.746 161.804 205.237 161.708C204.733 161.709 204.237 161.585 203.792 161.348C203.189 161.042 202.675 160.586 202.299 160.025C202.061 159.598 201.852 159.156 201.673 158.702C201.531 158.2 201.442 157.684 201.408 157.163Z" fill="#DC8C73"/>
<path d="M182.912 170.173L182.719 169.163C182.671 168.82 182.671 168.472 182.719 168.129L183.056 167.191L183.61 166.373C183.858 166.122 184.123 165.889 184.405 165.676C184.718 165.508 185.055 165.363 185.392 165.219L186.404 165.027C186.404 165.027 187.367 165.027 187.415 165.027L188.355 165.363L189.173 165.917C189.425 166.148 189.651 166.406 189.848 166.686C190.061 166.987 190.223 167.32 190.33 167.672C190.454 168.011 190.519 168.369 190.522 168.73C190.558 169.066 190.558 169.405 190.522 169.74C190.438 170.232 190.231 170.696 189.92 171.087C189.671 171.536 189.304 171.91 188.86 172.169C188.536 172.402 188.167 172.565 187.777 172.65C187.377 172.811 186.954 172.908 186.524 172.939H185.537C184.885 172.795 184.28 172.489 183.779 172.049L183.104 171.304C182.928 170.995 182.775 170.673 182.647 170.342L182.912 170.173Z" fill="#BCA28E"/>
<path d="M147.533 151.223C147.486 150.548 147.628 149.874 147.942 149.275L148.496 148.457C148.948 147.938 149.529 147.548 150.182 147.327L150.688 147.159C151.679 146.889 152.733 146.965 153.674 147.375C154.13 147.59 154.527 147.911 154.83 148.313C155.2 148.678 155.466 149.135 155.601 149.636L155.794 150.646C155.843 151.321 155.701 151.996 155.384 152.594L154.83 153.411C154.379 153.931 153.797 154.321 153.144 154.542L152.615 154.71C152.133 154.903 151.606 154.953 151.097 154.854C150.593 154.855 150.097 154.731 149.652 154.494C149.196 154.279 148.8 153.957 148.496 153.556C148.127 153.191 147.861 152.734 147.725 152.233L147.533 151.223Z" fill="#BCA28E"/>
<path d="M120.319 128.112C120.273 127.445 120.414 126.779 120.728 126.188L121.402 124.817C121.905 123.923 122.706 123.234 123.666 122.869C124.149 122.684 124.672 122.626 125.184 122.701C125.691 122.697 126.19 122.83 126.629 123.086L127.447 123.639C127.963 124.094 128.352 124.674 128.579 125.322L128.772 126.356C128.794 127.021 128.654 127.682 128.363 128.28L127.664 129.651C127.463 130.114 127.138 130.513 126.725 130.805C126.373 131.184 125.923 131.459 125.424 131.599C124.437 131.901 123.372 131.824 122.438 131.383L121.619 130.829C121.103 130.38 120.72 129.798 120.511 129.146L120.319 128.112Z" fill="#BCA28E"/>
<path d="M96.4037 104.303V103.365C96.3919 103.165 96.3919 102.964 96.4037 102.764V102.499L96.765 101.489V101.345C96.9867 100.898 97.2705 100.486 97.6079 100.118C98.514 99.1191 99.7765 98.5147 101.124 98.435C101.626 98.3931 102.131 98.4757 102.593 98.6755H103.292C103.942 98.81 104.547 99.108 105.05 99.5413L105.724 100.311C106.103 100.894 106.327 101.565 106.375 102.259V102.788C106.382 103.28 106.342 103.771 106.254 104.255L106.134 104.736C105.997 105.204 105.828 105.662 105.628 106.107C105.561 106.251 105.481 106.387 105.387 106.515C105.151 106.94 104.877 107.342 104.568 107.718L104.207 108.079C103.853 108.426 103.475 108.747 103.075 109.041C102.637 109.34 102.133 109.529 101.606 109.594C101.109 109.726 100.586 109.726 100.089 109.594L99.1493 109.281C98.5533 108.974 98.0471 108.519 97.6802 107.958C97.5378 107.759 97.409 107.55 97.2948 107.333L96.9336 106.612L96.5964 105.866C96.4812 105.353 96.4167 104.829 96.4037 104.303Z" fill="#ECC889"/>
<path d="M69.0693 79.9658C69.0442 79.5654 69.0442 79.1638 69.0693 78.7634V78.5469C69.1856 78.1022 69.3387 77.6678 69.5269 77.2483L69.6473 77.0559C69.8417 76.7207 70.059 76.3993 70.2976 76.0939L70.4421 75.9256C70.7226 75.6506 71.0202 75.3935 71.3332 75.156C71.7298 74.8667 72.1684 74.6396 72.6338 74.4827C73.1158 74.2925 73.6418 74.2425 74.1511 74.3384C74.4282 74.3412 74.7037 74.3817 74.97 74.4586C75.2892 74.4101 75.614 74.4101 75.9333 74.4586C76.4374 74.4581 76.9338 74.582 77.3784 74.8193L78.1972 75.3725C78.7142 75.8313 79.097 76.4213 79.3051 77.08L79.4978 78.09C79.547 78.7648 79.4051 79.4398 79.0883 80.038C78.7881 80.5819 78.45 81.1043 78.0768 81.6012C77.899 81.8532 77.706 82.0941 77.4988 82.3227C77.0725 82.7563 76.6222 83.1658 76.1501 83.5491C75.9091 83.7547 75.6513 83.9398 75.3793 84.1023C75.0662 84.2706 74.7532 84.4149 74.4401 84.5592C73.9572 84.7446 73.4346 84.8025 72.9228 84.7276C72.5881 84.7425 72.2555 84.6677 71.9594 84.5111C71.4663 84.3983 71.0153 84.1482 70.6589 83.7896C70.3939 83.5011 70.105 83.2124 69.8641 82.8998V82.7074C69.6203 82.2874 69.4187 81.8443 69.262 81.3847C69.1559 80.9184 69.0913 80.4436 69.0693 79.9658Z" fill="#BCA28E"/>
<path d="M68.2261 110.556C68.1912 109.89 68.3324 109.226 68.6356 108.632L69.1896 107.814C69.6436 107.286 70.2356 106.895 70.8995 106.684L71.911 106.347C72.4018 106.16 72.9327 106.102 73.4525 106.179C73.9601 106.175 74.4593 106.308 74.8975 106.564C75.3533 106.778 75.75 107.1 76.0535 107.502C76.4177 107.861 76.6831 108.309 76.8242 108.8L77.0169 109.834C77.0629 110.501 76.921 111.168 76.6075 111.758L76.0535 112.6C75.5962 113.107 75.0156 113.488 74.3677 113.706L73.332 114.043C72.8491 114.228 72.3266 114.286 71.8147 114.211C71.3071 114.215 70.8079 114.082 70.3697 113.827C69.9122 113.626 69.5141 113.311 69.2136 112.913C68.838 112.548 68.5641 112.092 68.4189 111.59L68.2261 110.556Z" fill="#DC8C73"/>
<path d="M93.5376 150.045C93.499 148.963 93.7048 147.886 94.1397 146.894C94.3426 146.394 94.6012 145.918 94.9104 145.476C95.1951 144.973 95.5257 144.498 95.8979 144.057L96.1869 143.768C96.5258 143.438 96.8879 143.133 97.2706 142.854C97.5115 142.686 97.7764 142.59 98.0172 142.445C98.2581 142.301 98.4267 142.253 98.6434 142.181C98.9705 141.976 99.3423 141.852 99.7273 141.82C100.224 141.687 100.748 141.687 101.245 141.82H101.485C102.041 141.903 102.583 142.057 103.099 142.277C103.628 142.495 104.104 142.823 104.496 143.239C104.894 143.564 105.201 143.987 105.387 144.466C105.657 144.916 105.798 145.432 105.796 145.957C105.851 146.458 105.767 146.965 105.556 147.424C105.431 147.912 105.182 148.359 104.833 148.722C104.446 149.122 103.989 149.448 103.484 149.684L103.123 150.766C102.833 151.608 102.356 152.373 101.726 153.003C101.429 153.328 101.089 153.612 100.715 153.845C100.058 154.247 99.3151 154.486 98.5471 154.542H98.3544C98.0016 154.567 97.6475 154.567 97.2947 154.542C96.8779 154.445 96.4738 154.299 96.0905 154.109C95.346 153.714 94.7184 153.131 94.2704 152.418C93.8224 151.704 93.5697 150.886 93.5376 150.045Z" fill="#BCA28E"/>
<path d="M119.596 155.384C119.736 154.736 120.033 154.133 120.463 153.628C120.751 153.344 121.056 153.079 121.378 152.835C121.433 152.781 121.499 152.74 121.571 152.714C121.932 152.522 122.293 152.33 122.679 152.161C123.064 151.993 122.679 152.161 122.823 152.161C123.164 151.814 123.586 151.558 124.052 151.416C124.547 151.248 125.075 151.199 125.593 151.272C126.09 151.268 126.579 151.392 127.014 151.632L127.857 152.209C128.37 152.662 128.753 153.243 128.965 153.893L129.157 154.903C129.207 155.578 129.065 156.253 128.748 156.851L128.411 157.476V157.5V157.645L127.496 159.328L126.942 160.17L126.171 160.819L125.256 161.276C124.766 161.467 124.232 161.517 123.714 161.42C123.382 161.44 123.05 161.374 122.751 161.228C122.423 161.159 122.117 161.01 121.86 160.795C121.563 160.631 121.307 160.4 121.113 160.122C120.749 159.762 120.484 159.315 120.343 158.823L119.813 157.332C119.572 156.712 119.498 156.041 119.596 155.384Z" fill="#BBBEA0"/>
<path d="M101.799 125.274C101.794 124.767 101.928 124.269 102.184 123.831C102.386 123.368 102.71 122.969 103.123 122.677C103.475 122.298 103.925 122.024 104.424 121.883C104.761 121.883 105.122 121.763 105.459 121.691C106.125 121.669 106.787 121.809 107.386 122.1L108.229 122.653C108.738 123.118 109.12 123.706 109.337 124.36L109.698 125.37C109.889 125.86 109.939 126.393 109.843 126.91C109.846 127.406 109.722 127.894 109.481 128.328C108.979 129.222 108.177 129.912 107.217 130.276L106.206 130.469C105.53 130.515 104.855 130.374 104.255 130.06L103.436 129.507C102.921 129.052 102.531 128.472 102.304 127.823L101.967 126.789C101.781 126.307 101.723 125.785 101.799 125.274Z" fill="#BCA28E"/>
<path d="M148.303 178.158C148.171 177.662 148.171 177.14 148.303 176.643C148.486 176.016 148.72 175.405 149.002 174.816L149.243 174.407L149.459 173.758C149.58 173.28 149.82 172.841 150.158 172.483C150.477 172.079 150.902 171.771 151.386 171.593C152.203 171.327 153.007 171.022 153.795 170.679C154.29 170.534 154.817 170.534 155.312 170.679C155.808 170.753 156.274 170.961 156.661 171.28C157.114 171.514 157.49 171.873 157.744 172.315L158.202 173.252C158.423 173.903 158.465 174.601 158.322 175.273L157.985 176.211C157.68 176.806 157.234 177.318 156.685 177.702C156.512 177.786 156.351 177.891 156.203 178.014C156.131 178.226 156.034 178.427 155.914 178.615C155.685 178.989 155.436 179.35 155.167 179.698C155.109 179.803 155.036 179.901 154.951 179.986L154.204 180.66C153.771 180.968 153.264 181.159 152.735 181.213C152.403 181.298 152.055 181.298 151.723 181.213C151.219 181.213 150.723 181.089 150.278 180.852L149.459 180.299L148.809 179.529C148.526 179.123 148.351 178.651 148.303 178.158Z" fill="#BCA28E"/>
<path d="M165.066 195.593L164.945 194.896V194.679C164.961 194.284 165.002 193.891 165.066 193.501V193.284L165.451 192.178L165.644 191.769C165.836 191.433 166.077 191.12 166.294 190.807L166.438 190.639L166.583 190.471C166.872 190.206 167.185 189.918 167.498 189.677C167.757 189.502 168.031 189.349 168.317 189.22C168.535 189.11 168.76 189.013 168.991 188.932C169.377 188.932 169.738 188.787 170.123 188.715C170.508 188.643 170.268 188.715 170.34 188.715H170.605C170.966 188.715 171.351 188.715 171.713 188.715C172.206 188.8 172.669 189.006 173.061 189.316C173.5 189.57 173.872 189.924 174.145 190.35C174.448 190.778 174.638 191.274 174.699 191.793C174.832 192.29 174.832 192.812 174.699 193.308L174.386 194.246V194.607C174.278 195.036 174.133 195.454 173.953 195.858C173.817 196.109 173.665 196.35 173.495 196.579C173.348 196.813 173.187 197.038 173.013 197.253L172.869 197.397C172.604 197.661 172.291 197.902 172.002 198.142C171.914 198.236 171.807 198.309 171.689 198.359C171.351 198.551 170.99 198.72 170.629 198.888H170.436C170.099 198.888 169.762 199.008 169.425 199.08C168.922 199.137 168.414 199.053 167.956 198.84C167.628 198.77 167.322 198.622 167.064 198.407C166.631 198.146 166.261 197.793 165.981 197.373C165.724 196.965 165.514 196.529 165.355 196.074L165.066 195.593Z" fill="#BCA28E"/>
<path d="M122.125 195.233C122.092 194.5 122.25 193.771 122.582 193.117V192.996L123.16 192.155L123.931 191.481L124.461 191.241C124.701 190.793 125.059 190.418 125.497 190.159C125.919 189.846 126.419 189.655 126.942 189.605C127.439 189.473 127.962 189.473 128.459 189.605L129.398 189.942C130 190.24 130.514 190.687 130.891 191.241L131.349 192.179C131.569 192.838 131.61 193.543 131.469 194.223V194.632V194.824C131.325 195.185 131.229 195.57 131.06 195.93L130.867 196.315L130.241 197.253L130.097 197.421C130.022 197.536 129.933 197.641 129.832 197.734C129.495 198.047 129.157 198.359 128.796 198.648L128.435 198.864C128.016 199.101 127.581 199.31 127.134 199.49C126.488 199.704 125.797 199.746 125.129 199.611C124.461 199.476 123.841 199.169 123.329 198.72C123.051 198.474 122.807 198.191 122.607 197.878L122.149 196.916C121.984 196.368 121.976 195.785 122.125 195.233Z" fill="#DC8C73"/>
<path d="M97.6319 203.193L97.4392 202.135C97.3972 201.633 97.48 201.129 97.68 200.668C97.824 200.188 98.0705 199.745 98.4025 199.369C98.7284 198.972 99.1515 198.665 99.6309 198.479C100.083 198.213 100.599 198.072 101.124 198.07H102.136C102.786 198.219 103.39 198.524 103.894 198.96L104.4 199.537C104.783 199.675 105.135 199.887 105.435 200.163C105.833 200.488 106.14 200.91 106.326 201.389C106.592 201.843 106.741 202.355 106.76 202.88V203.866C106.62 204.521 106.323 205.132 105.893 205.646L105.122 206.295C104.538 206.674 103.866 206.897 103.171 206.944C103.116 206.931 103.058 206.931 103.003 206.944C102.641 206.944 102.28 206.944 101.943 206.944C101.855 206.958 101.766 206.958 101.678 206.944C101.271 206.84 100.876 206.695 100.498 206.512H100.353L99.4864 205.934L99.2696 205.742C98.98 205.436 98.7067 205.115 98.4508 204.78C98.2323 204.404 98.0469 204.01 97.8968 203.602L97.6319 203.193Z" fill="#ECC889"/>
<path d="M102.16 172.579C102.159 172.076 102.283 171.58 102.521 171.136L103.075 170.318C103.534 169.802 104.125 169.42 104.785 169.212L105.796 169.02C106.472 168.971 107.148 169.112 107.747 169.428L108.422 169.765C109.309 170.239 110.007 171.003 110.397 171.93C110.585 172.411 110.644 172.934 110.565 173.445C110.569 173.952 110.436 174.45 110.18 174.888L109.626 175.705C109.175 176.221 108.592 176.603 107.94 176.811L106.904 177.004C106.236 177.05 105.569 176.908 104.978 176.595L104.279 176.258C103.815 176.057 103.416 175.733 103.123 175.32C102.744 174.969 102.469 174.519 102.328 174.022C102.157 173.561 102.099 173.066 102.16 172.579Z" fill="#BCA28E"/>
<path d="M71.2604 164.33C71.1643 163.837 71.1643 163.331 71.2604 162.839C71.4114 162.009 71.7861 161.235 72.3442 160.602C72.6248 160.285 72.9492 160.01 73.3076 159.785C73.9795 159.374 74.7384 159.127 75.5233 159.063C76.0254 159.021 76.5301 159.104 76.9925 159.304C76.9925 159.304 77.1851 159.304 77.2815 159.424C77.7785 159.291 78.3017 159.291 78.7988 159.424L79.738 159.76C80.337 160.052 80.845 160.501 81.2072 161.059L81.6648 161.997C81.8847 162.648 81.9263 163.345 81.7852 164.017V164.402C81.6538 164.853 81.4929 165.295 81.3036 165.725C81.0885 166.123 80.8386 166.501 80.5569 166.855L80.3161 167.168C80.0022 167.497 79.6641 167.802 79.3045 168.081C78.8994 168.336 78.4722 168.553 78.0281 168.731C77.9159 168.741 77.8031 168.741 77.6909 168.731C77.3537 168.731 76.9443 168.899 76.6312 168.947H76.5107C76.4471 168.96 76.3817 168.96 76.3181 168.947C75.8866 169.006 75.4491 169.006 75.0175 168.947C74.2917 168.776 73.6156 168.438 73.0426 167.961L72.85 167.793C72.5459 167.5 72.2716 167.178 72.0311 166.831C71.8126 166.463 71.6272 166.077 71.4772 165.677C71.3625 165.235 71.2899 164.785 71.2604 164.33Z" fill="#BCA28E"/>
<path d="M78.2447 127.126L78.5578 127.005C79.5103 126.781 80.5123 126.922 81.3653 127.401C82.2184 127.88 82.8601 128.662 83.1631 129.591C83.4662 130.52 83.4086 131.529 83.0017 132.417C82.5947 133.306 81.8683 134.01 80.9662 134.388H80.6531C79.7412 134.54 78.8051 134.36 78.0138 133.883C77.2224 133.406 76.6279 132.662 76.3373 131.786C76.0467 130.91 76.0792 129.958 76.4289 129.104C76.7787 128.249 77.4226 127.548 78.2447 127.126Z" fill="#BCA28E"/>
<path d="M70.6104 192.323V191.77L70.49 191.168C70.4574 190.495 70.5984 189.824 70.8994 189.22C71.2065 188.625 71.6629 188.12 72.224 187.753C72.795 187.348 73.4743 187.122 74.1749 187.104C74.8503 187.06 75.5249 187.201 76.1257 187.513L77.4021 188.066C77.858 188.28 78.2547 188.602 78.5582 189.004C78.9224 189.364 79.1878 189.811 79.3289 190.303C79.3916 190.456 79.4322 190.618 79.4493 190.784C79.7231 191.234 79.8727 191.748 79.8828 192.275V193.285C79.7481 193.934 79.4497 194.538 79.0158 195.04L78.2451 195.714C77.6607 196.092 76.9893 196.316 76.2943 196.363C75.8615 196.397 75.4265 196.397 74.9937 196.363C74.938 196.352 74.8809 196.352 74.8252 196.363C74.488 196.243 74.1267 196.122 73.7895 195.978L73.5005 195.834C73.129 195.612 72.7748 195.363 72.4408 195.088C72.1347 194.791 71.8529 194.469 71.5979 194.126L71.4293 193.862C71.2029 193.478 71.0095 193.076 70.8512 192.659L70.6104 192.323Z" fill="#BCA28E"/>
<path d="M141.295 210.287C142.266 209.993 143.313 210.091 144.212 210.559C145.111 211.026 145.791 211.827 146.106 212.79C146.421 213.752 146.346 214.799 145.897 215.707C145.448 216.615 144.661 217.311 143.704 217.646C142.733 217.94 141.687 217.842 140.787 217.374C139.888 216.907 139.208 216.106 138.893 215.143C138.578 214.181 138.653 213.134 139.102 212.226C139.551 211.318 140.339 210.622 141.295 210.287Z" fill="#BCA28E"/>
<path d="M95.7048 234.24C95.7091 233.781 95.7494 233.322 95.8253 232.869C95.8033 232.742 95.8033 232.612 95.8253 232.485C95.9456 232.049 96.0986 231.623 96.2829 231.21C96.5036 230.815 96.7531 230.438 97.0295 230.08C97.113 229.964 97.21 229.859 97.3185 229.767C97.5834 229.503 97.8965 229.238 98.1855 228.997H98.3541C98.7546 228.742 99.1828 228.532 99.6306 228.372C100.113 228.187 100.636 228.129 101.148 228.204C101.46 228.211 101.769 228.268 102.063 228.372C102.45 228.414 102.826 228.528 103.171 228.709L103.99 229.262C104.511 229.708 104.895 230.291 105.098 230.945L105.29 231.98C105.336 232.646 105.194 233.313 104.881 233.904C104.797 234.152 104.692 234.394 104.568 234.625C104.275 235.13 103.945 235.612 103.58 236.068C103.425 236.264 103.256 236.448 103.075 236.621C102.651 237.038 102.192 237.416 101.702 237.751C101.128 238.151 100.45 238.376 99.751 238.401C99.2407 238.454 98.7253 238.371 98.2578 238.16C97.7742 238.041 97.3326 237.791 96.9813 237.439C96.4582 236.99 96.067 236.408 95.8493 235.755C95.7579 235.255 95.7096 234.748 95.7048 234.24Z" fill="#BCA28E"/>
<path d="M116.441 226.641C116.406 225.975 116.547 225.311 116.851 224.717L117.405 223.875C117.862 223.368 118.443 222.987 119.09 222.769L119.62 222.6C120.103 222.415 120.626 222.357 121.138 222.432C121.645 222.428 122.144 222.561 122.583 222.817C123.047 223.018 123.446 223.343 123.739 223.755C124.118 224.107 124.393 224.556 124.533 225.053L124.726 226.088C124.749 226.753 124.608 227.413 124.317 228.011L123.763 228.853C123.297 229.362 122.708 229.742 122.053 229.959L121.547 230.128C121.056 230.315 120.525 230.373 120.006 230.296C119.506 230.299 119.014 230.166 118.585 229.911C118.121 229.71 117.721 229.386 117.429 228.973C117.049 228.622 116.774 228.172 116.634 227.675L116.441 226.641Z" fill="#BCA28E"/>
<path d="M67.4792 222.432C67.4277 221.351 67.6779 220.277 68.2017 219.329C68.5316 218.665 68.9531 218.05 69.4541 217.502C69.8341 217.102 70.2448 216.732 70.6824 216.396C70.881 216.23 71.0901 216.077 71.3085 215.939C72.0119 215.503 72.7744 215.171 73.5725 214.953C74.0545 214.762 74.5805 214.712 75.0898 214.808C75.5939 214.808 76.0903 214.932 76.5349 215.169C77.4302 215.671 78.1207 216.471 78.4857 217.43C78.7801 218.364 78.7201 219.374 78.3171 220.267C78.2967 220.848 78.2404 221.426 78.1485 221.999C78.1264 222.205 78.0778 222.407 78.004 222.6C77.8764 223.101 77.6905 223.585 77.4501 224.043C76.9908 224.931 76.3002 225.679 75.451 226.208C75.0396 226.463 74.5935 226.657 74.1264 226.785C73.7326 226.894 73.3295 226.966 72.9222 227.001C72.8343 227.013 72.7452 227.013 72.6573 227.001C72.2719 227.001 71.8625 227.001 71.4772 227.001C71.4053 226.99 71.3322 226.99 71.2604 227.001C70.4945 226.801 69.7802 226.441 69.1651 225.943L68.9965 225.799C68.7278 225.519 68.4784 225.222 68.2499 224.909L67.985 224.38L67.72 223.803C67.5654 223.362 67.484 222.899 67.4792 222.432Z" fill="#DC8C73"/>
<path d="M46.7197 147.231C46.711 146.691 46.7512 146.152 46.8401 145.62C46.9606 145.111 47.1217 144.612 47.3218 144.129C47.399 143.935 47.4958 143.749 47.6108 143.575C47.8774 143.117 48.1836 142.682 48.526 142.277C49.2722 141.496 50.1983 140.91 51.2234 140.569C51.7063 140.384 52.2289 140.326 52.7408 140.401C53.2484 140.397 53.7476 140.53 54.1858 140.786C54.648 140.978 55.0481 141.295 55.3419 141.7L55.6068 142.06C55.9906 142.312 56.3184 142.639 56.5701 143.022L57.0277 143.936C57.2474 144.595 57.289 145.3 57.1482 145.98C57.0664 146.642 56.8708 147.285 56.5701 147.88L56.3293 148.361C56.0844 148.788 55.8109 149.198 55.5104 149.588L55.1492 149.948C54.8005 150.301 54.4218 150.623 54.0172 150.91C53.8782 151.007 53.7335 151.096 53.5837 151.175C53.1264 151.425 52.6515 151.642 52.1628 151.824C51.8015 151.824 51.4643 151.944 51.1272 152.017C50.6251 152.059 50.1204 151.976 49.658 151.776C49.3246 151.708 49.0163 151.55 48.7669 151.319C48.3247 151.079 47.9578 150.721 47.7072 150.285C47.1291 149.365 46.7898 148.315 46.7197 147.231Z" fill="#BBBEA0"/>
<path d="M49.2479 93.0487C49.4654 91.9803 49.7798 90.9338 50.1873 89.9223C50.6416 88.9141 51.1984 87.9551 51.8491 87.0605C52.1889 86.667 52.6055 86.3467 53.0734 86.1193C53.5414 85.8919 54.0508 85.7621 54.5706 85.7378C55.5822 85.699 56.5712 86.0425 57.3403 86.6998C57.7268 87.0439 58.0409 87.4614 58.2642 87.928C58.4875 88.3946 58.6155 88.9008 58.6409 89.4173V89.5376C59.1177 89.8736 59.5141 90.311 59.8014 90.8183C60.0888 91.3257 60.26 91.8903 60.3027 92.4716C60.4447 94.315 60.0517 96.1602 59.1707 97.7864C58.7488 98.5749 58.2222 99.303 57.6052 99.9508C56.9559 100.627 56.2091 101.202 55.3895 101.658C54.8085 102.062 54.1221 102.288 53.4145 102.308C52.9121 102.362 52.4044 102.278 51.9454 102.067C51.3808 101.888 50.8674 101.575 50.4484 101.157C50.0294 100.739 49.7169 100.226 49.537 99.6622C48.9719 97.5031 48.8733 95.2487 49.2479 93.0487Z" fill="#BBBEA0"/>
<path d="M43.4199 63.5163C43.2594 62.9279 43.1705 62.3223 43.155 61.7126C43.1472 61.2527 43.1877 60.7934 43.2754 60.3418C43.3645 59.911 43.5018 59.4915 43.6848 59.0913C44.1325 58.0707 44.8482 57.1899 45.7561 56.5421C46.137 56.2964 46.5401 56.087 46.9603 55.9168C47.0725 55.9067 47.1853 55.9067 47.2974 55.9168C48.1512 55.6734 49.0502 55.6322 49.9227 55.7966C50.4172 55.8901 50.8807 56.105 51.2714 56.4218C51.7248 56.6552 52.1011 57.0142 52.3551 57.4559C52.4835 57.6257 52.5888 57.8117 52.6682 58.0091C53.0935 58.4079 53.4017 58.9152 53.5594 59.4761L53.7521 60.4861C53.7987 61.1608 53.6569 61.8351 53.3426 62.4341C53.0965 63.094 52.7901 63.73 52.4274 64.334C51.9086 65.1948 51.3034 66.0006 50.6211 66.7388C50.1613 67.2532 49.5752 67.639 48.9206 67.8583C48.266 68.0775 47.5655 68.1228 46.888 67.9894C46.2378 67.8411 45.6341 67.5356 45.1299 67.0996C44.6082 66.6449 44.2244 66.0534 44.022 65.3921C43.754 64.7904 43.5522 64.1615 43.4199 63.5163Z" fill="#BCA28E"/>
<path d="M41.8787 202.976C41.8314 202.529 41.8314 202.077 41.8787 201.63C41.8731 200.823 41.9457 200.018 42.0955 199.225C42.3276 198.05 42.768 196.926 43.396 195.906C43.8631 194.978 44.6759 194.27 45.6599 193.934C46.3447 193.715 47.0741 193.674 47.7793 193.814C48.5529 193.966 49.2744 194.313 49.8747 194.824C50.7981 195.663 51.3593 196.827 51.4401 198.07C51.7594 198.575 51.9343 199.157 51.9459 199.754C51.9863 202.21 51.3533 204.63 50.1155 206.752C49.8253 207.358 49.3758 207.873 48.8149 208.243C48.2236 208.626 47.5433 208.849 46.84 208.893C46.1679 208.93 45.4979 208.789 44.8974 208.485C44.297 208.181 43.7874 207.724 43.4201 207.161C43.0363 206.502 42.7139 205.81 42.4567 205.093C42.1962 204.408 42.0026 203.699 41.8787 202.976Z" fill="#BBBEA0"/>
<path d="M51.6326 247.323C51.535 246.935 51.4626 246.541 51.4158 246.144V245.952C51.3959 245.5 51.4364 245.047 51.5362 244.605C51.6417 244.157 51.7951 243.722 51.9938 243.306V243.162L52.5959 242.296L52.7163 242.176L53.1258 241.815L53.5352 241.455C54.2178 241 55.0053 240.727 55.8232 240.661H56.0159C56.4159 240.613 56.8201 240.613 57.2201 240.661C57.7147 240.755 58.1782 240.969 58.5688 241.286C59.0223 241.52 59.3986 241.879 59.6526 242.32C59.9652 242.742 60.1567 243.241 60.2065 243.763C60.3517 244.258 60.3517 244.784 60.2065 245.279L59.8934 246.216C59.8052 246.358 59.7087 246.495 59.6044 246.625C59.6795 246.966 59.6795 247.319 59.6044 247.659L59.2913 248.597C58.9849 249.199 58.5288 249.713 57.9667 250.088L57.0274 250.545C56.3651 250.725 55.6667 250.725 55.0043 250.545C54.24 250.374 53.5291 250.019 52.9331 249.511C52.6589 249.247 52.4015 248.966 52.1624 248.669V248.525C51.9525 248.19 51.775 247.836 51.6326 247.467V247.323Z" fill="#BCA28E"/>
<path d="M17.0005 194.342C16.9539 193.668 17.0956 192.993 17.4099 192.394L18.0843 191.023C18.299 190.568 18.6213 190.172 19.0235 189.869C19.387 189.492 19.8441 189.218 20.3481 189.076C20.8324 188.895 21.3558 188.845 21.8654 188.931C22.3695 188.931 22.8659 189.055 23.3105 189.292L24.1294 189.845C24.6463 190.304 25.0292 190.894 25.2373 191.553L25.4299 192.563C25.4791 193.237 25.3372 193.912 25.0205 194.511L24.3461 195.881C23.8433 196.775 23.042 197.465 22.0822 197.829C21.6005 198.021 21.0742 198.071 20.5649 197.974C20.0608 197.974 19.5644 197.85 19.1199 197.613L18.301 197.06C17.7841 196.601 17.4012 196.011 17.1931 195.352L17.0005 194.342Z" fill="#BCA28E"/>
<path d="M28.6813 164.378L28.8499 163.176C29.0903 162.204 29.6714 161.351 30.4877 160.771C31.3785 160.242 32.4254 160.038 33.45 160.194L34.3893 160.53C34.9957 160.82 35.5118 161.269 35.8825 161.829L36.3401 162.767C36.56 163.417 36.6016 164.115 36.4605 164.787L36.292 165.989C36.1983 166.483 35.9831 166.946 35.6657 167.336C35.4321 167.789 35.0725 168.165 34.6301 168.418C34.2078 168.73 33.7082 168.922 33.1851 168.971C32.688 169.104 32.1648 169.104 31.6678 168.971L30.7285 168.635C30.1256 168.329 29.6113 167.873 29.2352 167.312L28.8017 166.374C28.574 165.733 28.5323 165.041 28.6813 164.378Z" fill="#BBBEA0"/>
<path d="M55.6302 171.159C56.5826 170.935 57.5847 171.076 58.4377 171.555C59.2907 172.034 59.9323 172.816 60.2354 173.745C60.5385 174.674 60.4808 175.683 60.0739 176.571C59.667 177.46 58.9406 178.164 58.0386 178.542C57.0861 178.767 56.0841 178.625 55.2311 178.147C54.3781 177.668 53.7364 176.886 53.4333 175.957C53.1302 175.028 53.1878 174.019 53.5948 173.131C54.0017 172.242 54.7282 171.538 55.6302 171.159Z" fill="#BCA28E"/>
<path d="M41.8308 113.995C42.7832 113.771 43.7853 113.912 44.6383 114.391C45.4913 114.87 46.133 115.651 46.4361 116.58C46.7392 117.51 46.6815 118.518 46.2746 119.407C45.8677 120.296 45.1412 120.999 44.2392 121.378C43.2867 121.602 42.2847 121.461 41.4317 120.982C40.5787 120.503 39.937 119.722 39.6339 118.793C39.3308 117.864 39.3884 116.855 39.7954 115.966C40.2023 115.078 40.9288 114.374 41.8308 113.995Z" fill="#BCA28E"/>
<path d="M11.4373 96.247C11.3585 95.0144 11.5645 93.7801 12.0394 92.6396C12.5452 91.5066 13.3228 90.5154 14.3034 89.7538C15.3132 88.9755 16.5445 88.5376 17.8196 88.5032C18.8295 88.4759 19.8144 88.8181 20.5893 89.4652C20.784 89.6402 20.9615 89.8335 21.1192 90.0423C21.7458 90.169 22.3276 90.4595 22.8051 90.8841C23.5732 91.5887 24.0391 92.5622 24.1057 93.6016C24.1586 95.4046 23.8046 97.1964 23.07 98.8443C22.6886 99.6541 22.2202 100.42 21.6731 101.129C21.14 101.874 20.4697 102.51 19.6982 103.005C18.6628 103.643 17.4237 103.867 16.2301 103.63C15.0879 103.337 14.0832 102.657 13.3882 101.706C13.142 101.351 12.9322 100.973 12.7619 100.576L12.0876 99.1088C11.752 98.1857 11.5336 97.2243 11.4373 96.247Z" fill="#BCA28E"/>
<path d="M11.9433 129.483C11.8139 128.994 11.7253 128.496 11.6785 127.992V127.752V126.549L11.7988 126.068C11.9164 125.605 12.0777 125.154 12.2806 124.721L12.401 124.505L13.0994 123.519C13.4188 123.115 13.8439 122.807 14.3277 122.629C14.777 122.352 15.2931 122.203 15.8209 122.196C16.323 122.154 16.8276 122.237 17.29 122.437C17.4723 122.494 17.6495 122.567 17.8199 122.653C18.0836 122.618 18.351 122.618 18.6147 122.653L19.554 122.99C20.1483 123.288 20.6547 123.736 21.0231 124.289L21.4807 125.226C21.7006 125.877 21.7422 126.575 21.6011 127.247C21.5207 127.7 21.3915 128.143 21.2158 128.569C21.085 129.012 20.9074 129.439 20.6859 129.844C20.4596 130.235 20.2103 130.612 19.9393 130.974C19.9393 131.094 19.7707 131.239 19.6744 131.335C19.2527 131.804 18.7936 132.238 18.3016 132.634L17.3623 133.066C16.8794 133.252 16.3568 133.31 15.845 133.235C15.5103 133.25 15.1777 133.175 14.8816 133.018C14.3885 132.906 13.9375 132.655 13.5811 132.297C13.2367 131.956 12.9224 131.586 12.6418 131.191L12.5213 130.974C12.3253 130.615 12.1485 130.246 11.9916 129.868C11.9598 129.742 11.9436 129.613 11.9433 129.483Z" fill="#BCA28E"/>
<path d="M0.984896 164.979V164.594C0.960931 164.322 0.960931 164.048 0.984896 163.776C0.96121 163.488 0.96121 163.199 0.984896 162.911V162.598C1.11211 162.164 1.26492 161.739 1.4425 161.323L1.63514 160.987C1.86456 160.594 2.13071 160.223 2.42996 159.88C2.73771 159.538 3.07626 159.224 3.44146 158.942L3.77867 158.726C4.20491 158.421 4.70246 158.231 5.22367 158.173C5.72071 158.04 6.24394 158.04 6.74099 158.173C7.70781 158.426 8.5581 159.004 9.14941 159.808L9.60701 160.746C9.82694 161.397 9.86857 162.094 9.72748 162.766C9.83814 162.951 9.93474 163.144 10.0165 163.343L10.2091 164.402V164.714V165.291C10.2304 165.475 10.2304 165.661 10.2091 165.845L10.2091 166.061C10.1073 166.479 9.95358 166.883 9.75151 167.263C9.46541 167.802 9.07206 168.277 8.59552 168.658C8.44288 168.813 8.27316 168.95 8.0897 169.067C7.80069 169.211 7.41533 169.404 7.10223 169.524C6.67957 169.696 6.23272 169.802 5.77763 169.837H5.27188C4.76779 169.837 4.27137 169.713 3.82682 169.476C3.52701 169.303 3.24469 169.102 2.98385 168.875C2.73283 168.635 2.49939 168.378 2.28539 168.105L2.06864 167.792C1.76618 167.302 1.52364 166.777 1.34614 166.229L0.984896 164.979Z" fill="#BCA28E"/>
<path d="M12.545 227.242C12.5092 226.778 12.5092 226.311 12.545 225.847C12.6369 225.24 12.8154 224.649 13.0749 224.092L13.3157 223.683C13.5338 223.288 13.7921 222.918 14.0864 222.576C14.5966 221.993 15.2207 221.519 15.9205 221.184C16.6204 220.849 17.3813 220.66 18.1567 220.629C19.1611 220.589 20.143 220.933 20.9022 221.59C21.3069 221.909 21.6153 222.334 21.7934 222.817C22.0813 223.261 22.2321 223.779 22.2269 224.308C22.2227 224.648 22.1822 224.987 22.1065 225.318C22.5528 226.239 22.7756 227.253 22.7567 228.276C22.7579 229.28 22.5444 230.272 22.1306 231.186C21.8583 231.852 21.4665 232.464 20.9745 232.99C20.5283 233.51 19.9438 233.893 19.2886 234.096C18.8058 234.281 18.2832 234.339 17.7713 234.264C17.2637 234.268 16.7644 234.135 16.3263 233.879C15.7244 233.583 15.2098 233.135 14.8331 232.581C14.3137 231.991 13.8614 231.346 13.4843 230.657C13.1395 230.035 12.8726 229.372 12.6895 228.685C12.6065 228.208 12.5583 227.726 12.545 227.242Z" fill="#BBBEA0"/>
</g>
</svg>
