<svg width="89" height="80" viewBox="0 0 89 80" fill="none" xmlns="http://www.w3.org/2000/svg">
<path opacity="0.5" d="M2.12189 76.4895C2.12189 76.4895 4.88593 61.789 11.1976 54.9897C19.583 45.9566 36.0236 55.208 39.9649 62.565C43.9063 69.922 37.5639 75.046 32.7857 77.2809C28.0076 79.5157 21.1682 76.3595 18.7157 69.3263C16.2632 62.2932 19.0231 44.1962 34.0728 35.8856C49.1224 27.5749 61.1763 30.7993 60.9016 42.4899C60.8009 46.7714 59.1286 50.0183 56.9152 52.7044C54.7018 55.3905 47.9444 57.6582 44.5535 51.5176C41.1625 45.3771 46.66 27.6892 58.0343 22.6536C68.2213 18.1436 81.4411 19.4351 85.6148 26.9932C89.7885 34.5512 82.6473 38.4947 81.1128 39.3421C79.5783 40.1895 75.0617 41.9126 71.1708 36.8191C67.2799 31.7256 60.3246 12.2967 85.2347 2.31667" stroke="#029AFF" stroke-width="3.34859" stroke-linecap="round"/>
</svg>
