<svg width="229" height="278" viewBox="0 0 229 278" fill="none" xmlns="http://www.w3.org/2000/svg">
<path opacity="0.1" d="M262.026 276.282C276.232 261.977 284.59 238.588 284.187 219.224C283.679 194.81 271.812 174.715 251.582 158.875C241.304 150.826 230.842 141.95 217.888 137.627C203.032 132.669 186.276 130.609 170.662 129.386C148.146 127.623 128.586 143.61 121.514 161.395C116.932 172.918 115.745 182.065 120.583 194.023C121.29 195.772 123.41 200.586 125.988 201.259C133.245 203.153 143.215 196.589 147.985 192.495C158.818 183.195 164.907 165.189 168.32 152.569C171.742 139.92 174.761 126.03 173.707 112.841C172.612 99.1289 167.888 84.2477 162.056 71.4804C150.325 45.7989 126.607 30.3288 101.475 15.7117C80.1672 3.3185 52.9955 -0.389507 28.5816 2.41491C19.8506 3.41785 11.0628 5.32354 2.34521 6.06596" stroke="#2657F2" stroke-width="3" stroke-linecap="round"/>
</svg>
