<svg width="164" height="339" viewBox="0 0 164 339" fill="none" xmlns="http://www.w3.org/2000/svg">
<path opacity="0.1" d="M121.769 336.769C139.542 327.251 154.383 307.335 159.669 288.703C166.334 265.21 160.872 242.521 146.168 221.45C138.698 210.745 131.294 199.194 120.174 191.266C107.422 182.175 92.0042 175.298 77.4328 169.556C56.4197 161.276 33.0356 170.833 21.0653 185.768C13.3096 195.444 9.49557 203.842 10.619 216.693C10.7833 218.571 11.4006 223.795 13.6678 225.193C20.0527 229.13 31.5074 225.774 37.2671 223.256C50.349 217.537 61.4439 202.104 68.4039 191.037C75.3802 179.944 82.3342 167.548 85.1898 154.628C88.1584 141.197 87.9993 125.584 86.1622 111.669C82.467 83.6778 64.3201 61.9398 44.571 40.6034C27.8266 22.5131 2.93226 11.01 -21.2325 6.5414C-29.8744 4.94333 -38.835 4.1918 -47.3878 2.34858" stroke="#2657F2" stroke-width="3" stroke-linecap="round"/>
</svg>
