<svg width="166" height="97" viewBox="0 0 166 97" fill="none" xmlns="http://www.w3.org/2000/svg">
<path d="M1 2L17.4019 25.9143L33.8037 2L50.1868 25.9143L66.5889 2L82.9716 25.9143L99.3733 2L115.776 25.9143L132.177 2L148.579 25.9143L165 2" stroke="white" stroke-opacity="0.5" stroke-width="2" stroke-miterlimit="10" stroke-linecap="round"/>
<path d="M1 36.543L17.4019 60.4573L33.8037 36.543L50.1868 60.4573L66.5889 36.543L82.9716 60.4573L99.3733 36.543L115.776 60.4573L132.177 36.543L148.579 60.4573L165 36.543" stroke="white" stroke-opacity="0.5" stroke-width="2" stroke-miterlimit="10" stroke-linecap="round"/>
<path d="M1 71.0857L17.4019 95L33.8037 71.0857L50.1868 95L66.5889 71.0857L82.9716 95L99.3733 71.0857L115.776 95L132.177 71.0857L148.579 95L165 71.0857" stroke="white" stroke-opacity="0.5" stroke-width="2" stroke-miterlimit="10" stroke-linecap="round"/>
</svg>
