<svg width="79" height="243" viewBox="0 0 79 243" fill="none" xmlns="http://www.w3.org/2000/svg">
<g opacity="0.1">
<ellipse cx="3.9" cy="239.426" rx="3.57353" ry="3.9" transform="rotate(-90 3.9 239.426)" fill="white"/>
<ellipse cx="3.9" cy="217.985" rx="3.57353" ry="3.9" transform="rotate(-90 3.9 217.985)" fill="white"/>
<ellipse cx="3.9" cy="196.544" rx="3.57353" ry="3.9" transform="rotate(-90 3.9 196.544)" fill="white"/>
<ellipse cx="3.9" cy="175.103" rx="3.57353" ry="3.9" transform="rotate(-90 3.9 175.103)" fill="white"/>
<ellipse cx="3.9" cy="153.662" rx="3.57353" ry="3.9" transform="rotate(-90 3.9 153.662)" fill="white"/>
<ellipse cx="3.9" cy="132.221" rx="3.57353" ry="3.9" transform="rotate(-90 3.9 132.221)" fill="white"/>
<ellipse cx="3.9" cy="110.779" rx="3.57353" ry="3.9" transform="rotate(-90 3.9 110.779)" fill="white"/>
<ellipse cx="3.9" cy="89.3383" rx="3.57353" ry="3.9" transform="rotate(-90 3.9 89.3383)" fill="white"/>
<ellipse cx="3.9" cy="67.8972" rx="3.57353" ry="3.9" transform="rotate(-90 3.9 67.8972)" fill="white"/>
<ellipse cx="3.9" cy="46.4558" rx="3.57353" ry="3.9" transform="rotate(-90 3.9 46.4558)" fill="white"/>
<ellipse cx="3.9" cy="25.0146" rx="3.57353" ry="3.9" transform="rotate(-90 3.9 25.0146)" fill="white"/>
<ellipse cx="3.9" cy="3.57344" rx="3.57353" ry="3.9" transform="rotate(-90 3.9 3.57344)" fill="white"/>
<ellipse cx="27.3004" cy="239.426" rx="3.57353" ry="3.9" transform="rotate(-90 27.3004 239.426)" fill="white"/>
<ellipse cx="27.3004" cy="217.985" rx="3.57353" ry="3.9" transform="rotate(-90 27.3004 217.985)" fill="white"/>
<ellipse cx="27.3004" cy="196.544" rx="3.57353" ry="3.9" transform="rotate(-90 27.3004 196.544)" fill="white"/>
<ellipse cx="27.3004" cy="175.103" rx="3.57353" ry="3.9" transform="rotate(-90 27.3004 175.103)" fill="white"/>
<ellipse cx="27.3004" cy="153.662" rx="3.57353" ry="3.9" transform="rotate(-90 27.3004 153.662)" fill="white"/>
<ellipse cx="27.3004" cy="132.221" rx="3.57353" ry="3.9" transform="rotate(-90 27.3004 132.221)" fill="white"/>
<ellipse cx="27.3004" cy="110.779" rx="3.57353" ry="3.9" transform="rotate(-90 27.3004 110.779)" fill="white"/>
<ellipse cx="27.3004" cy="89.3383" rx="3.57353" ry="3.9" transform="rotate(-90 27.3004 89.3383)" fill="white"/>
<ellipse cx="27.3004" cy="67.8972" rx="3.57353" ry="3.9" transform="rotate(-90 27.3004 67.8972)" fill="white"/>
<ellipse cx="27.3004" cy="46.4558" rx="3.57353" ry="3.9" transform="rotate(-90 27.3004 46.4558)" fill="white"/>
<ellipse cx="27.3004" cy="25.0146" rx="3.57353" ry="3.9" transform="rotate(-90 27.3004 25.0146)" fill="white"/>
<ellipse cx="27.3004" cy="3.57344" rx="3.57353" ry="3.9" transform="rotate(-90 27.3004 3.57344)" fill="white"/>
<ellipse cx="50.6988" cy="239.426" rx="3.57353" ry="3.9" transform="rotate(-90 50.6988 239.426)" fill="white"/>
<ellipse cx="50.6988" cy="217.985" rx="3.57353" ry="3.9" transform="rotate(-90 50.6988 217.985)" fill="white"/>
<ellipse cx="50.6988" cy="196.544" rx="3.57353" ry="3.9" transform="rotate(-90 50.6988 196.544)" fill="white"/>
<ellipse cx="50.6988" cy="175.103" rx="3.57353" ry="3.9" transform="rotate(-90 50.6988 175.103)" fill="white"/>
<ellipse cx="50.6988" cy="153.662" rx="3.57353" ry="3.9" transform="rotate(-90 50.6988 153.662)" fill="white"/>
<ellipse cx="50.6988" cy="132.221" rx="3.57353" ry="3.9" transform="rotate(-90 50.6988 132.221)" fill="white"/>
<ellipse cx="50.6988" cy="110.779" rx="3.57353" ry="3.9" transform="rotate(-90 50.6988 110.779)" fill="white"/>
<ellipse cx="50.6988" cy="89.3383" rx="3.57353" ry="3.9" transform="rotate(-90 50.6988 89.3383)" fill="white"/>
<ellipse cx="50.6988" cy="67.8972" rx="3.57353" ry="3.9" transform="rotate(-90 50.6988 67.8972)" fill="white"/>
<ellipse cx="50.6988" cy="46.4558" rx="3.57353" ry="3.9" transform="rotate(-90 50.6988 46.4558)" fill="white"/>
<ellipse cx="50.6988" cy="25.0146" rx="3.57353" ry="3.9" transform="rotate(-90 50.6988 25.0146)" fill="white"/>
<ellipse cx="50.6988" cy="3.57344" rx="3.57353" ry="3.9" transform="rotate(-90 50.6988 3.57344)" fill="white"/>
<ellipse cx="74.1012" cy="239.426" rx="3.57353" ry="3.9" transform="rotate(-90 74.1012 239.426)" fill="white"/>
<ellipse cx="74.1012" cy="217.985" rx="3.57353" ry="3.9" transform="rotate(-90 74.1012 217.985)" fill="white"/>
<ellipse cx="74.1012" cy="196.544" rx="3.57353" ry="3.9" transform="rotate(-90 74.1012 196.544)" fill="white"/>
<ellipse cx="74.1012" cy="175.103" rx="3.57353" ry="3.9" transform="rotate(-90 74.1012 175.103)" fill="white"/>
<ellipse cx="74.1012" cy="153.662" rx="3.57353" ry="3.9" transform="rotate(-90 74.1012 153.662)" fill="white"/>
<ellipse cx="74.1012" cy="132.221" rx="3.57353" ry="3.9" transform="rotate(-90 74.1012 132.221)" fill="white"/>
<ellipse cx="74.1012" cy="110.779" rx="3.57353" ry="3.9" transform="rotate(-90 74.1012 110.779)" fill="white"/>
<ellipse cx="74.1012" cy="89.3383" rx="3.57353" ry="3.9" transform="rotate(-90 74.1012 89.3383)" fill="white"/>
<ellipse cx="74.1012" cy="67.8972" rx="3.57353" ry="3.9" transform="rotate(-90 74.1012 67.8972)" fill="white"/>
<ellipse cx="74.1012" cy="46.4558" rx="3.57353" ry="3.9" transform="rotate(-90 74.1012 46.4558)" fill="white"/>
<ellipse cx="74.1012" cy="25.0146" rx="3.57353" ry="3.9" transform="rotate(-90 74.1012 25.0146)" fill="white"/>
<ellipse cx="74.1012" cy="3.57344" rx="3.57353" ry="3.9" transform="rotate(-90 74.1012 3.57344)" fill="white"/>
</g>
</svg>
