<svg width="101" height="47" viewBox="0 0 101 47" fill="none" xmlns="http://www.w3.org/2000/svg">
<path opacity="0.5" d="M99.9487 5.41068C98.0551 9.41459 95.3848 13.0481 90.2883 18.4363C86.2543 22.7298 77.9659 29.3749 75.3151 30.4188C74.7742 30.6318 73.094 32.2156 71.6619 33.9476C68.6895 37.4542 63.0142 41.4105 58.1995 43.3065C52.7356 45.4581 44.5199 46.5418 37.8546 46.0312C30.3576 45.4794 21.897 42.2331 17.4478 38.2064C13.0957 34.2645 9.96837 29.1639 8.72121 24.0607C8.16704 21.7584 7.67819 19.3074 7.60472 18.6601C7.55475 17.4503 6.97801 18.661 4.916 24.5755C3.81456 27.5913 3.17558 28.0273 1.60271 26.618C0.66573 25.696 0.592258 25.0487 0.93529 22.639C1.8296 16.9384 8.67482 5.63608 12.0289 4.31526C12.624 4.08092 13.8233 4.10044 14.6868 4.37516C16.2628 4.86112 16.2628 4.86112 16.6077 8.35241C17.0985 13.4461 19.5858 19.2905 22.4937 22.1413C25.1107 24.7378 25.4628 26.0746 23.5694 26.8202C20.7563 27.928 17.1267 24.3777 14.4364 17.8756L12.6462 13.601L12.4195 16.7641C12.0191 23.3767 15.7853 31.2995 21.4654 35.5792C30.422 42.3802 45.0048 43.7073 57.2749 38.691C59.547 37.7963 62.2856 36.349 63.2931 35.5834L65.1998 34.0948L62.4449 33.9501C58.6958 33.8281 54.1548 31.436 52.0573 28.5734C46.7335 21.141 51.7252 8.3555 61.4088 4.54216C65.0333 3.11483 68.0679 3.64117 71.1279 6.24769C73.1213 7.92175 73.5724 8.72772 75.1034 12.9815C76.3342 16.4927 76.7914 18.7102 76.676 20.9074C76.6055 22.595 76.6331 24.0596 76.7841 24.123C77.4425 24.3556 83.8905 18.7426 87.361 14.9169C91.3735 10.5703 94.1959 6.69246 96.1639 3.02807C98.7843 -1.81532 102.267 0.440359 99.9487 5.41068ZM67.5421 9.01225C63.985 6.41705 58.2781 10.1398 55.5005 16.7665C52.4719 24.1682 56.7525 30.1056 64.6426 29.4576C69.1715 29.0266 70.4056 28.3562 71.3223 25.6591C73.221 20.1163 71.3258 11.7026 67.5421 9.01225Z" fill="#029AFF"/>
</svg>
