<svg width="105" height="73" viewBox="0 0 105 73" fill="none" xmlns="http://www.w3.org/2000/svg">
<path d="M-59 2L-42.6981 20L-26.3963 2L-10.1131 20L6.18897 2L22.4718 20L38.7735 2L55.0759 20L71.3776 2L87.6793 20L104 2" stroke="#4F4F4F" stroke-opacity="0.4" stroke-width="2" stroke-miterlimit="10" stroke-linecap="round"/>
<path d="M-59 53L-42.6981 71L-26.3963 53L-10.1131 71L6.18897 53L22.4718 71L38.7735 53L55.0759 71L71.3776 53L87.6793 71L104 53" stroke="#4F4F4F" stroke-opacity="0.4" stroke-width="2" stroke-miterlimit="10" stroke-linecap="round"/>
<path d="M-59 28L-42.6981 46L-26.3963 28L-10.1131 46L6.18897 28L22.4718 46L38.7735 28L55.0759 46L71.3776 28L87.6793 46L104 28" stroke="#4F4F4F" stroke-opacity="0.4" stroke-width="2" stroke-miterlimit="10" stroke-linecap="round"/>
</svg>
