<svg width="259" height="259" viewBox="0 0 259 259" fill="none" xmlns="http://www.w3.org/2000/svg">
<g opacity="0.4">
<mask id="mask0_4821_3571" style="mask-type:alpha" maskUnits="userSpaceOnUse" x="0" y="0" width="259" height="259">
<circle cx="129.5" cy="129.5" r="128.603" fill="#C4C4C4" stroke="#FED8CE" stroke-width="1.79446"/>
</mask>
<g mask="url(#mask0_4821_3571)">
<path d="M-34.6602 62.4911C-34.6602 62.4911 18.9885 52.558 32.8305 17.7925C46.0686 -15.5342 100.6 -24.4922 100.6 -24.4922" stroke="#122530" stroke-opacity="0.3" stroke-width="1.79446" stroke-miterlimit="10"/>
<path d="M-34.6602 79.2005C-34.6602 79.2005 31.1584 67.736 48.1123 25.776C64.2766 -14.2809 131.117 -24.4922 131.117 -24.4922" stroke="#122530" stroke-opacity="0.3" stroke-width="1.79446" stroke-miterlimit="10"/>
<path d="M-34.6602 95.9568C-34.6602 95.9568 43.2816 82.914 63.3477 33.8524C82.4847 -13.0739 161.634 -24.4922 161.634 -24.4922" stroke="#122530" stroke-opacity="0.3" stroke-width="1.79446" stroke-miterlimit="10"/>
<path d="M-34.6602 112.667C-34.6602 112.667 55.4513 98.092 78.6295 41.836C100.693 -11.8207 192.151 -24.4922 192.151 -24.4922" stroke="#122530" stroke-opacity="0.3" stroke-width="1.79446" stroke-miterlimit="10"/>
<path d="M-34.6602 129.376C-34.6602 129.376 67.621 113.27 93.9113 49.8659C118.901 -10.5674 222.622 -24.4922 222.622 -24.4922" stroke="#122530" stroke-opacity="0.3" stroke-width="1.79446" stroke-miterlimit="10"/>
<path d="M-34.6602 146.132C-34.6602 146.132 79.7442 128.494 109.147 57.8956C137.155 -9.36076 253.139 -24.4922 253.139 -24.4922" stroke="#122530" stroke-opacity="0.3" stroke-width="1.79446" stroke-miterlimit="10"/>
<path d="M-34.6602 162.842C-34.6602 162.842 91.9139 143.626 124.428 65.9258C155.364 -8.10751 283.656 -24.4922 283.656 -24.4922" stroke="#122530" stroke-opacity="0.3" stroke-width="1.79446" stroke-miterlimit="10"/>
<path d="M-34.6602 179.552C-34.6602 179.552 104.084 158.804 139.664 73.9094C173.572 -6.85426 314.174 -24.4922 314.174 -24.4922" stroke="#122530" stroke-opacity="0.3" stroke-width="1.79446" stroke-miterlimit="10"/>
<path d="M-34.6602 196.308C-34.6602 196.308 116.207 174.028 154.945 81.9855C191.78 -5.64758 344.644 -24.4922 344.644 -24.4922" stroke="#122530" stroke-opacity="0.3" stroke-width="1.79446" stroke-miterlimit="10"/>
<path d="M-34.6602 213.016C-34.6602 213.016 128.377 189.206 170.181 90.0156C209.988 -4.39434 375.161 -24.4922 375.161 -24.4922" stroke="#122530" stroke-opacity="0.3" stroke-width="1.79446" stroke-miterlimit="10"/>
<path d="M-34.6602 229.773C-34.6602 229.773 140.546 204.384 185.463 98.0454C228.196 -3.14111 405.678 -24.4922 405.678 -24.4922" stroke="#122530" stroke-opacity="0.3" stroke-width="1.79446" stroke-miterlimit="10"/>
<path d="M-34.6602 246.484C-34.6602 246.484 152.67 219.562 200.698 106.076C246.404 -1.9341 436.195 -24.4922 436.195 -24.4922" stroke="#122530" stroke-opacity="0.3" stroke-width="1.79446" stroke-miterlimit="10"/>
<path d="M-34.6602 263.191C-34.6602 263.191 164.839 234.74 215.98 114.059C264.612 -0.680855 466.712 -24.4922 466.712 -24.4922" stroke="#122530" stroke-opacity="0.3" stroke-width="1.79446" stroke-miterlimit="10"/>
<path d="M-34.6602 279.948C-34.6602 279.948 177.009 249.918 231.262 122.135C282.82 0.572399 497.183 -24.4922 497.183 -24.4922" stroke="#122530" stroke-opacity="0.3" stroke-width="1.79446" stroke-miterlimit="10"/>
<path d="M-34.6602 296.659C-34.6602 296.659 189.132 265.096 246.497 130.119C301.029 1.77906 527.701 -24.4922 527.701 -24.4922" stroke="#122530" stroke-opacity="0.3" stroke-width="1.79446" stroke-miterlimit="10"/>
<path d="M-34.6602 313.37C-34.6602 313.37 201.302 280.274 261.779 138.149C319.236 3.03232 558.218 -24.4922 558.218 -24.4922" stroke="#122530" stroke-opacity="0.3" stroke-width="1.79446" stroke-miterlimit="10"/>
<path d="M-34.6602 330.126C-34.6602 330.126 213.472 295.498 277.014 146.179C337.444 4.28556 588.735 -24.4922 588.735 -24.4922" stroke="#122530" stroke-opacity="0.3" stroke-width="1.79446" stroke-miterlimit="10"/>
<path d="M-34.6602 346.834C-34.6602 346.834 225.595 310.631 292.296 154.209C355.653 5.49221 619.206 -24.4922 619.206 -24.4922" stroke="#122530" stroke-opacity="0.3" stroke-width="1.79446" stroke-miterlimit="10"/>
</g>
</g>
</svg>
