<svg width="110" height="73" viewBox="0 0 110 73" fill="none" xmlns="http://www.w3.org/2000/svg">
<path d="M-54 2L-37.6981 20L-21.3963 2L-5.11313 20L11.189 2L27.4718 20L43.7735 2L60.0759 20L76.3776 2L92.6793 20L109 2" stroke="#4F4F4F" stroke-opacity="0.4" stroke-width="2" stroke-miterlimit="10" stroke-linecap="round"/>
<path d="M-54 53L-37.6981 71L-21.3963 53L-5.11313 71L11.189 53L27.4718 71L43.7735 53L60.0759 71L76.3776 53L92.6793 71L109 53" stroke="#4F4F4F" stroke-opacity="0.4" stroke-width="2" stroke-miterlimit="10" stroke-linecap="round"/>
<path d="M-54 28L-37.6981 46L-21.3963 28L-5.11313 46L11.189 28L27.4718 46L43.7735 28L60.0759 46L76.3776 28L92.6793 46L109 28" stroke="#4F4F4F" stroke-opacity="0.4" stroke-width="2" stroke-miterlimit="10" stroke-linecap="round"/>
</svg>
