<svg width="121" height="121" viewBox="0 0 121 121" fill="none" xmlns="http://www.w3.org/2000/svg">
<path d="M41.4121 33.9307C41.0991 35.6183 40.9029 37.3223 40.6924 39.0271" stroke="black" stroke-width="8.55932" stroke-miterlimit="1.5" stroke-linecap="round" stroke-linejoin="round"/>
<path d="M32.8837 41.236C34.0156 41.4166 35.1633 41.4819 36.3047 41.604" stroke="black" stroke-width="8.55932" stroke-miterlimit="1.5" stroke-linecap="round" stroke-linejoin="round"/>
<path d="M43.2695 43.416C44.3225 43.411 45.3727 43.4022 46.4258 43.3787" stroke="black" stroke-width="8.55932" stroke-miterlimit="1.5" stroke-linecap="round" stroke-linejoin="round"/>
<path d="M39.6994 46.1645C39.2383 47.7814 38.7511 49.4945 38.5966 51.1805" stroke="black" stroke-width="8.55932" stroke-miterlimit="1.5" stroke-linecap="round" stroke-linejoin="round"/>
<path d="M43.3779 74.5726C44.2841 74.6471 45.2097 74.8331 46.1288 74.8001" stroke="black" stroke-width="8.55932" stroke-miterlimit="1.5" stroke-linecap="round" stroke-linejoin="round"/>
<path d="M51.75 66.5351C51.2793 68.1879 51.1292 69.8994 50.8176 71.5869" stroke="black" stroke-width="8.55932" stroke-miterlimit="1.5" stroke-linecap="round" stroke-linejoin="round"/>
<path d="M49.427 79.3415C49.0825 80.9349 48.4827 82.7435 48.6553 84.427" stroke="black" stroke-width="8.55932" stroke-miterlimit="1.5" stroke-linecap="round" stroke-linejoin="round"/>
<path d="M55.1765 76.6993C56.4372 76.91 57.6608 77.0502 58.9326 77.1377" stroke="black" stroke-width="8.55932" stroke-miterlimit="1.5" stroke-linecap="round" stroke-linejoin="round"/>
<path d="M69.4415 23.72C69.207 25.4216 69.0273 27.1263 68.7219 28.8164" stroke="black" stroke-width="8.55932" stroke-miterlimit="1.5" stroke-linecap="round" stroke-linejoin="round"/>
<path d="M59.8906 32.5604C61.2578 32.695 62.6216 32.9306 63.9818 33.0691" stroke="black" stroke-width="8.55932" stroke-miterlimit="1.5" stroke-linecap="round" stroke-linejoin="round"/>
<path d="M67.2998 37.2642C67.1636 39.4846 66.7075 41.943 66.8987 44.1766" stroke="black" stroke-width="8.55932" stroke-miterlimit="1.5" stroke-linecap="round" stroke-linejoin="round"/>
<path d="M73.2432 33.963C74.6188 34.071 75.9659 34.3236 77.3344 34.4717" stroke="black" stroke-width="8.55932" stroke-miterlimit="1.5" stroke-linecap="round" stroke-linejoin="round"/>
</svg>
