<svg width="165" height="73" viewBox="0 0 165 73" fill="none" xmlns="http://www.w3.org/2000/svg">
<path d="M1 2L17.3019 20L33.6037 2L49.8869 20L66.189 2L82.4718 20L98.7735 2L115.076 20L131.378 2L147.679 20L164 2" stroke="#4F4F4F" stroke-opacity="0.4" stroke-width="2" stroke-miterlimit="10" stroke-linecap="round"/>
<path d="M1 53L17.3019 71L33.6037 53L49.8869 71L66.189 53L82.4718 71L98.7735 53L115.076 71L131.378 53L147.679 71L164 53" stroke="#4F4F4F" stroke-opacity="0.4" stroke-width="2" stroke-miterlimit="10" stroke-linecap="round"/>
<path d="M1 28L17.3019 46L33.6037 28L49.8869 46L66.189 28L82.4718 46L98.7735 28L115.076 46L131.378 28L147.679 46L164 28" stroke="#4F4F4F" stroke-opacity="0.4" stroke-width="2" stroke-miterlimit="10" stroke-linecap="round"/>
</svg>
