<svg width="251" height="247" viewBox="0 0 251 247" fill="none" xmlns="http://www.w3.org/2000/svg">
<g opacity="0.5">
<path d="M241.595 67.7167C242.574 67.45 243.49 66.992 244.291 66.3691C244.577 66.1434 244.835 65.8849 245.061 65.5991C245.312 65.3374 245.53 65.0465 245.711 64.7328C246.26 63.7847 246.581 62.722 246.65 61.6285C246.689 60.7101 246.541 59.7933 246.216 58.9333C245.969 58.0338 245.506 57.2079 244.868 56.5269L244.532 56.2382C244.417 56.0212 244.289 55.8121 244.146 55.6125C243.727 55.084 243.223 54.6286 242.654 54.2649C242.222 54.0069 241.772 53.7817 241.306 53.5911L240.729 53.3985C240.244 53.2851 239.754 53.1967 239.26 53.1339C238.756 53.098 238.249 53.098 237.744 53.1339C237.071 53.2011 236.417 53.3971 235.819 53.7114C234.872 54.1593 234.046 54.8277 233.412 55.6606C233.286 55.8111 233.173 55.9721 233.075 56.1419C232.804 56.612 232.57 57.1028 232.377 57.6098C232.126 58.3295 231.996 59.0857 231.992 59.8478C231.971 60.5868 232.06 61.3247 232.256 62.0376C232.389 62.5229 232.558 62.9976 232.762 63.4574C233.005 63.929 233.287 64.3798 233.604 64.805C234.056 65.4012 234.601 65.9211 235.217 66.3451C235.368 66.4631 235.529 66.5678 235.698 66.6579C236.177 66.929 236.676 67.1624 237.19 67.3558C238.59 67.9108 240.124 68.0364 241.595 67.7167Z" fill="#DC8C73"/>
<path d="M213.964 85.7893C214.413 85.9167 214.872 86.0052 215.336 86.0539C215.895 86.1265 216.462 86.1265 217.021 86.0539H217.406C217.837 85.9415 218.256 85.7884 218.658 85.5967C219.196 85.3476 219.692 85.0145 220.126 84.6101C220.449 84.2907 220.755 83.9533 221.04 83.5994L221.305 83.2384C222.008 82.1252 222.406 80.8475 222.46 79.5326C222.488 78.8863 222.431 78.2391 222.292 77.6074C222.167 77.1539 222.007 76.7113 221.811 76.2839C221.753 76.1172 221.681 75.9561 221.594 75.8026C221.379 75.3471 221.057 74.9508 220.655 74.6475C220.29 74.2783 219.833 74.0125 219.331 73.8775C218.849 73.692 218.327 73.634 217.815 73.709C217.495 73.7161 217.179 73.7729 216.876 73.8775C216.568 73.7981 216.254 73.7417 215.938 73.709C215.482 73.6611 215.022 73.6611 214.566 73.709H214.181C213.736 73.8252 213.301 73.9782 212.881 74.1662C212.353 74.4048 211.86 74.7123 211.413 75.0807L211.1 75.3694C210.777 75.7 210.48 76.0539 210.209 76.4283C210.051 76.6767 209.906 76.9338 209.776 77.1983C209.636 77.47 209.515 77.7515 209.415 78.0406C209.309 78.4849 209.229 78.9348 209.174 79.3882C209.114 79.8434 209.114 80.3046 209.174 80.7598C209.247 81.3303 209.418 81.884 209.68 82.3962C209.933 82.8987 210.249 83.3675 210.619 83.7919C210.816 83.9965 211.024 84.1894 211.244 84.3694C211.458 84.5668 211.683 84.7517 211.918 84.9229L212.231 85.1155C212.636 85.3399 213.054 85.5408 213.483 85.7171L213.964 85.7893Z" fill="#BCA28E"/>
<path d="M243.232 111.418C244.444 111.416 245.636 111.11 246.698 110.527C247.752 109.918 248.67 109.099 249.394 108.121C249.785 107.555 250.015 106.892 250.057 106.205C250.1 105.518 249.954 104.833 249.635 104.222L248.672 102.514C248.188 101.604 247.381 100.908 246.409 100.565C245.992 100.421 245.548 100.372 245.11 100.42L244.315 100.035C243.371 99.6989 242.353 99.6197 241.368 99.8057C240.382 99.9918 239.464 100.436 238.707 101.094C237.799 101.976 237.205 103.132 237.018 104.385C236.831 105.637 237.061 106.916 237.672 108.025C238.193 109.026 238.985 109.86 239.959 110.431C240.939 111.053 242.071 111.394 243.232 111.418Z" fill="#BCA28E"/>
<path d="M239.911 85.9336C240.205 84.9641 240.108 83.918 239.639 83.0195C239.171 82.1211 238.37 81.4417 237.406 81.127C236.443 80.8123 235.395 80.8873 234.487 81.336C233.578 81.7846 232.881 82.5712 232.546 83.5272C232.252 84.4967 232.35 85.5428 232.818 86.4413C233.286 87.3398 234.088 88.0191 235.051 88.3338C236.014 88.6485 237.062 88.5735 237.971 88.1249C238.879 87.6762 239.576 86.8896 239.911 85.9336Z" fill="#BCA28E"/>
<path d="M214.542 45.1447C215.536 45.2388 216.535 45.0556 217.431 44.6153C217.905 44.4037 218.344 44.1195 218.73 43.7731C219.034 43.4971 219.308 43.1906 219.549 42.8586C219.618 42.7886 219.675 42.7072 219.717 42.618C220.184 41.8988 220.45 41.068 220.487 40.2116C220.5 40.1157 220.5 40.0187 220.487 39.9228L220.873 39.6581C221.27 39.3325 221.577 38.9097 221.763 38.4308C222.035 37.9809 222.177 37.4645 222.172 36.9388C222.215 35.9349 221.87 34.953 221.21 34.1956C220.51 33.4172 219.534 32.9423 218.49 32.872C217.689 32.805 216.884 32.805 216.083 32.872C215.251 32.9589 214.438 33.1783 213.676 33.5218C213.45 33.6063 213.233 33.7109 213.026 33.8346C212.572 34.106 212.145 34.4203 211.75 34.7731C210.999 35.5103 210.424 36.4066 210.066 37.3961C209.726 38.3939 209.635 39.4595 209.801 40.5004C209.875 40.9923 210.021 41.4707 210.234 41.9201C210.441 42.3916 210.716 42.8296 211.052 43.2196C211.219 43.4067 211.405 43.576 211.606 43.725C211.773 43.9046 211.958 44.066 212.16 44.2063C212.867 44.7059 213.684 45.0278 214.542 45.1447Z" fill="#BCA28E"/>
<path d="M199.836 57.201C200.244 57.2368 200.655 57.2368 201.064 57.201C202.03 56.9475 202.88 56.3698 203.471 55.5645C203.78 55.1317 203.97 54.6258 204.024 54.0967C204.157 53.6 204.157 53.0772 204.024 52.5806L203.687 51.6421C203.382 51.0531 202.935 50.5487 202.387 50.1742L201.665 49.8132C201.462 49.581 201.227 49.3785 200.967 49.2116C200.545 48.8993 200.046 48.7079 199.523 48.6581C199.026 48.5254 198.504 48.5254 198.007 48.6581L197.068 48.9951C196.467 49.2927 195.953 49.7403 195.576 50.2946L195.119 51.233C194.899 51.8924 194.858 52.598 194.998 53.2785C194.998 53.2785 194.998 53.2785 194.998 53.3988C194.998 53.5191 195.215 54.0485 195.335 54.3613C195.504 54.6501 195.72 54.963 195.913 55.2277L196.081 55.4202C196.357 55.7166 196.664 55.9828 196.996 56.2143C197.355 56.4397 197.734 56.6329 198.127 56.7918H198.368C198.841 56.9796 199.334 57.1168 199.836 57.201Z" fill="#DC8C73"/>
<path d="M241.764 43.3879C242.271 43.3919 242.77 43.2589 243.208 43.0029C243.664 42.7884 244.06 42.4662 244.363 42.0644C244.727 41.6997 244.999 41.2544 245.158 40.7649L245.35 39.7301C245.377 39.0616 245.227 38.3978 244.917 37.805L244.363 36.9628C243.911 36.4499 243.329 36.0676 242.679 35.8558L241.138 35.3504C240.648 35.1629 240.117 35.105 239.598 35.182C239.098 35.175 238.606 35.3083 238.178 35.567C237.72 35.7678 237.323 36.0827 237.022 36.4815C236.647 36.8461 236.373 37.3023 236.228 37.805C236.228 38.1419 236.228 38.4788 236.035 38.8398C236.001 39.5063 236.142 40.1702 236.445 40.7649L236.998 41.6071C237.455 42.1149 238.036 42.4961 238.683 42.7141L240.248 43.2195C240.73 43.4071 241.252 43.4651 241.764 43.3879Z" fill="#BCA28E"/>
<path d="M210.065 17.832C210.968 17.9522 211.882 17.9522 212.785 17.832C214.721 17.501 216.538 16.6716 218.056 15.4256C218.46 15.1064 218.768 14.6817 218.946 14.1983C219.23 13.7526 219.381 13.2348 219.38 12.7063C219.407 11.6973 219.065 10.7132 218.417 9.93893C218.008 9.45764 217.623 8.97637 217.213 8.51915C216.554 7.78389 215.645 7.32057 214.662 7.21966L213.579 6.73842C213.276 6.61356 212.961 6.51691 212.64 6.44967C212.033 6.30145 211.412 6.21275 210.787 6.18492C209.658 6.16165 208.543 6.44437 207.562 7.0031C206.581 7.51937 205.751 8.28246 205.155 9.21703C204.868 9.66672 204.641 10.1522 204.481 10.6609C204.24 11.4893 204.191 12.3614 204.336 13.2117C204.407 13.7045 204.553 14.1835 204.77 14.6315C205.183 15.4164 205.767 16.0988 206.479 16.6288L206.864 16.8694C207.254 17.1 207.665 17.2934 208.091 17.4469C208.731 17.6538 209.394 17.7831 210.065 17.832Z" fill="#ECC889"/>
<path d="M191.412 34.4843C191.907 34.4106 192.374 34.2026 192.759 33.8827C193.208 33.6429 193.583 33.2851 193.843 32.848C194.155 32.4259 194.346 31.9267 194.396 31.4041C194.529 30.9075 194.529 30.3847 194.396 29.888C194.408 29.76 194.408 29.6311 194.396 29.503V28.4923C194.262 27.8425 193.963 27.2379 193.53 26.7356L192.759 26.0618C192.175 25.683 191.504 25.4593 190.81 25.4121C190.441 25.3802 190.071 25.3802 189.703 25.4121H189.534C188.819 25.5586 188.155 25.8906 187.609 26.3747C187.35 26.6306 187.108 26.904 186.887 27.1929C186.694 27.5256 186.525 27.8713 186.381 28.2276C186.379 28.2677 186.379 28.3078 186.381 28.3479C186.286 28.712 186.213 29.0817 186.165 29.4549V29.5752C186.165 29.9602 186.165 30.3212 186.165 30.6821C186.165 30.6821 186.165 30.6822 186.165 30.8025C186.165 30.9228 186.405 31.5003 186.502 31.741C186.675 32.0553 186.876 32.3533 187.103 32.6313C187.242 32.7306 187.371 32.8434 187.488 32.9682L187.898 33.3051C188.209 33.5209 188.549 33.6911 188.908 33.8105C189.659 34.2744 190.529 34.5086 191.412 34.4843Z" fill="#BCA28E"/>
<path d="M181.062 9.57795H181.182C181.559 9.61405 181.938 9.61405 182.314 9.57795L183.252 9.24102C183.879 8.91929 184.416 8.44823 184.817 7.86942C185.041 7.54221 185.219 7.18598 185.346 6.81059V6.32928C185.451 6.13946 185.532 5.93738 185.587 5.72767C185.773 5.24519 185.831 4.72304 185.756 4.21162C185.76 3.70444 185.627 3.20564 185.371 2.76783L184.817 1.94958C184.368 1.42695 183.786 1.03602 183.132 0.818562L182.097 0.626081C181.432 0.60375 180.771 0.74421 180.172 1.0352L179.185 1.51644L178.968 1.63681C178.321 1.93707 177.771 2.41211 177.38 3.00841C176.981 3.6203 176.749 4.32519 176.706 5.05388C176.658 5.42133 176.658 5.79336 176.706 6.16081C176.853 6.88286 177.184 7.55454 177.668 8.11007C177.808 8.26035 177.961 8.39727 178.126 8.51912C178.271 8.672 178.433 8.80915 178.607 8.92825C178.92 9.12076 179.281 9.26513 179.618 9.43357C180.092 9.53754 180.577 9.58599 181.062 9.57795Z" fill="#BCA28E"/>
<path d="M152.877 14.8481C153.349 14.977 153.833 15.0576 154.321 15.0887C154.714 15.1128 155.108 15.1128 155.5 15.0887H155.741C156.209 14.986 156.662 14.8243 157.089 14.6074C157.553 14.4059 157.952 14.0814 158.244 13.6689C158.623 13.317 158.898 12.8673 159.039 12.3695C159.062 12.1776 159.062 11.9838 159.039 11.7919C159.364 11.5672 159.642 11.2811 159.857 10.9497C160.392 10.0618 160.596 9.01362 160.435 7.98976L160.098 7.0513C159.798 6.4444 159.341 5.92906 158.774 5.55926L157.859 5.10211C157.189 4.92234 156.483 4.92234 155.813 5.10211C155.187 5.28841 154.575 5.52164 153.984 5.79991L153.551 6.04057C153.142 6.30528 152.732 6.56997 152.347 6.85874C152.076 7.05748 151.826 7.28324 151.601 7.53254C151.131 8.00655 150.704 8.52204 150.326 9.07268C150.023 9.50007 149.833 9.99653 149.772 10.5165C149.639 11.0132 149.639 11.5359 149.772 12.0325L150.085 12.9711C150.392 13.5729 150.848 14.0864 151.409 14.463C151.768 14.6589 152.138 14.8357 152.516 14.9924L152.877 14.8481Z" fill="#BCA28E"/>
<path d="M164.598 50.7038C165.007 50.7276 165.417 50.7276 165.826 50.7038C165.921 50.7147 166.018 50.7147 166.114 50.7038C166.521 50.5983 166.916 50.4532 167.294 50.2707C167.667 50.0696 168.021 49.836 168.353 49.5728C169 48.9903 169.488 48.2535 169.773 47.4311C169.963 46.9495 170.013 46.4239 169.917 45.9151C169.918 45.4114 169.794 44.9154 169.556 44.4712C169.14 43.7436 168.533 43.1442 167.799 42.7386L167.318 42.0167C166.868 41.501 166.285 41.1182 165.633 40.9097L164.598 40.7172C163.931 40.6713 163.264 40.813 162.672 41.1262H162.552C162.287 41.2706 161.974 41.5113 161.71 41.6797C161.64 41.7377 161.575 41.8022 161.517 41.8723C161.301 42.0889 161.036 42.4016 160.843 42.6423C160.63 43.0129 160.445 43.399 160.29 43.7974V44.014C160.197 44.3867 160.124 44.7642 160.073 45.145C160.084 45.1925 160.084 45.2419 160.073 45.2894C160.048 45.69 160.048 46.0919 160.073 46.4926C160.062 46.5804 160.062 46.6694 160.073 46.7573C160.073 47.0942 160.314 47.4552 160.434 47.7921C160.434 47.7921 160.554 48.129 160.434 47.7921V47.9123L160.988 48.7546C161.543 49.3938 162.257 49.8752 163.058 50.1503C163.137 50.1642 163.219 50.1642 163.298 50.1503C163.712 50.3768 164.148 50.5622 164.598 50.7038Z" fill="#BCA28E"/>
<path d="M187.777 92.4068C188.282 92.4194 188.781 92.2946 189.221 92.0458C189.677 91.8313 190.073 91.5092 190.377 91.1074C190.741 90.7474 191.006 90.2999 191.147 89.8079C191.147 89.4469 191.291 89.11 191.339 88.7731C191.387 88.4379 191.387 88.0976 191.339 87.7624C191.49 87.4124 191.572 87.0365 191.58 86.6555V85.6447C191.442 84.9915 191.135 84.386 190.689 83.8881L189.943 83.2383C189.363 82.8343 188.677 82.6086 187.97 82.5886C187.088 82.5478 186.211 82.7299 185.418 83.118C185.036 83.3167 184.674 83.5503 184.335 83.8159L184.095 84.0325C183.781 84.3477 183.492 84.6854 183.228 85.0431C183.228 85.2357 183.035 85.4522 182.939 85.6447C182.829 85.8464 182.732 86.0554 182.65 86.2704C182.64 86.318 182.64 86.3673 182.65 86.4148C182.65 86.6073 182.65 86.824 182.53 86.9924C182.41 87.1609 182.53 87.4015 182.53 87.594V87.7384C182.505 88.123 182.505 88.5088 182.53 88.8934C182.659 89.5524 182.957 90.1663 183.397 90.6742C183.862 91.1829 184.451 91.564 185.105 91.7812L186.453 92.2624C186.877 92.4156 187.331 92.4652 187.777 92.4068Z" fill="#BCA28E"/>
<path d="M211.678 108.241C212.182 108.242 212.678 108.118 213.122 107.88C213.578 107.666 213.975 107.343 214.278 106.942C214.643 106.573 214.908 106.117 215.048 105.618L215.241 104.607C215.29 103.932 215.148 103.257 214.831 102.658L214.278 101.84C213.833 101.313 213.249 100.921 212.593 100.709L212.088 100.54C211.598 100.349 211.064 100.299 210.547 100.396C210.043 100.396 209.547 100.52 209.103 100.757C208.647 100.972 208.251 101.294 207.948 101.696C207.578 102.061 207.313 102.518 207.177 103.019C207.177 103.356 207.033 103.693 206.985 104.03C206.941 104.705 207.082 105.379 207.394 105.979L207.948 106.797C208.398 107.313 208.98 107.696 209.633 107.904L210.162 108.097C210.649 108.264 211.169 108.314 211.678 108.241Z" fill="#BCA28E"/>
<path d="M228.671 141.209C229.123 141.32 229.581 141.408 230.042 141.473C230.61 141.533 231.183 141.533 231.751 141.473C232.29 141.375 232.815 141.214 233.316 140.992C233.817 140.756 234.286 140.456 234.712 140.102C234.804 140.034 234.885 139.953 234.953 139.861C235.944 138.967 236.556 137.727 236.661 136.396C236.746 135.862 236.746 135.318 236.661 134.784V134.495C236.534 134.077 236.381 133.667 236.204 133.268C236 132.889 235.766 132.527 235.506 132.185C235.446 132.074 235.364 131.975 235.265 131.896L235.145 131.752C234.856 131.511 234.591 131.246 234.279 131.006C234.2 130.936 234.111 130.879 234.014 130.837C233.634 130.61 233.23 130.425 232.81 130.284C232.43 130.188 232.044 130.116 231.655 130.067H231.487C231.058 130.047 230.628 130.088 230.211 130.187C229.851 130.286 229.497 130.407 229.152 130.548H228.983L228.574 130.789L228.141 130.957L227.78 131.126C227.295 131.391 226.849 131.723 226.456 132.113C226.191 132.425 225.83 132.786 225.59 133.123C225.349 133.46 225.325 133.653 225.181 133.893C225.048 134.141 224.935 134.398 224.844 134.663C224.833 134.719 224.833 134.776 224.844 134.832C224.746 135.228 224.674 135.63 224.627 136.035C224.614 136.147 224.614 136.26 224.627 136.372C224.627 136.733 224.627 137.142 224.627 137.503C224.627 137.503 224.627 137.864 224.627 137.503L224.964 138.441L225.518 139.26C225.89 139.7 226.349 140.06 226.865 140.318C227.372 140.607 227.903 140.849 228.454 141.04L228.671 141.209Z" fill="#BCA28E"/>
<path d="M198.897 129.61L199.932 129.803H200.149H201.208H201.352L202.339 129.466H202.46L202.941 129.153L203.398 128.816C203.486 128.771 203.56 128.705 203.615 128.623L204.313 127.829C204.481 127.516 204.65 127.18 204.794 126.843V126.698C204.794 126.698 204.794 126.698 204.794 126.554L205.011 125.495V125.254C205.011 124.893 205.011 124.532 205.011 124.196V124.027L204.842 123.522L204.65 123.016C204.65 123.016 204.65 123.016 204.65 122.872C204.448 122.409 204.124 122.009 203.711 121.717C203.341 121.354 202.893 121.081 202.4 120.918C201.908 120.755 201.385 120.708 200.871 120.778C200.594 120.781 200.319 120.822 200.053 120.899C199.78 120.876 199.507 120.876 199.234 120.899L198.296 121.236C197.7 121.543 197.194 121.999 196.827 122.559C196.619 122.908 196.434 123.269 196.274 123.642V123.859C196.26 123.995 196.26 124.132 196.274 124.268C196.155 124.742 196.074 125.225 196.033 125.712V125.904C196.033 126.313 196.033 126.722 196.033 127.107C196.166 127.762 196.474 128.37 196.924 128.864C197.373 129.387 197.955 129.778 198.609 129.995H198.753L198.897 129.61Z" fill="#BCA28E"/>
<path d="M151.024 91.3959H152.011C152.661 91.2613 153.265 90.9632 153.768 90.5296L156.006 88.9654C156.404 88.6398 156.711 88.2171 156.897 87.7382C157.163 87.2859 157.304 86.7709 157.306 86.2461C157.363 85.744 157.279 85.2361 157.065 84.7783C156.947 84.2878 156.697 83.8387 156.343 83.4788L155.597 82.805C155.006 82.4222 154.326 82.1984 153.623 82.1553H152.613C151.961 82.2988 151.356 82.6052 150.855 83.0456L148.641 84.5858C148.244 84.9114 147.937 85.3341 147.751 85.813C147.484 86.2653 147.343 86.7802 147.341 87.305C147.285 87.8071 147.368 88.3151 147.582 88.7729C147.695 89.2657 147.945 89.7163 148.304 90.0724L149.05 90.7462C149.641 91.129 150.321 91.3527 151.024 91.3959Z" fill="#BCA28E"/>
<path d="M172.277 66.7061C172.777 66.7131 173.269 66.5797 173.697 66.321C174.154 66.1203 174.552 65.8054 174.852 65.4067C175.227 65.0421 175.501 64.5858 175.646 64.0831C175.646 63.7462 175.791 63.4093 175.839 63.0483C175.885 62.381 175.743 61.7142 175.43 61.1232L174.876 60.281C174.419 59.7732 173.839 59.3919 173.191 59.174L172.662 59.0056C172.18 58.8153 171.654 58.7653 171.145 58.8612C170.64 58.8486 170.141 58.9734 169.701 59.2221C169.246 59.4367 168.849 59.7587 168.546 60.1606C168.175 60.5192 167.902 60.9664 167.752 61.4601C167.752 61.8211 167.752 62.1579 167.559 62.4948C167.539 63.1679 167.679 63.8361 167.968 64.444C168.167 64.7071 168.351 64.9803 168.522 65.2623C168.981 65.7788 169.572 66.1613 170.231 66.3692L170.736 66.5377C171.227 66.7252 171.757 66.7831 172.277 66.7061Z" fill="#ECC889"/>
<path d="M124.74 25.9176C125.269 25.9662 125.801 25.9662 126.329 25.9176C126.857 25.8083 127.373 25.647 127.869 25.4363L128.447 25.1475C129.876 24.3618 130.964 23.0765 131.504 21.5379C131.682 21.0535 131.732 20.5311 131.648 20.0218C131.649 19.5181 131.525 19.0221 131.287 18.578C131.073 18.1225 130.75 17.7261 130.349 17.4229C129.985 17.0458 129.528 16.7718 129.025 16.6288L128.014 16.4363C127.574 16.4379 127.136 16.5027 126.714 16.6288H126.329H125.896C125.419 16.6316 124.943 16.6799 124.476 16.7731C124.107 16.8798 123.746 17.0084 123.393 17.1582H123.176C122.773 17.3867 122.387 17.6441 122.021 17.9282L121.684 18.1929C121.419 18.4817 121.154 18.7705 120.913 19.0834L120.769 19.2758C120.724 19.3365 120.683 19.4009 120.649 19.4683C120.448 19.8253 120.271 20.1951 120.119 20.5753L119.927 21.586C119.885 22.0955 119.967 22.6075 120.167 23.0779C120.241 23.4017 120.399 23.7004 120.625 23.9443C120.865 24.3928 121.222 24.7672 121.66 25.0272C122.598 25.5711 123.656 25.8768 124.74 25.9176Z" fill="#BCA28E"/>
<path d="M155.235 32.0058H155.644C156.105 31.9934 156.563 31.9451 157.016 31.8614H157.401C157.843 31.7343 158.277 31.5816 158.701 31.4042C159.227 31.143 159.72 30.8199 160.169 30.4416C160.557 30.1144 160.904 29.7429 161.204 29.3346C161.633 29.0954 161.99 28.7467 162.239 28.324C162.562 27.9078 162.755 27.4054 162.793 26.8801C162.926 26.3835 162.926 25.8607 162.793 25.3641L162.456 24.4256C162.159 23.8242 161.711 23.31 161.156 22.9336L160.218 22.4763C159.556 22.2963 158.858 22.2963 158.196 22.4763C157.826 22.4971 157.462 22.5701 157.113 22.693C156.456 22.8891 155.819 23.1468 155.211 23.463C154.802 23.7036 154.393 23.9924 153.984 24.2811L153.55 24.6181C153.043 25.085 152.584 25.601 152.178 26.1582C151.797 26.7285 151.573 27.3898 151.531 28.0748C151.489 28.7598 151.629 29.4437 151.938 30.0566C152.275 30.6362 152.755 31.1196 153.332 31.4609C153.91 31.8021 154.565 31.9898 155.235 32.0058Z" fill="#DC8C73"/>
<path d="M181.495 45.6743C182.002 45.6783 182.501 45.5453 182.939 45.2893C183.395 45.0747 183.791 44.7527 184.095 44.3508C184.466 43.9922 184.739 43.545 184.889 43.0513C184.889 42.7144 185.009 42.3535 185.081 42.0166C185.104 41.3511 184.963 40.6902 184.672 40.0914L184.119 39.2491C183.653 38.7404 183.064 38.3594 182.41 38.1422L181.904 37.9737C181.414 37.7862 180.883 37.7283 180.364 37.8053C179.864 37.7983 179.372 37.9317 178.944 38.1904C178.48 38.3919 178.081 38.7164 177.788 39.1288C177.409 39.4808 177.134 39.9304 176.994 40.4283C176.994 40.7652 176.85 41.1262 176.802 41.4631C176.767 42.1296 176.908 42.7935 177.211 43.3882L177.764 44.2304C178.221 44.7382 178.802 45.1194 179.449 45.3374L179.979 45.5058C180.461 45.6913 180.984 45.7493 181.495 45.6743Z" fill="#BCA28E"/>
<path d="M173.263 103.765C173.672 103.802 174.082 103.802 174.491 103.765H174.756C175.15 103.658 175.537 103.521 175.911 103.356C176.806 102.854 177.496 102.053 177.86 101.094C178.051 100.613 178.101 100.087 178.005 99.5782C178.017 99.0731 177.893 98.5741 177.644 98.1343L177.09 97.3161C176.635 96.8013 176.055 96.4118 175.405 96.1851H175.093V96.0167C174.878 95.5613 174.556 95.1649 174.154 94.8616C173.794 94.4977 173.346 94.2325 172.854 94.0916L171.819 93.8991C171.152 93.8532 170.485 93.9949 169.894 94.3081L169.051 94.8616C168.538 95.3141 168.156 95.8958 167.944 96.5461C167.79 97.0452 167.709 97.5639 167.703 98.0862C167.7 98.4984 167.74 98.9098 167.824 99.3135C167.916 99.7097 168.045 100.096 168.209 100.469C168.431 100.919 168.697 101.346 169.003 101.744C169.336 102.126 169.707 102.472 170.11 102.779C170.247 102.897 170.402 102.994 170.568 103.068C171.008 103.343 171.487 103.554 171.988 103.693C172.41 103.752 172.837 103.776 173.263 103.765Z" fill="#BCA28E"/>
<path d="M143.803 63.1208H144.212C144.597 63.1446 144.983 63.1446 145.367 63.1208H145.536H145.752C146.121 63.0141 146.483 62.8855 146.836 62.7357L147.197 62.5914C147.58 62.3651 147.95 62.1159 148.304 61.8454L148.593 61.5806C148.909 61.2529 149.206 60.9074 149.483 60.5459C149.488 60.4898 149.488 60.4335 149.483 60.3774C149.676 60.0405 149.844 59.6556 150.013 59.2946C150.2 58.8042 150.258 58.2738 150.181 57.7544C150.181 57.4319 150.115 57.1128 149.989 56.816C149.95 56.4131 149.836 56.0211 149.652 55.6609L149.098 54.8427C148.642 54.3278 148.062 53.9384 147.413 53.7117C146.932 53.5909 146.44 53.5183 145.945 53.4951C145.468 53.4962 144.992 53.5446 144.525 53.6395C144.064 53.7508 143.619 53.9206 143.201 54.1448C142.858 54.3388 142.528 54.5559 142.214 54.7946L142.022 54.939C141.664 55.2651 141.341 55.628 141.059 56.0218C140.788 56.4208 140.562 56.8486 140.385 57.2972C140.316 57.4336 140.267 57.5797 140.241 57.7304C140.093 58.2056 140.02 58.7008 140.024 59.1983C139.968 59.7004 140.051 60.2085 140.265 60.6663C140.384 61.1567 140.633 61.6057 140.987 61.9657L141.757 62.6395C142.383 62.9829 143.09 63.1494 143.803 63.1208Z" fill="#BBBEA0"/>
<path d="M130.396 50.2465H131.407C132.055 50.1071 132.659 49.8095 133.164 49.3803L134.729 48.2011C135.126 47.8755 135.433 47.4528 135.619 46.9739C135.882 46.5189 136.031 46.0069 136.053 45.4819C136.089 44.9781 135.998 44.4733 135.788 44.0139C135.668 43.5292 135.428 43.0824 135.09 42.7145L134.32 42.0407C133.739 41.6578 133.065 41.4415 132.37 41.415H131.359C130.704 41.548 130.097 41.8556 129.602 42.3054L128.038 43.4604C127.633 43.7795 127.325 44.2043 127.147 44.6877C126.873 45.1381 126.724 45.6528 126.714 46.1797C126.672 46.6892 126.754 47.2012 126.954 47.6717C127.093 48.1469 127.34 48.5835 127.677 48.9471L128.447 49.6209C129.033 49.9913 129.704 50.2066 130.396 50.2465Z" fill="#BCA28E"/>
<path d="M180.172 129.008C180.58 129.034 180.99 129.034 181.399 129.008H181.616C182.005 128.908 182.384 128.771 182.747 128.599L183.662 127.973C183.966 127.708 184.241 127.409 184.48 127.083C184.705 126.724 184.899 126.345 185.058 125.952C185.198 125.548 185.287 125.127 185.323 124.701C185.364 124.199 185.282 123.695 185.082 123.233C184.938 122.753 184.692 122.309 184.36 121.933C184.277 121.847 184.189 121.767 184.095 121.693L183.806 121.26C183.349 120.752 182.769 120.371 182.121 120.153C181.344 119.901 180.516 119.851 179.714 120.008C179.316 120.105 178.929 120.242 178.559 120.417C178.183 120.603 177.828 120.829 177.5 121.091L177.308 121.26C177.048 121.524 176.807 121.805 176.585 122.102C176.122 122.824 175.849 123.652 175.791 124.508C175.738 125.21 175.889 125.912 176.224 126.53C176.417 126.842 176.61 127.131 176.826 127.42L177.235 127.781L177.644 128.142C178.001 128.351 178.371 128.536 178.752 128.695H178.968C179.359 128.837 179.762 128.942 180.172 129.008Z" fill="#ECC889"/>
<path d="M206.383 153.698C206.761 153.805 207.147 153.878 207.538 153.915C207.922 153.961 208.31 153.961 208.694 153.915H208.79L209.753 153.578L210.571 153.024C210.865 152.771 211.124 152.48 211.341 152.158C211.664 151.742 211.857 151.24 211.895 150.714C212.027 150.234 212.027 149.727 211.895 149.246C211.995 149.009 212.06 148.757 212.087 148.5C212.22 148.004 212.22 147.481 212.087 146.984C211.994 146.49 211.779 146.027 211.462 145.637C211.228 145.184 210.869 144.808 210.427 144.554L209.488 144.097C208.837 143.876 208.139 143.834 207.466 143.976L206.527 144.313C205.925 144.619 205.411 145.075 205.035 145.637L204.241 146.575L203.832 147.057L203.639 147.273L203.182 148.212L202.989 149.246C202.989 149.367 202.989 150.161 202.989 150.257V150.377C202.989 150.377 203.278 151.22 203.326 151.316L203.88 152.158C204.072 152.351 204.433 152.663 204.65 152.832H204.77L205.709 153.289L206.383 153.698Z" fill="#BCA28E"/>
<path d="M219.765 121.886C220.272 121.89 220.771 121.757 221.209 121.501C221.676 121.316 222.078 120.998 222.364 120.586C222.744 120.225 223.019 119.768 223.159 119.263L223.351 118.228C223.386 117.561 223.245 116.897 222.942 116.303L222.388 115.485C221.935 114.956 221.343 114.565 220.68 114.353L220.174 114.185C219.692 113.995 219.167 113.945 218.658 114.041C218.154 114.04 217.658 114.164 217.214 114.402C216.75 114.603 216.35 114.928 216.058 115.34C215.679 115.692 215.404 116.142 215.264 116.64C215.264 117.001 215.144 117.337 215.071 117.674C215.039 118.348 215.18 119.019 215.481 119.624L216.034 120.442C216.493 120.958 217.084 121.341 217.743 121.549L218.249 121.717C218.731 121.903 219.253 121.961 219.765 121.886Z" fill="#BCA28E"/>
<path d="M151.914 125.399C152.245 125.494 152.595 125.494 152.925 125.399C153.433 125.403 153.931 125.27 154.369 125.014C154.433 125.027 154.498 125.027 154.562 125.014C154.922 124.826 155.261 124.6 155.573 124.34C155.86 124.064 156.125 123.766 156.367 123.449L156.512 123.257C156.72 122.892 156.905 122.514 157.065 122.126V121.909L157.21 121.26C157.409 120.854 157.523 120.412 157.547 119.96C157.58 119.457 157.489 118.953 157.282 118.492C157.158 118.004 156.909 117.556 156.56 117.193L155.814 116.543C155.23 116.164 154.558 115.941 153.864 115.893H152.853C152.201 116.037 151.597 116.343 151.096 116.784C150.712 117.139 150.358 117.526 150.037 117.939C149.919 118.081 149.814 118.234 149.724 118.396C149.444 118.836 149.21 119.304 149.026 119.792C148.959 119.973 148.903 120.157 148.858 120.345L148.665 121.38V122.391L149.002 123.329C149.211 123.781 149.535 124.171 149.941 124.46C150.164 124.726 150.455 124.926 150.783 125.038C151.115 125.27 151.509 125.396 151.914 125.399Z" fill="#BCA28E"/>
<path d="M193.265 109.372C193.49 108.42 193.348 107.419 192.869 106.567C192.39 105.715 191.608 105.073 190.678 104.771C189.748 104.468 188.738 104.525 187.849 104.932C186.959 105.338 186.255 106.064 185.876 106.966C185.652 107.917 185.793 108.918 186.272 109.771C186.752 110.623 187.534 111.264 188.464 111.567C189.393 111.87 190.403 111.812 191.293 111.406C192.182 110.999 192.886 110.273 193.265 109.372Z" fill="#BCA28E"/>
<path d="M180.99 157.38H181.447C182.031 157.44 182.62 157.44 183.204 157.38C183.782 157.27 184.346 157.101 184.889 156.875C185.294 156.71 185.674 156.492 186.02 156.225C186.267 156.087 186.501 155.926 186.718 155.744C186.935 155.551 187.224 155.166 187.416 154.949C187.536 154.757 187.633 154.54 187.729 154.348C187.854 154.108 187.959 153.859 188.042 153.602C188.138 153.222 188.21 152.836 188.259 152.447V152.254C188.282 151.886 188.282 151.516 188.259 151.147C188.273 151.092 188.273 151.034 188.259 150.979C188.164 150.626 188.043 150.28 187.898 149.944L187.32 149.102C187.32 149.102 186.598 148.476 186.55 148.428C186.501 148.38 185.346 147.899 185.442 147.899L184.48 147.73H183.926H183.517C183.341 147.717 183.164 147.717 182.987 147.73C181.105 147.585 179.238 148.162 177.764 149.342C177.27 149.736 176.826 150.189 176.441 150.69C176.272 151.003 176.128 151.316 175.983 151.629C175.796 152.119 175.738 152.649 175.815 153.169C175.815 153.502 175.889 153.831 176.031 154.131C176.156 154.62 176.404 155.067 176.754 155.431C177.175 155.851 177.644 156.223 178.15 156.538C178.678 156.839 179.234 157.089 179.81 157.284C180.202 157.334 180.595 157.366 180.99 157.38Z" fill="#DC8C73"/>
<path d="M209.054 179.086C209.694 179.147 210.339 179.147 210.98 179.086C211.297 179.045 211.611 178.981 211.918 178.893C213.126 178.558 214.256 177.986 215.24 177.209C215.715 176.794 216.15 176.334 216.54 175.837C216.913 175.303 217.228 174.73 217.478 174.129C217.669 173.639 217.719 173.105 217.623 172.589C217.623 172.085 217.499 171.589 217.262 171.145C217.047 170.689 216.725 170.293 216.323 169.99C215.958 169.621 215.501 169.355 214.999 169.22C214.669 169.127 214.33 169.07 213.988 169.051C213.699 168.848 213.383 168.686 213.049 168.57H212.713C212.278 168.455 211.836 168.374 211.389 168.329C210.829 168.257 210.263 168.257 209.704 168.329C209.31 168.397 208.923 168.501 208.549 168.642C208.157 168.767 207.779 168.928 207.417 169.123C206.478 169.687 205.66 170.432 205.01 171.313C204.686 171.797 204.412 172.313 204.192 172.853C204.002 173.399 203.873 173.964 203.807 174.538C203.772 175.204 203.913 175.868 204.216 176.463C204.514 177.064 204.962 177.578 205.516 177.955C206.602 178.578 207.808 178.964 209.054 179.086Z" fill="#BCA28E"/>
<path d="M136.582 98.4228C137.024 98.0157 137.368 97.5144 137.588 96.9561C137.809 96.3978 137.901 95.7969 137.858 95.1981C137.862 94.691 137.729 94.1922 137.473 93.7543C137.181 93.1559 136.732 92.6483 136.173 92.2864L135.066 91.3238C134.63 91.0392 134.141 90.8438 133.629 90.7488C133.117 90.6538 132.591 90.6611 132.081 90.7703C131.338 90.9467 130.656 91.3209 130.108 91.8533C129.295 91.8846 128.487 92.0056 127.701 92.2142C126.926 92.4256 126.169 92.6992 125.438 93.0324C124.705 93.4051 124.004 93.8398 123.344 94.3319C122.826 94.7879 122.439 95.374 122.223 96.0298C122.007 96.6856 121.971 97.3871 122.117 98.0618C122.246 98.7176 122.535 99.3312 122.959 99.8478C123.384 100.364 123.929 100.768 124.548 101.022C126.599 101.733 128.807 101.867 130.929 101.409C133.052 100.95 135.007 99.9175 136.582 98.4228Z" fill="#DC8C73"/>
<path d="M109.745 72.3614C110.788 72.3571 111.816 72.1186 112.754 71.6635C113.472 71.3129 114.15 70.8853 114.776 70.3881C115.44 69.8407 116.03 69.2098 116.533 68.5111C117.043 67.7645 117.455 66.9558 117.76 66.1047C117.952 65.6234 118.002 65.0974 117.905 64.5886C117.905 64.085 117.781 63.589 117.544 63.1448L116.99 62.3267C116.526 61.8108 115.937 61.4216 115.281 61.1956H115.161C114.712 60.6399 114.109 60.2295 113.428 60.0165L112.417 59.824C111.741 59.7748 111.066 59.9166 110.467 60.233C110.002 60.3958 109.557 60.614 109.143 60.8828C108.439 61.3039 107.785 61.8045 107.194 62.3748C106.602 62.9297 106.077 63.5515 105.629 64.2277C105.335 64.7128 105.077 65.2196 104.859 65.7437C104.536 66.5957 104.46 67.522 104.643 68.4149C104.755 69.0561 105.002 69.6663 105.367 70.2054C105.732 70.7445 106.207 71.2004 106.761 71.5432C107.189 71.8206 107.661 72.024 108.157 72.1448C108.676 72.2771 109.209 72.3498 109.745 72.3614Z" fill="#BBBEA0"/>
<path d="M93.5951 46.1794C94.2252 46.2758 94.8664 46.2758 95.4965 46.1794C96.1066 46.0709 96.6982 45.8765 97.2536 45.6018C97.6537 45.3899 98.0325 45.1401 98.3848 44.8559L98.7699 44.543C99.1001 44.2127 99.4057 43.8588 99.6845 43.4842C99.939 43.0794 100.157 42.6526 100.334 42.2088C100.568 41.6225 100.722 41.0073 100.792 40.3799C100.828 40.0681 100.828 39.7532 100.792 39.4414C100.918 39.0921 100.998 38.7282 101.032 38.3585C101.089 37.8564 101.006 37.3484 100.792 36.8906C100.679 36.3979 100.428 35.9473 100.07 35.5911C99.7265 35.2016 99.3093 34.884 98.8425 34.6568C98.3756 34.4296 97.8682 34.2973 97.3498 34.2676C96.5031 34.2322 95.6651 34.45 94.9429 34.8933H94.7263C94.0269 35.2762 93.4446 35.8418 93.0415 36.5297L90.3217 39.1286C89.7981 39.5863 89.4073 40.1764 89.1904 40.8371C89.0001 41.3187 88.9501 41.8443 89.046 42.3532C89.0455 42.8568 89.1695 43.3528 89.407 43.797C89.7133 44.3995 90.1691 44.9132 90.7308 45.289C91.1579 45.5263 91.6002 45.7353 92.0547 45.9147C92.5575 46.0564 93.0738 46.1451 93.5951 46.1794Z" fill="#DC8C73"/>
<path d="M80.5741 64.6607L81.585 64.8532C81.9283 64.9009 82.2766 64.9009 82.62 64.8532L83.5587 64.5162L84.377 63.9628C84.6288 63.7155 84.8621 63.45 85.075 63.1686C85.2435 62.8558 85.3879 62.5189 85.5323 62.182L85.7248 61.1713C85.7248 61.1713 85.7248 60.2087 85.7248 60.1606L85.3879 59.2221L84.8343 58.404C84.6022 58.1527 84.344 57.9268 84.0641 57.7302C83.7632 57.5176 83.43 57.3551 83.0773 57.2489C82.7378 57.1249 82.3796 57.0599 82.0182 57.0564C81.6822 57.0209 81.3434 57.0209 81.0073 57.0564C80.5148 57.1409 80.0513 57.3478 79.6595 57.658C79.2099 57.9074 78.8358 58.2731 78.5763 58.7168C78.3439 59.0413 78.1801 59.4097 78.095 59.7997C77.9342 60.1992 77.8367 60.6215 77.8062 61.0511V62.0376C77.9497 62.689 78.2561 63.2934 78.6967 63.7943L79.4428 64.4681C79.7518 64.6446 80.0736 64.7974 80.4056 64.9253L80.5741 64.6607Z" fill="#BCA28E"/>
<path d="M99.5401 100.011C100.215 100.058 100.89 99.9161 101.49 99.602L102.308 99.0485C102.828 98.5975 103.219 98.0161 103.439 97.3641L103.608 96.8587C103.878 95.8684 103.802 94.8156 103.391 93.8747C103.177 93.4193 102.854 93.0229 102.452 92.7196C102.087 92.3504 101.63 92.0847 101.129 91.9496L100.118 91.7571C99.4424 91.7079 98.7668 91.8497 98.1682 92.1662L97.3498 92.7196C96.8298 93.1707 96.4393 93.7522 96.2186 94.4041L96.0501 94.9336C95.8572 95.4145 95.8071 95.9409 95.9057 96.4496C95.9052 96.9533 96.0292 97.4493 96.2667 97.8935C96.4813 98.3489 96.8035 98.7453 97.2054 99.0485C97.5708 99.4178 98.0276 99.6835 98.5292 99.8186L99.5401 100.011Z" fill="#BCA28E"/>
<path d="M122.67 127.204C123.338 127.25 124.005 127.108 124.596 126.795L125.968 126.121C126.862 125.618 127.552 124.818 127.917 123.859C128.103 123.376 128.161 122.854 128.086 122.343C128.09 121.836 127.957 121.337 127.701 120.899L127.147 120.081C126.691 119.566 126.111 119.176 125.462 118.95L124.427 118.757C123.762 118.735 123.101 118.875 122.502 119.166L121.13 119.864C120.666 120.066 120.267 120.39 119.974 120.803C119.595 121.155 119.321 121.604 119.18 122.102C118.878 123.089 118.955 124.153 119.397 125.086L119.95 125.904C120.401 126.42 120.983 126.803 121.635 127.011L122.67 127.204Z" fill="#BCA28E"/>
<path d="M146.499 151.099H147.438C147.638 151.111 147.839 151.111 148.04 151.099H148.304L149.315 150.738H149.46C149.907 150.517 150.32 150.233 150.687 149.896C151.687 148.991 152.292 147.729 152.372 146.383C152.414 145.881 152.331 145.377 152.131 144.915V144.217C151.997 143.567 151.699 142.962 151.265 142.46L150.495 141.786C149.911 141.408 149.24 141.184 148.545 141.137H148.016C147.523 141.129 147.032 141.169 146.547 141.257L146.066 141.377C145.598 141.514 145.139 141.683 144.694 141.883C144.55 141.949 144.413 142.03 144.285 142.123C143.86 142.36 143.457 142.633 143.081 142.942L142.72 143.302C142.373 143.656 142.051 144.034 141.758 144.433C141.458 144.872 141.269 145.375 141.204 145.901C141.071 146.398 141.071 146.921 141.204 147.417L141.517 148.356C141.824 148.951 142.28 149.457 142.841 149.824C143.04 149.966 143.25 150.095 143.467 150.209L144.189 150.57L144.935 150.907C145.449 151.022 145.973 151.086 146.499 151.099Z" fill="#ECC889"/>
<path d="M170.856 178.412C171.257 178.437 171.659 178.437 172.06 178.412H172.276C172.721 178.296 173.156 178.143 173.576 177.955L173.768 177.834C174.104 177.64 174.426 177.423 174.731 177.185L174.9 177.04C175.175 176.76 175.432 176.463 175.67 176.15C175.96 175.754 176.187 175.315 176.344 174.85C176.534 174.369 176.584 173.843 176.488 173.334C176.485 173.058 176.445 172.782 176.368 172.516C176.416 172.197 176.416 171.873 176.368 171.554C176.368 171.05 176.244 170.554 176.007 170.11L175.453 169.292C174.994 168.775 174.404 168.393 173.744 168.185L172.734 167.992C172.058 167.943 171.383 168.085 170.784 168.401C170.24 168.701 169.717 169.039 169.219 169.412C168.967 169.59 168.726 169.783 168.497 169.99C168.063 170.415 167.654 170.865 167.27 171.337C167.064 171.578 166.879 171.835 166.716 172.107C166.548 172.42 166.403 172.733 166.259 173.046C166.073 173.528 166.015 174.05 166.09 174.562C166.076 174.896 166.15 175.228 166.307 175.524C166.42 176.017 166.67 176.468 167.029 176.824C167.318 177.088 167.607 177.377 167.92 177.618H168.112C168.533 177.861 168.976 178.063 169.436 178.219C169.903 178.326 170.378 178.39 170.856 178.412Z" fill="#BCA28E"/>
<path d="M140.241 179.255C140.908 179.29 141.572 179.148 142.167 178.845L142.985 178.292C143.513 177.838 143.905 177.247 144.116 176.583L144.453 175.573C144.641 175.082 144.699 174.552 144.622 174.033C144.626 173.525 144.493 173.027 144.237 172.589C144.022 172.133 143.7 171.737 143.298 171.434C142.938 171.07 142.49 170.805 141.998 170.664L140.963 170.471C140.296 170.425 139.629 170.567 139.038 170.88L138.195 171.434C137.687 171.891 137.306 172.471 137.088 173.118L136.751 174.153C136.566 174.635 136.508 175.158 136.583 175.669C136.579 176.176 136.712 176.675 136.968 177.113C137.169 177.57 137.483 177.968 137.882 178.268C138.247 178.643 138.703 178.917 139.206 179.062L140.241 179.255Z" fill="#DC8C73"/>
<path d="M100.719 153.963C101.802 154.001 102.88 153.796 103.872 153.361C104.373 153.159 104.849 152.9 105.292 152.591C105.795 152.307 106.27 151.976 106.712 151.605L107.001 151.316C107.332 150.977 107.637 150.615 107.916 150.233C108.084 149.992 108.181 149.728 108.325 149.487C108.469 149.246 108.517 149.078 108.59 148.861C108.795 148.535 108.919 148.163 108.951 147.778C109.084 147.282 109.084 146.759 108.951 146.262V146.022C108.868 145.467 108.714 144.925 108.493 144.409C108.275 143.881 107.947 143.405 107.531 143.014C107.205 142.616 106.782 142.309 106.303 142.123C105.852 141.854 105.336 141.712 104.811 141.714C104.309 141.66 103.801 141.743 103.343 141.955C102.854 142.079 102.406 142.328 102.043 142.677C101.643 143.064 101.316 143.52 101.08 144.024L99.9971 144.385C99.1547 144.675 98.3893 145.152 97.7586 145.781C97.4329 146.078 97.1495 146.418 96.9162 146.792C96.5138 147.448 96.2744 148.19 96.2182 148.958V149.15C96.1935 149.503 96.1935 149.856 96.2182 150.209C96.3157 150.625 96.4611 151.029 96.6515 151.412C97.0469 152.156 97.6307 152.783 98.3445 153.231C99.0583 153.678 99.8772 153.931 100.719 153.963Z" fill="#BCA28E"/>
<path d="M95.3759 127.926C96.0241 127.786 96.6277 127.489 97.133 127.059C97.4171 126.772 97.6824 126.466 97.9272 126.145C97.9808 126.09 98.0219 126.024 98.0476 125.952C98.2401 125.591 98.4327 125.23 98.6012 124.845C98.7697 124.46 98.6012 124.845 98.6012 124.701C98.9485 124.361 99.205 123.939 99.3473 123.474C99.5151 122.979 99.5646 122.451 99.4917 121.934C99.4954 121.437 99.3711 120.948 99.1307 120.514L98.553 119.672C98.1005 119.159 97.5187 118.776 96.8682 118.565L95.8573 118.372C95.1819 118.323 94.5063 118.465 93.9077 118.781L93.2819 119.118H93.2578H93.1134L91.4286 120.032L90.5862 120.586L89.9363 121.356L89.479 122.27C89.288 122.76 89.2379 123.294 89.3346 123.811C89.3145 124.143 89.3808 124.474 89.5271 124.773C89.5964 125.101 89.7452 125.407 89.9604 125.664C90.1249 125.961 90.3554 126.216 90.6343 126.409C90.9943 126.773 91.4419 127.039 91.934 127.18L93.4263 127.709C94.0463 127.949 94.7183 128.024 95.3759 127.926Z" fill="#BBBEA0"/>
<path d="M125.511 145.709C126.018 145.713 126.517 145.58 126.955 145.324C127.419 145.122 127.818 144.798 128.11 144.385C128.489 144.033 128.764 143.584 128.905 143.086C128.905 142.749 129.025 142.388 129.097 142.051C129.119 141.386 128.979 140.725 128.688 140.126L128.134 139.284C127.668 138.775 127.08 138.394 126.425 138.177L125.415 137.816C124.925 137.625 124.391 137.575 123.874 137.671C123.378 137.668 122.888 137.792 122.454 138.032C121.559 138.535 120.869 139.335 120.504 140.294L120.312 141.305C120.265 141.98 120.407 142.655 120.721 143.254L121.275 144.073C121.73 144.587 122.31 144.977 122.959 145.204L123.994 145.54C124.477 145.726 124.999 145.784 125.511 145.709Z" fill="#BCA28E"/>
<path d="M72.5819 99.2412C73.0786 99.3739 73.6015 99.3739 74.0982 99.2412C74.7259 99.0586 75.3377 98.8252 75.9275 98.5433L76.3367 98.3026L76.9866 98.0861C77.4643 97.966 77.9035 97.7258 78.2622 97.3882C78.6666 97.0691 78.9748 96.6444 79.1528 96.161C79.4187 95.3446 79.724 94.5415 80.0674 93.7545C80.2125 93.2596 80.2125 92.7334 80.0674 92.2385C79.9937 91.7428 79.7856 91.2767 79.4657 90.8909C79.2321 90.4378 78.8727 90.0618 78.4307 89.808L77.492 89.3508C76.8411 89.1298 76.1427 89.0883 75.4702 89.2305L74.5315 89.5673C73.9352 89.8719 73.4228 90.3181 73.0392 90.8668C72.9545 91.0391 72.8495 91.2008 72.7263 91.3481C72.5148 91.4198 72.3128 91.5167 72.1246 91.6369C71.7505 91.866 71.3889 92.115 71.0415 92.3829C70.9356 92.4413 70.8384 92.5142 70.7526 92.5994L70.0787 93.3454C69.7696 93.7782 69.5788 94.2842 69.5251 94.8134C69.4395 95.1448 69.4395 95.4926 69.5251 95.824C69.5246 96.3277 69.6486 96.8237 69.8862 97.2679L70.4398 98.0861L71.21 98.7358C71.6164 99.0191 72.0888 99.1931 72.5819 99.2412Z" fill="#BCA28E"/>
<path d="M55.1327 82.4923L55.8307 82.6127H56.0473C56.4425 82.5964 56.8364 82.5562 57.2267 82.4923H57.4433L58.5505 82.1073L58.9597 81.9148C59.2966 81.7223 59.6095 81.4817 59.9224 81.2651L60.0909 81.1207L60.2594 80.9763C60.5241 80.6876 60.813 80.3747 61.0537 80.0619C61.2293 79.8027 61.3823 79.529 61.511 79.2437C61.6217 79.0256 61.7181 78.8005 61.7998 78.5699C61.7998 78.1849 61.9442 77.8239 62.0165 77.4389C62.0887 77.0539 62.0165 77.2944 62.0165 77.2222V76.9576C62.0165 76.5966 62.0165 76.2116 62.0165 75.8506C61.9319 75.3582 61.725 74.8948 61.4147 74.5031C61.161 74.0648 60.8061 73.6935 60.3797 73.4201C59.9523 73.1177 59.4557 72.9274 58.9356 72.8666C58.4389 72.7339 57.916 72.7339 57.4193 72.8666L56.4806 73.1795H56.1195C55.6907 73.2877 55.2719 73.4326 54.8679 73.6126C54.6167 73.7477 54.3754 73.9005 54.1459 74.0698C53.9117 74.2165 53.6866 74.3772 53.4719 74.5512L53.3275 74.6955C53.0628 74.9602 52.8221 75.2731 52.5814 75.5619C52.488 75.6498 52.4142 75.7563 52.3647 75.8747C52.1722 76.2116 52.0037 76.5725 51.8352 76.9335V77.126C51.8352 77.4629 51.7149 77.7998 51.6427 78.1367C51.5862 78.6388 51.6695 79.1468 51.8834 79.6046C51.9527 79.9324 52.1015 80.2382 52.3166 80.495C52.5773 80.9281 52.9307 81.2979 53.3516 81.5779C53.7602 81.8342 54.1961 82.044 54.6513 82.2035L55.1327 82.4923Z" fill="#BCA28E"/>
<path d="M55.4935 125.399C56.2271 125.432 56.9568 125.274 57.6116 124.942H57.7319L58.5743 124.364L59.2483 123.594L59.489 123.065C59.9375 122.825 60.3121 122.467 60.5721 122.03C60.8844 121.608 61.0758 121.109 61.1256 120.586C61.2584 120.089 61.2584 119.567 61.1256 119.07L60.7887 118.131C60.491 117.531 60.0433 117.017 59.489 116.639L58.5503 116.182C57.8908 115.963 57.1851 115.921 56.5044 116.062H56.0952H55.9027C55.5416 116.206 55.1565 116.303 54.7955 116.471L54.4104 116.664L53.4717 117.289L53.3032 117.434C53.1884 117.509 53.0833 117.597 52.9903 117.698C52.6774 118.035 52.3645 118.372 52.0757 118.733L51.8591 119.094C51.6218 119.513 51.4127 119.947 51.2333 120.393C51.0185 121.039 50.9767 121.73 51.1118 122.397C51.2469 123.064 51.5543 123.684 52.0035 124.196C52.2498 124.474 52.5333 124.717 52.8459 124.918L53.8087 125.375C54.3571 125.539 54.9406 125.548 55.4935 125.399Z" fill="#DC8C73"/>
<path d="M47.5267 149.872L48.5857 150.065C49.0875 150.106 49.5918 150.024 50.0539 149.824C50.5343 149.68 50.9777 149.434 51.3536 149.102C51.7512 148.776 52.058 148.354 52.2442 147.875C52.5105 147.422 52.6517 146.908 52.6534 146.383V145.372C52.505 144.722 52.1991 144.119 51.7628 143.615L51.1852 143.11C51.0476 142.727 50.8348 142.375 50.5593 142.075C50.2337 141.678 49.8109 141.371 49.3318 141.185C48.8779 140.919 48.3652 140.77 47.8396 140.752H46.8527C46.1973 140.891 45.5859 141.189 45.0716 141.618L44.4218 142.388C44.0428 142.972 43.8191 143.643 43.7719 144.337C43.7852 144.393 43.7852 144.45 43.7719 144.506C43.7719 144.867 43.7719 145.228 43.7719 145.565C43.7583 145.652 43.7583 145.741 43.7719 145.829C43.8764 146.236 44.0215 146.631 44.2051 147.008V147.153L44.7828 148.019L44.9753 148.236C45.2817 148.525 45.6031 148.798 45.9381 149.054C46.3144 149.272 46.7091 149.457 47.1175 149.607L47.5267 149.872Z" fill="#ECC889"/>
<path d="M78.1666 145.348C78.6704 145.348 79.1665 145.224 79.6108 144.987L80.4291 144.433C80.9457 143.974 81.3284 143.384 81.5363 142.725L81.7289 141.714C81.778 141.039 81.6362 140.363 81.3197 139.765L80.9827 139.091C80.5086 138.204 79.7437 137.508 78.8165 137.118C78.3347 136.929 77.8116 136.871 77.3001 136.949C76.7929 136.945 76.2939 137.078 75.856 137.334L75.0376 137.888C74.5219 138.338 74.1391 138.921 73.9305 139.572L73.7379 140.607C73.6921 141.275 73.8338 141.941 74.1471 142.532L74.4841 143.23C74.6856 143.694 75.0102 144.093 75.4228 144.385C75.7748 144.764 76.2245 145.039 76.7225 145.179C77.1833 145.351 77.6787 145.409 78.1666 145.348Z" fill="#BCA28E"/>
<path d="M86.4226 176.222C86.9154 176.318 87.4221 176.318 87.9149 176.222C88.7456 176.071 89.5195 175.697 90.1534 175.139C90.4705 174.859 90.7461 174.535 90.9717 174.177C91.3823 173.505 91.6296 172.747 91.6938 171.963C91.7357 171.461 91.653 170.957 91.4531 170.495C91.4531 170.495 91.4531 170.302 91.3327 170.206C91.4655 169.71 91.4655 169.187 91.3327 168.69L90.9957 167.752C90.7042 167.153 90.2548 166.646 89.696 166.284L88.7573 165.826C88.1062 165.607 87.4081 165.565 86.7355 165.706H86.3504C85.8991 165.837 85.4569 165.998 85.0266 166.187C84.6283 166.402 84.2497 166.652 83.8954 166.933L83.5825 167.174C83.2528 167.488 82.9471 167.826 82.6679 168.185C82.4134 168.59 82.1959 169.016 82.018 169.46C82.0074 169.572 82.0074 169.685 82.018 169.797C82.018 170.134 81.8495 170.543 81.8014 170.856V170.976C81.7891 171.04 81.7891 171.105 81.8014 171.169C81.7426 171.6 81.7426 172.037 81.8014 172.468C81.9731 173.193 82.3109 173.869 82.7882 174.441L82.9567 174.634C83.2498 174.938 83.5723 175.212 83.9194 175.452C84.2874 175.67 84.674 175.856 85.0748 176.006C85.5162 176.12 85.9675 176.193 86.4226 176.222Z" fill="#BCA28E"/>
<path d="M123.658 169.244L123.778 168.931C124.002 167.979 123.861 166.978 123.382 166.126C122.902 165.273 122.12 164.632 121.19 164.329C120.261 164.027 119.251 164.084 118.361 164.491C117.472 164.897 116.768 165.623 116.389 166.524V166.837C116.237 167.749 116.417 168.684 116.894 169.474C117.372 170.265 118.116 170.859 118.993 171.15C119.87 171.44 120.822 171.407 121.678 171.058C122.533 170.709 123.235 170.065 123.658 169.244Z" fill="#BCA28E"/>
<path d="M58.406 176.872H58.9595L59.5613 176.992C60.2354 177.025 60.9067 176.884 61.5109 176.583C62.1065 176.276 62.6123 175.82 62.9791 175.26C63.3851 174.689 63.6114 174.011 63.6289 173.311C63.673 172.636 63.5315 171.962 63.2198 171.361L62.6662 170.086C62.4516 169.631 62.1294 169.234 61.7275 168.931C61.3674 168.567 60.9199 168.302 60.4278 168.161C60.2738 168.098 60.1117 168.058 59.9464 168.041C59.4959 167.767 58.981 167.618 58.4541 167.607H57.4432C56.7933 167.742 56.1885 168.04 55.6862 168.474L55.0122 169.244C54.6333 169.828 54.4096 170.499 54.3623 171.193C54.3278 171.625 54.3278 172.06 54.3623 172.492C54.3728 172.548 54.3728 172.605 54.3623 172.661C54.4827 172.998 54.603 173.359 54.7475 173.696L54.8919 173.984C55.1137 174.356 55.3631 174.71 55.638 175.043C55.936 175.349 56.258 175.631 56.6008 175.885L56.8655 176.054C57.2496 176.28 57.6522 176.473 58.069 176.631L58.406 176.872Z" fill="#BCA28E"/>
<path d="M40.4263 106.244C40.7203 105.274 40.6227 104.228 40.1545 103.33C39.6863 102.431 38.8847 101.752 37.9216 101.437C36.9584 101.123 35.9102 101.198 35.0017 101.646C34.0932 102.095 33.3966 102.882 33.0612 103.838C32.7672 104.807 32.8648 105.853 33.333 106.752C33.8012 107.65 34.6027 108.329 35.5659 108.644C36.5291 108.959 37.5772 108.884 38.4858 108.435C39.3943 107.987 40.0909 107.2 40.4263 106.244Z" fill="#BCA28E"/>
<path d="M16.4537 151.797C16.9135 151.793 17.3722 151.753 17.8257 151.677C17.9531 151.699 18.0834 151.699 18.2108 151.677C18.6469 151.557 19.0733 151.404 19.4864 151.22C19.8814 150.999 20.2595 150.75 20.6177 150.474C20.7332 150.39 20.8382 150.293 20.9306 150.185C21.1953 149.92 21.4601 149.607 21.7008 149.319V149.15C21.957 148.75 22.1669 148.322 22.3266 147.875C22.5121 147.392 22.5701 146.87 22.4951 146.359C22.4879 146.047 22.431 145.738 22.3266 145.444C22.2846 145.057 22.1703 144.682 21.9896 144.337L21.436 143.519C20.9901 142.999 20.406 142.615 19.7512 142.412L18.7162 142.22C18.0488 142.174 17.3818 142.315 16.7907 142.629C16.5416 142.713 16.3001 142.817 16.0686 142.942C15.5634 143.234 15.0807 143.564 14.6245 143.928C14.4287 144.084 14.2438 144.253 14.0709 144.434C13.6541 144.857 13.2755 145.315 12.9397 145.805C12.54 146.379 12.3143 147.056 12.2898 147.754C12.2361 148.264 12.3192 148.779 12.5305 149.246C12.6499 149.73 12.8996 150.171 13.2525 150.522C13.7013 151.044 14.2837 151.435 14.9374 151.653C15.4378 151.744 15.9451 151.792 16.4537 151.797Z" fill="#BCA28E"/>
<path d="M24.0593 131.078C24.7259 131.113 25.39 130.972 25.9848 130.669L26.8272 130.115C27.3351 129.659 27.7164 129.078 27.9344 128.431L28.1029 127.902C28.2884 127.419 28.3464 126.897 28.2714 126.386C28.2754 125.878 28.1424 125.379 27.8863 124.942C27.6847 124.478 27.3601 124.079 26.9476 123.787C26.5955 123.407 26.1458 123.133 25.6479 122.992L24.6129 122.8C23.9473 122.778 23.2863 122.918 22.6873 123.209L21.8449 123.763C21.3362 124.228 20.955 124.816 20.7378 125.471L20.5693 125.976C20.3817 126.467 20.3237 126.997 20.4008 127.517C20.3975 128.016 20.5306 128.507 20.7859 128.936C20.9874 129.4 21.3121 129.799 21.7246 130.091C22.0766 130.47 22.5264 130.745 23.0243 130.886L24.0593 131.078Z" fill="#BCA28E"/>
<path d="M28.272 180.001C29.3538 180.052 30.4287 179.802 31.3769 179.279C32.0421 178.949 32.6579 178.528 33.2061 178.027C33.6065 177.648 33.9767 177.237 34.3133 176.8C34.4791 176.602 34.6319 176.393 34.7706 176.174C35.2064 175.472 35.5388 174.71 35.7574 173.912C35.9477 173.431 35.9978 172.905 35.9018 172.396C35.9023 171.893 35.7783 171.397 35.5408 170.952C35.0383 170.058 34.2376 169.368 33.2783 169.003C32.343 168.709 31.3321 168.769 30.4382 169.172C29.8576 169.192 29.2788 169.248 28.7052 169.34C28.4992 169.362 28.297 169.411 28.1035 169.485C27.6021 169.612 27.1174 169.798 26.6593 170.038C25.7707 170.497 25.0224 171.187 24.4931 172.035C24.2379 172.446 24.0433 172.892 23.9155 173.359C23.8063 173.752 23.7338 174.155 23.6989 174.562C23.687 174.65 23.687 174.739 23.6989 174.827C23.6989 175.212 23.6989 175.621 23.6989 176.006C23.7101 176.078 23.7101 176.151 23.6989 176.222C23.8989 176.988 24.2599 177.701 24.7579 178.316L24.9023 178.484C25.182 178.753 25.4795 179.002 25.7929 179.23L26.3224 179.495L26.9 179.76C27.3411 179.914 27.8046 179.996 28.272 180.001Z" fill="#DC8C73"/>
<path d="M103.535 200.744C104.075 200.752 104.615 200.712 105.148 200.623C105.657 200.503 106.156 200.342 106.64 200.142C106.834 200.065 107.02 199.968 107.194 199.853C107.653 199.587 108.088 199.281 108.493 198.939C109.274 198.193 109.861 197.268 110.202 196.244C110.388 195.761 110.446 195.239 110.371 194.728C110.375 194.22 110.242 193.722 109.986 193.284C109.793 192.822 109.476 192.422 109.071 192.129L108.71 191.864C108.459 191.481 108.131 191.153 107.747 190.901L106.833 190.444C106.173 190.225 105.467 190.183 104.787 190.324C104.124 190.406 103.481 190.601 102.885 190.901L102.404 191.142C101.977 191.387 101.567 191.66 101.176 191.96L100.815 192.321C100.462 192.67 100.14 193.048 99.8527 193.452C99.7557 193.591 99.6673 193.736 99.5879 193.885C99.3372 194.342 99.12 194.817 98.938 195.305C98.938 195.666 98.8177 196.003 98.7455 196.34C98.7036 196.842 98.7863 197.346 98.9862 197.808C99.054 198.141 99.2123 198.449 99.4435 198.698C99.6839 199.14 100.042 199.507 100.478 199.757C101.4 200.335 102.45 200.674 103.535 200.744Z" fill="#BBBEA0"/>
<path d="M157.763 198.217C158.832 198 159.879 197.686 160.892 197.278C161.901 196.824 162.86 196.268 163.756 195.618C164.15 195.278 164.47 194.862 164.698 194.395C164.925 193.927 165.055 193.418 165.08 192.899C165.118 191.888 164.775 190.9 164.117 190.131C163.772 189.745 163.355 189.431 162.888 189.208C162.421 188.985 161.914 188.857 161.397 188.832H161.277C160.94 188.355 160.503 187.959 159.995 187.672C159.487 187.385 158.922 187.214 158.34 187.171C156.495 187.03 154.649 187.422 153.021 188.302C152.232 188.724 151.503 189.25 150.855 189.867C150.178 190.515 149.602 191.262 149.146 192.081C148.742 192.661 148.516 193.347 148.496 194.054C148.442 194.556 148.525 195.063 148.737 195.522C148.916 196.086 149.229 196.599 149.648 197.017C150.066 197.436 150.579 197.748 151.144 197.928C153.304 198.493 155.561 198.591 157.763 198.217Z" fill="#BBBEA0"/>
<path d="M187.32 204.04C187.909 204.201 188.515 204.29 189.125 204.305C189.585 204.313 190.045 204.273 190.497 204.185C190.928 204.096 191.348 203.959 191.749 203.776C192.77 203.328 193.652 202.613 194.3 201.706C194.546 201.326 194.755 200.923 194.926 200.503C194.936 200.391 194.936 200.278 194.926 200.166C195.169 199.313 195.211 198.415 195.046 197.543C194.952 197.049 194.737 196.586 194.42 196.196C194.187 195.742 193.827 195.366 193.385 195.113C193.215 194.984 193.029 194.879 192.832 194.8C192.433 194.375 191.925 194.067 191.363 193.909L190.353 193.717C189.677 193.67 189.002 193.812 188.403 194.126C187.742 194.372 187.106 194.678 186.502 195.04C185.64 195.559 184.834 196.164 184.095 196.845C183.58 197.305 183.194 197.89 182.974 198.544C182.755 199.198 182.71 199.898 182.843 200.575C182.991 201.225 183.297 201.828 183.734 202.332C184.189 202.853 184.781 203.237 185.443 203.439C186.045 203.707 186.674 203.908 187.32 204.04Z" fill="#BCA28E"/>
<path d="M47.7437 205.58C48.1917 205.628 48.6435 205.628 49.0915 205.58C49.8989 205.586 50.705 205.513 51.4984 205.364C52.6742 205.132 53.799 204.692 54.82 204.064C55.7486 203.598 56.4572 202.786 56.7936 201.802C57.0128 201.118 57.0541 200.389 56.914 199.685C56.762 198.912 56.4139 198.191 55.9031 197.591C55.0636 196.668 53.8987 196.108 52.6538 196.027C52.1488 195.708 51.5661 195.533 50.9689 195.522C48.5111 195.481 46.0891 196.114 43.9648 197.35C43.3588 197.64 42.843 198.09 42.4725 198.65C42.0897 199.241 41.8659 199.921 41.8227 200.623C41.7857 201.295 41.9263 201.964 42.2306 202.564C42.5348 203.164 42.9919 203.673 43.5557 204.04C44.2148 204.424 44.9076 204.746 45.6256 205.003C46.3114 205.263 47.0207 205.457 47.7437 205.58Z" fill="#BBBEA0"/>
<path d="M3.36029 195.835C3.74834 195.932 4.1423 196.004 4.53969 196.051H4.73224C5.18488 196.071 5.63815 196.031 6.0801 195.931C6.52848 195.825 6.96425 195.672 7.37985 195.474H7.52426L8.39075 194.872L8.51106 194.752L8.87212 194.343L9.23314 193.933C9.68834 193.252 9.96174 192.465 10.0274 191.647V191.455C10.0751 191.055 10.0751 190.651 10.0274 190.252C9.93384 189.758 9.71879 189.294 9.40164 188.904C9.16812 188.451 8.80872 188.075 8.36665 187.821C7.94455 187.509 7.44529 187.318 6.92253 187.268C6.4275 187.123 5.90121 187.123 5.40617 187.268L4.46748 187.581C4.32555 187.669 4.18892 187.765 4.05831 187.869C3.71741 187.794 3.36423 187.794 3.02333 187.869L2.08463 188.182C1.48207 188.488 0.96825 188.944 0.592366 189.506L0.135049 190.444C-0.0450162 191.106 -0.0450162 191.804 0.135049 192.466C0.306582 193.229 0.661857 193.94 1.17004 194.535C1.43449 194.809 1.71582 195.066 2.01243 195.305H2.15684C2.49218 195.515 2.84681 195.692 3.21588 195.835H3.36029Z" fill="#BCA28E"/>
<path d="M56.3849 230.439C57.0601 230.485 57.735 230.344 58.3345 230.03L59.7065 229.356C60.162 229.141 60.5585 228.819 60.8618 228.417C61.2389 228.054 61.513 227.598 61.6561 227.094C61.8367 226.61 61.8865 226.087 61.8005 225.578C61.801 225.074 61.6769 224.578 61.4394 224.134L60.8859 223.316C60.4267 222.799 59.8361 222.417 59.1769 222.209L58.166 222.016C57.4907 221.967 56.8151 222.109 56.2165 222.425L54.8445 223.099C53.9497 223.602 53.2597 224.402 52.8949 225.361C52.7033 225.843 52.6532 226.369 52.7505 226.877C52.75 227.381 52.8741 227.877 53.1116 228.321L53.6652 229.139C54.1243 229.656 54.7149 230.038 55.374 230.246L56.3849 230.439Z" fill="#BCA28E"/>
<path d="M86.374 218.767L87.5775 218.599C88.5496 218.359 89.4035 217.778 89.9844 216.963C90.5136 216.073 90.7177 215.027 90.562 214.003L90.2251 213.064C89.9351 212.458 89.4858 211.943 88.9253 211.572L87.9866 211.115C87.3355 210.895 86.6374 210.854 85.9648 210.995L84.7614 211.163C84.2672 211.257 83.804 211.472 83.4135 211.789C82.9604 212.022 82.5843 212.382 82.3304 212.824C82.018 213.246 81.8266 213.745 81.7768 214.267C81.6441 214.764 81.6441 215.287 81.7768 215.784L82.1138 216.722C82.42 217.324 82.8758 217.838 83.4376 218.214L84.3763 218.647C85.0175 218.875 85.7101 218.916 86.374 218.767Z" fill="#BBBEA0"/>
<path d="M79.5871 191.84C79.8115 190.889 79.6701 189.887 79.1908 189.035C78.7116 188.183 77.9294 187.542 76.9996 187.239C76.0697 186.936 75.06 186.994 74.1706 187.4C73.2812 187.807 72.5771 188.533 72.1978 189.434C71.9734 190.385 72.1148 191.387 72.5941 192.239C73.0733 193.091 73.8554 193.732 74.7853 194.035C75.7152 194.338 76.7249 194.28 77.6143 193.874C78.5037 193.467 79.2078 192.741 79.5871 191.84Z" fill="#BCA28E"/>
<path d="M136.799 205.629C137.023 204.677 136.882 203.676 136.403 202.824C135.923 201.971 135.141 201.33 134.211 201.027C133.282 200.725 132.272 200.782 131.382 201.189C130.493 201.595 129.789 202.321 129.41 203.222C129.185 204.174 129.327 205.175 129.806 206.028C130.285 206.88 131.067 207.521 131.997 207.824C132.927 208.127 133.937 208.069 134.826 207.663C135.716 207.256 136.42 206.53 136.799 205.629Z" fill="#BCA28E"/>
<path d="M154.562 235.998C155.796 236.076 157.031 235.871 158.172 235.396C159.306 234.891 160.298 234.114 161.06 233.134C161.839 232.125 162.278 230.895 162.312 229.621C162.339 228.612 161.997 227.628 161.349 226.853C161.174 226.659 160.981 226.481 160.772 226.324C160.645 225.698 160.354 225.116 159.929 224.639C159.224 223.872 158.25 223.406 157.209 223.34C155.405 223.287 153.612 223.641 151.962 224.375C151.152 224.756 150.385 225.224 149.676 225.77C148.93 226.303 148.293 226.973 147.798 227.744C147.16 228.778 146.936 230.016 147.173 231.209C147.466 232.35 148.146 233.354 149.098 234.048C149.453 234.294 149.832 234.504 150.229 234.674L151.698 235.348C152.621 235.683 153.584 235.902 154.562 235.998Z" fill="#BCA28E"/>
<path d="M121.298 235.492C121.788 235.622 122.287 235.71 122.791 235.757H123.031H124.235L124.716 235.637C125.18 235.519 125.631 235.358 126.064 235.155L126.281 235.035L127.268 234.337C127.672 234.018 127.98 233.593 128.158 233.11C128.435 232.661 128.585 232.145 128.591 231.618C128.633 231.116 128.551 230.612 128.351 230.15C128.293 229.968 128.221 229.791 128.134 229.62C128.169 229.357 128.169 229.09 128.134 228.826L127.797 227.888C127.499 227.294 127.051 226.788 126.497 226.42L125.559 225.963C124.907 225.743 124.209 225.701 123.537 225.842C123.083 225.923 122.639 226.052 122.213 226.227C121.77 226.358 121.343 226.536 120.937 226.757C120.546 226.983 120.168 227.232 119.806 227.503C119.686 227.503 119.541 227.671 119.445 227.768C118.975 228.189 118.541 228.648 118.145 229.139L117.712 230.078C117.527 230.56 117.469 231.082 117.544 231.594C117.529 231.928 117.603 232.261 117.76 232.556C117.873 233.049 118.123 233.5 118.482 233.856C118.824 234.2 119.194 234.514 119.589 234.794L119.806 234.915C120.166 235.111 120.535 235.287 120.913 235.444C121.039 235.476 121.169 235.492 121.298 235.492Z" fill="#BCA28E"/>
<path d="M85.7726 246.441H86.1577C86.43 246.465 86.7038 246.465 86.9761 246.441C87.2644 246.465 87.5542 246.465 87.8425 246.441H88.1554C88.5893 246.314 89.0153 246.162 89.4311 245.984L89.7681 245.792C90.1613 245.563 90.532 245.297 90.8752 244.998C91.2184 244.69 91.5326 244.352 91.8139 243.987L92.0306 243.65C92.3358 243.224 92.5265 242.727 92.5841 242.206C92.7169 241.71 92.7169 241.187 92.5841 240.69C92.3307 239.724 91.7528 238.875 90.9474 238.284L90.0087 237.827C89.3576 237.607 88.6595 237.565 87.9869 237.706C87.8019 237.596 87.6088 237.499 87.4093 237.417L86.3503 237.225H86.0374H85.4597C85.2758 237.204 85.09 237.204 84.9061 237.225H84.6895C84.2709 237.327 83.8666 237.48 83.4861 237.682C82.9468 237.968 82.4718 238.361 82.09 238.837C81.9351 238.99 81.7978 239.159 81.6809 239.343C81.5365 239.631 81.3439 240.016 81.2236 240.329C81.0513 240.752 80.9458 241.198 80.9106 241.653V242.158C80.9102 242.662 81.0342 243.158 81.2717 243.602C81.4445 243.901 81.6461 244.184 81.8734 244.444C82.1131 244.695 82.3704 244.928 82.6436 245.142L82.9565 245.359C83.4473 245.661 83.9726 245.903 84.521 246.081L85.7726 246.441Z" fill="#BCA28E"/>
<path d="M23.4575 234.891C23.9221 234.927 24.3889 234.927 24.8535 234.891C25.4614 234.799 26.0531 234.621 26.6105 234.361L27.0197 234.121C27.4143 233.903 27.7853 233.645 28.1269 233.351C28.7113 232.841 29.1856 232.217 29.5208 231.518C29.856 230.819 30.0451 230.059 30.0765 229.284C30.1164 228.28 29.7721 227.299 29.1137 226.541C28.7946 226.136 28.3697 225.828 27.8862 225.65C27.4421 225.362 26.9231 225.212 26.3939 225.217C26.0536 225.221 25.7148 225.262 25.383 225.337C24.4609 224.891 23.4467 224.669 22.4225 224.688C21.4183 224.686 20.4253 224.9 19.5102 225.313C18.8432 225.585 18.2314 225.977 17.705 226.468C17.1844 226.914 16.8006 227.498 16.5978 228.153C16.4123 228.635 16.3543 229.157 16.4293 229.669C16.4253 230.176 16.5584 230.675 16.8145 231.113C17.1112 231.714 17.5591 232.228 18.1142 232.605C18.7043 233.124 19.35 233.576 20.0397 233.952C20.6626 234.297 21.3254 234.564 22.0133 234.746C22.4906 234.829 22.9733 234.878 23.4575 234.891Z" fill="#BBBEA0"/>
</g>
</svg>
