<svg width="186" height="220" viewBox="0 0 186 220" fill="none" xmlns="http://www.w3.org/2000/svg">
<path opacity="0.1" d="M-38.0322 199.881C-27.0801 211.433 -8.81982 218.585 6.47159 218.727C25.7515 218.906 41.8924 210.018 54.8749 194.429C61.4711 186.509 68.7247 178.463 72.4446 168.343C76.7106 156.736 78.7347 143.561 80.0706 131.268C81.9971 113.539 69.845 97.7228 55.977 91.7191C46.9917 87.8292 39.8009 86.6749 30.2485 90.2087C28.8519 90.7253 25.0023 92.2841 24.4101 94.3021C22.7426 99.9851 27.6861 108.009 30.8039 111.871C37.8855 120.641 51.9513 125.874 61.8298 128.869C71.7314 131.87 82.6215 134.582 93.0559 134.064C103.903 133.526 115.76 130.151 125.975 125.852C146.521 117.204 159.294 98.8535 171.427 79.3667C181.715 62.8446 185.287 41.4887 183.654 22.1545C183.07 15.24 181.774 8.25935 181.396 1.36175" stroke="#2657F2" stroke-width="2.36869" stroke-linecap="round"/>
</svg>
