<svg width="251" height="247" viewBox="0 0 251 247" fill="none" xmlns="http://www.w3.org/2000/svg">
<g opacity="0.5">
<path d="M241.602 67.2031C242.581 66.9359 243.497 66.4771 244.298 65.8533C244.584 65.6271 244.842 65.3682 245.068 65.0819C245.318 64.8198 245.537 64.5285 245.718 64.2142C246.267 63.2646 246.588 62.2001 246.656 61.1049C246.695 60.1849 246.548 59.2666 246.223 58.4053C245.976 57.5042 245.513 56.677 244.875 55.9949L244.538 55.7057C244.424 55.4883 244.296 55.2789 244.153 55.079C243.734 54.5496 243.229 54.0935 242.661 53.7292C242.229 53.4708 241.779 53.2452 241.313 53.0543L240.735 52.8614C240.251 52.7478 239.761 52.6593 239.267 52.5963C238.762 52.5603 238.256 52.5603 237.751 52.5963C237.078 52.6636 236.424 52.86 235.825 53.1748C234.879 53.6234 234.053 54.2929 233.419 55.1271C233.293 55.2779 233.18 55.4392 233.082 55.6092C232.81 56.0801 232.577 56.5717 232.383 57.0795C232.133 57.8005 232.003 58.5579 231.998 59.3212C231.978 60.0614 232.067 60.8005 232.263 61.5146C232.396 62.0007 232.565 62.4762 232.769 62.9368C233.012 63.4092 233.294 63.8606 233.611 64.2865C234.063 64.8837 234.607 65.4045 235.224 65.8291C235.375 65.9474 235.536 66.0523 235.705 66.1425C236.184 66.414 236.682 66.6478 237.197 66.8415C238.597 67.3974 240.13 67.5232 241.602 67.2031Z" fill="#DC8C73"/>
<path d="M213.97 85.3049C214.419 85.4326 214.878 85.5212 215.342 85.57C215.902 85.6427 216.468 85.6427 217.027 85.57H217.412C217.843 85.4574 218.262 85.3041 218.664 85.1121C219.202 84.8625 219.698 84.5289 220.132 84.1238C220.456 83.8039 220.761 83.466 221.047 83.1115L221.312 82.7499C222.014 81.6349 222.412 80.3551 222.467 79.038C222.494 78.3906 222.438 77.7424 222.298 77.1097C222.174 76.6555 222.013 76.2122 221.817 75.784C221.759 75.6171 221.687 75.4557 221.6 75.3019C221.386 74.8457 221.064 74.4487 220.662 74.145C220.296 73.7751 219.839 73.509 219.338 73.3736C218.855 73.1879 218.333 73.1297 217.821 73.2049C217.502 73.212 217.185 73.2689 216.883 73.3736C216.574 73.2941 216.261 73.2377 215.944 73.2049C215.488 73.157 215.028 73.157 214.572 73.2049H214.187C213.742 73.3213 213.307 73.4745 212.887 73.6629C212.36 73.9018 211.866 74.2098 211.419 74.5788L211.106 74.8681C210.784 75.1992 210.486 75.5537 210.216 75.9286C210.057 76.1775 209.912 76.435 209.782 76.6999C209.642 76.972 209.521 77.254 209.421 77.5436C209.316 77.9886 209.235 78.4392 209.181 78.8934C209.12 79.3493 209.12 79.8113 209.181 80.2672C209.253 80.8387 209.424 81.3933 209.686 81.9063C209.94 82.4096 210.255 82.8792 210.625 83.3043C210.822 83.5093 211.031 83.7024 211.251 83.8828C211.464 84.0805 211.689 84.2656 211.925 84.4372L212.237 84.63C212.643 84.8549 213.061 85.0561 213.489 85.2326L213.97 85.3049Z" fill="#BCA28E"/>
<path d="M243.24 110.975C244.451 110.974 245.643 110.667 246.706 110.083C247.76 109.473 248.677 108.653 249.401 107.673C249.793 107.106 250.022 106.442 250.065 105.754C250.107 105.066 249.961 104.379 249.642 103.768L248.679 102.057C248.196 101.145 247.388 100.449 246.417 100.104C245.999 99.9606 245.556 99.9112 245.117 99.9598L244.323 99.5742C243.378 99.2372 242.361 99.1579 241.375 99.3442C240.39 99.5306 239.472 99.976 238.715 100.635C237.806 101.518 237.213 102.676 237.026 103.931C236.839 105.185 237.068 106.466 237.68 107.577C238.2 108.58 238.993 109.415 239.966 109.987C240.947 110.61 242.079 110.951 243.24 110.975Z" fill="#BCA28E"/>
<path d="M239.918 85.4494C240.211 84.4783 240.114 83.4305 239.646 82.5305C239.178 81.6306 238.376 80.9501 237.413 80.6348C236.45 80.3196 235.401 80.3948 234.493 80.8442C233.584 81.2936 232.888 82.0815 232.552 83.039C232.258 84.0101 232.356 85.0579 232.824 85.9579C233.292 86.8578 234.094 87.5383 235.057 87.8535C236.02 88.1687 237.068 88.0936 237.977 87.6442C238.885 87.1948 239.582 86.4069 239.918 85.4494Z" fill="#BCA28E"/>
<path d="M214.548 44.5939C215.542 44.6881 216.541 44.5046 217.437 44.0636C217.911 43.8516 218.349 43.567 218.736 43.2199C219.04 42.9435 219.314 42.6366 219.555 42.304C219.624 42.2338 219.681 42.1524 219.723 42.063C220.19 41.3426 220.455 40.5105 220.493 39.6527C220.505 39.5566 220.505 39.4594 220.493 39.3634L220.878 39.0983C221.276 38.7721 221.583 38.3487 221.769 37.869C222.041 37.4183 222.182 36.901 222.178 36.3745C222.221 35.3689 221.876 34.3854 221.215 33.6268C220.516 32.8471 219.54 32.3714 218.496 32.301C217.695 32.234 216.89 32.234 216.089 32.301C215.257 32.3881 214.444 32.6079 213.682 32.9519C213.456 33.0365 213.239 33.1413 213.032 33.2652C212.578 33.5371 212.151 33.8519 211.756 34.2052C211.005 34.9436 210.43 35.8415 210.071 36.8325C209.732 37.8319 209.641 38.8993 209.807 39.9419C209.881 40.4346 210.027 40.9138 210.24 41.364C210.447 41.8362 210.722 42.2749 211.058 42.6656C211.225 42.853 211.41 43.0226 211.612 43.1718C211.779 43.3517 211.964 43.5134 212.165 43.6539C212.873 44.1543 213.69 44.4767 214.548 44.5939Z" fill="#BCA28E"/>
<path d="M199.841 56.6699C200.25 56.7058 200.661 56.7058 201.069 56.6699C202.035 56.4161 202.885 55.8374 203.476 55.0308C203.785 54.5973 203.976 54.0906 204.029 53.5606C204.162 53.0631 204.162 52.5395 204.029 52.042L203.693 51.102C203.387 50.512 202.941 50.0068 202.393 49.6317L201.671 49.2701C201.467 49.0375 201.232 48.8347 200.973 48.6675C200.551 48.3547 200.051 48.163 199.529 48.1131C199.032 47.9802 198.509 47.9802 198.012 48.1131L197.074 48.4506C196.473 48.7488 195.959 49.1971 195.581 49.7522L195.124 50.6922C194.904 51.3526 194.863 52.0594 195.004 52.7411C195.004 52.7411 195.004 52.741 195.004 52.8615C195.004 52.9821 195.22 53.5123 195.341 53.8257C195.509 54.1149 195.726 54.4283 195.918 54.6934L196.087 54.8862C196.363 55.1831 196.669 55.4498 197.001 55.6817C197.361 55.9074 197.739 56.101 198.133 56.2602H198.373C198.847 56.4482 199.339 56.5856 199.841 56.6699Z" fill="#DC8C73"/>
<path d="M241.771 42.8342C242.278 42.8383 242.777 42.7051 243.215 42.4486C243.67 42.2337 244.067 41.9111 244.37 41.5085C244.733 41.1433 245.006 40.6973 245.164 40.2069L245.357 39.1705C245.383 38.5009 245.234 37.836 244.924 37.2422L244.37 36.3986C243.918 35.8849 243.336 35.502 242.685 35.2899L241.145 34.7836C240.654 34.5958 240.124 34.5378 239.605 34.615C239.104 34.6079 238.612 34.7414 238.184 35.0006C237.727 35.2016 237.33 35.5171 237.029 35.9165C236.654 36.2817 236.38 36.7387 236.235 37.2422C236.235 37.5797 236.235 37.9171 236.042 38.2787C236.007 38.9463 236.148 39.6113 236.451 40.2069L237.005 41.0506C237.462 41.5591 238.042 41.941 238.69 42.1593L240.254 42.6655C240.736 42.8535 241.259 42.9116 241.771 42.8342Z" fill="#BCA28E"/>
<path d="M210.071 17.2365C210.974 17.3569 211.888 17.3569 212.791 17.2365C214.727 16.905 216.544 16.0743 218.062 14.8262C218.467 14.5066 218.775 14.0811 218.953 13.5969C219.237 13.1505 219.387 12.6318 219.386 12.1025C219.413 11.0918 219.071 10.1061 218.423 9.33057C218.014 8.8485 217.629 8.36644 217.22 7.90847C216.561 7.172 215.651 6.70793 214.668 6.60686L213.585 6.12483C213.282 5.99976 212.968 5.90295 212.647 5.8356C212.039 5.68714 211.418 5.5983 210.793 5.57042C209.664 5.54712 208.55 5.83029 207.568 6.38993C206.587 6.90706 205.757 7.67139 205.161 8.60749C204.874 9.05792 204.648 9.54417 204.487 10.0537C204.247 10.8835 204.197 11.7571 204.343 12.6087C204.413 13.1023 204.559 13.582 204.776 14.0308C205.19 14.817 205.773 15.5006 206.485 16.0314L206.87 16.2724C207.26 16.5034 207.671 16.697 208.098 16.8509C208.738 17.0581 209.4 17.1876 210.071 17.2365Z" fill="#ECC889"/>
<path d="M191.416 33.9159C191.912 33.8421 192.378 33.6337 192.764 33.3134C193.213 33.0731 193.587 32.7148 193.847 32.2769C194.16 31.8542 194.351 31.3542 194.401 30.8307C194.534 30.3332 194.534 29.8096 194.401 29.3122C194.412 29.1839 194.412 29.0548 194.401 28.9265V27.9141C194.266 27.2633 193.968 26.6577 193.535 26.1546L192.764 25.4797C192.18 25.1002 191.509 24.8762 190.815 24.8289C190.446 24.797 190.076 24.797 189.708 24.8289H189.539C188.824 24.9756 188.16 25.3082 187.614 25.7931C187.354 26.0494 187.113 26.3232 186.891 26.6126C186.699 26.9458 186.53 27.2921 186.386 27.649C186.384 27.6891 186.384 27.7294 186.386 27.7695C186.291 28.1342 186.218 28.5045 186.169 28.8783V28.9988C186.169 29.3845 186.169 29.746 186.169 30.1075C186.169 30.1075 186.169 30.1076 186.169 30.2281C186.169 30.3486 186.41 30.9271 186.506 31.1681C186.68 31.483 186.881 31.7814 187.108 32.0599C187.247 32.1593 187.376 32.2724 187.493 32.3974L187.902 32.7348C188.214 32.9509 188.554 33.1214 188.913 33.241C189.664 33.7057 190.534 33.9403 191.416 33.9159Z" fill="#BCA28E"/>
<path d="M181.067 8.96883H181.187C181.564 9.00499 181.942 9.00499 182.319 8.96883L183.257 8.63134C183.884 8.30909 184.421 7.83726 184.822 7.2575C185.046 6.92976 185.224 6.57294 185.351 6.19694V5.71484C185.456 5.52471 185.537 5.3223 185.592 5.11225C185.778 4.62898 185.836 4.10597 185.76 3.59371C185.765 3.0857 185.631 2.58609 185.375 2.14756L184.822 1.32797C184.373 0.804486 183.791 0.412918 183.137 0.195101L182.102 0.00230511C181.436 -0.020062 180.775 0.120628 180.176 0.412098L179.19 0.894125L178.973 1.01469C178.326 1.31544 177.776 1.79125 177.384 2.38853C176.986 3.00143 176.754 3.70746 176.711 4.43735C176.663 4.8054 176.663 5.17804 176.711 5.54609C176.857 6.26933 177.189 6.9421 177.673 7.49855C177.813 7.64907 177.966 7.78621 178.131 7.90827C178.276 8.06139 178.438 8.19877 178.612 8.31806C178.925 8.51089 179.286 8.65549 179.623 8.82421C180.097 8.92835 180.582 8.97688 181.067 8.96883Z" fill="#BCA28E"/>
<path d="M152.881 14.2478C153.353 14.3769 153.837 14.4577 154.325 14.4888C154.718 14.513 155.112 14.513 155.505 14.4888H155.745C156.213 14.3859 156.666 14.2239 157.093 14.0067C157.557 13.8049 157.956 13.4798 158.249 13.0667C158.628 12.7142 158.903 12.2638 159.043 11.7651C159.066 11.573 159.066 11.3788 159.043 11.1867C159.368 10.9615 159.646 10.6749 159.861 10.343C160.396 9.45366 160.601 8.40379 160.439 7.37826L160.102 6.43825C159.802 5.83036 159.345 5.31418 158.778 4.94377L157.864 4.48587C157.193 4.30582 156.488 4.30582 155.818 4.48587C155.191 4.67248 154.58 4.9061 153.988 5.18482L153.555 5.42587C153.146 5.69101 152.737 5.95614 152.352 6.24538C152.081 6.44445 151.831 6.67058 151.606 6.92028C151.135 7.39507 150.708 7.91141 150.33 8.46294C150.027 8.89103 149.837 9.38831 149.776 9.90917C149.644 10.4066 149.644 10.9302 149.776 11.4276L150.089 12.3677C150.396 12.9705 150.852 13.4849 151.413 13.8621C151.772 14.0584 152.142 14.2354 152.52 14.3924L152.881 14.2478Z" fill="#BCA28E"/>
<path d="M164.603 50.1621C165.012 50.1859 165.422 50.1859 165.83 50.1621C165.926 50.173 166.023 50.173 166.119 50.1621C166.526 50.0564 166.921 49.9111 167.299 49.7282C167.671 49.5268 168.026 49.2928 168.358 49.0292C169.004 48.4458 169.493 47.7078 169.778 46.884C169.968 46.4016 170.018 45.8752 169.922 45.3655C169.923 44.861 169.799 44.3642 169.561 43.9192C169.145 43.1904 168.538 42.5901 167.804 42.1838L167.323 41.4607C166.873 40.9442 166.29 40.5608 165.638 40.3519L164.603 40.1591C163.935 40.1131 163.268 40.255 162.677 40.5688H162.557C162.292 40.7134 161.979 40.9545 161.715 41.1232C161.645 41.1813 161.58 41.2459 161.522 41.3161C161.305 41.533 161.041 41.8463 160.848 42.0873C160.635 42.4585 160.45 42.8453 160.295 43.2443V43.4613C160.201 43.8346 160.129 44.2128 160.078 44.5941C160.089 44.6417 160.089 44.6912 160.078 44.7388C160.053 45.1401 160.053 45.5426 160.078 45.9439C160.067 46.0319 160.067 46.1211 160.078 46.2091C160.078 46.5466 160.319 46.9081 160.439 47.2455C160.439 47.2455 160.559 47.583 160.439 47.2455V47.366L160.993 48.2097C161.548 48.8499 162.262 49.3321 163.062 49.6076C163.142 49.6216 163.224 49.6216 163.303 49.6076C163.717 49.8345 164.153 50.0202 164.603 50.1621Z" fill="#BCA28E"/>
<path d="M187.782 91.9332C188.288 91.9458 188.787 91.8207 189.227 91.5716C189.682 91.3567 190.079 91.0341 190.382 90.6316C190.746 90.271 191.011 89.8228 191.152 89.33C191.152 88.9684 191.297 88.631 191.345 88.2935C191.392 87.9578 191.392 87.6169 191.345 87.2811C191.495 86.9305 191.577 86.5541 191.585 86.1724V85.16C191.447 84.5057 191.14 83.8992 190.695 83.4005L189.949 82.7497C189.368 82.345 188.682 82.1188 187.975 82.0989C187.094 82.058 186.216 82.2404 185.424 82.6292C185.042 82.8281 184.679 83.0621 184.341 83.3282L184.1 83.5451C183.787 83.8608 183.497 84.1991 183.233 84.5574C183.233 84.7503 183.041 84.9672 182.945 85.16C182.834 85.3619 182.737 85.5714 182.656 85.7867C182.645 85.8344 182.645 85.8837 182.656 85.9313C182.656 86.1242 182.656 86.3412 182.535 86.5099C182.415 86.6786 182.535 86.9196 182.535 87.1125V87.2571C182.511 87.6423 182.511 88.0288 182.535 88.414C182.664 89.074 182.963 89.689 183.402 90.1977C183.868 90.7072 184.456 91.0889 185.111 91.3065L186.459 91.7885C186.882 91.942 187.336 91.9916 187.782 91.9332Z" fill="#BCA28E"/>
<path d="M211.684 107.793C212.188 107.794 212.684 107.67 213.128 107.432C213.584 107.217 213.98 106.894 214.284 106.492C214.649 106.122 214.914 105.666 215.054 105.166L215.246 104.154C215.296 103.477 215.154 102.801 214.837 102.201L214.284 101.382C213.839 100.854 213.255 100.461 212.599 100.249L212.093 100.08C211.603 99.8888 211.07 99.8387 210.553 99.9355C210.049 99.935 209.553 100.059 209.109 100.297C208.653 100.512 208.257 100.835 207.954 101.237C207.584 101.603 207.318 102.06 207.183 102.563C207.183 102.9 207.039 103.238 206.991 103.575C206.947 104.251 207.088 104.926 207.4 105.528L207.954 106.347C208.404 106.864 208.986 107.247 209.638 107.456L210.168 107.649C210.655 107.816 211.175 107.866 211.684 107.793Z" fill="#BCA28E"/>
<path d="M228.677 140.815C229.13 140.927 229.588 141.015 230.049 141.08C230.617 141.14 231.19 141.14 231.758 141.08C232.297 140.982 232.822 140.82 233.323 140.598C233.824 140.361 234.293 140.062 234.719 139.706C234.811 139.639 234.892 139.557 234.959 139.465C235.951 138.57 236.563 137.328 236.668 135.994C236.753 135.459 236.753 134.914 236.668 134.379V134.09C236.541 133.672 236.388 133.261 236.211 132.861C236.007 132.482 235.773 132.119 235.513 131.776C235.453 131.665 235.371 131.567 235.272 131.487L235.152 131.342C234.863 131.101 234.598 130.836 234.285 130.595C234.207 130.525 234.117 130.468 234.021 130.427C233.64 130.199 233.237 130.014 232.817 129.872C232.437 129.776 232.051 129.704 231.662 129.655H231.493C231.065 129.636 230.635 129.676 230.218 129.776C229.858 129.875 229.504 129.995 229.159 130.137H228.99L228.581 130.378L228.148 130.547L227.787 130.716C227.302 130.982 226.856 131.314 226.463 131.704C226.198 132.017 225.837 132.379 225.597 132.716C225.356 133.054 225.332 133.247 225.187 133.488C225.055 133.736 224.942 133.993 224.85 134.259C224.84 134.315 224.84 134.372 224.85 134.428C224.753 134.824 224.68 135.227 224.634 135.633C224.621 135.745 224.621 135.858 224.634 135.97C224.634 136.332 224.634 136.742 224.634 137.103C224.634 137.103 224.634 137.465 224.634 137.103L224.971 138.043L225.524 138.863C225.897 139.304 226.356 139.665 226.872 139.923C227.378 140.213 227.91 140.455 228.461 140.646L228.677 140.815Z" fill="#BCA28E"/>
<path d="M198.903 129.198L199.938 129.39H200.154H201.213H201.358L202.345 129.053H202.465L202.946 128.74L203.404 128.402C203.491 128.357 203.566 128.291 203.62 128.209L204.318 127.414C204.487 127.101 204.655 126.763 204.8 126.426V126.281C204.8 126.281 204.8 126.281 204.8 126.136L205.016 125.076V124.835C205.016 124.473 205.016 124.112 205.016 123.774V123.605L204.848 123.099L204.655 122.593C204.655 122.593 204.655 122.593 204.655 122.449C204.454 121.984 204.129 121.584 203.717 121.292C203.346 120.928 202.898 120.654 202.406 120.491C201.913 120.328 201.39 120.28 200.876 120.352C200.599 120.354 200.324 120.395 200.058 120.472C199.786 120.449 199.512 120.449 199.24 120.472L198.301 120.809C197.705 121.117 197.2 121.574 196.833 122.135C196.625 122.484 196.44 122.846 196.279 123.22V123.437C196.265 123.573 196.265 123.71 196.279 123.847C196.16 124.321 196.08 124.805 196.039 125.293V125.486C196.039 125.895 196.039 126.305 196.039 126.691C196.172 127.347 196.479 127.955 196.929 128.45C197.378 128.974 197.96 129.365 198.614 129.583H198.758L198.903 129.198Z" fill="#BCA28E"/>
<path d="M151.028 90.921H152.015C152.665 90.7863 153.269 90.4876 153.772 90.0533L156.01 88.4866C156.408 88.1604 156.715 87.737 156.901 87.2573C157.167 86.8043 157.308 86.2885 157.31 85.7628C157.366 85.2599 157.283 84.7511 157.069 84.2926C156.95 83.8013 156.701 83.3515 156.347 82.9909L155.601 82.3161C155.01 81.9327 154.33 81.7085 153.627 81.6653H152.616C151.965 81.8091 151.36 82.1159 150.859 82.5571L148.645 84.0998C148.247 84.4259 147.941 84.8493 147.755 85.329C147.488 85.782 147.347 86.2977 147.345 86.8234C147.289 87.3264 147.372 87.8352 147.586 88.2938C147.699 88.7873 147.949 89.2387 148.308 89.5954L149.054 90.2703C149.645 90.6537 150.325 90.8778 151.028 90.921Z" fill="#BCA28E"/>
<path d="M172.282 66.1904C172.782 66.1975 173.274 66.0639 173.702 65.8048C174.159 65.6037 174.557 65.2883 174.857 64.8889C175.232 64.5237 175.506 64.0667 175.651 63.5631C175.651 63.2257 175.796 62.8883 175.844 62.5267C175.89 61.8583 175.748 61.1904 175.435 60.5985L174.881 59.7548C174.424 59.2462 173.844 58.8643 173.196 58.646L172.667 58.4773C172.185 58.2868 171.659 58.2366 171.15 58.3327C170.645 58.3201 170.146 58.4451 169.706 58.6942C169.251 58.9091 168.854 59.2317 168.551 59.6342C168.18 59.9934 167.906 60.4414 167.757 60.9359C167.757 61.2974 167.757 61.6348 167.564 61.9723C167.543 62.6464 167.684 63.3157 167.973 63.9247C168.172 64.1882 168.356 64.4618 168.527 64.7443C168.986 65.2616 169.576 65.6447 170.236 65.853L170.741 66.0218C171.232 66.2096 171.762 66.2676 172.282 66.1904Z" fill="#ECC889"/>
<path d="M124.743 25.3352C125.272 25.3839 125.804 25.3839 126.332 25.3352C126.86 25.2257 127.376 25.0642 127.872 24.8531L128.45 24.5639C129.879 23.7769 130.967 22.4894 131.507 20.9483C131.685 20.4632 131.735 19.9399 131.651 19.4298C131.652 18.9253 131.528 18.4285 131.29 17.9836C131.076 17.5274 130.753 17.1304 130.351 16.8266C129.988 16.4489 129.531 16.1744 129.028 16.0312L128.017 15.8384C127.577 15.84 127.139 15.9049 126.717 16.0312H126.332H125.899C125.422 16.034 124.946 16.0824 124.479 16.1758C124.11 16.2826 123.749 16.4114 123.396 16.5615H123.179C122.776 16.7904 122.39 17.0482 122.024 17.3328L121.687 17.5979C121.422 17.8871 121.157 18.1764 120.916 18.4898L120.772 18.6826C120.727 18.7434 120.686 18.8078 120.652 18.8754C120.451 19.2329 120.274 19.6034 120.122 19.9842L119.93 20.9965C119.888 21.5068 119.97 22.0197 120.17 22.4909C120.244 22.8152 120.402 23.1144 120.628 23.3587C120.867 23.8079 121.225 24.183 121.663 24.4434C122.601 24.9881 123.659 25.2943 124.743 25.3352Z" fill="#BCA28E"/>
<path d="M155.24 31.4335H155.649C156.109 31.4211 156.568 31.3727 157.021 31.2889H157.406C157.848 31.1615 158.282 31.0086 158.706 30.8309C159.232 30.5693 159.725 30.2456 160.174 29.8668C160.561 29.539 160.908 29.1668 161.209 28.7579C161.637 28.5183 161.994 28.169 162.244 27.7456C162.567 27.3288 162.759 26.8256 162.797 26.2994C162.93 25.802 162.93 25.2783 162.797 24.7809L162.46 23.8409C162.164 23.2385 161.716 22.7235 161.161 22.3464L160.222 21.8884C159.56 21.7081 158.862 21.7081 158.2 21.8884C157.831 21.9092 157.466 21.9823 157.117 22.1054C156.46 22.3018 155.824 22.56 155.216 22.8767C154.806 23.1177 154.397 23.4069 153.988 23.6962L153.555 24.0337C153.048 24.5014 152.588 25.0182 152.183 25.5763C151.801 26.1475 151.577 26.81 151.535 27.4961C151.493 28.1821 151.633 28.8672 151.942 29.4811C152.279 30.0616 152.759 30.5459 153.337 30.8877C153.914 31.2295 154.569 31.4174 155.24 31.4335Z" fill="#DC8C73"/>
<path d="M181.5 45.1242C182.008 45.1283 182.507 44.995 182.945 44.7386C183.4 44.5237 183.797 44.2011 184.1 43.7986C184.471 43.4394 184.744 42.9914 184.894 42.497C184.894 42.1595 185.014 41.798 185.087 41.4605C185.109 40.794 184.969 40.132 184.678 39.5322L184.124 38.6886C183.658 38.179 183.07 37.7974 182.415 37.5798L181.91 37.4111C181.419 37.2233 180.889 37.1652 180.369 37.2424C179.869 37.2353 179.377 37.3689 178.949 37.6281C178.486 37.8299 178.086 38.155 177.794 38.5681C177.415 38.9206 177.14 39.371 177 39.8697C177 40.2071 176.855 40.5687 176.807 40.9061C176.772 41.5737 176.913 42.2387 177.216 42.8344L177.77 43.678C178.227 44.1866 178.807 44.5684 179.455 44.7868L179.984 44.9555C180.467 45.1413 180.989 45.1994 181.5 45.1242Z" fill="#BCA28E"/>
<path d="M173.268 103.31C173.676 103.347 174.087 103.347 174.495 103.31H174.76C175.155 103.203 175.541 103.066 175.915 102.901C176.81 102.397 177.5 101.595 177.865 100.635C178.055 100.152 178.105 99.626 178.009 99.1163C178.022 98.6104 177.897 98.1105 177.648 97.6701L177.095 96.8506C176.639 96.3348 176.059 95.9448 175.41 95.7177H175.097V95.549C174.882 95.0928 174.56 94.6957 174.158 94.392C173.798 94.0275 173.351 93.7619 172.859 93.6207L171.824 93.4279C171.156 93.3819 170.489 93.5238 169.898 93.8376L169.056 94.392C168.543 94.8452 168.16 95.4279 167.948 96.0793C167.794 96.5792 167.713 97.0987 167.708 97.6219C167.704 98.0347 167.745 98.4468 167.828 98.8512C167.92 99.2481 168.049 99.6354 168.213 100.008C168.435 100.459 168.701 100.887 169.007 101.286C169.34 101.668 169.711 102.015 170.115 102.322C170.252 102.441 170.406 102.538 170.572 102.611C171.013 102.887 171.491 103.098 171.992 103.238C172.415 103.297 172.841 103.321 173.268 103.31Z" fill="#BCA28E"/>
<path d="M143.807 62.5992H144.216C144.601 62.6231 144.987 62.6231 145.371 62.5992H145.54H145.756C146.125 62.4924 146.486 62.3636 146.839 62.2135L147.201 62.0689C147.584 61.8422 147.954 61.5927 148.308 61.3217L148.597 61.0565C148.913 60.7282 149.21 60.3822 149.487 60.0201C149.492 59.9639 149.492 59.9075 149.487 59.8513C149.68 59.5139 149.848 59.1283 150.017 58.7667C150.204 58.2755 150.262 57.7442 150.185 57.2241C150.184 56.901 150.119 56.5813 149.993 56.2841C149.954 55.8805 149.84 55.4879 149.656 55.1271L149.102 54.3076C148.646 53.7918 148.066 53.4018 147.417 53.1747C146.936 53.0537 146.444 52.981 145.949 52.9578C145.472 52.9589 144.996 53.0073 144.529 53.1024C144.068 53.2139 143.623 53.384 143.205 53.6085C142.862 53.8029 142.532 54.0203 142.218 54.2594L142.026 54.404C141.668 54.7306 141.345 55.0941 141.063 55.4886C140.792 55.8883 140.566 56.3167 140.389 56.7661C140.32 56.9027 140.271 57.049 140.245 57.2C140.097 57.676 140.024 58.1719 140.028 58.6703C139.971 59.1732 140.055 59.6821 140.269 60.1407C140.387 60.6319 140.637 61.0817 140.991 61.4422L141.761 62.1171C142.386 62.4611 143.094 62.6278 143.807 62.5992Z" fill="#BBBEA0"/>
<path d="M130.4 49.7039H131.411C132.059 49.5642 132.663 49.2661 133.168 48.8362L134.733 47.6551C135.13 47.3289 135.437 46.9055 135.623 46.4258C135.886 45.9701 136.035 45.4573 136.056 44.9314C136.093 44.4268 136.002 43.9211 135.792 43.4611C135.671 42.9755 135.431 42.528 135.094 42.1594L134.323 41.4846C133.743 41.1011 133.069 40.8844 132.374 40.8579H131.363C130.708 40.991 130.101 41.2992 129.606 41.7497L128.041 42.9067C127.637 43.2263 127.329 43.6518 127.151 44.136C126.877 44.5871 126.728 45.1027 126.718 45.6304C126.676 46.1407 126.758 46.6535 126.958 47.1248C127.097 47.6008 127.344 48.0381 127.68 48.4023L128.451 49.0772C129.037 49.4482 129.708 49.6638 130.4 49.7039Z" fill="#BCA28E"/>
<path d="M180.177 128.595C180.585 128.621 180.995 128.621 181.404 128.595H181.621C182.01 128.494 182.389 128.357 182.752 128.185L183.667 127.558C183.971 127.292 184.246 126.993 184.485 126.666C184.71 126.306 184.904 125.927 185.063 125.533C185.203 125.129 185.292 124.707 185.327 124.28C185.369 123.778 185.287 123.273 185.087 122.81C184.943 122.329 184.697 121.885 184.365 121.508C184.282 121.422 184.194 121.341 184.1 121.267L183.811 120.833C183.354 120.325 182.774 119.943 182.126 119.725C181.349 119.473 180.521 119.423 179.719 119.58C179.321 119.676 178.934 119.814 178.564 119.99C178.188 120.175 177.832 120.402 177.505 120.665L177.312 120.833C177.053 121.098 176.812 121.38 176.59 121.677C176.127 122.401 175.854 123.23 175.796 124.087C175.743 124.79 175.893 125.493 176.229 126.112C176.422 126.425 176.614 126.715 176.831 127.004L177.24 127.365L177.649 127.727C178.006 127.936 178.376 128.121 178.757 128.281H178.973C179.364 128.423 179.767 128.528 180.177 128.595Z" fill="#ECC889"/>
<path d="M206.388 153.325C206.766 153.432 207.153 153.505 207.544 153.542C207.927 153.589 208.315 153.589 208.699 153.542H208.795L209.758 153.205L210.576 152.65C210.871 152.397 211.13 152.105 211.347 151.782C211.669 151.366 211.862 150.862 211.9 150.336C212.032 149.855 212.032 149.347 211.9 148.866C212.001 148.628 212.066 148.376 212.093 148.119C212.225 147.621 212.225 147.098 212.093 146.6C211.999 146.105 211.784 145.641 211.467 145.25C211.233 144.797 210.874 144.42 210.432 144.166L209.493 143.708C208.842 143.487 208.144 143.445 207.472 143.587L206.533 143.925C205.93 144.231 205.416 144.688 205.041 145.25L204.246 146.19L203.837 146.673L203.645 146.889L203.187 147.829L202.995 148.866C202.995 148.986 202.995 149.782 202.995 149.878V149.999C202.995 149.999 203.283 150.842 203.332 150.939L203.885 151.782C204.078 151.975 204.439 152.289 204.655 152.457H204.776L205.714 152.915L206.388 153.325Z" fill="#BCA28E"/>
<path d="M219.771 121.46C220.278 121.464 220.777 121.331 221.215 121.075C221.682 120.89 222.084 120.571 222.37 120.159C222.75 119.797 223.025 119.339 223.165 118.833L223.357 117.796C223.392 117.129 223.251 116.464 222.948 115.868L222.394 115.049C221.941 114.52 221.349 114.127 220.685 113.916L220.18 113.747C219.698 113.557 219.173 113.506 218.664 113.602C218.16 113.602 217.664 113.726 217.22 113.964C216.756 114.166 216.356 114.491 216.064 114.904C215.685 115.257 215.41 115.707 215.27 116.206C215.27 116.567 215.15 116.905 215.077 117.242C215.045 117.917 215.186 118.589 215.487 119.195L216.04 120.014C216.499 120.531 217.09 120.915 217.749 121.123L218.254 121.292C218.737 121.477 219.259 121.535 219.771 121.46Z" fill="#BCA28E"/>
<path d="M151.918 124.979C152.249 125.074 152.599 125.074 152.929 124.979C153.436 124.983 153.935 124.85 154.373 124.594C154.437 124.607 154.502 124.607 154.566 124.594C154.926 124.405 155.265 124.179 155.577 123.919C155.864 123.642 156.129 123.344 156.371 123.027L156.515 122.834C156.724 122.469 156.909 122.09 157.069 121.701V121.484L157.213 120.833C157.412 120.427 157.527 119.984 157.55 119.532C157.584 119.027 157.493 118.522 157.286 118.061C157.161 117.572 156.913 117.124 156.564 116.76L155.817 116.109C155.233 115.73 154.562 115.506 153.868 115.458H152.857C152.205 115.602 151.601 115.909 151.1 116.35C150.716 116.706 150.362 117.093 150.041 117.507C149.923 117.65 149.818 117.803 149.728 117.965C149.448 118.406 149.214 118.874 149.03 119.363C148.963 119.544 148.907 119.729 148.862 119.917L148.669 120.954V121.966L149.006 122.906C149.215 123.359 149.539 123.75 149.945 124.039C150.167 124.305 150.459 124.505 150.787 124.618C151.119 124.85 151.513 124.976 151.918 124.979Z" fill="#BCA28E"/>
<path d="M193.27 108.926C193.495 107.973 193.353 106.97 192.874 106.117C192.395 105.263 191.613 104.621 190.683 104.317C189.753 104.014 188.743 104.072 187.854 104.479C186.964 104.886 186.26 105.613 185.881 106.516C185.656 107.469 185.798 108.472 186.277 109.326C186.756 110.18 187.539 110.822 188.468 111.125C189.398 111.428 190.408 111.371 191.297 110.964C192.187 110.556 192.891 109.829 193.27 108.926Z" fill="#BCA28E"/>
<path d="M180.995 157.013H181.452C182.036 157.073 182.625 157.073 183.209 157.013C183.787 156.903 184.351 156.733 184.894 156.507C185.299 156.342 185.679 156.123 186.025 155.856C186.272 155.717 186.506 155.556 186.723 155.374C186.94 155.181 187.228 154.795 187.421 154.578C187.541 154.385 187.638 154.168 187.734 153.976C187.859 153.736 187.964 153.486 188.047 153.228C188.142 152.848 188.215 152.461 188.263 152.071V151.879C188.287 151.509 188.287 151.139 188.263 150.77C188.278 150.715 188.278 150.657 188.263 150.601C188.168 150.247 188.048 149.901 187.902 149.565L187.325 148.721C187.325 148.721 186.603 148.094 186.555 148.046C186.506 147.998 185.351 147.516 185.447 147.516L184.485 147.347H183.931H183.522C183.346 147.334 183.169 147.334 182.992 147.347C181.11 147.202 179.242 147.779 177.769 148.962C177.275 149.357 176.831 149.81 176.446 150.312C176.277 150.625 176.133 150.939 175.988 151.252C175.801 151.743 175.743 152.274 175.82 152.795C175.819 153.128 175.893 153.457 176.036 153.759C176.161 154.248 176.409 154.696 176.758 155.06C177.18 155.482 177.649 155.854 178.154 156.169C178.683 156.471 179.239 156.721 179.815 156.916C180.207 156.967 180.6 156.999 180.995 157.013Z" fill="#DC8C73"/>
<path d="M209.06 178.754C209.7 178.815 210.345 178.815 210.985 178.754C211.303 178.713 211.616 178.649 211.924 178.561C213.132 178.226 214.261 177.652 215.246 176.874C215.721 176.458 216.156 175.998 216.545 175.5C216.919 174.965 217.234 174.392 217.484 173.789C217.675 173.298 217.725 172.764 217.629 172.246C217.629 171.742 217.505 171.245 217.267 170.8C217.053 170.344 216.731 169.947 216.329 169.643C215.963 169.273 215.507 169.007 215.005 168.872C214.675 168.779 214.336 168.722 213.994 168.703C213.705 168.5 213.389 168.338 213.055 168.221H212.718C212.284 168.106 211.842 168.025 211.395 167.98C210.835 167.907 210.269 167.907 209.71 167.98C209.316 168.048 208.929 168.153 208.554 168.293C208.163 168.419 207.785 168.58 207.423 168.775C206.484 169.34 205.666 170.086 205.016 170.969C204.692 171.454 204.417 171.971 204.198 172.512C204.008 173.058 203.878 173.624 203.813 174.199C203.778 174.866 203.919 175.531 204.222 176.127C204.52 176.729 204.967 177.244 205.522 177.621C206.608 178.246 207.814 178.632 209.06 178.754Z" fill="#BCA28E"/>
<path d="M136.586 97.9592C137.027 97.5514 137.371 97.0492 137.592 96.49C137.813 95.9309 137.905 95.329 137.861 94.7292C137.865 94.2212 137.732 93.7216 137.476 93.2831C137.185 92.6836 136.735 92.1752 136.177 91.8127L135.069 90.8486C134.633 90.5635 134.145 90.3678 133.632 90.2726C133.12 90.1775 132.594 90.1848 132.085 90.2942C131.341 90.4708 130.659 90.8456 130.111 91.3789C129.298 91.4102 128.491 91.5315 127.704 91.7404C126.929 91.9521 126.173 92.2262 125.442 92.5599C124.708 92.9332 124.007 93.3687 123.348 93.8615C122.829 94.3183 122.442 94.9054 122.226 95.5623C122.011 96.2191 121.974 96.9218 122.12 97.5975C122.249 98.2544 122.539 98.8691 122.963 99.3865C123.387 99.9039 123.933 100.308 124.551 100.562C126.603 101.275 128.81 101.409 130.933 100.95C133.055 100.491 135.011 99.4563 136.586 97.9592Z" fill="#DC8C73"/>
<path d="M109.748 71.8551C110.791 71.8508 111.819 71.6119 112.757 71.156C113.475 70.8049 114.153 70.3765 114.779 69.8786C115.443 69.3303 116.033 68.6984 116.536 67.9985C117.046 67.2507 117.458 66.4407 117.763 65.5881C117.955 65.1061 118.005 64.5792 117.908 64.0696C117.908 63.5651 117.784 63.0683 117.546 62.6234L116.993 61.8039C116.528 61.2872 115.94 60.8974 115.284 60.6711H115.164C114.715 60.1144 114.112 59.7033 113.431 59.4899L112.42 59.2971C111.744 59.2479 111.069 59.3899 110.47 59.7069C110.004 59.8699 109.56 60.0885 109.146 60.3577C108.442 60.7795 107.787 61.2809 107.197 61.8521C106.605 62.408 106.08 63.0308 105.632 63.7081C105.337 64.1939 105.08 64.7016 104.862 65.2266C104.538 66.0799 104.463 67.0077 104.645 67.9021C104.758 68.5444 105.005 69.1555 105.37 69.6955C105.735 70.2355 106.21 70.6922 106.764 71.0356C107.192 71.3134 107.664 71.5171 108.16 71.6381C108.679 71.7707 109.212 71.8435 109.748 71.8551Z" fill="#BBBEA0"/>
<path d="M93.5975 45.63C94.2277 45.7266 94.8688 45.7266 95.4989 45.63C96.109 45.5214 96.7006 45.3267 97.256 45.0516C97.6561 44.8393 98.0349 44.5891 98.3873 44.3043L98.7723 43.991C99.1025 43.6602 99.4082 43.3057 99.687 42.9304C99.9414 42.525 100.159 42.0974 100.337 41.6529C100.571 41.0657 100.725 40.4495 100.794 39.8211C100.83 39.5087 100.83 39.1934 100.794 38.8811C100.92 38.5312 101.001 38.1667 101.035 37.7964C101.091 37.2934 101.008 36.7846 100.794 36.3261C100.681 35.8325 100.431 35.3812 100.072 35.0245C99.7289 34.6342 99.3118 34.3162 98.8449 34.0886C98.378 33.861 97.8707 33.7285 97.3523 33.6988C96.5056 33.6633 95.6676 33.8815 94.9454 34.3254H94.7288C94.0293 34.709 93.447 35.2755 93.0439 35.9645L90.3241 38.5677C89.8005 39.0261 89.4098 39.6172 89.1929 40.279C89.0026 40.7614 88.9525 41.2879 89.0485 41.7976C89.048 42.3021 89.172 42.7989 89.4095 43.2438C89.7157 43.8472 90.1715 44.3618 90.7333 44.7382C91.1604 44.9759 91.6026 45.1852 92.0571 45.3649C92.5599 45.5069 93.0762 45.5957 93.5975 45.63Z" fill="#DC8C73"/>
<path d="M80.5765 64.1419L81.5874 64.3347C81.9307 64.3826 82.2791 64.3826 82.6224 64.3347L83.5611 63.9972L84.3794 63.4429C84.6312 63.1952 84.8645 62.9293 85.0775 62.6474C85.2459 62.3341 85.3903 61.9966 85.5347 61.6592L85.7273 60.6469C85.7273 60.6469 85.7273 59.6827 85.7273 59.6345L85.3903 58.6945L84.8367 57.875C84.6047 57.6232 84.3465 57.397 84.0665 57.2001C83.7657 56.9872 83.4325 56.8244 83.0797 56.718C82.7402 56.5938 82.3821 56.5287 82.0207 56.5252C81.6846 56.4897 81.3458 56.4897 81.0098 56.5252C80.5172 56.6099 80.0537 56.8171 79.6619 57.1278C79.2124 57.3775 78.8382 57.7439 78.5788 58.1883C78.3464 58.5134 78.1826 58.8824 78.0974 59.273C77.9366 59.6732 77.8392 60.0961 77.8086 60.5264V61.5146C77.9522 62.167 78.2586 62.7724 78.6991 63.2741L79.4453 63.949C79.7542 64.1258 80.0761 64.2789 80.4081 64.407L80.5765 64.1419Z" fill="#BCA28E"/>
<path d="M99.5431 99.55C100.218 99.5966 100.893 99.4548 101.493 99.1403L102.311 98.5859C102.831 98.1341 103.222 97.5517 103.442 96.8987L103.611 96.3924C103.881 95.4006 103.805 94.346 103.394 93.4036C103.18 92.9474 102.857 92.5503 102.455 92.2466C102.09 91.8768 101.633 91.6107 101.132 91.4754L100.121 91.2825C99.4453 91.2333 98.7697 91.3753 98.1711 91.6923L97.3528 92.2466C96.8327 92.6984 96.4422 93.2808 96.2215 93.9339L96.053 94.4642C95.8601 94.9459 95.81 95.4732 95.9086 95.9827C95.9081 96.4872 96.0322 96.984 96.2697 97.4289C96.4842 97.8851 96.8064 98.2821 97.2084 98.5859C97.5737 98.9557 98.0305 99.2219 98.5322 99.3572L99.5431 99.55Z" fill="#BCA28E"/>
<path d="M122.674 126.787C123.341 126.833 124.008 126.691 124.599 126.377L125.971 125.702C126.866 125.199 127.556 124.397 127.921 123.437C128.106 122.953 128.164 122.43 128.089 121.918C128.093 121.41 127.96 120.911 127.704 120.472L127.15 119.653C126.695 119.137 126.115 118.747 125.466 118.52L124.431 118.327C123.765 118.304 123.104 118.445 122.505 118.737L121.133 119.436C120.67 119.637 120.27 119.962 119.978 120.376C119.599 120.728 119.324 121.179 119.184 121.677C118.881 122.666 118.958 123.732 119.4 124.666L119.954 125.486C120.404 126.002 120.987 126.385 121.639 126.594L122.674 126.787Z" fill="#BCA28E"/>
<path d="M146.504 150.722H147.442C147.643 150.734 147.844 150.734 148.044 150.722H148.309L149.32 150.36H149.464C149.911 150.139 150.324 149.854 150.692 149.517C151.692 148.61 152.297 147.346 152.376 145.998C152.418 145.495 152.336 144.99 152.136 144.527V143.828C152.001 143.178 151.703 142.572 151.269 142.069L150.499 141.394C149.915 141.014 149.244 140.79 148.55 140.743H148.02C147.528 140.735 147.036 140.776 146.552 140.864L146.07 140.984C145.602 141.121 145.143 141.29 144.698 141.49C144.554 141.557 144.417 141.638 144.289 141.731C143.865 141.968 143.462 142.242 143.086 142.551L142.725 142.912C142.377 143.267 142.056 143.645 141.762 144.045C141.463 144.484 141.273 144.988 141.208 145.516C141.076 146.013 141.076 146.537 141.208 147.034L141.521 147.974C141.828 148.571 142.284 149.077 142.845 149.444C143.045 149.587 143.254 149.716 143.471 149.83L144.193 150.192L144.939 150.529C145.453 150.644 145.977 150.709 146.504 150.722Z" fill="#ECC889"/>
<path d="M170.861 178.079C171.262 178.104 171.664 178.104 172.064 178.079H172.281C172.726 177.963 173.161 177.81 173.581 177.621L173.773 177.501C174.109 177.306 174.431 177.089 174.736 176.85L174.905 176.705C175.18 176.425 175.437 176.127 175.675 175.813C175.964 175.417 176.192 174.978 176.349 174.512C176.539 174.029 176.589 173.503 176.493 172.993C176.49 172.716 176.45 172.44 176.373 172.174C176.421 171.854 176.421 171.529 176.373 171.21C176.373 170.705 176.249 170.208 176.012 169.763L175.458 168.944C174.999 168.427 174.408 168.043 173.749 167.835L172.738 167.642C172.063 167.593 171.387 167.735 170.789 168.052C170.244 168.353 169.722 168.691 169.224 169.065C168.972 169.242 168.731 169.436 168.502 169.643C168.068 170.07 167.658 170.52 167.275 170.993C167.069 171.234 166.884 171.492 166.721 171.764C166.553 172.077 166.408 172.391 166.264 172.704C166.078 173.187 166.02 173.71 166.095 174.223C166.08 174.558 166.155 174.89 166.312 175.187C166.425 175.68 166.675 176.132 167.034 176.488C167.323 176.754 167.612 177.043 167.925 177.284H168.117C168.538 177.528 168.981 177.73 169.441 177.886C169.908 177.993 170.383 178.057 170.861 178.079Z" fill="#BCA28E"/>
<path d="M140.245 178.923C140.911 178.958 141.575 178.817 142.17 178.513L142.988 177.959C143.517 177.504 143.908 176.912 144.12 176.247L144.457 175.235C144.644 174.744 144.702 174.213 144.625 173.693C144.629 173.184 144.496 172.685 144.24 172.246C144.025 171.79 143.703 171.393 143.301 171.089C142.941 170.725 142.494 170.459 142.002 170.318L140.967 170.125C140.299 170.079 139.632 170.221 139.041 170.535L138.199 171.089C137.691 171.547 137.31 172.128 137.092 172.777L136.755 173.813C136.569 174.296 136.511 174.819 136.586 175.332C136.582 175.84 136.715 176.339 136.971 176.778C137.172 177.236 137.487 177.634 137.886 177.935C138.25 178.311 138.707 178.585 139.21 178.73L140.245 178.923Z" fill="#DC8C73"/>
<path d="M100.722 153.59C101.805 153.629 102.883 153.423 103.875 152.988C104.376 152.784 104.852 152.526 105.295 152.216C105.798 151.931 106.273 151.6 106.715 151.228L107.004 150.939C107.334 150.6 107.64 150.237 107.919 149.854C108.087 149.613 108.183 149.348 108.328 149.107C108.472 148.866 108.52 148.697 108.593 148.48C108.798 148.153 108.922 147.781 108.954 147.396C109.086 146.898 109.086 146.374 108.954 145.877V145.636C108.87 145.08 108.717 144.538 108.496 144.021C108.278 143.492 107.95 143.015 107.534 142.623C107.208 142.225 106.785 141.918 106.306 141.731C105.855 141.461 105.339 141.32 104.814 141.321C104.312 141.267 103.804 141.351 103.346 141.563C102.857 141.687 102.409 141.936 102.046 142.286C101.646 142.673 101.319 143.131 101.083 143.635L100 143.997C99.1577 144.287 98.3922 144.765 97.7616 145.395C97.4358 145.692 97.1524 146.033 96.9192 146.407C96.5167 147.064 96.2773 147.808 96.2212 148.577V148.769C96.1965 149.123 96.1965 149.477 96.2212 149.83C96.3186 150.247 96.464 150.652 96.6544 151.035C97.0498 151.78 97.6336 152.408 98.3474 152.857C99.0612 153.305 99.8801 153.558 100.722 153.59Z" fill="#BCA28E"/>
<path d="M95.3779 127.51C96.0261 127.371 96.6297 127.073 97.1349 126.643C97.4191 126.355 97.6844 126.049 97.9292 125.727C97.9828 125.672 98.0238 125.606 98.0495 125.534C98.2421 125.172 98.4346 124.811 98.6031 124.425C98.7716 124.039 98.6031 124.425 98.6031 124.28C98.9504 123.939 99.2069 123.517 99.3493 123.051C99.5171 122.555 99.5665 122.027 99.4937 121.509C99.4974 121.011 99.3731 120.522 99.1326 120.086L98.555 119.243C98.1024 118.729 97.5206 118.346 96.8701 118.134L95.8593 117.941C95.1839 117.892 94.5083 118.034 93.9097 118.351L93.2838 118.688H93.2598H93.1154L91.4306 119.604L90.5881 120.159L89.9383 120.93L89.4809 121.846C89.2899 122.337 89.2399 122.871 89.3365 123.389C89.3164 123.721 89.3828 124.053 89.5291 124.353C89.5984 124.681 89.7472 124.987 89.9623 125.245C90.1268 125.542 90.3574 125.798 90.6363 125.992C90.9963 126.356 91.4439 126.622 91.936 126.763L93.4283 127.293C94.0483 127.534 94.7202 127.609 95.3779 127.51Z" fill="#BBBEA0"/>
<path d="M125.514 145.323C126.021 145.327 126.52 145.194 126.958 144.937C127.421 144.735 127.821 144.41 128.113 143.997C128.492 143.644 128.767 143.194 128.907 142.695C128.907 142.358 129.028 141.996 129.1 141.659C129.122 140.992 128.982 140.331 128.691 139.731L128.137 138.887C127.671 138.378 127.083 137.996 126.428 137.778L125.417 137.417C124.928 137.225 124.394 137.175 123.877 137.272C123.381 137.268 122.891 137.393 122.457 137.634C121.562 138.137 120.872 138.939 120.507 139.899L120.315 140.912C120.268 141.588 120.41 142.264 120.724 142.864L121.278 143.684C121.733 144.199 122.313 144.589 122.962 144.816L123.997 145.154C124.48 145.34 125.002 145.398 125.514 145.323Z" fill="#BCA28E"/>
<path d="M72.5839 98.7789C73.0806 98.9119 73.6035 98.9119 74.1002 98.7789C74.7279 98.5961 75.3397 98.3623 75.9295 98.0799L76.3386 97.8389L76.9885 97.6219C77.4663 97.5017 77.9054 97.261 78.2642 96.9229C78.6686 96.6033 78.9768 96.1779 79.1547 95.6937C79.4207 94.876 79.7259 94.0716 80.0693 93.2833C80.2144 92.7876 80.2144 92.2605 80.0693 91.7648C79.9956 91.2683 79.7875 90.8014 79.4676 90.415C79.2341 89.9612 78.8747 89.5845 78.4326 89.3303L77.4939 88.8723C76.843 88.6511 76.1447 88.6095 75.4721 88.7518L74.5335 89.0893C73.9372 89.3943 73.4248 89.8413 73.0412 90.3909C72.9565 90.5635 72.8514 90.7254 72.7283 90.873C72.5168 90.9447 72.3147 91.0418 72.1266 91.1622C71.7524 91.3917 71.3909 91.6411 71.0435 91.9094C70.9376 91.9679 70.8403 92.0409 70.7546 92.1263L70.0807 92.8735C69.7715 93.307 69.5807 93.8139 69.5271 94.3439C69.4415 94.6759 69.4415 95.0242 69.5271 95.3562C69.5266 95.8607 69.6506 96.3575 69.8881 96.8024L70.4417 97.6219L71.2119 98.2727C71.6183 98.5565 72.0908 98.7308 72.5839 98.7789Z" fill="#BCA28E"/>
<path d="M55.1342 82.0024L55.8322 82.1229H56.0488C56.444 82.1066 56.8378 82.0663 57.2282 82.0024H57.4448L58.552 81.6168L58.9611 81.4239C59.2981 81.2311 59.611 80.9901 59.9239 80.7731L60.0924 80.6285L60.2608 80.4839C60.5256 80.1947 60.8144 79.8813 61.0551 79.568C61.2307 79.3084 61.3837 79.0342 61.5125 78.7484C61.6231 78.5299 61.7196 78.3045 61.8013 78.0735C61.8013 77.6879 61.9457 77.3263 62.0179 76.9407C62.0901 76.555 62.0179 76.796 62.0179 76.7237V76.4586C62.0179 76.097 62.0179 75.7114 62.0179 75.3498C61.9334 74.8565 61.7265 74.3924 61.4162 74C61.1625 73.561 60.8076 73.1891 60.3812 72.9153C59.9537 72.6124 59.4572 72.4218 58.9371 72.3609C58.4403 72.228 57.9175 72.228 57.4207 72.3609L56.482 72.6743H56.121C55.6921 72.7827 55.2734 72.9278 54.8694 73.1081C54.6181 73.2434 54.3768 73.3964 54.1473 73.5661C53.9131 73.713 53.6881 73.874 53.4734 74.0482L53.329 74.1928C53.0642 74.458 52.8235 74.7714 52.5829 75.0606C52.4895 75.1487 52.4157 75.2554 52.3662 75.3739C52.1737 75.7113 52.0052 76.0729 51.8367 76.4344V76.6273C51.8367 76.9648 51.7164 77.3022 51.6442 77.6396C51.5876 78.1426 51.6709 78.6514 51.8848 79.11C51.9541 79.4383 52.1029 79.7445 52.3181 80.0018C52.5787 80.4356 52.9322 80.806 53.353 81.0865C53.7616 81.3432 54.1976 81.5534 54.6528 81.7131L55.1342 82.0024Z" fill="#BCA28E"/>
<path d="M55.495 124.979C56.2286 125.012 56.9582 124.854 57.6131 124.521H57.7334L58.5758 123.943L59.2497 123.171L59.4904 122.641C59.939 122.401 60.3135 122.043 60.5735 121.605C60.8859 121.182 61.0773 120.682 61.1271 120.159C61.2599 119.661 61.2599 119.137 61.1271 118.64L60.7901 117.7C60.4924 117.098 60.0448 116.583 59.4904 116.205L58.5517 115.748C57.8923 115.528 57.1865 115.486 56.5059 115.627H56.0967H55.9041C55.5431 115.772 55.158 115.868 54.797 116.037L54.4119 116.23L53.4732 116.856L53.3047 117.001C53.1898 117.076 53.0848 117.165 52.9918 117.266C52.6789 117.603 52.366 117.941 52.0772 118.302L51.8606 118.664C51.6232 119.084 51.4142 119.518 51.2347 119.966C51.02 120.613 50.9781 121.304 51.1132 121.973C51.2484 122.641 51.5558 123.262 52.005 123.774C52.2513 124.053 52.5347 124.296 52.8474 124.497L53.8101 124.955C54.3586 125.12 54.942 125.128 55.495 124.979Z" fill="#DC8C73"/>
<path d="M47.5281 149.492L48.5872 149.685C49.0889 149.727 49.5933 149.644 50.0554 149.444C50.5358 149.3 50.9792 149.053 51.3551 148.721C51.7527 148.395 52.0595 147.972 52.2457 147.492C52.5119 147.039 52.6531 146.523 52.6548 145.997V144.985C52.5064 144.334 52.2006 143.73 51.7643 143.226L51.1866 142.719C51.049 142.336 50.8363 141.983 50.5608 141.683C50.2351 141.285 49.8123 140.978 49.3333 140.791C48.8794 140.525 48.3666 140.376 47.841 140.357H46.8542C46.1988 140.497 45.5874 140.795 45.0731 141.225L44.4232 141.996C44.0443 142.581 43.8206 143.253 43.7734 143.949C43.7866 144.004 43.7866 144.062 43.7734 144.117C43.7734 144.479 43.7734 144.84 43.7734 145.178C43.7598 145.266 43.7598 145.355 43.7734 145.443C43.8778 145.85 44.023 146.246 44.2066 146.624V146.769L44.7843 147.636L44.9768 147.853C45.2832 148.143 45.6045 148.417 45.9396 148.673C46.3159 148.892 46.7105 149.077 47.119 149.227L47.5281 149.492Z" fill="#ECC889"/>
<path d="M78.1686 144.961C78.6724 144.962 79.1685 144.837 79.6127 144.599L80.4311 144.045C80.9477 143.585 81.3303 142.994 81.5383 142.334L81.7308 141.321C81.78 140.645 81.6381 139.968 81.3216 139.369L80.9847 138.694C80.5106 137.806 79.7457 137.108 78.8185 136.718C78.3367 136.529 77.8136 136.47 77.3021 136.549C76.7948 136.545 76.2959 136.678 75.858 136.935L75.0396 137.489C74.5239 137.94 74.141 138.523 73.9324 139.176L73.7399 140.213C73.694 140.881 73.8357 141.549 74.1491 142.141L74.486 142.84C74.6876 143.304 75.0122 143.704 75.4247 143.997C75.7768 144.377 76.2265 144.652 76.7245 144.792C77.1853 144.964 77.6807 145.022 78.1686 144.961Z" fill="#BCA28E"/>
<path d="M86.4246 175.886C86.9174 175.982 87.4241 175.982 87.9169 175.886C88.7476 175.735 89.5215 175.36 90.1553 174.801C90.4725 174.521 90.748 174.196 90.9736 173.837C91.3842 173.165 91.6316 172.405 91.6957 171.62C91.7376 171.117 91.6549 170.612 91.455 170.149C91.455 170.149 91.455 169.957 91.3347 169.86C91.4674 169.363 91.4674 168.839 91.3347 168.342L90.9977 167.402C90.7061 166.802 90.2568 166.294 89.698 165.931L88.7593 165.473C88.1082 165.253 87.4101 165.212 86.7375 165.353H86.3524C85.9011 165.484 85.4588 165.645 85.0286 165.835C84.6303 166.05 84.2517 166.3 83.8973 166.582L83.5844 166.823C83.2548 167.137 82.9491 167.476 82.6698 167.835C82.4154 168.241 82.1979 168.668 82.02 169.113C82.0093 169.225 82.0093 169.338 82.02 169.45C82.02 169.788 81.8515 170.198 81.8033 170.511V170.631C81.791 170.695 81.791 170.761 81.8033 170.824C81.7446 171.256 81.7446 171.694 81.8033 172.126C81.975 172.852 82.3128 173.529 82.7901 174.102L82.9586 174.295C83.2518 174.6 83.5743 174.874 83.9214 175.115C84.2893 175.333 84.676 175.519 85.0767 175.669C85.5182 175.784 85.9695 175.857 86.4246 175.886Z" fill="#BCA28E"/>
<path d="M123.661 168.896L123.781 168.583C124.006 167.629 123.864 166.626 123.385 165.773C122.906 164.919 122.124 164.277 121.194 163.973C120.264 163.67 119.254 163.728 118.365 164.135C117.475 164.542 116.771 165.269 116.392 166.172V166.486C116.241 167.398 116.42 168.335 116.898 169.127C117.375 169.919 118.12 170.514 118.997 170.805C119.874 171.096 120.826 171.063 121.681 170.713C122.536 170.363 123.238 169.719 123.661 168.896Z" fill="#BCA28E"/>
<path d="M58.4074 176.537H58.961L59.5627 176.657C60.2369 176.69 60.9081 176.549 61.5123 176.248C62.1079 175.94 62.6138 175.484 62.9805 174.922C63.3866 174.351 63.6129 173.671 63.6304 172.97C63.6745 172.294 63.533 171.618 63.2212 171.017L62.6676 169.74C62.453 169.284 62.1309 168.886 61.7289 168.583C61.3689 168.218 60.9213 167.953 60.4292 167.811C60.2753 167.749 60.1132 167.708 59.9478 167.691C59.4974 167.417 58.9825 167.267 58.4555 167.257H57.4446C56.7948 167.392 56.19 167.69 55.6876 168.125L55.0137 168.896C54.6347 169.481 54.4111 170.153 54.3638 170.848C54.3293 171.282 54.3293 171.717 54.3638 172.15C54.3742 172.206 54.3742 172.263 54.3638 172.319C54.4842 172.656 54.6045 173.018 54.7489 173.355L54.8933 173.645C55.1151 174.016 55.3645 174.371 55.6395 174.705C55.9375 175.011 56.2595 175.293 56.6023 175.549L56.867 175.717C57.2511 175.944 57.6537 176.138 58.0705 176.296L58.4074 176.537Z" fill="#BCA28E"/>
<path d="M40.4273 105.793C40.7213 104.822 40.6237 103.774 40.1555 102.874C39.6873 101.974 38.8857 101.294 37.9225 100.979C36.9594 100.663 35.9112 100.738 35.0027 101.188C34.0942 101.637 33.3976 102.425 33.0622 103.383C32.7682 104.354 32.8658 105.402 33.3339 106.302C33.8021 107.202 34.6037 107.882 35.5669 108.197C36.5301 108.512 37.5782 108.437 38.4867 107.988C39.3953 107.539 40.0919 106.751 40.4273 105.793Z" fill="#BCA28E"/>
<path d="M16.4532 151.421C16.913 151.417 17.3717 151.376 17.8252 151.3C17.9526 151.323 18.0829 151.323 18.2103 151.3C18.6464 151.18 19.0728 151.027 19.486 150.842C19.8809 150.622 20.259 150.372 20.6172 150.095C20.7327 150.012 20.8377 149.915 20.9301 149.806C21.1948 149.541 21.4596 149.228 21.7003 148.938V148.77C21.9565 148.369 22.1664 147.94 22.3261 147.492C22.5116 147.009 22.5696 146.486 22.4946 145.974C22.4874 145.661 22.4305 145.352 22.3261 145.058C22.2841 144.67 22.1698 144.294 21.9891 143.949L21.4355 143.129C20.9896 142.608 20.4055 142.224 19.7507 142.021L18.7157 141.828C18.0483 141.782 17.3813 141.924 16.7902 142.238C16.5411 142.321 16.2996 142.426 16.0681 142.551C15.5629 142.844 15.0802 143.174 14.624 143.539C14.4282 143.695 14.2433 143.864 14.0704 144.045C13.6536 144.469 13.275 144.929 12.9392 145.419C12.5395 145.994 12.3139 146.672 12.2893 147.372C12.2356 147.882 12.3187 148.398 12.53 148.866C12.6494 149.35 12.8991 149.792 13.252 150.144C13.7008 150.667 14.2832 151.059 14.9369 151.276C15.4373 151.368 15.9446 151.416 16.4532 151.421Z" fill="#BCA28E"/>
<path d="M24.0598 130.668C24.7264 130.703 25.3905 130.561 25.9853 130.258L26.8277 129.704C27.3355 129.246 27.7169 128.665 27.9349 128.016L28.1034 127.486C28.2889 127.003 28.3469 126.48 28.2719 125.968C28.2759 125.46 28.1428 124.96 27.8867 124.521C27.6852 124.057 27.3606 123.657 26.9481 123.364C26.596 122.985 26.1463 122.709 25.6483 122.569L24.6134 122.376C23.9478 122.354 23.2868 122.494 22.6878 122.786L21.8454 123.34C21.3366 123.807 20.9555 124.396 20.7382 125.052L20.5698 125.558C20.3822 126.049 20.3242 126.58 20.4013 127.1C20.398 127.601 20.5311 128.092 20.7864 128.523C20.9879 128.987 21.3126 129.387 21.7251 129.679C22.0771 130.059 22.5268 130.334 23.0248 130.475L24.0598 130.668Z" fill="#BCA28E"/>
<path d="M28.272 179.67C29.3538 179.722 30.4287 179.472 31.3769 178.947C32.0421 178.617 32.6579 178.195 33.2061 177.694C33.6065 177.314 33.9767 176.903 34.3133 176.465C34.4791 176.266 34.6319 176.057 34.7706 175.838C35.2064 175.134 35.5388 174.371 35.7574 173.572C35.9477 173.09 35.9978 172.563 35.9018 172.054C35.9023 171.549 35.7783 171.052 35.5408 170.607C35.0383 169.711 34.2376 169.02 33.2783 168.655C32.343 168.36 31.3321 168.421 30.4382 168.824C29.8576 168.844 29.2788 168.901 28.7052 168.993C28.4992 169.015 28.297 169.063 28.1035 169.137C27.6021 169.265 27.1174 169.451 26.6593 169.692C25.7707 170.151 25.0224 170.842 24.4931 171.692C24.2379 172.104 24.0433 172.55 23.9155 173.018C23.8063 173.412 23.7338 173.815 23.6989 174.223C23.687 174.311 23.687 174.4 23.6989 174.488C23.6989 174.874 23.6989 175.284 23.6989 175.669C23.7101 175.741 23.7101 175.814 23.6989 175.886C23.8989 176.653 24.2599 177.368 24.7579 177.983L24.9023 178.152C25.182 178.421 25.4795 178.67 25.7929 178.899L26.3224 179.164L26.9 179.429C27.3411 179.584 27.8046 179.666 28.272 179.67Z" fill="#DC8C73"/>
<path d="M103.538 200.447C104.078 200.456 104.618 200.416 105.151 200.327C105.66 200.206 106.159 200.045 106.643 199.845C106.837 199.768 107.022 199.671 107.197 199.556C107.656 199.289 108.091 198.982 108.496 198.64C109.277 197.893 109.864 196.966 110.205 195.94C110.391 195.457 110.449 194.934 110.374 194.422C110.378 193.914 110.245 193.414 109.989 192.975C109.796 192.513 109.479 192.112 109.074 191.818L108.713 191.553C108.461 191.169 108.134 190.841 107.75 190.589L106.836 190.131C106.176 189.911 105.47 189.87 104.79 190.011C104.127 190.092 103.484 190.288 102.888 190.589L102.407 190.83C101.98 191.075 101.57 191.349 101.179 191.65L100.818 192.011C100.465 192.36 100.143 192.739 99.8556 193.144C99.7587 193.283 99.6702 193.428 99.5908 193.578C99.3401 194.036 99.1229 194.511 98.941 195C98.941 195.362 98.8206 195.699 98.7484 196.036C98.7065 196.539 98.7892 197.044 98.9891 197.507C99.057 197.84 99.2152 198.149 99.4464 198.399C99.6868 198.841 100.045 199.208 100.481 199.459C101.403 200.038 102.453 200.377 103.538 200.447Z" fill="#BBBEA0"/>
<path d="M157.767 197.917C158.836 197.699 159.884 197.384 160.896 196.977C161.905 196.522 162.865 195.965 163.76 195.313C164.154 194.973 164.475 194.556 164.702 194.088C164.93 193.62 165.06 193.11 165.084 192.59C165.123 191.577 164.779 190.588 164.121 189.818C163.777 189.431 163.359 189.117 162.892 188.893C162.425 188.67 161.918 188.542 161.401 188.516H161.281C160.945 188.039 160.507 187.642 159.999 187.355C159.491 187.067 158.926 186.896 158.345 186.853C156.5 186.711 154.653 187.104 153.025 187.986C152.236 188.408 151.508 188.935 150.859 189.553C150.182 190.203 149.606 190.95 149.15 191.77C148.746 192.352 148.52 193.039 148.5 193.747C148.446 194.25 148.53 194.758 148.741 195.217C148.921 195.782 149.233 196.296 149.652 196.715C150.071 197.135 150.584 197.447 151.148 197.627C153.309 198.193 155.565 198.292 157.767 197.917Z" fill="#BBBEA0"/>
<path d="M187.325 203.75C187.914 203.91 188.52 203.999 189.13 204.015C189.59 204.022 190.05 203.982 190.502 203.894C190.933 203.805 191.353 203.668 191.753 203.484C192.775 203.036 193.656 202.32 194.305 201.411C194.551 201.03 194.76 200.627 194.931 200.206C194.941 200.094 194.941 199.981 194.931 199.869C195.174 199.014 195.215 198.115 195.051 197.242C194.957 196.747 194.742 196.283 194.425 195.892C194.192 195.438 193.832 195.061 193.39 194.807C193.22 194.679 193.034 194.573 192.837 194.494C192.437 194.068 191.93 193.76 191.368 193.602L190.357 193.409C189.682 193.362 189.007 193.504 188.408 193.819C187.747 194.065 187.111 194.372 186.506 194.735C185.645 195.254 184.838 195.86 184.1 196.543C183.585 197.003 183.199 197.589 182.979 198.244C182.76 198.9 182.714 199.601 182.848 200.279C182.996 200.929 183.302 201.534 183.738 202.038C184.194 202.56 184.786 202.944 185.447 203.147C186.05 203.415 186.679 203.617 187.325 203.75Z" fill="#BCA28E"/>
<path d="M47.7446 205.292C48.1927 205.34 48.6445 205.34 49.0925 205.292C49.8999 205.298 50.706 205.225 51.4994 205.075C52.6752 204.843 53.8 204.402 54.8209 203.774C55.7495 203.306 56.4581 202.493 56.7946 201.508C57.0137 200.823 57.0551 200.093 56.9149 199.387C56.763 198.613 56.4149 197.891 55.904 197.29C55.0646 196.366 53.8997 195.804 52.6547 195.723C52.1498 195.404 51.5671 195.229 50.9699 195.217C48.5121 195.177 46.09 195.81 43.9658 197.049C43.3598 197.339 42.844 197.789 42.4735 198.35C42.0907 198.942 41.8669 199.623 41.8237 200.327C41.7866 201 41.9273 201.67 42.2316 202.271C42.5358 202.872 42.9929 203.382 43.5567 203.75C44.2157 204.134 44.9086 204.456 45.6266 204.714C46.3124 204.974 47.0217 205.168 47.7446 205.292Z" fill="#BBBEA0"/>
<path d="M3.36029 195.53C3.74834 195.628 4.1423 195.7 4.53969 195.747H4.73224C5.18488 195.767 5.63815 195.727 6.0801 195.627C6.52848 195.521 6.96425 195.367 7.37985 195.169H7.52426L8.39075 194.566L8.51106 194.446L8.87212 194.036L9.23314 193.626C9.68834 192.943 9.96174 192.155 10.0274 191.336V191.143C10.0751 190.743 10.0751 190.338 10.0274 189.938C9.93384 189.443 9.71879 188.979 9.40164 188.588C9.16812 188.135 8.80872 187.758 8.36665 187.504C7.94455 187.191 7.44529 186.999 6.92253 186.949C6.4275 186.804 5.90121 186.804 5.40617 186.949L4.46748 187.263C4.32555 187.351 4.18892 187.448 4.05831 187.552C3.71741 187.477 3.36423 187.477 3.02333 187.552L2.08463 187.865C1.48207 188.172 0.96825 188.628 0.592366 189.191L0.135049 190.131C-0.0450162 190.794 -0.0450162 191.493 0.135049 192.156C0.306582 192.921 0.661857 193.632 1.17004 194.229C1.43449 194.503 1.71582 194.761 2.01243 195H2.15684C2.49218 195.21 2.84681 195.388 3.21588 195.53H3.36029Z" fill="#BCA28E"/>
<path d="M56.3859 230.192C57.0611 230.238 57.736 230.096 58.3355 229.782L59.7074 229.107C60.163 228.892 60.5595 228.569 60.8627 228.167C61.2399 227.803 61.514 227.346 61.657 226.841C61.8377 226.357 61.8875 225.833 61.8014 225.323C61.8019 224.818 61.6779 224.321 61.4404 223.877L60.8868 223.057C60.4276 222.54 59.8371 222.156 59.1779 221.948L58.167 221.755C57.4916 221.706 56.8161 221.848 56.2174 222.165L54.8455 222.84C53.9507 223.343 53.2607 224.145 52.8959 225.106C52.7043 225.588 52.6542 226.115 52.7515 226.624C52.751 227.129 52.875 227.626 53.1125 228.071L53.6661 228.89C54.1253 229.407 54.7158 229.791 55.375 229.999L56.3859 230.192Z" fill="#BCA28E"/>
<path d="M86.3764 218.501L87.5799 218.332C88.5521 218.091 89.406 217.51 89.9868 216.693C90.516 215.801 90.7202 214.754 90.5645 213.728L90.2275 212.788C89.9375 212.181 89.4882 211.665 88.9278 211.294L87.9891 210.836C87.3379 210.616 86.6399 210.574 85.9673 210.715L84.7638 210.884C84.2696 210.978 83.8064 211.193 83.416 211.511C82.9628 211.745 82.5867 212.104 82.3329 212.547C82.0205 212.97 81.8291 213.47 81.7793 213.993C81.6465 214.491 81.6465 215.014 81.7793 215.512L82.1162 216.452C82.4224 217.055 82.8783 217.57 83.44 217.946L84.3787 218.38C85.02 218.608 85.7125 218.65 86.3764 218.501Z" fill="#BBBEA0"/>
<path d="M79.5885 191.529C79.813 190.576 79.6715 189.573 79.1923 188.72C78.713 187.866 77.9309 187.224 77.001 186.921C76.0712 186.617 75.0614 186.675 74.172 187.082C73.2826 187.489 72.5785 188.216 72.1993 189.119C71.9749 190.072 72.1163 191.075 72.5955 191.929C73.0748 192.783 73.8569 193.425 74.7868 193.728C75.7166 194.031 76.7264 193.974 77.6158 193.566C78.5052 193.159 79.2093 192.432 79.5885 191.529Z" fill="#BCA28E"/>
<path d="M136.803 205.341C137.027 204.387 136.886 203.384 136.407 202.531C135.927 201.677 135.145 201.035 134.215 200.732C133.286 200.428 132.276 200.486 131.386 200.893C130.497 201.3 129.793 202.027 129.414 202.93C129.189 203.883 129.331 204.886 129.81 205.74C130.289 206.594 131.071 207.236 132.001 207.539C132.931 207.843 133.941 207.785 134.83 207.378C135.72 206.97 136.424 206.243 136.803 205.341Z" fill="#BCA28E"/>
<path d="M154.566 235.759C155.799 235.838 157.035 235.632 158.176 235.157C159.31 234.65 160.302 233.872 161.064 232.891C161.843 231.88 162.282 230.648 162.316 229.372C162.343 228.361 162.001 227.375 161.353 226.6C161.178 226.405 160.985 226.227 160.776 226.07C160.649 225.442 160.358 224.86 159.933 224.382C159.228 223.614 158.254 223.147 157.213 223.081C155.409 223.028 153.616 223.382 151.966 224.117C151.156 224.499 150.389 224.968 149.68 225.515C148.934 226.049 148.297 226.719 147.802 227.492C147.163 228.528 146.94 229.768 147.177 230.963C147.469 232.106 148.15 233.111 149.102 233.807C149.457 234.053 149.836 234.263 150.233 234.433L151.702 235.108C152.625 235.444 153.588 235.663 154.566 235.759Z" fill="#BCA28E"/>
<path d="M121.301 235.253C121.791 235.382 122.29 235.471 122.794 235.518H123.034H124.238L124.719 235.397C125.183 235.28 125.634 235.118 126.067 234.915L126.284 234.795L127.27 234.096C127.675 233.776 127.983 233.351 128.161 232.866C128.438 232.417 128.588 231.9 128.594 231.372C128.636 230.87 128.553 230.364 128.354 229.902C128.296 229.719 128.223 229.542 128.137 229.371C128.172 229.107 128.172 228.84 128.137 228.576L127.8 227.636C127.502 227.041 127.054 226.534 126.5 226.166L125.562 225.708C124.91 225.488 124.212 225.446 123.54 225.587C123.086 225.668 122.642 225.797 122.216 225.973C121.773 226.104 121.345 226.281 120.94 226.503C120.549 226.73 120.171 226.979 119.809 227.25C119.689 227.25 119.544 227.419 119.448 227.515C118.978 227.938 118.544 228.397 118.148 228.889L117.715 229.829C117.53 230.313 117.471 230.836 117.547 231.348C117.532 231.683 117.606 232.016 117.763 232.312C117.876 232.806 118.126 233.257 118.485 233.614C118.827 233.958 119.197 234.273 119.592 234.554L119.809 234.674C120.168 234.87 120.538 235.047 120.916 235.204C121.042 235.236 121.171 235.252 121.301 235.253Z" fill="#BCA28E"/>
<path d="M85.775 246.221H86.1602C86.4324 246.245 86.7062 246.245 86.9785 246.221C87.2668 246.244 87.5566 246.244 87.845 246.221H88.1579C88.5918 246.093 89.0177 245.94 89.4335 245.763L89.7705 245.57C90.1638 245.34 90.5345 245.074 90.8777 244.774C91.2208 244.466 91.535 244.127 91.8164 243.762L92.033 243.425C92.3383 242.998 92.5289 242.5 92.5866 241.978C92.7193 241.481 92.7193 240.957 92.5866 240.46C92.3331 239.492 91.7552 238.641 90.9499 238.049L90.0112 237.591C89.3601 237.371 88.662 237.33 87.9894 237.471C87.8043 237.36 87.6113 237.263 87.4118 237.182L86.3527 236.989H86.0398H85.4621C85.2782 236.968 85.0925 236.968 84.9086 236.989H84.6919C84.2733 237.091 83.869 237.245 83.4885 237.447C82.9493 237.733 82.4742 238.127 82.0925 238.604C81.9375 238.757 81.8002 238.926 81.6833 239.11C81.5389 239.399 81.3463 239.785 81.226 240.098C81.0538 240.521 80.9482 240.968 80.9131 241.424V241.93C80.9126 242.435 81.0366 242.931 81.2741 243.376C81.447 243.676 81.6485 243.959 81.8759 244.22C82.1155 244.471 82.3729 244.705 82.6461 244.919L82.959 245.136C83.4498 245.439 83.975 245.681 84.5234 245.859L85.775 246.221Z" fill="#BCA28E"/>
<path d="M23.458 234.65C23.9226 234.686 24.3893 234.686 24.854 234.65C25.4619 234.558 26.0536 234.38 26.611 234.12L27.0202 233.879C27.4148 233.661 27.7858 233.402 28.1274 233.108C28.7118 232.597 29.1861 231.973 29.5213 231.272C29.8565 230.572 30.0456 229.81 30.077 229.034C30.1169 228.029 29.7726 227.046 29.1142 226.286C28.795 225.881 28.3702 225.573 27.8867 225.395C27.4426 225.107 26.9236 224.956 26.3944 224.961C26.0541 224.965 25.7153 225.005 25.3835 225.081C24.4614 224.635 23.4472 224.412 22.423 224.431C21.4188 224.429 20.4258 224.643 19.5107 225.057C18.8437 225.33 18.2319 225.722 17.7055 226.214C17.1849 226.661 16.8011 227.246 16.5983 227.901C16.4128 228.385 16.3548 228.908 16.4298 229.42C16.4258 229.928 16.5588 230.428 16.8149 230.866C17.1117 231.469 17.5596 231.983 18.1147 232.361C18.7047 232.88 19.3505 233.333 20.0402 233.71C20.6631 234.055 21.3259 234.323 22.0138 234.506C22.4911 234.589 22.9737 234.637 23.458 234.65Z" fill="#BBBEA0"/>
</g>
</svg>
