<svg width="94" height="78" viewBox="0 0 94 78" fill="none" xmlns="http://www.w3.org/2000/svg">
<path opacity="0.5" d="M1.83998 2.42789C1.83998 2.42789 16.8848 2.01707 24.8934 6.77402C35.5333 13.0938 29.858 31.2207 23.4396 36.6597C17.0212 42.0986 10.6549 36.955 7.4585 32.7343C4.26208 28.5135 5.9416 21.12 12.3519 17.2133C18.7622 13.3066 37.149 12.1691 48.4681 25.1926C59.7873 38.2162 59.1286 50.7494 47.5654 52.9664C43.3306 53.7784 39.7861 52.8255 36.6807 51.2215C33.5752 49.6176 29.9336 43.4584 35.2697 38.8193C40.6058 34.1801 59.161 35.8203 66.49 45.9282C73.0541 54.9811 74.541 68.249 67.9731 73.959C61.4052 79.6691 56.0342 73.4893 54.8801 72.1614C53.726 70.8335 51.0878 66.761 55.289 61.8531C59.4903 56.9453 77.1611 45.9759 92.1803 68.3357" stroke="#029AFF" stroke-width="3" stroke-linecap="round"/>
</svg>
