<svg width="155" height="263" viewBox="0 0 155 263" fill="none" xmlns="http://www.w3.org/2000/svg">
<path opacity="0.1" d="M172.665 9.81886C158.936 1.76248 139.408 -0.0367492 124.678 4.0729C106.107 9.25448 93.0688 22.2753 84.926 40.8564C80.7888 50.2971 76.0548 60.0407 75.2917 70.7962C74.4166 83.1308 76.1306 96.3494 78.2612 108.531C81.3337 126.097 97.4001 137.916 112.39 139.833C122.102 141.075 129.33 140.187 137.526 134.139C138.724 133.255 141.989 130.688 141.998 128.585C142.022 122.663 135.044 116.327 130.977 113.483C121.738 107.024 106.772 105.903 96.4509 105.77C86.1052 105.637 74.8903 106.055 65.0101 109.45C54.7388 112.98 44.2858 119.514 35.6668 126.481C18.3296 140.495 11.1551 161.67 4.91061 183.76C-0.383801 202.489 2.11507 223.997 9.05298 242.117C11.5342 248.597 14.7169 254.944 16.9962 261.465" stroke="#2657F2" stroke-width="2.36869" stroke-linecap="round"/>
</svg>
