<svg width="113" height="40" viewBox="0 0 113 40" fill="none" xmlns="http://www.w3.org/2000/svg">
<path d="M52 20C52 22.8787 49.7551 25 47 25C44.2449 25 42 22.8787 42 20C42 17.101 44.2449 15 47 15C49.7551 15 52 17.101 52 20ZM49.8112 20C49.8112 18.2011 48.5101 16.9702 47 16.9702C45.4899 16.9702 44.1888 18.2011 44.1888 20C44.1888 21.7809 45.4899 23.0298 47 23.0298C48.5101 23.0298 49.8112 21.7786 49.8112 20Z" fill="#565F76"/>
<path d="M63 20C63 22.8787 60.7551 25 58 25C55.2449 25 53 22.8787 53 20C53 17.1032 55.2449 15 58 15C60.7551 15 63 17.101 63 20ZM60.8112 20C60.8112 18.2011 59.5101 16.9702 58 16.9702C56.4899 16.9702 55.1888 18.2011 55.1888 20C55.1888 21.7809 56.4899 23.0298 58 23.0298C59.5101 23.0298 60.8112 21.7786 60.8112 20Z" fill="#565F76"/>
<path d="M74 15.3129V24.6123C74 28.4376 71.7281 30 69.0423 30C66.5141 30 64.9925 28.3209 64.4186 26.9477L66.413 26.1233C66.7681 26.9664 67.6383 27.9612 69.04 27.9612C70.7592 27.9612 71.8246 26.908 71.8246 24.9253V24.1803H71.7446C71.2319 24.8085 70.2441 25.3573 68.9976 25.3573C66.3895 25.3573 64 23.1014 64 20.1985C64 17.2746 66.3895 15 68.9976 15C70.2418 15 71.2295 15.5488 71.7446 16.1583H71.8246V15.3153H74V15.3129ZM71.9868 20.1985C71.9868 18.3746 70.7615 17.0411 69.2023 17.0411C67.6218 17.0411 66.2977 18.3746 66.2977 20.1985C66.2977 22.0037 67.6218 23.3185 69.2023 23.3185C70.7615 23.3185 71.9868 22.0037 71.9868 20.1985Z" fill="#565F76"/>
<path d="M77 10V25H75V10H77Z" fill="#565F76"/>
<path d="M85.2444 21.6479L86.9076 22.784C86.3708 23.5978 85.0772 25 82.8421 25C80.0702 25 78 22.8043 78 20C78 17.0266 80.0878 15 82.6023 15C85.1344 15 86.373 17.0649 86.7778 18.1808L87 18.7489L80.4771 21.5171C80.9765 22.5203 81.7531 23.032 82.8421 23.032C83.9333 23.032 84.69 22.482 85.2444 21.6479ZM80.1252 19.849L84.4855 17.9937C84.2457 17.3693 83.5241 16.9342 82.6749 16.9342C81.5859 16.9342 80.0702 17.9193 80.1252 19.849Z" fill="#565F76"/>
<path d="M33.3278 18.5099V16.324H40.8879C40.9619 16.705 41 17.1556 41 17.6434C41 19.2834 40.5399 21.3113 39.0569 22.7561C37.6145 24.2195 35.7716 25 33.3302 25C28.8051 25 25 21.4088 25 17C25 12.5912 28.8051 9 33.3302 9C35.8336 9 37.6169 9.95703 38.9568 11.2044L37.3737 12.7468C36.4129 11.8688 35.1112 11.1858 33.3278 11.1858C30.0234 11.1858 27.439 13.7805 27.439 17C27.439 20.2195 30.0234 22.8142 33.3278 22.8142C35.4712 22.8142 36.6918 21.9756 37.4738 21.2137C38.108 20.5958 38.5253 19.7131 38.6898 18.5076L33.3278 18.5099Z" fill="#565F76"/>
</svg>
