<svg width="113" height="40" viewBox="0 0 113 40" fill="none" xmlns="http://www.w3.org/2000/svg">
<g clip-path="url(#clip0_2404_1286)">
<path d="M42.5698 23.8878C42.4628 23.6321 42.3625 23.3632 42.2554 23.1336L41.7605 22.0384L41.7405 22.0188C40.2691 18.8709 38.6974 15.6705 37.0321 12.5226L36.9652 12.3915C36.798 12.0832 36.6308 11.7422 36.4569 11.4274C36.2429 11.0536 36.0355 10.6536 35.6944 10.2732C35.362 9.87522 34.9435 9.55456 34.4693 9.33439C33.9951 9.11421 33.477 9 32.9523 9C32.4277 9 31.9095 9.11421 31.4353 9.33439C30.9611 9.55456 30.5427 9.87522 30.2102 10.2732C29.8959 10.6536 29.6618 11.0536 29.4478 11.4274C29.2806 11.7685 29.1134 12.1029 28.9395 12.4111L28.8726 12.5423C27.234 15.6902 25.6356 18.8905 24.1642 22.0384L24.1241 22.0778C23.9769 22.4188 23.803 22.7729 23.6358 23.1533C23.5288 23.3828 23.4218 23.632 23.3148 23.9075C23.0259 24.6287 22.9337 25.4114 23.0471 26.1782C23.1606 26.9451 23.4759 27.6697 23.962 28.2807C24.448 28.8917 25.0881 29.3679 25.819 29.6625C26.5499 29.9571 27.3465 30.0598 28.1302 29.9606C28.8816 29.8636 29.6051 29.6182 30.257 29.2392C31.1265 28.7605 31.9625 28.0653 32.8988 27.0619C33.8352 28.0653 34.6912 28.7605 35.5406 29.2458C36.3574 29.7159 37.2824 29.9754 38.2292 30C39.3256 30.0044 40.3867 29.6198 41.2164 28.917C42.0462 28.2143 42.5887 27.2409 42.7437 26.1766C42.9228 25.4118 42.8622 24.6117 42.5698 23.8813V23.8878ZM32.9657 24.9765C31.8154 23.5337 31.0663 22.2089 30.8121 21.0744C30.7069 20.654 30.6842 20.2177 30.7453 19.789C30.7921 19.4545 30.9192 19.1594 31.093 18.9102C31.4943 18.3397 32.1966 17.9855 32.9657 17.9855C33.331 17.9746 33.6933 18.0527 34.0201 18.213C34.347 18.3732 34.6281 18.6106 34.8384 18.9037C35.0123 19.166 35.1393 19.4545 35.1795 19.789C35.2463 20.1694 35.2196 20.6088 35.1126 21.0744C34.8584 22.1893 34.1094 23.5271 32.9657 24.9765ZM41.4863 25.9471C41.4103 26.4874 41.1913 26.9988 40.851 27.4303C40.5107 27.8618 40.061 28.1983 39.5468 28.4063C39.0385 28.6162 38.4767 28.6752 37.9283 28.6162C37.3932 28.5506 36.8582 28.3801 36.3097 28.0653C35.3992 27.5135 34.5804 26.8278 33.882 26.0323C35.2865 24.3272 36.1359 22.7729 36.4569 21.3892C36.6107 20.7334 36.6308 20.1431 36.5639 19.5988C36.4804 19.0829 36.2842 18.5907 35.9887 18.156C35.6514 17.6847 35.2011 17.3018 34.6775 17.0411C34.1539 16.7804 33.5729 16.6498 32.9858 16.6608C31.7485 16.6608 30.6449 17.2248 29.9761 18.1495C29.6751 18.5831 29.4805 19.0791 29.4077 19.5988C29.3207 20.1497 29.3408 20.7596 29.5147 21.3892C29.8357 22.7729 30.7051 24.3469 32.0896 26.0454C31.403 26.8561 30.5823 27.5478 29.6618 28.0916C29.1067 28.4063 28.5783 28.5703 28.0433 28.6359C27.2112 28.7404 26.3707 28.5186 25.7044 28.0188C25.0382 27.519 24.6 26.7816 24.4852 25.9667C24.4183 25.4421 24.4652 24.9174 24.6792 24.3272C24.7461 24.1173 24.8464 23.9075 24.9534 23.6583C25.1005 23.3173 25.2744 22.9631 25.4416 22.609L25.4684 22.5631C26.913 19.4349 28.4914 16.2411 30.13 13.1129L30.1968 12.9817C30.364 12.6669 30.5312 12.3325 30.7051 12.0177C30.879 11.6832 31.0663 11.3619 31.3071 11.0995C31.5155 10.8556 31.7759 10.6594 32.07 10.5248C32.364 10.3902 32.6846 10.3204 33.0092 10.3204C33.3337 10.3204 33.6543 10.3902 33.9484 10.5248C34.2425 10.6594 34.5029 10.8556 34.7113 11.0995C34.9454 11.3619 35.1393 11.6832 35.3132 12.0177C35.4804 12.3325 35.6476 12.6735 35.8215 12.9817L35.8884 13.1129C37.5203 16.2411 39.0987 19.4349 40.57 22.5631L40.5901 22.5828C40.764 22.9238 40.9111 23.3041 41.0783 23.6321C41.1854 23.8878 41.2924 24.0911 41.3592 24.3075C41.4863 24.8978 41.5532 25.4224 41.4863 25.9471ZM50.7961 24.8322C50.2921 24.8394 49.793 24.7353 49.3356 24.5275C48.8783 24.3198 48.4746 24.0137 48.1543 23.6321C47.4347 22.8188 47.0528 21.7703 47.0842 20.694C47.0732 19.5944 47.4675 18.5278 48.1945 17.6904C48.5307 17.3039 48.9493 16.9944 49.4208 16.7836C49.8922 16.5729 50.4051 16.466 50.9232 16.4706C51.4107 16.4575 51.8936 16.5662 52.3265 16.7865C52.7594 17.0068 53.128 17.3314 53.3978 17.7298L53.4647 16.7001H55.4176V24.6223H53.458L53.3911 23.4681C53.113 23.8935 52.7286 24.2421 52.2744 24.4809C51.8202 24.7196 51.3114 24.8405 50.7961 24.8322ZM51.3044 22.9434C51.6923 22.9434 52.0334 22.8385 52.3544 22.6483C52.6487 22.4385 52.8895 22.163 53.0767 21.8286C53.2439 21.4941 53.3309 21.0941 53.3309 20.6481C53.357 20.2608 53.2801 19.8735 53.1077 19.524C52.9354 19.1746 52.6736 18.8749 52.3477 18.6545C52.0347 18.4632 51.6732 18.3618 51.3044 18.3618C50.9356 18.3618 50.5741 18.4632 50.2611 18.6545C49.9668 18.8643 49.726 19.1398 49.5388 19.4742C49.3619 19.8431 49.2749 20.2472 49.2846 20.6547C49.2585 21.042 49.3354 21.4293 49.5078 21.7788C49.6801 22.1282 49.942 22.4279 50.2678 22.6483C50.5821 22.8385 50.9232 22.9434 51.3044 22.9434ZM58.7616 14.5622C58.7616 14.7917 58.7215 15.0016 58.6145 15.1721C58.5075 15.3361 58.3603 15.4869 58.1664 15.5918C57.9724 15.6968 57.7651 15.7361 57.5511 15.7361C57.3371 15.7361 57.123 15.6968 56.9291 15.5918C56.7456 15.4917 56.5914 15.3472 56.481 15.1721C56.3774 14.9853 56.3266 14.7747 56.3338 14.5622C56.3338 14.3261 56.3807 14.1163 56.481 13.9523C56.588 13.7556 56.7418 13.6375 56.9291 13.5326C57.123 13.4277 57.3304 13.3817 57.5511 13.3817C57.764 13.3769 57.9745 13.4264 58.162 13.5252C58.3496 13.6241 58.5078 13.769 58.6212 13.9457C58.7185 14.1369 58.7667 14.3486 58.7616 14.5622ZM56.4877 24.5961V16.687H58.6145V24.6092H56.481L56.4877 24.5961ZM64.2993 18.7594V18.7856C64.199 18.7397 64.0653 18.72 63.9649 18.7004C63.8312 18.6741 63.7242 18.6741 63.5971 18.6741C63.0019 18.6741 62.5537 18.8446 62.2595 19.1988C61.9384 19.5595 61.7913 20.0644 61.7913 20.7137V24.6026H59.6578V16.6805H61.6174L61.6843 17.8806C61.8983 17.4609 62.1525 17.1461 62.5136 16.91C62.8729 16.6806 63.2958 16.5661 63.7242 16.5821C63.878 16.5821 64.0251 16.5952 64.1522 16.6214C64.2191 16.6411 64.2592 16.6411 64.2993 16.6608V18.7594ZM65.1554 24.5961V13.4342H67.2822V17.697C67.5832 17.3166 67.9243 17.0215 68.3523 16.792C69.0299 16.4662 69.7998 16.3738 70.5375 16.5296C71.2753 16.6855 71.938 17.0806 72.4187 17.6511C73.1398 18.466 73.5219 19.5172 73.4888 20.5957C73.4998 21.6953 73.1055 22.7619 72.3785 23.5993C72.0423 23.9858 71.6237 24.2953 71.1522 24.5061C70.6807 24.7168 70.1679 24.8237 69.6498 24.8191C69.1623 24.8321 68.6794 24.7234 68.2465 24.5032C67.8136 24.2829 67.445 23.9583 67.1752 23.5599L67.1083 24.5895L65.1554 24.6092V24.5961ZM69.2686 22.9434C69.6498 22.9434 69.9909 22.8385 70.3119 22.6483C70.6062 22.4385 70.847 22.163 71.0342 21.8286C71.2081 21.4941 71.2884 21.0941 71.2884 20.6481C71.2884 20.2087 71.2081 19.8087 71.0342 19.4742C70.8586 19.1517 70.6118 18.8717 70.3119 18.6545C69.9989 18.4632 69.6374 18.3618 69.2686 18.3618C68.8997 18.3618 68.5383 18.4632 68.2252 18.6545C67.9243 18.8643 67.6902 19.1398 67.4962 19.4742C67.3194 19.8431 67.2324 20.2472 67.2421 20.6547C67.216 21.042 67.2929 21.4293 67.4652 21.7788C67.6376 22.1282 67.8994 22.4279 68.2252 22.6483C68.5396 22.8385 68.8807 22.9434 69.2686 22.9434ZM74.2913 24.6026V16.6805H76.2509L76.3178 17.7101C76.5641 17.3154 76.9134 16.9924 77.3296 16.7745C77.7459 16.5566 78.2139 16.4517 78.6854 16.4706C79.2245 16.4615 79.7544 16.6084 80.2088 16.893C80.6632 17.1776 81.022 17.5873 81.2402 18.0708C81.4743 18.5692 81.6014 19.1857 81.6014 19.8743V24.6223H79.4679V20.1497C79.4679 19.5988 79.3408 19.166 79.0867 18.8446C78.8325 18.5299 78.4847 18.3593 78.0433 18.3593C77.7223 18.3593 77.4414 18.4249 77.194 18.5692C76.9599 18.72 76.7659 18.9102 76.6188 19.1791C76.47 19.4509 76.3962 19.7561 76.4048 20.0644V24.6026H74.2913ZM82.6648 24.6026V13.4277H84.7983V17.6904C85.0873 17.3079 85.4632 16.9967 85.8962 16.7816C86.3293 16.5664 86.8075 16.4532 87.2929 16.4509C87.7969 16.4437 88.2961 16.5478 88.7534 16.7556C89.2107 16.9633 89.6145 17.2694 89.9347 17.6511C90.6508 18.4659 91.0301 19.5139 90.9981 20.5891C91.0098 21.6888 90.6154 22.7556 89.8879 23.5927C89.5516 23.9792 89.133 24.2888 88.6616 24.4995C88.1901 24.7103 87.6773 24.8171 87.1592 24.8125C86.6717 24.8256 86.1888 24.7169 85.7559 24.4966C85.323 24.2764 84.9543 23.9518 84.6846 23.5534L84.6244 24.583L82.6648 24.6026ZM86.798 22.9434C87.1859 22.9434 87.527 22.8385 87.8414 22.6483C88.1423 22.4385 88.3764 22.163 88.5704 21.8286C88.7376 21.4941 88.8245 21.0941 88.8245 20.6481C88.8506 20.2608 88.7737 19.8735 88.6014 19.524C88.429 19.1746 88.1672 18.8749 87.8414 18.6545C87.5283 18.4632 87.1669 18.3618 86.798 18.3618C86.4292 18.3618 86.0677 18.4632 85.7547 18.6545C85.4604 18.8643 85.2196 19.1398 85.0324 19.4742C84.8457 19.8398 84.7582 20.2463 84.7782 20.6547C84.7522 21.042 84.829 21.4293 85.0014 21.7788C85.1737 22.1282 85.4356 22.4279 85.7614 22.6483C86.0757 22.8385 86.3967 22.9434 86.798 22.9434Z" fill="#565F76"/>
</g>
<defs>
<clipPath id="clip0_2404_1286">
<rect width="68" height="21" fill="white" transform="translate(23 9)"/>
</clipPath>
</defs>
</svg>
