<svg width="113" height="40" viewBox="0 0 113 40" fill="none" xmlns="http://www.w3.org/2000/svg">
<g clip-path="url(#clip0_2404_1290)">
<path d="M72 29L77.5569 23.0004L72 17H77.8631L80.6153 19.9146L83.2655 17H88.9241L83.3936 22.9756L89 29H83.1129L80.3856 26.0615L77.684 29H72Z" fill="#565F76"/>
<path d="M72 14.2348H65.6599V16.9385H72V21.0133H65.6599V24.7534H72V29H61V10H72V14.2348Z" fill="#565F76"/>
<path d="M56.4689 10V17.8984H56.4191C55.416 16.7484 54.1626 16.3488 52.7084 16.3488C49.7296 16.3488 47.4857 18.3685 46.6981 21.0387C45.7998 18.0965 43.4833 16.2937 40.0482 16.2937C37.2586 16.2937 35.0558 17.5425 33.9062 19.5775V17.0483H28.1401V14.3022H34.4325V10H23V29.3H28.1401V21.187H33.2633C33.1106 21.783 33.0291 22.4211 33.0291 23.0944C33.0291 27.1203 36.1127 29.9451 40.0482 29.9451C43.3576 29.9451 45.5385 28.3956 46.6921 25.5705H42.2873C41.6914 26.4192 41.2394 26.6713 40.0482 26.6713C38.667 26.6713 37.4761 25.4693 37.4761 24.0445H46.4453C46.8343 27.2423 49.3318 30 52.7592 30C54.2376 30 55.5912 29.2747 56.4191 28.05H56.4689V29.2994H61V10H56.4689ZM37.6191 21.2447C37.9049 20.0189 38.8582 19.2177 40.0482 19.2177C41.3582 19.2177 42.263 19.9942 42.501 21.2447C42.6013 21.2447 37.6191 21.2447 37.6191 21.2447ZM53.7192 26.3612C52.049 26.3612 51.0111 24.8091 51.0111 23.1885C51.0111 21.4562 51.9139 19.7904 53.7192 19.7904C55.5912 19.7904 56.337 21.4562 56.337 23.1885C56.3367 24.8312 55.5465 26.3612 53.7192 26.3612Z" fill="#565F76"/>
</g>
<defs>
<clipPath id="clip0_2404_1290">
<rect width="66" height="20" fill="white" transform="translate(23 10)"/>
</clipPath>
</defs>
</svg>
