<svg width="113" height="40" viewBox="0 0 113 40" fill="none" xmlns="http://www.w3.org/2000/svg">
<g clip-path="url(#clip0_2404_1298)">
<path d="M44.1664 21.0556L43.6796 22.3834H43.639C43.5579 22.084 43.4091 21.6284 43.1657 21.0817L40.5558 14.768H38V24.8308H39.6904V18.6213C39.6904 18.2308 39.6903 17.7882 39.6768 17.2414C39.6633 16.968 39.6363 16.7598 39.6227 16.6035H39.6633C39.7444 16.9941 39.8391 17.2805 39.9067 17.4627L43.044 24.8047H44.234L47.3443 17.3976C47.4119 17.2284 47.4795 16.8899 47.5471 16.6035H47.5877C47.5471 17.3456 47.5201 18.0095 47.5065 18.413V24.7917H49.3051V14.742H46.8439L44.1664 21.0556ZM51.0089 17.5799H52.7669V24.7917H51.0089V17.5799ZM51.9014 14.5337C51.6039 14.5337 51.3605 14.6379 51.1577 14.8201C50.9548 15.0024 50.8467 15.2367 50.8467 15.5231C50.8467 15.7964 50.9548 16.0308 51.1577 16.213C51.3605 16.3953 51.6039 16.4864 51.9014 16.4864C52.1989 16.4864 52.4559 16.3822 52.6452 16.213C52.848 16.0308 52.9562 15.7964 52.9562 15.5231C52.9562 15.2497 52.848 15.0154 52.6452 14.8201C52.4694 14.6379 52.2125 14.5337 51.9014 14.5337ZM59.0009 17.5148C58.6764 17.4497 58.3383 17.4107 58.0138 17.4107C57.2159 17.4107 56.4857 17.5799 55.8771 17.9183C55.2686 18.2568 54.7818 18.7254 54.4708 19.3112C54.1462 19.9101 53.984 20.6 53.984 21.3941C53.984 22.084 54.1462 22.6959 54.4573 23.2556C54.7683 23.8024 55.201 24.245 55.7825 24.5444C56.3369 24.8438 56.986 25 57.7162 25C58.5547 25 59.2714 24.8308 59.8393 24.5183L59.8529 24.5053V22.9432L59.7852 22.9953C59.5283 23.1775 59.2308 23.3337 58.9333 23.4249C58.6223 23.529 58.3383 23.5811 58.0949 23.5811C57.3917 23.5811 56.8373 23.3858 56.4451 22.9562C56.0394 22.5396 55.8366 21.9669 55.8366 21.2509C55.8366 20.5089 56.0394 19.9231 56.4586 19.4935C56.8778 19.0639 57.4323 18.8426 58.1084 18.8426C58.6764 18.8426 59.2579 19.0249 59.7852 19.3893L59.8529 19.4414V17.7882L59.8393 17.7751C59.6094 17.684 59.3525 17.5799 59.0009 17.5148ZM64.8022 17.4627C64.3695 17.4627 63.9638 17.5929 63.6122 17.8663C63.3147 18.1006 63.1118 18.4391 62.9361 18.8426H62.9225V17.5799H61.1646V24.7917H62.9225V21.1077C62.9225 20.4828 63.0578 19.9621 63.3553 19.5846C63.6528 19.1941 64.0314 18.9988 64.4912 18.9988C64.6534 18.9988 64.8157 19.0379 65.0186 19.0639C65.2079 19.116 65.3431 19.168 65.4378 19.2331L65.5054 19.2852V17.5929L65.4648 17.5799C65.3431 17.5018 65.0997 17.4627 64.8022 17.4627ZM69.5893 17.4237C68.3587 17.4237 67.3715 17.7751 66.6819 18.4651C65.9787 19.155 65.6406 20.1053 65.6406 21.303C65.6406 22.4225 65.9922 23.3337 66.6683 23.9976C67.3445 24.6485 68.264 24.987 69.4135 24.987C70.617 24.987 71.5771 24.6355 72.2668 23.9325C72.97 23.2296 73.308 22.2923 73.308 21.1337C73.308 19.9882 72.9835 19.0769 72.3209 18.413C71.6853 17.7491 70.7522 17.4237 69.5893 17.4237ZM70.9956 22.9692C70.6711 23.3728 70.1572 23.568 69.5217 23.568C68.8861 23.568 68.3722 23.3728 68.0071 22.9432C67.642 22.5396 67.4662 21.9538 67.4662 21.2118C67.4662 20.4438 67.6555 19.858 68.0071 19.4414C68.3722 19.0249 68.8726 18.8166 69.5081 18.8166C70.1302 18.8166 70.617 19.0118 70.9686 19.4154C71.3202 19.8189 71.5095 20.4047 71.5095 21.1728C71.4825 21.9538 71.3337 22.5657 70.9956 22.9692ZM77.2297 20.574C76.6752 20.3527 76.3236 20.1834 76.1614 20.0402C76.0261 19.9101 75.9585 19.7278 75.9585 19.4935C75.9585 19.2982 76.0396 19.103 76.2425 18.9728C76.4453 18.8426 76.6752 18.7775 77.0133 18.7775C77.3108 18.7775 77.6218 18.8296 77.9193 18.9077C78.2168 18.9858 78.4873 19.103 78.7036 19.2592L78.7713 19.3112V17.7231L78.7307 17.7101C78.5278 17.632 78.2574 17.5538 77.9328 17.4888C77.6083 17.4367 77.3108 17.4107 77.0674 17.4107C76.229 17.4107 75.5393 17.6059 74.9984 18.0355C74.4575 18.4391 74.2005 18.9858 74.2005 19.6237C74.2005 19.9621 74.2546 20.2615 74.3763 20.5089C74.4981 20.7562 74.6738 20.9905 74.9173 21.1858C75.1607 21.368 75.5123 21.5763 75.9991 21.7716C76.4048 21.9408 76.7158 22.071 76.9051 22.1751C77.0944 22.2793 77.2161 22.3965 77.3108 22.4876C77.3784 22.5917 77.419 22.7219 77.419 22.8911C77.419 23.3728 77.0403 23.6071 76.2695 23.6071C75.972 23.6071 75.661 23.555 75.2959 23.4379C74.9308 23.3207 74.5927 23.1515 74.3087 22.9562L74.2411 22.9041V24.5574L74.2817 24.5704C74.5386 24.6876 74.8496 24.7657 75.2283 24.8568C75.6069 24.9219 75.945 24.974 76.2425 24.974C77.1485 24.974 77.8923 24.7787 78.4197 24.3491C78.9606 23.9325 79.2446 23.3988 79.2446 22.7089C79.2446 22.2272 79.1093 21.7976 78.8118 21.4722C78.4197 21.1598 77.9328 20.8343 77.2297 20.574ZM83.8829 17.4237C82.6523 17.4237 81.6651 17.7751 80.9755 18.4651C80.2858 19.155 79.9342 20.1053 79.9342 21.303C79.9342 22.4225 80.2858 23.3337 80.9619 23.9976C81.6381 24.6485 82.5576 24.987 83.7071 24.987C84.9106 24.987 85.8707 24.6355 86.5604 23.9325C87.2636 23.2296 87.6017 22.2923 87.6017 21.1337C87.6017 19.9882 87.2771 19.0769 86.6145 18.413C85.9789 17.7491 85.0458 17.4237 83.8829 17.4237ZM85.2757 22.9692C84.9512 23.3728 84.4373 23.568 83.8017 23.568C83.1526 23.568 82.6523 23.3728 82.2872 22.9432C81.9221 22.5396 81.7463 21.9538 81.7463 21.2118C81.7463 20.4438 81.9356 19.858 82.2872 19.4414C82.6523 19.0249 83.1526 18.8166 83.7882 18.8166C84.3967 18.8166 84.8971 19.0118 85.2487 19.4154C85.6003 19.8189 85.7896 20.4047 85.7896 21.1728C85.7896 21.9538 85.6138 22.5657 85.2757 22.9692ZM97 18.9728V17.5799H95.2285V15.445L95.1744 15.458L93.4976 15.9396L93.457 15.9527V17.5799H90.8065V16.6686C90.8065 16.2521 90.9147 15.9266 91.1041 15.7183C91.2934 15.5101 91.5774 15.4059 91.929 15.4059C92.1724 15.4059 92.4293 15.458 92.7133 15.5751L92.7809 15.6142V14.1432L92.7403 14.1302C92.4969 14.0521 92.1724 14 91.7531 14C91.2258 14 90.766 14.1172 90.3468 14.3124C89.9276 14.5337 89.6165 14.8331 89.3867 15.2367C89.1568 15.6272 89.0351 16.0698 89.0351 16.5775V17.5799H87.8045V18.9598H89.0351V24.7917H90.8065V18.9728H93.457V22.6828C93.457 24.2059 94.2008 24.974 95.6883 24.974C95.9317 24.974 96.1886 24.9349 96.432 24.8959C96.689 24.8438 96.8783 24.7787 96.9865 24.7266L97 24.7136V23.3207L96.9324 23.3728C96.8242 23.4379 96.7295 23.4899 96.5673 23.529C96.432 23.568 96.3103 23.5811 96.2157 23.5811C95.8641 23.5811 95.6207 23.503 95.4449 23.3077C95.2826 23.1254 95.2015 22.826 95.2015 22.3834V18.9728H97Z" fill="#565F76"/>
<path d="M16 11H24V19H16V11Z" fill="#565F76"/>
<path d="M25 11H33V19H25V11Z" fill="#565F76"/>
<path d="M16 20H24V28H16V20Z" fill="#565F76"/>
<path d="M25 20H33V28H25V20Z" fill="#565F76"/>
</g>
<defs>
<clipPath id="clip0_2404_1298">
<rect width="81" height="17" fill="white" transform="translate(16 11)"/>
</clipPath>
</defs>
</svg>
