<svg width="124" height="34" viewBox="0 0 124 34" fill="none" xmlns="http://www.w3.org/2000/svg">
<path d="M33.8699 17.0004C33.8699 26.3893 26.2876 34 16.9347 34C7.58191 34 0 26.3893 0 17.0004C0 7.61113 7.58191 0 16.9347 0C26.2876 0 33.8699 7.61113 33.8699 17.0004Z" fill="#2657F2"/>
<path d="M12.4774 26H8.53809L14.5405 8.54541H19.2779L25.2719 26H21.3325L16.9771 12.534H16.8413L12.4774 26ZM12.2312 19.1392H21.5363V22.0198H12.2312V19.1392Z" fill="white"/>
<path d="M42.3622 26H38.4229L44.4253 8.5455H49.1627L55.1566 26H51.2173L46.8619 12.5341H46.7261L42.3622 26ZM42.116 19.1392H51.421V22.0199H42.116V19.1392Z" fill="#19191B"/>
<path d="M61.3798 26.2131C60.3893 26.2131 59.4922 25.9574 58.6885 25.4461C57.8904 24.929 57.2565 24.1705 56.7867 23.1705C56.3226 22.1648 56.0905 20.9319 56.0905 19.4716C56.0905 17.9716 56.3311 16.7245 56.8122 15.7302C57.2933 14.7302 57.9329 13.983 58.7309 13.4887C59.5347 12.9887 60.4148 12.7387 61.3713 12.7387C62.1015 12.7387 62.7099 12.8637 63.1967 13.1137C63.6891 13.358 64.0853 13.6648 64.3853 14.0341C64.6909 14.3978 64.923 14.7557 65.0815 15.108H65.1918V8.5455H68.8001V26H65.2343V23.9035H65.0815C64.9117 24.2671 64.6711 24.6279 64.3598 24.9858C64.0542 25.3381 63.6551 25.6307 63.1627 25.8637C62.676 26.0966 62.0817 26.2131 61.3798 26.2131ZM62.526 23.3239C63.1089 23.3239 63.6014 23.1648 64.0032 22.8466C64.4107 22.5228 64.722 22.0711 64.9371 21.4915C65.1579 20.912 65.2682 20.233 65.2682 19.4546C65.2682 18.6762 65.1607 18 64.9456 17.4262C64.7305 16.8523 64.4192 16.4091 64.0117 16.0966C63.6042 15.7841 63.1089 15.6279 62.526 15.6279C61.9317 15.6279 61.4308 15.7898 61.0232 16.1137C60.6157 16.4375 60.3072 16.8864 60.0978 17.4603C59.8884 18.0341 59.7837 18.6989 59.7837 19.4546C59.7837 20.216 59.8884 20.8892 60.0978 21.4745C60.3129 22.054 60.6214 22.5086 61.0232 22.8381C61.4308 23.162 61.9317 23.3239 62.526 23.3239Z" fill="#19191B"/>
<path d="M83.9314 12.9091L79.3722 26H75.2971L70.7379 12.9091H74.5584L77.2667 22.2756H77.4026L80.1024 12.9091H83.9314Z" fill="#19191B"/>
<path d="M85.7822 26V12.9091H89.3989V26H85.7822ZM87.5991 11.2216C87.0614 11.2216 86.6001 11.0427 86.2152 10.6847C85.836 10.3211 85.6464 9.88641 85.6464 9.38073C85.6464 8.88073 85.836 8.45175 86.2152 8.0938C86.6001 7.73016 87.0614 7.54834 87.5991 7.54834C88.1368 7.54834 88.5952 7.73016 88.9744 8.0938C89.3593 8.45175 89.5518 8.88073 89.5518 9.38073C89.5518 9.88641 89.3593 10.3211 88.9744 10.6847C88.5952 11.0427 88.1368 11.2216 87.5991 11.2216Z" fill="#19191B"/>
<path d="M103.146 16.6421L99.8353 16.8466C99.7787 16.5625 99.657 16.3069 99.4702 16.0796C99.2834 15.8466 99.0372 15.662 98.7316 15.5256C98.4316 15.3836 98.0722 15.3125 97.6533 15.3125C97.093 15.3125 96.6204 15.4319 96.2355 15.6705C95.8506 15.9035 95.6582 16.216 95.6582 16.608C95.6582 16.9205 95.7827 17.1847 96.0318 17.4006C96.2808 17.6165 96.7081 17.7898 97.3137 17.9205L99.674 18.3978C100.942 18.6591 101.887 19.0796 102.51 19.6591C103.132 20.2387 103.444 21 103.444 21.9432C103.444 22.8012 103.192 23.554 102.688 24.2017C102.19 24.8495 101.505 25.3552 100.633 25.7188C99.7674 26.0767 98.7684 26.2557 97.6364 26.2557C95.9101 26.2557 94.5347 25.8949 93.5102 25.1733C92.4914 24.4461 91.8943 23.4574 91.7188 22.2074L95.2761 22.0199C95.3837 22.5483 95.644 22.9517 96.0572 23.2302C96.4704 23.5029 96.9996 23.6392 97.6449 23.6392C98.2788 23.6392 98.7882 23.5171 99.1731 23.2728C99.5636 23.0228 99.7617 22.7017 99.7674 22.3097C99.7617 21.9802 99.623 21.7103 99.3513 21.5C99.0797 21.2841 98.6608 21.1194 98.0948 21.0057L95.8365 20.554C94.563 20.2983 93.6149 19.8552 92.9923 19.2245C92.3754 18.5938 92.0669 17.7898 92.0669 16.8125C92.0669 15.9716 92.2933 15.2472 92.7461 14.6392C93.2046 14.0313 93.847 13.5625 94.6734 13.233C95.5054 12.9035 96.4789 12.7387 97.5939 12.7387C99.241 12.7387 100.537 13.0881 101.482 13.787C102.433 14.4858 102.988 15.4375 103.146 16.6421Z" fill="#19191B"/>
<path d="M111.613 26.2557C110.294 26.2557 109.154 25.9745 108.192 25.412C107.235 24.8438 106.496 24.054 105.976 23.0427C105.455 22.0256 105.195 20.8466 105.195 19.5057C105.195 18.1535 105.455 16.9716 105.976 15.9603C106.496 14.9432 107.235 14.1535 108.192 13.591C109.154 13.0228 110.294 12.7387 111.613 12.7387C112.932 12.7387 114.069 13.0228 115.026 13.591C115.988 14.1535 116.73 14.9432 117.25 15.9603C117.771 16.9716 118.031 18.1535 118.031 19.5057C118.031 20.8466 117.771 22.0256 117.25 23.0427C116.73 24.054 115.988 24.8438 115.026 25.412C114.069 25.9745 112.932 26.2557 111.613 26.2557ZM111.63 23.4432C112.23 23.4432 112.731 23.2728 113.133 22.9319C113.535 22.5853 113.837 22.1137 114.041 21.5171C114.251 20.9205 114.355 20.2415 114.355 19.4802C114.355 18.7188 114.251 18.0398 114.041 17.4432C113.837 16.8466 113.535 16.375 113.133 16.0285C112.731 15.6819 112.23 15.5086 111.63 15.5086C111.024 15.5086 110.515 15.6819 110.102 16.0285C109.694 16.375 109.386 16.8466 109.176 17.4432C108.973 18.0398 108.871 18.7188 108.871 19.4802C108.871 20.2415 108.973 20.9205 109.176 21.5171C109.386 22.1137 109.694 22.5853 110.102 22.9319C110.515 23.2728 111.024 23.4432 111.63 23.4432Z" fill="#19191B"/>
<path d="M124 8.5455V26H120.383V8.5455H124Z" fill="#19191B"/>
</svg>
