<svg width="64" height="64" viewBox="0 0 64 64" fill="none" xmlns="http://www.w3.org/2000/svg">
<g clip-path="url(#clip0_1029_1334)">
<path d="M0.125001 56.0574C0.208034 55.9382 0.344988 55.8925 0.366381 55.8149C1.58182 51.4066 4.5198 48.7269 8.80586 47.4102C9.30046 47.2582 9.82747 47.2118 10.4685 47.0924C6.15199 46.1247 3.72838 42.7183 4.28029 38.4684C4.72569 35.0388 7.71144 31.6553 12.6998 32.1423C16.0765 32.472 18.8041 35.0406 19.221 38.5598C19.7683 43.1792 16.8117 46.3341 13.1709 47.0817C15.8042 47.5212 18.1778 48.5024 20.1477 50.4261C21.4804 48.833 22.9685 47.4842 24.7832 46.4727C26.5686 45.4776 28.4751 44.9455 30.5861 44.5849C25.2879 43.6022 21.4696 39.2286 22.1599 33.2854C22.7182 28.4784 26.8264 23.9958 33.3777 24.6545C38.0673 25.1259 41.6409 28.795 42.1021 33.4209C42.7501 39.9201 38.1328 43.8569 33.8014 44.5808C37.9842 45.1775 41.4285 47.0707 44.0859 50.4309C46.0562 48.5301 48.4201 47.5027 51.0877 47.0874C49.087 46.6527 47.5025 45.6264 46.3063 43.9955C45.0782 42.3211 44.726 40.3845 45.0349 38.4246C45.6058 34.8015 48.649 31.6468 53.4945 32.1461C56.9197 32.4991 59.588 35.1382 59.9749 38.6044C60.5029 43.3332 57.3861 46.3921 53.9195 47.039C54.8853 47.3223 55.8451 47.5349 56.7529 47.883C59.3624 48.8836 61.4288 50.5598 62.7416 53.0562C63.2497 54.0223 63.6118 55.0651 64.0827 56.0359C64.125 57.8347 64.125 59.6707 64.0852 61.5289C63.7237 61.9899 63.3116 62.1368 62.7513 62.1364C42.7769 62.1213 22.8026 62.1255 2.82819 62.1184C1.90407 62.1181 0.922073 62.3526 0.125 61.6238C0.125 59.7878 0.125 57.9519 0.125001 56.0574ZM22.4375 59.6238C29.7818 59.6238 37.1261 59.6238 44.5632 59.6238C44.3731 54.8701 42.3954 51.1965 38.3076 48.8958C33.3262 46.0922 28.4419 46.6253 24.064 50.1956C21.1718 52.5543 19.697 55.7679 19.7364 59.6238C20.6517 59.6238 21.4821 59.6238 22.4375 59.6238ZM34.2811 27.5027C33.1843 27.1415 32.0362 27.0952 30.9322 27.275C28.7891 27.6242 27.1131 28.8031 25.884 30.5844C24.7869 32.1742 24.5219 34.0015 24.7854 35.8412C25.0245 37.5111 25.8868 38.9232 27.1482 40.1106C28.5725 41.4511 30.2898 42.0453 32.1505 42.0759C33.4372 42.0971 34.7138 41.742 35.8661 41.0121C38.8861 39.099 39.9019 36.4814 39.4476 33.4291C39.0158 30.5283 37.2118 28.5214 34.2811 27.5027ZM14.7441 50.1788C7.56546 47.977 1.95927 53.9696 2.70606 59.584C7.50814 59.584 12.3071 59.584 16.9872 59.584C17.1636 58.3394 17.257 57.1343 17.5231 55.9686C17.7487 54.9808 18.1826 54.0415 18.5019 53.0733C18.554 52.9154 18.5627 52.6525 18.4691 52.551C17.4624 51.4597 16.2457 50.6861 14.7441 50.1788ZM60.0612 59.6238C60.5743 59.6238 61.0875 59.6238 61.6767 59.6238C61.6124 59.0221 61.5135 58.4969 61.5075 57.9707C61.4841 55.8939 60.6186 54.1677 59.243 52.6987C57.2786 50.6007 54.8511 49.5831 51.9411 49.7409C49.569 49.8695 47.5762 50.7869 45.8789 52.4216C45.6241 52.667 45.6033 52.8519 45.7454 53.1655C46.3605 54.5231 46.8695 55.9167 47.0004 57.4191C47.064 58.1479 47.1277 58.8767 47.1929 59.6238C51.4486 59.6238 55.6926 59.6238 60.0612 59.6238ZM9.31415 43.8799C10.3237 44.5712 11.494 44.6528 12.6105 44.4688C15.0009 44.0749 16.675 41.8901 16.6516 39.5782C16.6231 36.7527 14.1593 34.2232 10.9057 34.7787C7.86362 35.298 6.21045 38.1849 7.08163 41.153C7.43382 42.3528 8.24957 43.1677 9.31415 43.8799ZM47.9192 41.4838C47.9804 41.5874 48.0465 41.6884 48.1021 41.795C48.9524 43.4267 50.2685 44.3755 52.1249 44.4955C54.2967 44.6359 55.9308 43.7342 56.8811 41.7881C57.747 40.015 57.5708 38.3047 56.3912 36.655C54.5376 34.0626 50.2761 34.1015 48.4923 36.7547C47.5108 38.2147 47.4182 39.7574 47.9192 41.4838Z" fill="#FAA111"/>
<path d="M22.5874 10.9017C22.0756 10.488 21.8656 9.97518 22.0506 9.40451C22.2367 8.83068 22.6867 8.56542 23.3221 8.4855C24.9493 8.28087 26.5685 8.01009 28.1862 7.73773C28.3492 7.71028 28.5342 7.51956 28.6175 7.35757C29.3813 5.87234 30.1375 4.38281 30.8674 2.88064C31.1057 2.39014 31.4105 2.12518 31.9849 2.11378C32.611 2.10136 33.046 2.31803 33.3188 2.87981C34.1003 4.48921 34.8861 6.09651 35.675 7.71438C37.4999 7.97487 39.3543 8.20447 41.191 8.53316C41.5336 8.59447 41.9413 9.00018 42.0752 9.34233C42.2466 9.78036 42.1733 10.289 41.7549 10.6943C40.5437 11.8675 39.3551 13.0644 38.1808 14.2745C38.0387 14.421 37.9577 14.7171 37.9864 14.9248C38.2225 16.6314 38.4789 18.3354 38.7546 20.0361C38.9271 21.0997 37.671 21.6853 36.8162 21.2311C35.3793 20.4676 33.9369 19.7142 32.5088 18.9345C32.1629 18.7456 31.9136 18.7876 31.5728 18.9737C30.1091 19.7726 28.6248 20.5343 27.1402 21.2941C26.6429 21.5486 26.133 21.3764 25.7772 21.0549C25.3498 20.6685 25.3052 20.1053 25.4158 19.5244C25.7106 17.9763 25.9889 16.4245 26.2327 14.8678C26.2664 14.6527 26.1301 14.339 25.9672 14.1764C24.8676 13.0793 23.7397 12.0106 22.5874 10.9017ZM31.0011 16.3131C31.7102 15.7282 32.4294 15.8379 33.172 16.2567C34.0048 16.7265 34.8514 17.1719 35.7527 17.6609C35.5738 16.7008 35.4541 15.8223 35.2398 14.9676C34.9602 13.8528 35.2912 13.0749 36.2394 12.4139C36.879 11.9681 37.3725 11.3127 37.9968 10.6853C37.0998 10.569 36.3591 10.437 35.6128 10.3845C34.4446 10.3022 33.6005 9.87675 33.1946 8.67079C32.9396 7.91314 32.4782 7.22497 32.0818 6.45185C31.5564 7.51385 31.1033 8.50159 30.5774 9.44899C30.4199 9.73282 30.0884 10.0376 29.7868 10.1031C28.6282 10.355 27.4493 10.5136 26.1812 10.7229C26.3549 10.9044 26.497 11.0669 26.6536 11.214C27.2396 11.7646 27.8137 12.3297 28.4242 12.852C29.0183 13.3602 29.0839 13.9473 28.9246 14.6753C28.7174 15.6227 28.6148 16.593 28.4601 17.5994C29.3201 17.1709 30.1218 16.7714 31.0011 16.3131Z" fill="#FAA111"/>
<path d="M60.0333 20.53C59.4271 21.0943 58.8743 21.6534 58.2708 22.1509C57.8962 22.4597 57.8071 22.8245 57.8839 23.2452C58.0718 24.2748 58.3292 25.2935 58.4753 26.3283C58.5406 26.7914 58.3582 27.3246 57.8903 27.5098C57.4954 27.6661 56.9515 27.761 56.5844 27.6112C55.6022 27.2105 54.6896 26.6425 53.7261 26.1905C53.4978 26.0834 53.1347 26.0787 52.9083 26.1854C52.0545 26.5879 51.231 27.0547 50.3971 27.4994C49.8067 27.8142 49.1616 27.9648 48.6209 27.525C48.1221 27.1192 48.043 26.5436 48.2234 25.8632C48.481 24.892 48.5913 23.88 48.7302 22.8807C48.7494 22.7428 48.5996 22.5506 48.481 22.4293C47.71 21.6406 46.9328 20.8575 46.1435 20.0871C45.707 19.661 45.6683 19.1999 45.8588 18.6414C46.0377 18.117 46.3835 17.9331 46.8983 17.8676C48.0026 17.7269 49.1032 17.5529 50.2003 17.3637C50.3546 17.3371 50.5356 17.1764 50.6111 17.0298C51.0896 16.1006 51.5424 15.1581 52.0025 14.2194C52.2765 13.6604 52.6677 13.3472 53.346 13.3597C53.9773 13.3714 54.2969 13.6561 54.5373 14.2012C54.8777 14.9732 55.3603 15.6886 55.644 16.4779C55.9396 17.3001 56.5224 17.4446 57.2629 17.5124C58.0456 17.5841 58.8171 17.7723 59.599 17.8627C60.1668 17.9283 60.551 18.198 60.7451 18.7161C60.9787 19.3394 60.7482 19.8476 60.2861 20.2781C60.21 20.3489 60.1389 20.4251 60.0333 20.53ZM50.3472 20.0008C50.2094 20.0008 50.0717 20.0008 49.8844 20.0008C50.423 20.6097 51.1255 21.0992 51.3602 21.7558C51.5895 22.3971 51.3411 23.2091 51.2953 24.0814C52.6316 22.8725 53.9858 22.911 55.3978 24.0673C54.7356 22.3458 55.1351 21.0267 56.7657 20.0476C54.068 19.7881 54.2321 19.7033 53.3012 17.6528C53.0717 18.1116 52.8369 18.5536 52.6273 19.0071C52.3851 19.531 51.9574 19.7814 51.4167 19.873C51.0972 19.927 50.774 19.9589 50.3472 20.0008Z" fill="#FAA111"/>
<path d="M3.26995 18.8189C3.45334 18.0015 4.09433 17.8716 4.70815 17.7743C5.77196 17.6056 6.84473 17.4935 7.95087 17.353C8.47663 16.2956 9.01335 15.22 9.54622 14.1426C9.81882 13.5914 10.2348 13.3444 10.8709 13.3601C11.4696 13.3748 11.7827 13.6369 12.0158 14.1683C12.3628 14.9591 12.8463 15.6927 13.1616 16.494C13.4486 17.2233 13.9569 17.4388 14.6612 17.5081C15.5262 17.5932 16.3876 17.7295 17.2444 17.8786C18.2257 18.0495 18.751 19.1985 17.9777 20.0584C17.3311 20.7774 16.5915 21.4158 15.8661 22.0595C15.4383 22.439 15.2896 22.8182 15.438 23.4074C15.6836 24.3828 15.9223 25.3818 15.9677 26.3798C16.0148 27.4148 15.0641 28.0908 14.0236 27.619C13.0919 27.1966 12.1883 26.7075 11.2952 26.2071C10.9551 26.0166 10.6982 25.996 10.3532 26.1897C9.53068 26.6516 8.67456 27.0533 7.84785 27.5081C7.26501 27.8288 6.6442 27.9376 6.12901 27.5292C5.62689 27.1312 5.54042 26.5555 5.7227 25.8721C5.98157 24.9017 6.09002 23.8895 6.22917 22.8905C6.24856 22.7513 6.10592 22.5571 5.98869 22.4367C5.27757 21.7061 4.56766 20.9729 3.82528 20.2747C3.40537 19.8798 3.15553 19.4544 3.26995 18.8189ZM11.431 18.9939C11.2262 18.551 11.0213 18.1082 10.7459 17.5131C10.3494 19.4226 9.19875 20.1844 7.34856 19.9632C7.93837 20.6258 8.64851 21.1169 8.88519 21.7777C9.11151 22.4095 8.84541 23.2176 8.78647 24.0848C10.145 22.8862 11.4957 22.914 12.9035 24.0524C12.2156 22.3138 12.6766 21.0333 14.2407 20.0574C13.6317 19.9819 13.1892 19.9534 12.7584 19.8669C12.2435 19.7635 11.7181 19.6425 11.431 18.9939Z" fill="#FAA111"/>
<path d="M35.6261 52.5727C35.5991 51.9143 35.7455 51.4057 36.3557 51.1245C36.9747 50.8392 37.4959 51.0328 37.9833 51.421C39.2544 52.4331 40.3991 53.5631 41.0841 55.0634C41.2426 55.4105 41.2577 55.8512 41.239 56.244C41.2153 56.7425 40.8941 57.0654 40.3891 57.1195C39.7769 57.1851 39.19 57.1352 38.873 56.4777C38.3672 55.4288 37.6103 54.5739 36.744 53.8205C36.3262 53.4571 35.7908 53.2204 35.6261 52.5727Z" fill="#FAA111"/>
<path d="M30.8884 50.3397C31.6342 49.3958 32.7391 49.3286 33.2298 50.1936C33.5062 50.6807 33.5199 51.2402 33.1279 51.7282C32.8484 52.0762 31.9908 52.3274 31.5766 52.0954C31.1594 51.8618 30.7908 51.5325 30.8715 50.9522C30.897 50.7687 30.8765 50.5788 30.8884 50.3397Z" fill="#FAA111"/>
</g>
<defs>
<clipPath id="clip0_1029_1334">
<rect width="64" height="64" fill="white"/>
</clipPath>
</defs>
</svg>
