<svg width="64" height="64" viewBox="0 0 64 64" fill="none" xmlns="http://www.w3.org/2000/svg">
<g clip-path="url(#clip0_1029_1352)">
<path d="M26.3086 64.1264C26.2644 64.1114 26.2788 64.0963 26.2932 64.0813C25.3121 63.3964 25.4905 62.3686 25.5007 61.3922C25.5103 60.4783 25.3898 59.537 25.5681 58.6566C25.904 56.9983 26.7956 56.051 28.5093 55.174C27.9154 54.2319 27.5366 53.2124 27.6479 52.0894C27.7828 50.7272 28.4189 49.5663 29.5373 48.811C31.2803 47.634 33.8107 47.5302 35.634 49.7171C36.8828 51.215 36.9894 53.4801 35.6636 55.1948C37.198 55.6872 38.8348 57.5203 38.7568 59.415C38.7175 60.3709 38.7168 61.3314 38.7605 62.287C38.7953 63.0456 38.57 63.6349 37.964 64.0889C34.1224 64.1264 30.2447 64.1264 26.3086 64.1264ZM36.75 61.9113C36.75 61.0994 36.7002 60.2836 36.7624 59.4764C36.8424 58.4402 35.5462 57.0429 34.4758 57.003C33.1757 56.9545 31.8753 56.8898 30.5748 56.8839C29.1275 56.8773 27.6609 57.8532 27.528 59.0185C27.4069 60.0797 27.5023 61.1657 27.5023 62.262C27.795 62.2463 28.0129 62.2346 28.25 62.2218C28.25 61.3414 28.2317 60.51 28.2558 59.6798C28.2752 59.0084 28.7695 58.4929 29.3266 58.5014C29.9046 58.5103 30.2499 58.9516 30.25 59.6821C30.25 60.5279 30.25 61.3737 30.25 62.2186C31.5333 62.2186 32.7502 62.2186 34 62.2186C34 61.2736 33.9872 60.3607 34.0099 59.4487C34.0149 59.2464 34.0882 58.95 34.2298 58.8669C34.5223 58.6953 34.9177 58.4937 35.2061 58.5652C35.7324 58.6958 36.0011 59.1541 36.0003 59.7258C35.9991 60.5536 36 61.3813 36 62.3801C36.3162 62.2326 36.5329 62.1315 36.75 61.9113ZM33.0485 50.2378C32.1394 49.762 31.3226 49.9956 30.5913 50.6078C29.7562 51.3069 29.4302 52.1784 29.8102 53.255C30.3315 54.7318 31.7748 55.1751 32.9986 54.7481C34.0598 54.3778 34.5628 53.5116 34.5979 52.4733C34.6318 51.4694 34.0297 50.7334 33.0485 50.2378Z" fill="white"/>
<path d="M19.7158 23.8752C20.3842 24.2055 21.0007 24.5358 21.6819 24.9007C23.9801 21.6903 27.1369 19.8974 31.1246 19.4786C31.1246 18.8898 31.1216 18.3107 31.1254 17.7316C31.1299 17.0246 31.5048 16.6182 32.1385 16.6251C32.7666 16.6319 33.1208 17.0375 33.1241 17.7594C33.1267 18.3192 33.1246 18.879 33.1246 19.477C37.088 19.8886 40.2486 21.6755 42.5814 24.9269C43.0664 24.6379 43.5204 24.382 43.9591 24.1023C44.5093 23.7514 45.2155 23.7986 45.4969 24.2197C45.9055 24.8312 45.7141 25.4536 45.0854 25.8359C44.6071 26.1267 44.1073 26.3822 43.6843 26.6162C43.9742 27.6791 44.2526 28.678 44.5176 29.6804C44.649 30.1773 44.3825 30.7602 43.9951 30.8719C43.3652 31.0536 42.7733 30.797 42.6347 30.1957C42.2738 28.6309 41.6921 27.1604 40.7407 25.8701C39.1567 23.722 37.0614 22.3299 34.4345 21.7447C31.3156 21.0499 28.4741 21.6849 25.8897 23.5046C23.7309 25.0246 22.3811 27.1262 21.7604 29.6731C21.1619 32.1292 21.4196 34.5526 22.5393 36.7991C24.1152 39.9607 26.724 41.9247 30.1837 42.6029C33.1756 43.1894 35.9737 42.4949 38.4336 40.713C40.56 39.1727 41.905 37.0565 42.498 34.4847C42.7149 33.5439 42.9095 33.3558 43.7126 33.3751C44.2952 33.3891 44.7184 33.9244 44.5646 34.4883C44.2858 35.51 43.9866 36.5262 43.6747 37.619C44.0671 37.8425 44.5356 38.1083 45.0031 38.3757C45.6147 38.7255 45.8481 39.2312 45.6267 39.7232C45.3189 40.4072 44.6641 40.6089 44.0268 40.2124C43.5672 39.9264 43.1108 39.6354 42.5954 39.3103C40.2675 42.56 37.1114 44.3541 33.1246 44.771C33.1246 45.1749 33.1246 45.5665 33.1246 45.9581C33.1246 47.2469 32.8882 47.6348 32.1087 47.6251C31.3551 47.6156 31.1246 47.2177 31.1246 45.9262C31.1246 45.554 31.1246 45.1818 31.1246 44.7728C27.1593 44.3618 23.9999 42.573 21.6671 39.3229C21.1811 39.613 20.7275 39.8696 20.2887 40.1493C19.7402 40.4991 19.0334 40.4492 18.7518 40.0286C18.3427 39.4174 18.538 38.7936 19.1653 38.413C19.6439 38.1226 20.1434 37.8668 20.6547 37.584C19.0714 33.9369 19.0745 30.3209 20.6497 26.6705C20.1336 26.3796 19.6245 26.1002 19.123 25.8079C18.6877 25.5543 18.4418 25.1371 18.5547 24.6684C18.6797 24.1497 19.0328 23.7729 19.7158 23.8752Z" fill="white"/>
<path d="M35 40.2491C32.2721 40.2491 29.6067 40.2496 26.9413 40.2488C26.1206 40.2485 25.5087 39.6696 25.5034 38.8531C25.4923 37.1664 25.4553 35.4781 25.5129 33.7934C25.5683 32.1741 26.925 30.4225 28.605 29.9628C27.8658 29.0107 27.52 27.9165 27.649 26.7493C27.7675 25.6763 28.1875 24.6432 29.0273 23.9375C31.169 22.1378 33.5926 22.3744 35.2789 24.0162C36.7245 25.4237 37.2462 27.7815 35.6556 29.9415C36.6038 30.2421 37.351 30.8153 37.9216 31.6116C38.5037 32.4236 38.7795 33.3254 38.758 34.3379C38.727 35.7949 38.7137 37.2543 38.7642 38.7102C38.7928 39.5361 38.0455 40.3269 37.1857 40.2602C36.4819 40.2056 35.7705 40.2491 35 40.2491ZM28.4173 33.7658C28.6422 33.2051 29.1461 33.1514 29.5934 33.2749C30.0053 33.3886 30.2719 33.7273 30.2602 34.2512C30.2299 35.6155 30.25 36.9809 30.25 38.3402C31.5366 38.3402 32.7529 38.3402 34 38.3402C34 36.9158 34.0034 35.525 33.9982 34.1342C33.9964 33.642 34.3026 33.3574 34.7082 33.267C35.1839 33.161 35.6683 33.2546 35.8458 33.8185C35.9355 34.1036 35.9894 34.4117 35.9933 34.7102C36.0095 35.9289 36 37.1478 36 38.3873C36.3003 38.3702 36.5178 38.3578 36.75 38.3445C36.75 37.0221 36.6923 35.7509 36.7651 34.4873C36.8507 33.0011 35.5551 31.6645 33.9606 31.6295C32.7336 31.6025 31.5052 31.6089 30.2779 31.6283C29.0048 31.6483 27.5902 32.6989 27.5235 33.8115C27.4331 35.3186 27.501 36.8351 27.501 38.3421C27.7817 38.3421 27.9989 38.3421 28.25 38.3421C28.25 37.6689 28.234 37.0265 28.254 36.3853C28.2803 35.5445 28.3352 34.7046 28.4173 33.7658ZM31.4531 29.5142C31.6901 29.5508 31.9277 29.6225 32.164 29.6184C33.7302 29.591 34.5575 28.4978 34.589 27.2088C34.6201 25.9386 33.6878 24.9041 32.1948 24.7486C31.0598 24.6303 29.937 25.5493 29.6307 26.9966C29.4499 27.8511 30.3344 29.1234 31.4531 29.5142Z" fill="white"/>
<path d="M5.84511 50.4909C4.81924 50.0724 4.44151 49.3063 4.50236 48.2933C4.57729 47.0457 4.54353 45.7745 4.78466 44.5587C5.0448 43.2471 5.94921 42.3173 7.17603 41.7391C7.32042 41.6711 7.45155 41.5749 7.61654 41.475C6.94776 40.3919 6.57282 39.2596 6.82521 37.977C7.05567 36.8058 7.61768 35.8268 8.58076 35.1503C10.4088 33.8663 12.8368 34.0732 14.39 35.5761C15.8668 37.0052 16.0857 39.6942 14.8585 41.4227C15.224 41.663 15.5986 41.8894 15.9521 42.1451C17.2823 43.1069 17.9193 44.4104 17.8791 46.0557C17.8577 46.93 17.8233 47.8092 17.8889 48.679C17.9648 49.6855 17.2101 50.5141 16.0829 50.5079C12.688 50.4894 9.2929 50.5006 5.84511 50.4909ZM15.0003 47.6789C15.0003 47.9431 15.0003 48.2073 15.0003 48.4699C15.323 48.4699 15.5819 48.4699 15.8753 48.4699C15.8753 47.6924 15.8459 46.9446 15.8812 46.1999C15.9639 44.4551 14.6711 43.1823 12.9437 43.243C11.7162 43.2862 10.4859 43.2556 9.25695 43.2501C8.16402 43.2452 7.39145 43.7866 6.89624 44.7076C6.24843 45.9124 6.57033 47.2207 6.50012 48.4818C6.82933 48.4818 7.07443 48.4818 7.3753 48.4818C7.3753 47.5942 7.36555 46.7249 7.37867 45.8559C7.38769 45.2586 7.91485 44.753 8.45966 44.7866C9.03556 44.8221 9.37166 45.2106 9.37438 45.8567C9.37803 46.7249 9.37529 47.5932 9.37529 48.472C10.6091 48.472 11.7847 48.472 13.0003 48.472C13.0003 47.6352 12.9914 46.827 13.003 46.0191C13.0134 45.2947 13.4632 44.7747 14.0578 44.7687C14.6707 44.7625 14.9996 45.1896 15.0002 45.9937C15.0006 46.5145 15.0003 47.0353 15.0003 47.6789ZM11.5132 41.2482C13.1745 40.6255 13.6452 40.0491 13.6196 38.5721C13.6029 37.6121 13.0854 36.9726 12.2401 36.5434C11.3955 36.1144 10.5808 36.2476 9.86154 36.7309C8.88886 37.3843 8.56919 38.4515 8.87051 39.4413C9.1639 40.405 10.3186 41.3572 11.5132 41.2482Z" fill="white"/>
<path d="M48.8761 40.469C48.1781 38.4312 48.8435 36.3212 50.2433 35.2429C52.1244 33.7937 54.6553 34.2465 55.9237 35.3527C57.5796 36.7969 58.0925 39.3151 56.7036 41.351C57.4104 41.9452 58.167 42.4731 58.786 43.1305C59.4711 43.8579 59.6767 44.855 59.725 45.8135C59.7828 46.9623 59.7055 48.1231 59.6091 49.2722C59.5557 49.9084 58.7853 50.4957 58.1273 50.4972C54.7529 50.5046 51.3785 50.5122 48.0043 50.4934C47.0091 50.4879 46.3425 49.7309 46.3689 48.8284C46.3958 47.9127 46.3921 46.9952 46.3713 46.0792C46.3256 44.0654 47.2621 42.6493 48.9867 41.6977C49.0923 41.6394 49.1968 41.5783 49.2973 41.5117C49.3291 41.4906 49.3461 41.4471 49.3737 41.4086C49.2092 41.1138 49.0435 40.8169 48.8761 40.469ZM49.2545 43.9309C49.0421 44.2665 48.6981 44.5815 48.6415 44.9415C48.4592 46.1022 48.3828 47.2795 48.2633 48.4724C48.6921 48.4724 48.9504 48.4724 49.2499 48.4724C49.2499 47.5539 49.2459 46.663 49.2515 45.7722C49.2543 45.331 49.388 44.9768 49.8872 44.8739C50.6938 44.7075 51.226 45.1257 51.2458 45.9864C51.2647 46.8116 51.2498 47.6376 51.2498 48.4711C52.4853 48.4711 53.6602 48.4711 54.8748 48.4711C54.8748 47.8638 54.8748 47.2853 54.8748 46.7068C54.8748 46.4154 54.872 46.1239 54.8754 45.8326C54.883 45.2005 55.2474 44.7878 55.8076 44.772C56.3222 44.7576 56.8591 45.2608 56.8701 45.8133C56.8877 46.7009 56.8748 47.5892 56.8748 48.4664C57.2026 48.4664 57.4614 48.4664 57.7498 48.4664C57.7498 47.936 57.7661 47.4388 57.7453 46.9432C57.7247 46.4547 57.6845 45.9655 57.6214 45.4807C57.4674 44.2962 56.2866 43.2553 55.106 43.2515C53.878 43.2475 52.6495 43.2715 51.4222 43.2431C50.644 43.2251 49.9456 43.399 49.2545 43.9309ZM53.334 36.3706C53.1795 36.3317 53.0123 36.2332 52.8726 36.2631C51.5369 36.5496 50.5376 37.4145 50.6105 38.9369C50.6785 40.359 52.0914 41.4556 53.348 41.2267C54.6092 40.997 55.4302 39.9838 55.4924 38.8443C55.5574 37.6538 54.6992 36.6554 53.334 36.3706Z" fill="white"/>
<path d="M11.5934 12.5001C13.6506 12.7835 15.0075 13.8442 15.5059 15.8308C15.8517 17.2092 15.657 18.5325 14.767 19.7009C16.4436 20.2139 17.8265 22.0086 17.8704 23.8132C17.8957 24.8536 17.8764 25.8952 17.8746 26.9363C17.8727 28.0385 17.2929 28.625 16.2083 28.6251C12.9185 28.6252 9.62879 28.6252 6.33904 28.6251C5.23808 28.6251 4.58263 28.1816 4.53096 27.0997C4.46625 25.7446 4.47434 24.3553 4.7059 23.0252C4.95805 21.5768 5.85158 20.4687 7.26654 19.8718C7.39205 19.8188 7.50631 19.7392 7.64226 19.6628C6.64499 18.2099 6.41911 16.6498 7.1632 15.0676C8.01638 13.2534 9.53475 12.4307 11.5934 12.5001ZM13.743 23.0028C14.6912 23.0009 15 23.3006 15 24.2231C15.0001 25.0094 15 25.7957 15 26.6002C15.3107 26.6002 15.5693 26.6002 15.875 26.6002C15.875 25.7894 15.8366 25.0003 15.8834 24.2163C15.9682 22.7979 14.7253 21.4539 13.1381 21.3859C11.8907 21.3324 10.637 21.3307 9.38981 21.3871C8.03289 21.4485 6.84434 22.1724 6.63746 23.6945C6.50829 24.6448 6.50555 25.6124 6.4443 26.6009C6.80699 26.6009 7.06559 26.6009 7.37505 26.6009C7.37505 25.7525 7.36105 24.9241 7.37927 24.0964C7.39522 23.3715 7.7704 22.9879 8.40062 23.0001C9.02648 23.0123 9.37472 23.4161 9.37496 24.1309C9.37524 24.9553 9.37503 25.7797 9.37503 26.5868C10.6271 26.5868 11.8028 26.5868 13 26.5868C13 25.7592 12.9971 24.9697 13.0011 24.1803C13.0036 23.6822 13.1854 23.2796 13.743 23.0028ZM11.5236 19.3751C12.625 19.2315 13.3277 18.5651 13.5849 17.5449C13.8374 16.5434 13.5311 15.618 12.6609 14.9913C11.8909 14.4368 11.0461 14.311 10.1494 14.7407C9.08429 15.2511 8.69326 16.4047 8.75766 17.1071C8.86711 18.3008 9.90377 19.5494 11.5236 19.3751Z" fill="white"/>
<path d="M51.0003 28.6262C49.9386 28.6262 48.9394 28.6273 47.9402 28.6259C47.0129 28.6246 46.3881 28.0196 46.3782 27.0859C46.3661 25.9411 46.3144 24.7921 46.3895 23.6521C46.5043 21.9089 47.8036 20.2281 49.4976 19.7054C48.5868 18.6366 48.4921 17.3534 48.6489 16.0728C48.7842 14.9676 49.4395 14.0725 50.3103 13.3941C51.8683 12.1805 54.3254 12.0473 56.0962 13.6788C57.6824 15.1401 58.0451 17.5696 56.5952 19.6935C57.8808 20.1557 58.8221 21.0117 59.3113 22.2725C59.548 22.8824 59.7043 23.5567 59.7287 24.2082C59.7678 25.2547 59.7005 26.3091 59.6149 27.3551C59.5484 28.1679 58.966 28.6243 58.1197 28.6253C55.7674 28.6279 53.4151 28.6262 51.0003 28.6262ZM56.8813 26.526C57.1501 26.5703 57.419 26.6146 57.7503 26.6693C57.7503 25.8415 57.7932 25.0945 57.7419 24.3539C57.6141 22.5078 56.6002 21.455 54.7475 21.3845C53.5832 21.3401 52.4158 21.3748 51.2498 21.3766C49.9905 21.3785 48.6416 22.2967 48.5045 23.4295C48.3772 24.481 48.3823 25.5485 48.3302 26.5864C48.712 26.5864 48.9708 26.5864 49.2503 26.5864C49.2503 25.6742 49.2398 24.8015 49.2587 23.9293C49.2628 23.7432 49.3305 23.5254 49.4439 23.3813C49.7397 23.0053 50.2186 22.8218 50.5866 23.0715C50.9008 23.2847 51.1769 23.7454 51.2212 24.1256C51.3162 24.9393 51.2503 25.7717 51.2503 26.5922C52.4943 26.5922 53.6695 26.5922 54.8753 26.5922C54.8753 25.6873 54.8936 24.8155 54.8688 23.9449C54.8525 23.369 55.2179 23.1093 55.6651 23.0209C56.1433 22.9264 56.6781 23.0285 56.7416 23.6357C56.8375 24.5541 56.8359 25.4827 56.8813 26.526ZM55.5003 17.0479C55.4513 16.2515 55.2211 15.5255 54.562 15.027C53.664 14.3476 52.6921 14.2957 51.7377 14.8851C50.8256 15.4483 50.5095 16.3137 50.6221 17.3674C50.7756 18.805 52.632 19.8462 53.937 19.2357C54.8389 18.8137 55.3357 18.1173 55.5003 17.0479Z" fill="white"/>
<path d="M38.7484 10.816C38.7495 12.1638 38.7516 13.455 38.7488 14.7461C38.7472 15.504 38.0523 16.2436 37.2815 16.2463C33.8454 16.2584 30.4092 16.2584 26.973 16.2464C26.1768 16.2437 25.5009 15.4983 25.4999 14.6891C25.4986 13.7103 25.5153 12.7312 25.4963 11.7528C25.4573 9.75351 26.4007 8.36409 28.1218 7.4419C28.2445 7.37615 28.3602 7.29734 28.3922 7.27782C28.1316 6.46124 27.8506 5.69753 27.6469 4.91373C27.3625 3.82003 28.3656 1.56028 29.3553 1.0111C29.8129 0.757198 30.2642 0.805086 30.6331 1.20342C30.9875 1.5861 30.9398 2.14574 30.6073 2.59533C30.2895 3.02491 29.9145 3.46612 29.7733 3.96167C29.4153 5.21776 30.1497 6.44871 31.3988 6.87511C32.3945 7.21503 33.6068 6.76533 34.2226 5.82755C34.7947 4.95638 34.6726 3.68247 33.9356 2.87452C33.7955 2.72101 33.6324 2.5879 33.4984 2.42972C33.1499 2.01831 33.1073 1.52183 33.4487 1.14973C33.7498 0.821613 34.1927 0.580811 34.698 0.900123C35.721 1.54662 36.274 2.50303 36.4935 3.65786C36.7295 4.89906 36.7021 5.27302 35.7568 7.29362C37.2341 7.85881 38.1659 8.92353 38.6246 10.4227C38.6595 10.5368 38.7062 10.6473 38.7484 10.816ZM36.6418 10.9578C36.3468 9.76125 35.2888 9.04507 34.1687 9.01107C32.8386 8.97069 31.5062 8.99227 30.1749 9.00437C29.0081 9.01497 27.8567 9.72923 27.6518 10.8696C27.4545 11.967 27.5058 13.1091 27.4463 14.2626C27.7917 14.2458 28.0089 14.2353 28.1874 14.2266C28.2495 13.2544 28.2544 12.3263 28.3838 11.4159C28.4894 10.6729 28.8003 10.5114 29.543 10.6298C30.125 10.7227 30.2652 11.1249 30.2543 11.6549C30.2367 12.5178 30.2496 13.3814 30.2496 14.2082C31.5558 14.2082 32.7724 14.2082 33.9996 14.2082C33.9996 13.2711 33.9536 12.3736 34.0257 11.4856C34.0494 11.1934 34.3219 10.7828 34.581 10.6805C34.9801 10.5231 35.5246 10.4891 35.7806 10.9935C35.9287 11.2855 35.9769 11.6494 35.9903 11.9841C36.0201 12.7265 35.9996 13.471 35.9996 14.2251C36.2722 14.2251 36.4892 14.2251 36.7206 14.2251C36.7206 13.1435 36.7206 12.088 36.6418 10.9578Z" fill="white"/>
</g>
<defs>
<clipPath id="clip0_1029_1352">
<rect width="64" height="64" fill="white"/>
</clipPath>
</defs>
</svg>
