<svg width="64" height="64" viewBox="0 0 64 64" fill="none" xmlns="http://www.w3.org/2000/svg">
<g clip-path="url(#clip0_1025_1046)">
<path d="M0.125 32.9328C1.34363 32.4997 2.56031 32.1186 3.7824 31.7557C4.05039 31.6761 4.20599 31.6078 4.27207 31.268C4.42469 30.4829 4.69741 29.722 4.87978 28.9415C4.92323 28.7556 4.87044 28.4698 4.74703 28.3355C4.16983 27.7076 3.55122 27.1178 2.94976 26.5121C2.28567 25.8433 2.18139 25.5005 2.62992 24.6777C3.48512 23.1088 4.38346 21.5624 5.30522 20.0315C5.56873 19.5939 6.02277 19.4454 6.56659 19.5949C7.47702 19.8451 8.39655 20.0659 9.3202 20.2615C9.50685 20.3011 9.78714 20.2379 9.92435 20.1126C10.5079 19.5799 11.0795 19.0285 11.5984 18.434C11.7623 18.2461 11.8457 17.884 11.7971 17.6345C11.6672 16.9672 11.4404 16.319 11.2621 15.6606C11.023 14.7783 10.9985 13.9884 11.9658 13.4577C13.4805 12.6266 14.9535 11.7195 16.4714 10.8947C17.0017 10.6066 17.52 10.8375 17.937 11.252C18.5277 11.8391 19.1298 12.4156 19.7013 13.0208C19.9848 13.3209 20.2269 13.4318 20.6575 13.2677C21.2725 13.0333 21.9331 12.9201 22.5718 12.7461C22.9211 12.6509 23.1863 12.5354 23.2783 12.0764C23.4549 11.1954 23.7649 10.3418 23.9958 9.4706C24.1479 8.89684 24.4843 8.61408 25.0847 8.62123C26.0217 8.63237 26.959 8.62171 27.8961 8.62506C28.4957 8.62721 28.9511 9.05337 28.9982 9.65363C29.0096 9.79852 29 9.94506 29 10.0908C29 18.6086 29 27.1264 29 35.6442C29 35.8687 29 36.0932 29 36.3742C29.2636 36.3742 29.4861 36.3742 29.7086 36.3742C37.9349 36.3742 46.1611 36.3741 54.3874 36.3743C55.3158 36.3744 55.6244 36.6886 55.6249 37.6314C55.6252 38.1312 55.6113 38.6315 55.6285 39.1307C55.6492 39.7272 55.386 40.0956 54.8115 40.2492C53.8822 40.4978 52.9623 40.7938 52.0206 40.9792C51.5836 41.0652 51.4668 41.3164 51.3816 41.6446C51.2 42.3438 51.0204 43.0449 50.8848 43.7537C50.8447 43.9638 50.879 44.268 51.0083 44.4169C51.6444 45.1492 52.3195 45.8481 52.9903 46.5497C53.3091 46.8831 53.4117 47.2558 53.2486 47.686C52.5444 49.5425 51.4975 51.2119 50.3378 52.8041C50.1383 53.0781 49.5678 53.266 49.2148 53.2087C48.2493 53.0521 47.3106 52.7341 46.3554 52.5042C46.2027 52.4675 45.9648 52.4968 45.8602 52.5953C45.224 53.1948 44.5966 53.8064 44.0108 54.4543C43.877 54.6022 43.8465 54.9236 43.8918 55.1392C44.0692 55.9828 44.2377 56.8366 44.522 57.6471C44.7745 58.3669 44.5642 58.8259 43.936 59.2083C42.3957 60.1461 40.8028 60.9977 39.227 61.8765C38.7501 62.1425 38.3378 62.0111 37.9578 61.6455C37.2431 60.9581 36.5217 60.2772 35.7843 59.6145C35.6722 59.5137 35.4441 59.4612 35.2951 59.4958C34.4753 59.6865 33.6592 59.8972 32.8526 60.1374C32.7089 60.1802 32.5604 60.3755 32.5089 60.5317C32.1643 61.5769 31.8487 62.6315 31.5141 63.68C31.4722 63.8115 31.3741 63.925 31.3385 64.0855C29.0807 64.1242 26.7864 64.1242 24.4698 64.0861C24.2998 63.8293 24.0876 63.6299 24.0158 63.3887C23.736 62.4481 23.517 61.4893 23.2338 60.5498C23.1818 60.3773 22.9588 60.1942 22.776 60.1343C22.0536 59.8973 21.3025 59.7438 20.589 59.485C20.2159 59.3496 19.9978 59.4127 19.7414 59.6827C19.14 60.316 18.5121 60.9242 17.8948 61.5425C17.4922 61.9458 17.0237 62.1772 16.4835 61.8699C14.8463 60.9387 13.2198 59.9881 11.5985 59.0293C11.073 58.7185 11.029 58.2034 11.1619 57.6718C11.3807 56.7969 11.6491 55.9337 11.8411 55.0534C11.8877 54.8397 11.7862 54.5175 11.6358 54.3507C11.0902 53.7456 10.5038 53.1759 9.91005 52.617C9.80136 52.5146 9.57255 52.4613 9.42293 52.494C8.54082 52.6868 7.66677 52.9161 6.788 53.1246C5.87377 53.3415 5.60797 53.2637 5.12846 52.4546C4.26912 51.0047 3.43955 49.5366 2.62493 48.0609C2.21033 47.3099 2.28455 46.9246 2.8713 46.322C3.42277 45.7557 3.96866 45.1816 4.55209 44.6495C4.90673 44.326 5.0062 44.0584 4.80605 43.5727C4.57211 43.0049 4.5118 42.366 4.37133 41.7591C4.28049 41.3666 4.13895 41.1001 3.65576 40.9755C2.46343 40.6682 1.30003 40.2486 0.125 39.8742C0.125 37.5799 0.125 35.2856 0.125 32.9328ZM27.9339 52.3742C35.6419 52.1983 42.4848 46.6054 43.565 38.6242C43.3548 38.6242 43.1481 38.6242 42.9415 38.6242C38.0067 38.6242 33.0719 38.6253 28.1372 38.6232C27.1721 38.6228 26.7502 38.2021 26.7501 37.2568C26.7499 31.9056 26.75 26.5544 26.75 21.2032C26.75 20.9793 26.75 20.7554 26.75 20.4788C23.2786 20.7811 20.2233 21.9821 17.6311 24.2018C13.9886 27.3207 11.951 31.3387 11.91 36.1273C11.8349 44.9121 18.6162 52.1164 27.9339 52.3742ZM19.4616 56.9988C19.708 56.9962 19.9676 56.9416 20.1986 56.9999C21.3268 57.2842 22.4432 57.6155 23.5721 57.8965C24.2855 58.0741 25.0106 58.1872 25.2297 59.0622C25.4344 59.8801 25.6425 60.6982 25.8898 61.5036C25.9369 61.657 26.1709 61.8531 26.324 61.8578C27.3437 61.8893 28.3653 61.8894 29.3851 61.8588C29.5499 61.8538 29.8066 61.6758 29.8533 61.5257C30.0615 60.8555 30.1909 60.1612 30.3837 59.4856C30.576 58.8115 30.787 58.1752 31.635 57.9884C32.9272 57.7036 34.21 57.3643 35.4769 56.9818C36.003 56.823 36.3701 56.9492 36.7309 57.2891C37.5102 58.023 38.2908 58.7555 39.0609 59.4792C39.9373 58.9762 40.7912 58.4884 41.6427 57.9965C42.0147 57.7817 42.2375 57.5783 42.0379 57.0416C41.7384 56.2367 41.5768 55.3775 41.3927 54.5336C41.2811 54.0217 41.4366 53.5892 41.8405 53.2065C42.7357 52.3585 43.6132 51.4894 44.4564 50.5899C44.9573 50.0557 45.4064 49.8759 46.1517 50.0775C46.9455 50.2923 47.7353 50.5282 48.5395 50.6936C48.7419 50.7352 49.0981 50.6103 49.2029 50.4463C49.7106 49.6521 50.1739 48.8274 50.6097 47.991C50.6915 47.834 50.6547 47.5068 50.5393 47.3735C49.9455 46.6869 49.3097 46.0365 48.6856 45.3764C48.3118 44.9811 48.1767 44.5756 48.3556 44.0057C48.7038 42.8963 48.9982 41.766 49.2397 40.6284C49.4135 39.8101 49.7308 39.1907 50.6123 39.0005C51.0175 38.9131 51.4186 38.8063 51.8215 38.7083C51.8177 38.6879 51.814 38.6675 51.8103 38.6471C49.8467 38.6471 47.8831 38.6471 45.9221 38.6471C44.5066 48.5517 35.9634 55.5422 25.8013 54.4723C21.0252 53.9695 17.025 51.7906 13.9076 48.0907C11.2088 44.8876 9.79194 41.1439 9.65434 36.9978C9.49963 32.336 10.9407 28.1189 14.0129 24.5807C17.3513 20.7359 21.6235 18.6159 26.7221 18.2348C26.7221 15.7584 26.7221 13.3292 26.7221 10.902C26.0019 10.8587 26.004 10.8594 25.8278 11.4748C25.607 12.2456 25.3461 13.0071 25.1704 13.7879C25.0254 14.4324 24.6059 14.6223 24.0327 14.7609C22.8849 15.0383 21.7432 15.3514 20.618 15.7095C19.8644 15.9494 19.2796 15.9121 18.7449 15.3215C18.2005 14.7202 17.6178 14.1506 17.0176 13.6048C16.8874 13.4864 16.5623 13.4337 16.4102 13.5122C15.4315 14.0169 14.476 14.5666 13.5401 15.0864C13.7901 16.1567 13.9611 17.1696 14.2746 18.1362C14.4968 18.8215 14.1918 19.2309 13.7868 19.6445C12.9529 20.4961 12.0932 21.3225 11.2657 22.1801C10.9046 22.5543 10.5318 22.8618 9.98151 22.7452C9.05769 22.5494 8.12163 22.3826 7.22679 22.0924C6.84521 21.9687 6.66519 22.0688 6.51515 22.3196C5.9513 23.2621 5.41279 24.2197 4.8498 25.1977C5.55096 25.8873 6.22849 26.5342 6.88282 27.2039C7.31627 27.6475 7.59045 28.1258 7.3691 28.8156C7.03238 29.8647 6.77228 30.9392 6.50005 32.0081C6.31 32.7543 6.18991 33.528 5.26039 33.7485C4.42035 33.9477 3.58008 34.15 2.75223 34.3929C2.59674 34.4386 2.39646 34.6788 2.39167 34.8346C2.35966 35.8751 2.36239 36.9175 2.39002 37.9583C2.39377 38.0996 2.5748 38.3184 2.71561 38.3602C3.52343 38.5998 4.34692 38.7859 5.15905 39.0119C5.76955 39.1818 6.23207 39.4842 6.3857 40.1883C6.65509 41.4229 6.94514 42.6583 7.32783 43.8611C7.54282 44.5368 7.40786 45.0296 6.94689 45.4904C6.25654 46.1805 5.55793 46.8624 4.85965 47.5508C5.38187 48.4887 5.87401 49.3862 6.38056 50.2756C6.5915 50.6459 6.80222 50.873 7.34136 50.6564C8.07988 50.3598 8.88272 50.2141 9.66649 50.0425C10.1767 49.9308 10.6629 49.9487 11.0815 50.3851C12.021 51.3647 13.0087 52.2982 13.9473 53.2786C14.2517 53.5967 14.4689 53.9802 14.3277 54.4899C14.0403 55.5267 13.796 56.5756 13.5269 57.6477C14.5873 58.2734 15.6241 58.8852 16.7261 59.5354C16.9975 59.2388 17.2473 58.9296 17.534 58.6598C18.1331 58.0961 18.7517 57.5531 19.4616 56.9988Z" fill="#FAA111"/>
<path d="M64.1251 29.5645C63.3218 30.2129 62.3951 29.9896 61.5148 29.9909C53.1878 30.003 44.8607 29.9833 36.5339 30.0197C35.6472 30.0236 35.2445 29.4495 35.2451 28.7128C35.2527 19.6156 35.2443 10.5183 35.2691 1.42107C35.2702 1.01445 35.5487 0.608587 35.6616 0.162734C37.0027 0.123099 38.3803 0.123099 39.7802 0.161195C39.9503 0.418118 40.1627 0.617743 40.2345 0.859167C40.5143 1.80051 40.7331 2.76009 41.0165 3.70023C41.0683 3.87222 41.294 4.05537 41.4773 4.11309C42.2417 4.35383 43.0166 4.56581 43.7971 4.74786C43.9849 4.79166 44.2739 4.75051 44.4053 4.62868C45.1068 3.97809 45.7648 3.28084 46.4552 2.61781C46.7913 2.2951 47.2044 2.0938 47.6609 2.34704C49.2901 3.25086 50.9168 4.15989 52.5262 5.0984C53.1105 5.43916 53.2552 5.94549 53.0787 6.60459C52.8452 7.47613 52.5912 8.34317 52.3959 9.2232C52.3518 9.42189 52.4494 9.72443 52.591 9.87921C53.1556 10.4962 53.7561 11.0814 54.3626 11.658C54.459 11.7496 54.6671 11.7931 54.8024 11.7631C55.7047 11.5632 56.6016 11.3384 57.4997 11.1195C58.3422 10.9142 58.6711 11.0151 59.1204 11.7693C59.9739 13.2021 60.8081 14.6471 61.6163 16.1058C62.0621 16.9104 61.9635 17.3436 61.3069 18.0049C60.7055 18.6105 60.0893 19.2023 59.5075 19.8261C59.3963 19.9452 59.3504 20.1978 59.384 20.3671C59.5286 21.0944 59.7108 21.8144 59.8859 22.5355C59.9767 22.9091 60.1361 23.1503 60.5821 23.2688C61.7766 23.586 62.9458 23.9985 64.1251 24.3731C64.1251 26.084 64.1251 27.795 64.1251 29.5645ZM37.5001 27.2916C37.3944 27.7862 37.7141 27.7517 38.0445 27.7514C42.6455 27.7465 47.2465 27.7481 51.8475 27.7481C52.0103 27.7481 52.1732 27.7481 52.3362 27.7481C52.2354 18.6065 44.5298 12.1212 37.5001 12.0648C37.5001 17.1001 37.5001 22.1352 37.5001 27.2916ZM50.0759 6.24379C49.2416 5.73735 48.4073 5.23091 47.5812 4.72944C46.8458 5.46596 46.1744 6.14835 45.4913 6.8188C45.0879 7.21475 44.6497 7.43506 44.0351 7.25886C42.705 6.87759 41.3575 6.55773 40.0189 6.20584C39.4573 6.05822 39.1506 5.65892 39.0029 5.11876C38.8075 4.40344 38.5499 3.69731 38.4392 2.96896C38.3456 2.35367 38.0326 2.30408 37.5376 2.40446C37.5376 4.84506 37.5376 7.28895 37.5376 9.72347C42.3318 10.0448 46.39 11.9454 49.6477 15.3726C52.9039 18.7983 54.5044 22.9849 54.6135 27.7188C57.0678 27.7188 59.4515 27.7188 61.8751 27.7188C61.8751 27.2572 61.8648 26.8241 61.8785 26.3916C61.8883 26.083 61.8218 25.9239 61.4599 25.8503C60.6953 25.6948 59.9504 25.4447 59.193 25.2502C58.5554 25.0865 58.0402 24.8244 57.871 24.1016C57.5784 22.8516 57.2978 21.5948 56.913 20.372C56.6987 19.6909 56.8525 19.203 57.3148 18.7457C58.005 18.063 58.7022 17.3874 59.4139 16.6918C58.8218 15.6761 58.2793 14.7145 57.6957 13.7784C57.61 13.6409 57.3082 13.5314 57.1421 13.5686C56.261 13.7657 55.3985 14.0497 54.5145 14.2294C54.0625 14.3214 53.5903 14.3012 53.2033 13.8991C52.2449 12.9032 51.2397 11.9521 50.2873 10.9507C49.9876 10.6355 49.7826 10.2523 49.931 9.73678C50.2275 8.70634 50.4574 7.65675 50.7089 6.63917C50.4982 6.4881 50.3335 6.37004 50.0759 6.24379Z" fill="#FAA111"/>
<path d="M23.0167 36.3743C23.6148 36.3743 24.1523 36.3743 24.7197 36.3743C24.7197 37.1288 24.7197 37.8461 24.7197 38.594C23.9951 38.594 23.2778 38.594 22.5005 38.594C22.5005 37.9477 22.5167 37.3081 22.4947 36.6699C22.4807 36.266 22.7551 36.3968 23.0167 36.3743Z" fill="#FAA111"/>
<path d="M27.0244 40.6252C27.7049 40.625 28.3251 40.625 28.9722 40.625C28.9722 41.3854 28.9722 42.1026 28.9722 42.8475C28.2388 42.8475 27.5216 42.8475 26.7505 42.8475C26.7505 42.1709 26.7435 41.5102 26.7599 40.85C26.7618 40.7735 26.8929 40.7002 27.0244 40.6252Z" fill="#FAA111"/>
<path d="M39.6529 25.7471C39.5471 25.0276 39.5017 24.3115 39.4531 23.5469C40.222 23.5469 40.9401 23.5469 41.7041 23.5469C41.7041 24.2237 41.7041 24.942 41.7041 25.7504C41.0675 25.7504 40.3904 25.7504 39.6529 25.7471Z" fill="#FAA111"/>
</g>
<defs>
<clipPath id="clip0_1025_1046">
<rect width="64" height="64" fill="white"/>
</clipPath>
</defs>
</svg>
